<svg width="391" height="438" fill="none" xmlns="http://www.w3.org/2000/svg"><g clip-path="url(#a)" fill="#F8D948"><path d="M154.016 173c2.137.345 6.408.991 10.663 1.752 1.958.351 3.815 1.061 5.888.911 1.086-.08 2.403.526 3.354 1.222 7.54 5.602 14.574 11.744 18.459 21.045 3.074 7.454 4.501 15.114 3.299 23.159a31.066 31.066 0 0 1-3.279 10.037c-7.8 14.813-19.495 23.053-35.12 24.925-7.044.811-14.108.951-21.187-1.777-12.546-4.746-21.978-13.011-26.88-26.067-.746-1.967-1.211-4.045-1.612-6.082-.575-2.914-1.126-5.847-1.396-8.771-.206-2.248-.746-4.706 1.562-6.307.575-.401.615-1.552.861-2.373C114 186.471 132.203 173.075 154.016 173Zm-10.093 4.621c-.766.105-1.262.085-1.687.245-3.42 1.297-6.844 2.573-10.218 3.935-3.75 1.507-5.903 4.7-7.991 7.864-.625.946-.976 2.133-1.241 3.264-.716 3.084.19 5.472 2.934 7.334 1.587 1.082 3.349 1.923 5.091 2.729 3.945 1.847 6.914 4.72 8.741 8.735a37.621 37.621 0 0 1 2.058 5.802c1.802 6.789 3.85 8.315 10.383 7.815 3.48-.27 6.989-.506 10.499-.371 8.035.311 14.533 6.468 16.105 15.014.2 1.106.24 2.212-.941 2.563-1.157.34-1.807-.506-2.243-1.592-.791-1.968-1.542-3.95-2.393-5.887-1.081-2.443-2.859-3.985-5.187-5.102-3.449-1.647-6.913-1.521-10.408-1.386-2.814.11-5.612.43-8.431.385-4.46-.07-7.97-2.763-9.657-7.179a19.516 19.516 0 0 1-.861-2.958c-1.357-6.348-4.571-11.029-10.779-13.557-5.192-2.087-8.681-5.697-8.571-11.689 0-.055-.12-.12-.37-.355-.476.535-1.007 1.026-1.422 1.607-3.68 5.171-5.878 10.953-6.639 17.336-.55 4.63.336 6.332 4.596 8.765 1.232.706 2.533 1.292 3.835 1.818 1.772.716 3.575 1.346 5.377 1.972 3.464 1.212 6.218 3.359 8.195 6.618.907 1.507 1.908 2.964 2.869 4.446 1.592 2.463 3.73 3.714 6.493 3.934 2.714.216 5.437.611 8.151 1.037 3.655.58 5.927 3.294 7.87 6.402.561.902.516 1.868-.3 2.453-.837.596-1.648.191-2.313-.635-.461-.571-.897-1.162-1.342-1.747-1.327-1.753-2.929-2.894-5.037-3.104-2.323-.236-4.651-.656-6.968-.841-3.89-.311-6.974-2.133-9.252-5.627-1.082-1.647-2.173-3.289-3.219-4.956-1.207-1.908-2.779-3.399-4.802-4.19-4.57-1.772-9.251-3.204-13.697-6.418.135.946.165 1.427.28 1.892 2.754 11.129 9.808 18.893 19.67 24.385 7.45 4.23 15.165 5.026 23.02 4.36 13.913-1.221 25.312-7.118 33.057-19.804 4.221-6.928 4.221-5.311.386-13.632-.045-.095-.095-.19-.141-.285-.811-1.752-2.097-3.064-3.829-3.349-2.414-.395-4.867-.501-7.3-.556-2.057-.05-4.105.226-6.163.201-3.394-.04-5.952-1.888-7.419-5.057-.856-1.837-1.302-3.964-1.502-5.982-.776-7.905-3.464-10.327-8.576-11.659-2.749-.711-5.257-2.123-7.264-4.315-2.188-2.373-3.074-5.052-2.103-8.165.22-.721.385-1.467.656-2.513Zm3.76-.681c-.326 1.146-.511 2.027-.816 2.863-1.287 3.47-.736 5.567 2.493 7.514 1.887 1.147 4.02 1.933 6.118 2.589 3.649 1.146 6.223 3.494 7.549 7.133a28.792 28.792 0 0 1 1.552 6.658c.716 6.649 2.338 8.255 8.536 7.96 2.548-.125 5.097-.505 7.645-.355 4.401.265 8.075 2.122 10.088 6.823.25.586.716 1.066 1.392 2.043.175-1.392.335-2.198.375-3.014.275-6.068-.976-11.84-3.259-17.446-3.59-8.716-10.208-14.388-17.187-19.694a6.234 6.234 0 0 0-2.478-1.117 249.918 249.918 0 0 0-10.338-1.817c-3.875-.581-7.765-1.131-11.67-.14ZM69.576 327.442c5.056.005 8.471-2.885 11.09-6.962 2.186-3.408 3.044-7.271 3.555-11.221.84-6.472.542-12.964.275-19.459-.214-5.251-.243-10.509-.34-15.759-.008-.413-.02-.87.15-1.217.189-.38.601-.911.9-.905.43.016.979.365 1.229.74.274.411.332 1.004.368 1.529.13 1.946.309 3.89.291 5.833-.082 8.223.196 16.426 1.619 24.541.783 4.465 2.34 8.644 5.103 12.321 2.073 2.754 4.709 4.545 8.08 5.37 2.842.694 5.7.913 8.607.779.647-.03 1.319-.102 1.939.032.378.083.826.469.968.826.093.236-.227.873-.489.963-.634.22-.738.544-.757 1.166-.02.824-.521 1.119-1.426 1.138-3.102.061-5.882 1.038-8.167 3.242-2.616 2.525-4.515 5.496-5.194 9.087-.796 4.23-1.544 8.479-2.053 12.751-.613 5.156-.951 10.34-1.411 15.513-.027.291.025.652-.128.857-.217.302-.578.666-.894.682-.316.017-.785-.292-.95-.585-.216-.388-.22-.907-.284-1.373-.735-5.267-1.367-10.551-2.23-15.793-.525-3.195-1.28-6.368-2.15-9.493-1.543-5.536-5.326-8.747-10.904-9.916-2.95-.622-5.897-1.223-8.947-.972a6.657 6.657 0 0 1-1.939-.113c-.336-.072-.747-.403-.874-.715-.225-.559 1.204-2.493 1.834-2.581.526-.071 1.059-.082 1.587-.133.489-.046.956-.106 1.542-.173Zm3.387 1.659.034.293c1.273.241 2.55.472 3.819.728 5.97 1.209 10.145 4.532 12.185 10.363 1.409 4.035 2.19 8.213 2.807 12.425.166 1.13.268 2.272.4 3.411l.458-.007c.1-.788.186-1.574.307-2.359.762-4.956 1.255-9.977 2.37-14.848 1.542-6.715 5.337-11.724 12.085-13.729-2.024-.381-4.233-.74-6.411-1.224-3.419-.759-6.14-2.636-8.343-5.335-2.237-2.74-3.779-5.832-4.847-9.186-.293-.923-.582-1.852-.87-2.782-.398.747-.495 1.474-.583 2.199-.556 4.429-1.52 8.733-3.939 12.571-1.831 2.903-4.195 5.252-7.36 6.697-.684.311-1.41.526-2.112.783ZM275.534 19.576c-1.873-.425-3.73-.916-5.578-1.431-1.597-.501-3.089-1.367-4.195-2.614-1.126-1.216-1.847-2.748-2.203-4.3-.345-1.597-.24-3.109.175-4.716.351-1.662.676-3.329.967-5a1.24 1.24 0 0 0-.846-1.397 1.238 1.238 0 0 0-1.562.806l-.02.07c-.651 2.027-1.272 4.27-1.898 6.142-.651 1.777-1.882 3.3-3.439 4.385a9.026 9.026 0 0 1-5.422 1.527l-6.403-.696-.065-.005a.976.976 0 0 0-.346 1.918c2.088.53 4.306.961 6.308 1.502 1.938.61 3.73 1.872 4.876 3.62 1.177 1.726 1.743 3.869 1.537 5.946-.285 2.088-.801 4.266-1.211 6.388a.744.744 0 0 0 1.432.386l.025-.075 2.112-6.103a10.252 10.252 0 0 1 3.59-4.465c1.607-1.087 3.535-1.752 5.567-1.788 2.073.07 4.321.296 6.478.436l.035.005c.136.01.256-.08.286-.215a.26.26 0 0 0-.2-.326Zm-70.957 326.766a10.223 10.223 0 0 1 1.552-5.517c1.051-1.627 2.563-2.999 4.415-3.83 1.938-.751 4.09-1.421 6.128-2.137l.035-.01a.279.279 0 0 0 .18-.311.27.27 0 0 0-.32-.22c-1.887.345-3.79.621-5.692.871-1.662.165-3.38-.045-4.882-.756-1.511-.676-2.778-1.802-3.709-3.089-.947-1.331-1.442-2.763-1.687-4.405a152.021 152.021 0 0 0-1.072-4.981 1.243 1.243 0 0 0-2.448.405l.005.076c.2 2.122.506 4.425.666 6.392.1 1.888-.436 3.775-1.442 5.387a9.03 9.03 0 0 1-4.391 3.529l-6.162 1.877-.06.021a.975.975 0 0 0 .435 1.897c2.128-.336 4.336-.806 6.393-1.097 2.023-.2 4.166.261 5.908 1.417a9.084 9.084 0 0 1 3.75 4.866m34.05-288.448c1.347.055 2.153-.436 2.563-1.392.481-1.121.376-2.053-.551-2.828a21.245 21.245 0 0 0-2.918-2.028c-.911-.53-2.323-.13-3.099.731-.726.811-.841 1.782-.211 2.758 1.057 1.612 2.639 2.413 4.216 2.759Zm43.49 358.859c.997.045 1.803-.215 2.333-.781 1.607-1.727.962-3.624-.62-4.586-1.402-.851-3.75-.11-4.681 1.227-.576.826-.596 1.597.025 2.398.791 1.036 1.872 1.612 2.943 1.742Zm-151.198-9.101c-1.146-1.206-2.373-1.371-3.705-.64-1.176.651-1.797 2.077-1.437 3.319.566 1.947 2.804 3.154 4.721 2.548.917-.291 1.447-.936 1.502-1.902.081-1.317-.22-2.524-1.081-3.325Zm216.236-219.888c.806-1.082.856-2.023.305-2.904-.651-1.031-1.482-1.472-2.643-1.146a20.81 20.81 0 0 0-3.324 1.261c-.952.451-1.422 1.837-1.147 2.969.255 1.056.991 1.702 2.158 1.732 1.922.045 3.474-.806 4.651-1.912Z"/></g><defs><clipPath id="a"><path fill="#fff" d="M0 0h391v438H0z"/></clipPath></defs></svg>