<svg width="426" height="636" fill="none" xmlns="http://www.w3.org/2000/svg"><path d="M253.234 319.935c10.628 0 21.059 1.135 31.231 4.369 25.407 8.079 44.527 24.16 58.976 46.209 5.261 8.021 9.291 16.601 11.383 26.005 2.357 10.584 2.598 21.275.779 31.922-5.171 30.318-20.457 54.484-44.901 72.963-12.333 9.321-25.977 15.815-41.181 18.865-9.842 1.979-19.747 2.22-29.729 1.249-17.13-1.661-33.101-6.956-48.019-15.415-14.133-8.016-25.92-18.618-34.609-32.48-6.642-10.59-10.355-22.163-11.547-34.579-1.724-18.016.488-35.499 7.497-52.221 10.514-25.073 28.284-43.33 52.658-55.2 7.567-3.685 15.369-6.722 23.722-8.187 4.233-.742 8.397-1.921 12.643-2.568 3.657-.558 7.389-.641 11.097-.932Zm-36.485 11.756c-3.898 1.801-7.814 3.418-11.56 5.365-22.732 11.82-39.134 29.493-48.583 53.387-5.982 15.124-7.915 30.889-6.521 47.078 1.046 12.131 4.544 23.456 11.046 33.792 7.719 12.264 18.056 21.865 30.388 29.304 14.71 8.877 30.617 14.382 47.728 16.227 10.489 1.129 20.926.831 31.256-1.49 15.16-3.406 28.608-10.299 40.579-20.096 24.647-20.171 39.033-45.816 40.909-77.934.691-11.846-1.382-23.285-6.636-34.002-6.831-13.957-16.331-25.815-28.22-35.828-20.825-17.54-44.825-24.731-71.817-22.404-.424.038-.843.203-1.223.298-.494 2.828-1.071 3.215-3.733 2.562-.145-.038-.278-.102-.424-.133-2.947-.622-5.951-.97-8.797.139-2.617 1.015-5.095 2.397-7.598 3.685-1.052.539-1.984 1.312-3.023 1.883-1.331.729-2.149.514-3.074-.691-.209-.292-.374-.615-.697-1.142Z" fill="#F8D948"/><path d="M253.196 490.648c-2.941.108-6.053-.444-9.038-1.744-3.999-1.743-6.806-4.692-8.714-8.56-1.115-2.27-1.166-4.623-.253-6.931 1.736-4.407 3.999-8.466 8.055-11.237.646-.438 1.274-.945 1.971-.285.798.761.291 1.49-.26 2.143-.241.279-.501.564-.799.774-3.156 2.162-4.721 5.466-6.255 8.782-1.084 2.34-.83 4.572.501 6.798 2.731 4.579 6.838 6.937 12.003 7.508 4.253.469 8.442-.101 12.58-1.179 3.397-.888 5.495-3.038 6.604-6.316 1.983-5.853.931-11.3-2.149-16.462-1.895-3.171-4.455-5.758-7.44-7.908-2.389-1.725-4.962-2.726-7.922-1.42-.729.323-1.477.209-1.584-.584-.07-.501.355-1.338.805-1.585 1.844-1.021 3.878-.938 5.862-.482 1.001.228 2.015.622 2.877 1.173 7.339 4.668 12.225 11.009 13.106 19.912.368 3.703-.425 7.261-2.117 10.577-1.514 2.968-4.037 4.718-7.18 5.574-3.391.913-6.838 1.459-10.653 1.452Zm-77.773-40.958c.139-4.179 1.584-7.698 4.132-10.755 2.491-2.987 5.729-2.835 8.967-1.826.393.12.596.862.888 1.312-.457.279-.9.761-1.376.799-.716.057-1.457-.209-2.186-.323-1.565-.235-3.036.07-4.062 1.294-2.789 3.322-4.361 7.095-3.499 11.503.761 3.906 3.625 5.586 7.441 4.496 2.617-.749 4.651-2.277 5.849-4.775.45-.939.849-1.896 1.211-2.873.361-.97.665-1.928.12-3.006-.171-.342.114-1.147.456-1.446.241-.215 1.008-.082 1.382.146.906.546 1.267 1.491 1.103 2.505-.881 5.371-3.606 10.508-9.722 12.061-5.286 1.345-9.696-1.642-10.508-7.058-.114-.729-.145-1.477-.196-2.054Zm7.142-75.918c-1.04.044-1.623-.704-1.28-1.503.291-.666.76-1.268 1.216-1.845 4.247-5.308 9.158-9.937 14.437-14.179 3.416-2.74 6.94-5.352 10.438-7.978.704-.532 1.496-.995 2.32-1.287.354-.127 1.09.133 1.292.444.191.304.032.977-.19 1.357-.203.349-.703.514-1.064.774-8.486 6.056-16.529 12.612-23.474 20.431-.888 1.002-1.731 2.042-2.637 3.019-.336.355-.805.589-1.058.767Zm8.01 37.503c.406-.691.621-1.275 1.02-1.668.26-.26.843-.418 1.179-.311.33.108.678.584.754.958.393 1.978-1.495 3.919-3.485 3.494-.913-.197-1.825-.659-2.586-1.217a23.55 23.55 0 0 1-7.25-8.631c-2.573-5.206.887-12.327 6.578-13.621 1.242-.279 2.637-.013 3.936.178.513.076 1.077.558 1.388 1.014.234.343.304 1.072.088 1.383-.202.298-1.033.532-1.305.355-2.89-1.846-4.962-.305-6.838 1.661-2.047 2.15-2.966 4.743-1.629 7.565a20.956 20.956 0 0 0 6.952 8.269c.292.209.653.317 1.198.571Zm18.461 47.533c.222-2.929 2.003-5.517 4.975-7.33.361-.222.862-.387 1.261-.33.374.051.881.349 1.008.672.127.317-.057.85-.273 1.18-.183.279-.646.355-.918.596-.729.628-1.528 1.205-2.105 1.953-2.344 3.031-2.034 5.599 1.052 7.819 1.369.983 2.916 1.782 4.487 2.39 1.724.666 2.491.14 2.884-1.642.158-.723.051-1.522.298-2.194.171-.45.716-.92 1.179-1.034.259-.063.919.539 1.007.932.444 1.966.216 3.9-1.121 5.467-1.243 1.452-2.928 1.591-4.703 1.09-3.017-.856-5.532-2.511-7.599-4.838-1.058-1.199-1.438-2.492-1.432-4.731Zm90.449-64.211c-.387-.228-.85-.336-.964-.602-.152-.356-.19-.907-.006-1.218.247-.425.741-.698 1.134-1.034 4.107-3.519 8.309-6.943 12.282-10.602 2.111-1.941 3.841-4.3 5.729-6.481.533-.615.989-1.3 1.521-1.909.495-.57 1.224-.805 1.75-.247.297.317.215 1.046.19 1.579-.013.26-.254.526-.438.761-1.647 2.092-3.067 4.439-5 6.221-4.575 4.217-9.386 8.174-14.12 12.207-.621.513-1.362.868-2.078 1.325Z" fill="#F8D948"/><path d="M261.713 464.719c-.304 3.894-1.603 8.123-3.936 11.985-1.609 2.664-4.746 3.729-7.307 2.746-2.319-.888-3.536-2.987-3.029-5.276.095-.419.247-.907.539-1.179.272-.248.798-.368 1.172-.305.254.045.507.482.628.793.095.253-.007.577-.013.875-.063 2.314 1.597 3.532 3.764 2.739 1.173-.431 1.959-1.293 2.51-2.397 1.432-2.872 2.472-5.878 2.941-9.055.183-1.23.342-2.479-.476-3.646-.196-.279-.038-1.173.222-1.326.418-.234 1.134-.266 1.591-.069 1.052.456 1.413 1.547 1.394 4.115Zm-100.512-43.584c.659-4.255 1.211-8.529 2.009-12.758.742-3.938 1.737-7.825 2.656-11.725.183-.787.43-1.611.868-2.27.253-.387.944-.482 1.438-.704.216.494.647 1.008.602 1.477-.069.793-.526 1.548-.678 2.34-1.229 6.487-2.433 12.981-3.637 19.474-.286 1.535-.507 3.076-.786 4.61-.14.774-.425 1.472-1.369 1.478-.704 0-1.027-.653-1.103-1.922Zm97.825 85.36c-4.126-.476-8.251-.901-12.364-1.446-1.686-.222-2.428-.932-2.092-1.706.545-1.243 1.654-.729 2.542-.59 5.222.825 10.469 1.154 15.755.856 2.503-.139 4.816-.805 6.907-2.206.786-.527 1.61-1.319 2.51-.241.52.621.095 1.452-1.096 2.352-2.275 1.712-4.899 2.448-7.681 2.638-1.477.102-2.966.019-4.449.019-.013.102-.019.21-.032.324Zm-97.312-64.054c-.05-.589-.126-1.179-.145-1.775-.026-.825-.089-1.788 1.014-1.903 1.115-.114 1.248.825 1.337 1.662.184 1.769.279 3.551.538 5.307a335.243 335.243 0 0 0 1.68 10.083c.475 2.606 1.502 4.959 3.447 6.842.26.254.571.565.622.888.063.387.006.945-.241 1.192-.241.248-.849.374-1.179.248-.532-.203-1.014-.609-1.439-1.009-1.78-1.686-2.915-3.779-3.352-6.157-.938-5.098-1.737-10.222-2.599-15.333.121-.013.222-.026.317-.045Zm54.496-16.619c-4.316-.019-6.148-2.803-4.316-6.285.735-1.395 1.946-2.6 3.131-3.678.595-.545 1.609-.754 2.465-.843.418-.044.906.545 1.356.85-.304.444-.539 1.179-.925 1.274-1.838.451-2.966 1.649-3.765 3.228-1.014 2.004-.361 2.987 1.87 2.854a4.388 4.388 0 0 0 1.502-.355c1.179-.527 1.445-1.085 1.096-2.435-.19-.723-.285-1.478.52-1.649.52-.114 1.306.177 1.73.558.963.862 1.014 2.429.235 3.703-1.204 1.953-3.061 2.721-4.899 2.778Zm-20.704 61.211c.38.222.729.368 1.008.596 4.607 3.678 9.759 6.481 14.962 9.182.52.273 1.097.552 1.458.99.273.329.488 1.109.298 1.325-.311.361-.944.495-1.47.602-.241.045-.545-.19-.812-.329-5.215-2.689-10.336-5.543-14.962-9.189-.52-.412-1.059-.85-1.42-1.389-.19-.285-.133-.868.025-1.223.127-.26.583-.368.913-.565Zm82.856-32.295c1.673-.64 2.224-1.845 2.465-3.171.222-1.217-.843-2.39-2.231-2.593-.576-.083-1.216.12-1.761-.038-.488-.14-.875-.603-1.312-.926.329-.431.57-1.072 1.007-1.256 2.681-1.141 6.141.85 6.686 3.773.4 2.15-1.083 5.257-2.997 6.291-1.388.748-3.118.539-4.006-.729-.614-.882-1.039-1.966-1.273-3.025-.102-.469.336-1.332.773-1.585.722-.413 1.185.266 1.495.906.368.768.748 1.529 1.154 2.353Zm-92.597-5.207c.748-.774 1.578-1.497 2.231-2.353.722-.938.957-2.003.177-3.081-.475-.66-.754-1.402.019-1.954.824-.583 1.559-.114 2.13.558.944 1.104 1.159 2.41.785 3.767-.621 2.264-2.123 3.919-4.094 5.067-1.774 1.027-4.106-.203-4.708-2.315-.526-1.845.557-4.743 2.237-5.65.418-.228 1.071-.025 1.616-.025-.019.539.12 1.141-.083 1.592-.291.659-.906 1.173-1.235 1.819-.533 1.059-.419 1.288.925 2.575Zm35.18-72.925c-.45-2.194-1.578-3.982-3.004-5.599-.976-1.11-2.161-1.097-3.441-.539-.786.342-1.673.958-2.282-.228-.38-.742.197-1.459 1.559-2.017 1.825-.742 3.695-.837 5.241.495 2.352 2.029 3.942 4.623 4.468 7.717.374 2.207-1.014 3.475-3.111 3.031-.755-.158-1.483-.444-1.534-1.338-.057-.957.602-1.243 1.438-1.287.197-.019.393-.14.666-.235Zm121.349-57.958c-.089-1.776-.19-3.552-.266-5.327-.026-.514-.064-1.053.063-1.535.076-.291.456-.678.723-.691.38-.019.957.159 1.115.438.279.488.393 1.116.412 1.686.133 4.287.228 8.58.329 12.867.019.786-.107 1.554-1.096 1.604-.836.045-1.141-.589-1.229-1.3-.114-.875-.229-1.763-.248-2.644-.038-1.699-.012-3.405-.012-5.105.063.007.133.007.209.007Zm-20.565 18.725c1.002-2.074.564-3.849-.469-5.777-.342.292-.602.501-.842.735-.495.47-1.116.679-1.54.108-.298-.399-.463-1.129-.317-1.591.551-1.732 3.08-2.233 4.411-.952 1.831 1.757 2.351 6.69.931 8.777-.703 1.027-2.078 1.585-3.308 1.3-.659-.153-1.331-.374-1.369-1.218-.038-.85.539-1.141 1.261-1.249.368-.051.729-.076 1.242-.133Zm6.756 21.948c-.906.038-1.451-.571-1.248-1.3.095-.336.297-.691.557-.926 2.979-2.72 4.601-6.347 6.585-9.734.336-.57.64-1.198 1.109-1.642.241-.228.9-.285 1.204-.12.292.158.475.697.507 1.09.032.336-.171.717-.348 1.034-1.623 2.834-3.195 5.701-4.931 8.465-.653 1.04-1.698 1.846-2.598 2.721-.248.235-.647.323-.837.412Zm81.247-304.076c.101-4.56-.121-9.106-1.23-13.545-.386-1.548-1.083-3.038-1.8-4.477-1.166-2.321-3.225-3.304-5.729-3.088-2.211.19-4.404.665-6.603 1.027-.222.038-.431.165-.659.209-.761.152-1.515-.025-1.68-.799-.101-.476.235-1.135.551-1.585.241-.343.774-.47 1.167-.717 1.958-1.224 3.967-2.378 5.855-3.71 3.575-2.523 5.717-6.03 6.408-10.33.221-1.4.05-2.904-.184-4.324-.298-1.82-.83-3.602-1.287-5.397-.241-.957-.044-1.68.957-2.035 1.109-.393 2.016-.064 2.345 1.141.482 1.776.938 3.596 1.058 5.422.121 1.87.584 3.532 1.87 4.838 2.427 2.474 4.867 4.947 7.466 7.23 1.121.989 2.649 1.528 4.011 2.232.615.317 1.293.494 1.927.786.938.431 1.819.976 1.825 2.156.006 1.129-.919 1.484-1.762 1.902-3.663 1.84-6.223 4.718-7.884 8.44-1.559 3.495-2.142 7.23-2.712 10.965-.418 2.74-.691 5.504-1.014 8.262-.222 1.89-.742 2.69-1.762 2.442-1.489-.368-1.096-1.63-1.115-2.657-.038-1.459-.019-2.924-.019-4.388ZM162.766 557.194a138.32 138.32 0 0 1-6.369 2.454c-1.889.615-3.929.806-5.85.362-1.926-.4-3.675-1.383-5.082-2.638-1.433-1.307-2.37-2.841-3.074-4.68a158.497 158.497 0 0 0-2.51-5.504 1.476 1.476 0 0 0-2.737 1.09l.025.083c.773 2.409 1.711 5.003 2.396 7.241.595 2.163.45 4.49-.305 6.608a10.685 10.685 0 0 1-4.189 5.206l-6.667 3.742-.063.038a1.16 1.16 0 0 0-.513 1.426c.234.597.899.895 1.495.66 2.383-.926 4.817-2.036 7.124-2.892 2.294-.748 4.886-.761 7.205.14 2.326.856 4.348 2.536 5.577 4.692 1.16 2.22 2.161 4.674 3.226 7.007a.882.882 0 0 0 1.052.482.889.889 0 0 0 .602-1.097l-.025-.088-2.155-7.35a12.078 12.078 0 0 1 .399-6.785c.805-2.156 2.212-4.128 4.145-5.561 2.053-1.364 4.379-2.689 6.559-4.04l.038-.025a.33.33 0 0 0 .127-.406.33.33 0 0 0-.431-.165Zm32.746 77.814c1.597.063 2.554-.52 3.042-1.649.571-1.331.444-2.441-.652-3.354-1.071-.901-2.257-1.7-3.461-2.41-1.077-.634-2.75-.159-3.675.869-.862.957-1.002 2.111-.248 3.272 1.243 1.915 3.118 2.866 4.994 3.272Zm28.456-29.043c.317-.013.64 0 .957-.032 1.977-.215 3.466-1.484 3.821-3.253.19-.957.007-1.82-.817-2.403-.666-.476-1.356-.97-2.111-1.268-.545-.216-1.267-.279-1.831-.121-1.369.381-2.294 1.357-2.979 2.581-.672 1.186-.519 2.258.26 3.279.659.881 1.603 1.211 2.7 1.217Zm-117.535-94.499c1.185.058 2.142-.253 2.763-.925 1.907-2.049 1.14-4.306-.742-5.447-1.667-1.015-4.449-.134-5.551 1.458-.678.983-.704 1.896.025 2.847.951 1.224 2.231 1.909 3.505 2.067Zm313.521-320.931c-1.356-1.433-2.814-1.63-4.392-.761-1.394.767-2.129 2.467-1.705 3.938.672 2.315 3.321 3.748 5.603 3.025 1.083-.343 1.717-1.11 1.78-2.258.089-1.566-.266-2.993-1.286-3.944Zm-162.95 102.202c1.338-.875 1.788-1.902 1.528-3.107-.305-1.42-1.046-2.245-2.472-2.359-1.394-.114-2.82-.082-4.214.038-1.243.108-2.339 1.465-2.497 2.835-.152 1.281.405 2.302 1.692 2.815 2.116.837 4.195.527 5.963-.222Zm-112.071-18.313c-1.641 1.097-2.079 2.499-1.483 4.205.526 1.503 2.072 2.517 3.593 2.34 2.396-.273 4.246-2.651 3.923-5.016-.158-1.129-.805-1.884-1.92-2.137-1.54-.349-3.004-.235-4.113.608ZM70.69 428.333c1.565.33 2.604-.082 3.276-1.116.786-1.218.843-2.327-.076-3.418-.906-1.072-1.94-2.055-3.01-2.955-.957-.805-2.688-.615-3.765.241-1.014.799-1.337 1.915-.792 3.19.894 2.092 2.586 3.341 4.366 4.058ZM4.367 336.099c-1.932-.38-3.238.298-4.024 1.922-.69 1.433-.31 3.246.887 4.198 1.889 1.496 4.874 1.135 6.319-.774.684-.907.76-1.902.152-2.873-.83-1.331-1.952-2.289-3.334-2.473Zm54.946 252.098c1.186.057 2.142-.254 2.764-.926 1.907-2.054 1.14-4.306-.742-5.447-1.667-1.015-4.449-.133-5.552 1.458-.678.983-.703 1.897.026 2.848.95 1.23 2.23 1.915 3.505 2.067Z" fill="#F8D948"/></svg>