<svg width="426" height="636" viewBox="0 0 426 636" fill="none" xmlns="http://www.w3.org/2000/svg">
<path d="M253.234 319.935C263.862 319.935 274.293 321.07 284.465 324.304C309.872 332.383 328.992 348.464 343.441 370.513C348.702 378.534 352.732 387.114 354.824 396.518C357.181 407.102 357.422 417.793 355.603 428.44C350.432 458.758 335.146 482.924 310.702 501.403C298.369 510.724 284.725 517.218 269.521 520.268C259.679 522.247 249.774 522.488 239.792 521.517C222.662 519.856 206.691 514.561 191.773 506.102C177.64 498.086 165.853 487.484 157.164 473.622C150.522 463.032 146.809 451.459 145.617 439.043C143.893 421.027 146.105 403.544 153.114 386.822C163.628 361.749 181.398 343.492 205.772 331.622C213.339 327.937 221.141 324.9 229.494 323.435C233.727 322.693 237.891 321.514 242.137 320.867C245.794 320.309 249.526 320.226 253.234 319.935ZM216.749 331.691C212.851 333.492 208.935 335.109 205.189 337.056C182.457 348.876 166.055 366.549 156.606 390.443C150.624 405.567 148.691 421.332 150.085 437.521C151.131 449.652 154.629 460.977 161.131 471.313C168.85 483.577 179.187 493.178 191.519 500.617C206.229 509.494 222.136 514.999 239.247 516.844C249.736 517.973 260.173 517.675 270.503 515.354C285.663 511.948 299.111 505.055 311.082 495.258C335.729 475.087 350.115 449.442 351.991 417.324C352.682 405.478 350.609 394.039 345.355 383.322C338.524 369.365 329.024 357.507 317.135 347.494C296.31 329.954 272.31 322.763 245.318 325.09C244.894 325.128 244.475 325.293 244.095 325.388C243.601 328.216 243.024 328.603 240.362 327.95C240.217 327.912 240.084 327.848 239.938 327.817C236.991 327.195 233.987 326.847 231.141 327.956C228.524 328.971 226.046 330.353 223.543 331.641C222.491 332.18 221.559 332.953 220.52 333.524C219.189 334.253 218.371 334.038 217.446 332.833C217.237 332.541 217.072 332.218 216.749 331.691Z" fill="#F8D948"/>
<path d="M253.196 490.648C250.255 490.756 247.143 490.204 244.158 488.904C240.159 487.161 237.352 484.212 235.444 480.344C234.329 478.074 234.278 475.721 235.191 473.413C236.927 469.006 239.19 464.947 243.246 462.176C243.892 461.738 244.52 461.231 245.217 461.891C246.015 462.652 245.508 463.381 244.957 464.034C244.716 464.313 244.456 464.598 244.158 464.808C241.002 466.97 239.437 470.274 237.903 473.59C236.819 475.93 237.073 478.162 238.404 480.388C241.135 484.967 245.242 487.325 250.407 487.896C254.66 488.365 258.849 487.795 262.987 486.717C266.384 485.829 268.482 483.679 269.591 480.401C271.574 474.548 270.522 469.101 267.442 463.939C265.547 460.768 262.987 458.181 260.002 456.031C257.613 454.306 255.04 453.305 252.08 454.611C251.351 454.934 250.603 454.82 250.496 454.027C250.426 453.526 250.851 452.689 251.301 452.442C253.145 451.421 255.179 451.504 257.163 451.96C258.164 452.188 259.178 452.582 260.04 453.133C267.379 457.801 272.265 464.142 273.146 473.045C273.514 476.748 272.721 480.306 271.029 483.622C269.515 486.59 266.992 488.34 263.849 489.196C260.458 490.109 257.011 490.655 253.196 490.648Z" fill="#F8D948"/>
<path d="M175.423 449.69C175.562 445.511 177.007 441.992 179.555 438.935C182.046 435.948 185.284 436.1 188.522 437.109C188.915 437.229 189.118 437.971 189.41 438.421C188.953 438.7 188.51 439.182 188.034 439.22C187.318 439.277 186.577 439.011 185.848 438.897C184.283 438.662 182.812 438.967 181.786 440.191C178.997 443.513 177.425 447.286 178.287 451.694C179.048 455.6 181.912 457.28 185.728 456.19C188.345 455.441 190.379 453.913 191.577 451.415C192.027 450.476 192.426 449.519 192.788 448.542C193.149 447.572 193.453 446.614 192.908 445.536C192.737 445.194 193.022 444.389 193.364 444.09C193.605 443.875 194.372 444.008 194.746 444.236C195.652 444.782 196.013 445.727 195.849 446.741C194.968 452.112 192.243 457.249 186.127 458.802C180.841 460.147 176.431 457.16 175.619 451.744C175.505 451.015 175.474 450.267 175.423 449.69Z" fill="#F8D948"/>
<path d="M182.565 373.772C181.525 373.816 180.942 373.068 181.285 372.269C181.576 371.603 182.045 371.001 182.501 370.424C186.748 365.116 191.659 360.487 196.938 356.245C200.354 353.505 203.878 350.893 207.376 348.267C208.08 347.735 208.872 347.272 209.696 346.98C210.05 346.853 210.786 347.113 210.988 347.424C211.179 347.728 211.02 348.401 210.798 348.781C210.595 349.13 210.095 349.295 209.734 349.555C201.248 355.611 193.205 362.167 186.26 369.986C185.372 370.988 184.529 372.028 183.623 373.005C183.287 373.36 182.818 373.594 182.565 373.772Z" fill="#F8D948"/>
<path d="M190.575 411.275C190.981 410.584 191.196 410 191.595 409.607C191.855 409.347 192.438 409.189 192.774 409.296C193.104 409.404 193.452 409.88 193.528 410.254C193.921 412.232 192.033 414.173 190.043 413.748C189.13 413.551 188.218 413.089 187.457 412.531C184.345 410.254 181.905 407.331 180.207 403.9C177.634 398.694 181.094 391.573 186.785 390.279C188.027 390 189.422 390.266 190.721 390.457C191.234 390.533 191.798 391.015 192.109 391.471C192.343 391.814 192.413 392.543 192.197 392.854C191.995 393.152 191.164 393.386 190.892 393.209C188.002 391.363 185.93 392.904 184.054 394.87C182.007 397.02 181.088 399.613 182.425 402.435C184.003 405.771 186.335 408.561 189.377 410.704C189.669 410.913 190.03 411.021 190.575 411.275Z" fill="#F8D948"/>
<path d="M209.036 458.808C209.258 455.879 211.039 453.291 214.011 451.478C214.372 451.256 214.873 451.091 215.272 451.148C215.646 451.199 216.153 451.497 216.28 451.82C216.407 452.137 216.223 452.67 216.007 453C215.824 453.279 215.361 453.355 215.089 453.596C214.36 454.224 213.561 454.801 212.984 455.549C210.64 458.58 210.95 461.148 214.036 463.368C215.405 464.351 216.952 465.15 218.523 465.758C220.247 466.424 221.014 465.898 221.407 464.116C221.565 463.393 221.458 462.594 221.705 461.922C221.876 461.472 222.421 461.002 222.884 460.888C223.143 460.825 223.803 461.427 223.891 461.82C224.335 463.786 224.107 465.72 222.77 467.287C221.527 468.739 219.842 468.878 218.067 468.377C215.05 467.521 212.535 465.866 210.468 463.539C209.41 462.34 209.03 461.047 209.036 458.808Z" fill="#F8D948"/>
<path d="M299.485 394.597C299.098 394.369 298.635 394.261 298.521 393.995C298.369 393.639 298.331 393.088 298.515 392.777C298.762 392.352 299.256 392.079 299.649 391.743C303.756 388.224 307.958 384.8 311.931 381.141C314.042 379.2 315.772 376.841 317.66 374.66C318.193 374.045 318.649 373.36 319.181 372.751C319.676 372.181 320.405 371.946 320.931 372.504C321.228 372.821 321.146 373.55 321.121 374.083C321.108 374.343 320.867 374.609 320.683 374.844C319.036 376.936 317.616 379.283 315.683 381.065C311.108 385.282 306.297 389.239 301.563 393.272C300.942 393.785 300.201 394.14 299.485 394.597Z" fill="#F8D948"/>
<path d="M261.713 464.719C261.409 468.613 260.11 472.842 257.777 476.704C256.168 479.368 253.031 480.433 250.47 479.45C248.151 478.562 246.934 476.463 247.441 474.174C247.536 473.755 247.688 473.267 247.98 472.995C248.252 472.747 248.778 472.627 249.152 472.69C249.406 472.735 249.659 473.172 249.78 473.483C249.875 473.736 249.773 474.06 249.767 474.358C249.704 476.672 251.364 477.89 253.531 477.097C254.704 476.666 255.49 475.804 256.041 474.7C257.473 471.828 258.513 468.822 258.982 465.645C259.165 464.415 259.324 463.166 258.506 461.999C258.31 461.72 258.468 460.826 258.728 460.673C259.146 460.439 259.862 460.407 260.319 460.604C261.371 461.06 261.732 462.151 261.713 464.719Z" fill="#F8D948"/>
<path d="M161.201 421.135C161.86 416.88 162.412 412.606 163.21 408.377C163.952 404.439 164.947 400.552 165.866 396.652C166.049 395.865 166.296 395.041 166.734 394.382C166.987 393.995 167.678 393.9 168.172 393.678C168.388 394.172 168.819 394.686 168.774 395.155C168.705 395.948 168.248 396.703 168.096 397.495C166.867 403.982 165.663 410.476 164.459 416.969C164.173 418.504 163.952 420.045 163.673 421.579C163.533 422.353 163.248 423.051 162.304 423.057C161.6 423.057 161.277 422.404 161.201 421.135Z" fill="#F8D948"/>
<path d="M259.026 506.495C254.9 506.019 250.775 505.594 246.662 505.049C244.976 504.827 244.234 504.117 244.57 503.343C245.115 502.1 246.224 502.614 247.112 502.753C252.334 503.578 257.581 503.907 262.867 503.609C265.37 503.47 267.683 502.804 269.774 501.403C270.56 500.876 271.384 500.084 272.284 501.162C272.804 501.783 272.379 502.614 271.188 503.514C268.913 505.226 266.289 505.962 263.507 506.152C262.03 506.254 260.541 506.171 259.058 506.171C259.045 506.273 259.039 506.381 259.026 506.495Z" fill="#F8D948"/>
<path d="M161.714 442.441C161.664 441.852 161.588 441.262 161.569 440.666C161.543 439.841 161.48 438.878 162.583 438.763C163.698 438.649 163.831 439.588 163.92 440.425C164.104 442.194 164.199 443.976 164.458 445.732C164.965 449.1 165.529 452.467 166.138 455.815C166.613 458.421 167.64 460.774 169.585 462.657C169.845 462.911 170.156 463.222 170.207 463.545C170.27 463.932 170.213 464.49 169.966 464.737C169.725 464.985 169.117 465.111 168.787 464.985C168.255 464.782 167.773 464.376 167.348 463.976C165.568 462.29 164.433 460.197 163.996 457.819C163.058 452.721 162.259 447.597 161.397 442.486C161.518 442.473 161.619 442.46 161.714 442.441Z" fill="#F8D948"/>
<path d="M216.21 425.822C211.894 425.803 210.062 423.019 211.894 419.537C212.629 418.142 213.84 416.937 215.025 415.859C215.62 415.314 216.634 415.105 217.49 415.016C217.908 414.972 218.396 415.561 218.846 415.866C218.542 416.31 218.307 417.045 217.921 417.14C216.083 417.591 214.955 418.789 214.156 420.368C213.142 422.372 213.795 423.355 216.026 423.222C216.533 423.19 217.065 423.076 217.528 422.867C218.707 422.34 218.973 421.782 218.624 420.432C218.434 419.709 218.339 418.954 219.144 418.783C219.664 418.669 220.45 418.96 220.874 419.341C221.837 420.203 221.888 421.77 221.109 423.044C219.905 424.997 218.048 425.765 216.21 425.822Z" fill="#F8D948"/>
<path d="M195.506 487.033C195.886 487.255 196.235 487.401 196.514 487.629C201.121 491.307 206.273 494.11 211.476 496.811C211.996 497.084 212.573 497.363 212.934 497.801C213.207 498.13 213.422 498.91 213.232 499.126C212.921 499.487 212.288 499.621 211.762 499.728C211.521 499.773 211.217 499.538 210.95 499.399C205.735 496.71 200.614 493.856 195.988 490.21C195.468 489.798 194.929 489.36 194.568 488.821C194.378 488.536 194.435 487.953 194.593 487.598C194.72 487.338 195.176 487.23 195.506 487.033Z" fill="#F8D948"/>
<path d="M278.362 454.738C280.035 454.098 280.586 452.893 280.827 451.567C281.049 450.35 279.984 449.177 278.596 448.974C278.02 448.891 277.38 449.094 276.835 448.936C276.347 448.796 275.96 448.333 275.523 448.01C275.852 447.579 276.093 446.938 276.53 446.754C279.211 445.613 282.671 447.604 283.216 450.527C283.616 452.677 282.133 455.784 280.219 456.818C278.831 457.566 277.101 457.357 276.213 456.089C275.599 455.207 275.174 454.123 274.94 453.064C274.838 452.595 275.276 451.732 275.713 451.479C276.435 451.066 276.898 451.745 277.208 452.385C277.576 453.153 277.956 453.914 278.362 454.738Z" fill="#F8D948"/>
<path d="M185.765 449.531C186.513 448.757 187.343 448.034 187.996 447.178C188.718 446.24 188.953 445.175 188.173 444.097C187.698 443.437 187.419 442.695 188.192 442.143C189.016 441.56 189.751 442.029 190.322 442.701C191.266 443.805 191.481 445.111 191.107 446.468C190.486 448.732 188.984 450.387 187.013 451.535C185.239 452.562 182.907 451.332 182.305 449.22C181.779 447.375 182.862 444.477 184.542 443.57C184.96 443.342 185.613 443.545 186.158 443.545C186.139 444.084 186.278 444.686 186.075 445.137C185.784 445.796 185.169 446.31 184.84 446.956C184.307 448.015 184.421 448.244 185.765 449.531Z" fill="#F8D948"/>
<path d="M220.945 376.606C220.495 374.412 219.367 372.624 217.941 371.007C216.965 369.897 215.78 369.91 214.5 370.468C213.714 370.81 212.827 371.426 212.218 370.24C211.838 369.498 212.415 368.781 213.777 368.223C215.602 367.481 217.472 367.386 219.018 368.718C221.37 370.747 222.96 373.341 223.486 376.435C223.86 378.642 222.472 379.91 220.375 379.466C219.62 379.308 218.892 379.022 218.841 378.128C218.784 377.171 219.443 376.885 220.279 376.841C220.476 376.822 220.672 376.701 220.945 376.606Z" fill="#F8D948"/>
<path d="M342.294 318.648C342.205 316.872 342.104 315.096 342.028 313.321C342.002 312.807 341.964 312.268 342.091 311.786C342.167 311.495 342.547 311.108 342.814 311.095C343.194 311.076 343.771 311.254 343.929 311.533C344.208 312.021 344.322 312.649 344.341 313.219C344.474 317.506 344.569 321.799 344.67 326.086C344.689 326.872 344.563 327.64 343.574 327.69C342.738 327.735 342.433 327.101 342.345 326.39C342.231 325.515 342.116 324.627 342.097 323.746C342.059 322.047 342.085 320.341 342.085 318.641C342.148 318.648 342.218 318.648 342.294 318.648Z" fill="#F8D948"/>
<path d="M321.729 337.373C322.731 335.299 322.293 333.524 321.26 331.596C320.918 331.888 320.658 332.097 320.418 332.331C319.923 332.801 319.302 333.01 318.878 332.439C318.58 332.04 318.415 331.31 318.561 330.848C319.112 329.116 321.641 328.615 322.972 329.896C324.803 331.653 325.323 336.586 323.903 338.673C323.2 339.7 321.825 340.258 320.595 339.973C319.936 339.82 319.264 339.599 319.226 338.755C319.188 337.905 319.765 337.614 320.487 337.506C320.855 337.455 321.216 337.43 321.729 337.373Z" fill="#F8D948"/>
<path d="M328.485 359.321C327.579 359.359 327.034 358.75 327.237 358.021C327.332 357.685 327.534 357.33 327.794 357.095C330.773 354.375 332.395 350.748 334.379 347.361C334.715 346.791 335.019 346.163 335.488 345.719C335.729 345.491 336.388 345.434 336.692 345.599C336.984 345.757 337.167 346.296 337.199 346.689C337.231 347.025 337.028 347.406 336.851 347.723C335.228 350.557 333.656 353.424 331.92 356.188C331.267 357.228 330.222 358.034 329.322 358.909C329.074 359.144 328.675 359.232 328.485 359.321Z" fill="#F8D948"/>
<path d="M409.732 55.2446C409.833 50.6852 409.611 46.1385 408.502 41.6996C408.116 40.1523 407.419 38.6621 406.702 37.2227C405.536 34.9018 403.477 33.9189 400.973 34.1345C398.762 34.3247 396.569 34.8003 394.37 35.1618C394.148 35.1998 393.939 35.3266 393.711 35.371C392.95 35.5232 392.196 35.3457 392.031 34.572C391.93 34.0964 392.266 33.4369 392.582 32.9867C392.823 32.6443 393.356 32.5175 393.749 32.2701C395.707 31.0463 397.716 29.8922 399.604 28.5605C403.179 26.0367 405.321 22.53 406.012 18.2306C406.233 16.8292 406.062 15.3263 405.828 13.9058C405.53 12.0859 404.998 10.304 404.541 8.5094C404.3 7.55187 404.497 6.82895 405.498 6.47384C406.607 6.08068 407.514 6.41042 407.843 7.61526C408.325 9.39082 408.781 11.2108 408.901 13.0371C409.022 14.9078 409.485 16.5692 410.771 17.8755C413.198 20.3486 415.638 22.8216 418.237 25.1045C419.358 26.0937 420.886 26.6328 422.248 27.3367C422.863 27.6537 423.541 27.8313 424.175 28.123C425.113 28.5542 425.994 29.0995 426 30.279C426.006 31.4078 425.081 31.7629 424.238 32.1814C420.575 34.0204 418.015 36.8993 416.354 40.6216C414.795 44.1157 414.212 47.8507 413.642 51.5857C413.224 54.3251 412.951 57.0899 412.628 59.8483C412.406 61.738 411.886 62.5371 410.866 62.2898C409.377 61.922 409.77 60.66 409.751 59.6328C409.713 58.1743 409.732 56.7094 409.732 55.2446Z" fill="#F8D948"/>
<path d="M162.766 557.194C160.662 558.069 158.533 558.881 156.397 559.648C154.508 560.263 152.468 560.454 150.547 560.01C148.621 559.61 146.872 558.627 145.465 557.372C144.032 556.065 143.095 554.531 142.391 552.692C141.586 550.84 140.756 549.008 139.881 547.188C139.571 546.534 138.81 546.192 138.101 546.42C137.327 546.668 136.896 547.498 137.144 548.278L137.169 548.361C137.942 550.77 138.88 553.364 139.565 555.602C140.16 557.765 140.015 560.092 139.26 562.21C138.475 564.322 136.985 566.18 135.071 567.416L128.404 571.158L128.341 571.196C127.847 571.475 127.618 572.083 127.828 572.622C128.062 573.219 128.727 573.517 129.323 573.282C131.706 572.356 134.14 571.246 136.447 570.39C138.741 569.642 141.333 569.629 143.652 570.53C145.978 571.386 148 573.066 149.229 575.222C150.389 577.442 151.39 579.896 152.455 582.229C152.632 582.623 153.082 582.838 153.507 582.711C153.976 582.572 154.242 582.084 154.109 581.614L154.084 581.526L151.929 574.176C151.416 571.925 151.542 569.566 152.328 567.391C153.133 565.235 154.54 563.263 156.473 561.83C158.526 560.466 160.852 559.141 163.032 557.79L163.07 557.765C163.203 557.682 163.26 557.511 163.197 557.359C163.127 557.2 162.937 557.124 162.766 557.194Z" fill="#F8D948"/>
<path d="M195.512 635.008C197.109 635.071 198.066 634.488 198.554 633.359C199.125 632.028 198.998 630.918 197.902 630.005C196.831 629.104 195.645 628.305 194.441 627.595C193.364 626.961 191.691 627.436 190.766 628.464C189.904 629.421 189.764 630.575 190.518 631.736C191.761 633.651 193.636 634.602 195.512 635.008Z" fill="#F8D948"/>
<path d="M223.968 605.965C224.285 605.952 224.608 605.965 224.925 605.933C226.902 605.718 228.391 604.449 228.746 602.68C228.936 601.723 228.753 600.86 227.929 600.277C227.263 599.801 226.573 599.307 225.818 599.009C225.273 598.793 224.551 598.73 223.987 598.888C222.618 599.269 221.693 600.245 221.008 601.469C220.336 602.655 220.489 603.727 221.268 604.748C221.927 605.629 222.871 605.959 223.968 605.965Z" fill="#F8D948"/>
<path d="M106.433 511.466C107.618 511.524 108.575 511.213 109.196 510.541C111.103 508.492 110.336 506.235 108.454 505.094C106.787 504.079 104.005 504.96 102.903 506.552C102.225 507.535 102.199 508.448 102.928 509.399C103.879 510.623 105.159 511.308 106.433 511.466Z" fill="#F8D948"/>
<path d="M419.954 190.535C418.598 189.102 417.14 188.905 415.562 189.774C414.168 190.541 413.433 192.241 413.857 193.712C414.529 196.027 417.178 197.46 419.46 196.737C420.543 196.394 421.177 195.627 421.24 194.479C421.329 192.913 420.974 191.486 419.954 190.535Z" fill="#F8D948"/>
<path d="M257.004 292.737C258.342 291.862 258.792 290.835 258.532 289.63C258.227 288.21 257.486 287.385 256.06 287.271C254.666 287.157 253.24 287.189 251.846 287.309C250.603 287.417 249.507 288.774 249.349 290.144C249.197 291.425 249.754 292.446 251.041 292.959C253.157 293.796 255.236 293.486 257.004 292.737Z" fill="#F8D948"/>
<path d="M144.933 274.424C143.292 275.521 142.854 276.923 143.45 278.629C143.976 280.132 145.522 281.146 147.043 280.969C149.439 280.696 151.289 278.318 150.966 275.953C150.808 274.824 150.161 274.069 149.046 273.816C147.506 273.467 146.042 273.581 144.933 274.424Z" fill="#F8D948"/>
<path d="M70.6894 428.333C72.2548 428.663 73.2941 428.251 73.9659 427.217C74.7518 425.999 74.8088 424.89 73.8899 423.799C72.9836 422.727 71.9506 421.744 70.8796 420.844C69.9226 420.039 68.1925 420.229 67.1151 421.085C66.1011 421.884 65.7779 423 66.3229 424.275C67.2165 426.367 68.9086 427.616 70.6894 428.333Z" fill="#F8D948"/>
<path d="M4.36748 336.099C2.43454 335.719 1.12903 336.397 0.343182 338.021C-0.347603 339.454 0.0326419 341.267 1.23043 342.219C3.11899 343.715 6.10395 343.354 7.54889 341.445C8.23334 340.538 8.30939 339.543 7.70099 338.572C6.87079 337.241 5.74905 336.283 4.36748 336.099Z" fill="#F8D948"/>
<path d="M59.3135 588.197C60.4986 588.254 61.4555 587.943 62.0766 587.271C63.9842 585.217 63.2173 582.965 61.3351 581.824C59.6683 580.809 56.8862 581.691 55.7835 583.282C55.1054 584.265 55.08 585.179 55.8088 586.13C56.7594 587.36 58.0396 588.045 59.3135 588.197Z" fill="#F8D948"/>
</svg>
