<svg width="467" height="344" viewBox="0 0 467 344" fill="none" xmlns="http://www.w3.org/2000/svg">
<g clip-path="url(#clip0_378_10244)">
<path d="M51.4556 89.3262H414.128" stroke="#DED8D5" stroke-width="1.468" stroke-miterlimit="10"/>
<path d="M409.393 65.6289H56.1908C53.5756 65.6289 51.4556 67.7425 51.4556 70.3497V284.611C51.4556 287.218 53.5756 289.332 56.1908 289.332H409.393C412.008 289.332 414.128 287.218 414.128 284.611V70.3497C414.128 67.7425 412.008 65.6289 409.393 65.6289Z" stroke="#DED8D5" stroke-width="1.468" stroke-miterlimit="10"/>
<path d="M75.3568 77.7196C75.3582 78.3744 75.1648 79.0148 74.8009 79.5599C74.4371 80.105 73.9193 80.5303 73.3129 80.7818C72.7066 81.0334 72.039 81.1 71.3947 80.9731C70.7504 80.8462 70.1583 80.5317 69.6934 80.0692C69.2285 79.6067 68.9117 79.0171 68.7831 78.3751C68.6544 77.733 68.7197 77.0673 68.9707 76.4623C69.2217 75.8572 69.6471 75.34 70.1931 74.9761C70.739 74.6122 71.381 74.418 72.0378 74.418C72.9168 74.418 73.7599 74.7656 74.3821 75.3846C75.0043 76.0035 75.3548 76.8433 75.3568 77.7196Z" fill="#FFB1A5"/>
<path d="M88.2479 77.7196C88.2493 78.3744 88.0559 79.0148 87.6921 79.5599C87.3282 80.105 86.8104 80.5303 86.204 80.7818C85.5977 81.0334 84.9301 81.1 84.2858 80.9731C83.6415 80.8462 83.0494 80.5317 82.5845 80.0692C82.1196 79.6067 81.8028 79.0171 81.6742 78.3751C81.5455 77.733 81.6108 77.0673 81.8618 76.4623C82.1128 75.8572 82.5382 75.34 83.0842 74.9761C83.6301 74.6122 84.2721 74.418 84.9289 74.418C85.8079 74.418 86.651 74.7656 87.2732 75.3846C87.8954 76.0035 88.246 76.8433 88.2479 77.7196Z" fill="#EAD254"/>
<path d="M101.139 77.7196C101.14 78.3744 100.947 79.0148 100.583 79.5599C100.219 80.105 99.7015 80.5303 99.0952 80.7818C98.4888 81.0334 97.8212 81.1 97.1769 80.9731C96.5326 80.8462 95.9406 80.5317 95.4757 80.0692C95.0108 79.6067 94.6939 79.0171 94.5653 78.3751C94.4366 77.733 94.5019 77.0673 94.7529 76.4623C95.0039 75.8573 95.4293 75.34 95.9753 74.9761C96.5213 74.6122 97.1632 74.418 97.82 74.418C98.2555 74.417 98.6869 74.5017 99.0896 74.6672C99.4922 74.8327 99.8581 75.0758 100.166 75.3824C100.475 75.6891 100.719 76.0534 100.886 76.4545C101.053 76.8555 101.139 77.2855 101.139 77.7196Z" fill="#00857B"/>
<path d="M461.241 81.8984H376.007C373.604 81.8984 371.657 83.8402 371.657 86.2355V164.824C371.657 167.219 373.604 169.161 376.007 169.161H461.241C463.644 169.161 465.591 167.219 465.591 164.824V86.2355C465.591 83.8402 463.644 81.8984 461.241 81.8984Z" fill="#EDEDED"/>
<path d="M461.241 81.8984H376.007C373.604 81.8984 371.657 83.8402 371.657 86.2355V164.824C371.657 167.219 373.604 169.161 376.007 169.161H461.241C463.644 169.161 465.591 167.219 465.591 164.824V86.2355C465.591 83.8402 463.644 81.8984 461.241 81.8984Z" stroke="#DED8D5" stroke-width="1.468" stroke-miterlimit="10"/>
<path d="M396.611 146.461H440.913C443.327 146.461 445.285 144.509 445.285 142.102V105.907C445.285 103.5 443.327 101.548 440.913 101.548H396.611C394.196 101.548 392.239 103.5 392.239 105.907V142.102C392.239 144.509 394.196 146.461 396.611 146.461Z" fill="#C98BD2"/>
<path d="M430.861 131.472H410.126H406.386V115.102H430.861V119.192V131.472Z" stroke="white" stroke-width="1.22954" stroke-linecap="round" stroke-linejoin="round"/>
<path d="M406.386 115.102L418.624 124.717L430.861 115.102" stroke="white" stroke-width="1.22954" stroke-linecap="round" stroke-linejoin="round"/>
<path d="M86.1492 156.041H4.85886C2.56857 156.041 0.711914 157.892 0.711914 160.175V230.835C0.711914 233.119 2.56857 234.97 4.85886 234.97H86.1492C88.4395 234.97 90.2961 233.119 90.2961 230.835V160.175C90.2961 157.892 88.4395 156.041 86.1492 156.041Z" fill="#EDEDED"/>
<path d="M86.1492 156.041H4.85886C2.56857 156.041 0.711914 157.892 0.711914 160.175V230.835C0.711914 233.119 2.56857 234.97 4.85886 234.97H86.1492C88.4395 234.97 90.2961 233.119 90.2961 230.835V160.175C90.2961 157.892 88.4395 156.041 86.1492 156.041Z" stroke="#DED8D5" stroke-width="1.468" stroke-miterlimit="10"/>
<path d="M66.3802 169.559H24.2208C21.5575 169.559 19.3984 171.711 19.3984 174.366V214.957C19.3984 217.612 21.5575 219.764 24.2208 219.764H66.3802C69.0435 219.764 71.2026 217.612 71.2026 214.957V174.366C71.2026 171.711 69.0435 169.559 66.3802 169.559Z" fill="#FFB1A5"/>
<path d="M35.2527 184.807C33.2035 186.849 31.8079 189.451 31.2423 192.284C30.6767 195.117 30.9665 198.054 32.0751 200.723C33.1836 203.391 35.0612 205.673 37.4703 207.278C39.8793 208.882 42.7117 209.739 45.6091 209.739C48.5066 209.739 51.3389 208.882 53.748 207.278C56.1571 205.673 58.0346 203.391 59.1432 200.723C60.2518 198.054 60.5416 195.117 59.976 192.284C59.4104 189.451 58.0147 186.849 55.9656 184.807C53.2111 182.083 49.4887 180.555 45.6091 180.555C41.7296 180.555 38.0072 182.083 35.2527 184.807ZM55.9293 186.914H51.2667C50.7773 185.406 50.1702 183.939 49.451 182.526C52.0067 183.3 54.2659 184.83 55.9293 186.914ZM40.2348 194.277C40.2472 192.368 40.4911 190.466 40.9611 188.615H50.3298C50.7997 190.466 51.0436 192.368 51.0561 194.277H40.2348ZM50.9326 196C50.7942 197.918 50.4558 199.815 49.9231 201.663H41.3024C40.772 199.815 40.4361 197.917 40.3002 196H50.9326ZM45.6091 181.976C46.3022 181.973 46.9944 182.027 47.679 182.135C48.5423 183.659 49.2526 185.265 49.7996 186.928H41.4186C41.9674 185.265 42.6776 183.66 43.5393 182.135C44.2235 182.022 44.9156 181.964 45.6091 181.961V181.976ZM41.7672 182.54C41.0481 183.953 40.441 185.421 39.9516 186.928H35.289C36.9515 184.841 39.2105 183.306 41.7672 182.526V182.54ZM34.127 188.63H39.4722C39.0137 190.483 38.7701 192.383 38.746 194.292H32.4275C32.5522 192.295 33.1335 190.353 34.127 188.615V188.63ZM34.127 201.663C33.1347 199.929 32.5534 197.992 32.4275 196H38.746C38.8445 197.914 39.1439 199.811 39.6393 201.663H34.127ZM35.289 203.371H40.1477C40.6456 204.89 41.2474 206.373 41.9488 207.81C39.3211 207.046 36.9948 205.491 35.289 203.357V203.371ZM45.6091 208.309C45.0311 208.307 44.4537 208.269 43.8806 208.193C43.0908 206.628 42.4066 205.013 41.8326 203.357H49.3857C48.8148 205.014 48.1305 206.63 47.3376 208.193C46.7645 208.269 46.1872 208.307 45.6091 208.309ZM49.2404 207.795C49.9411 206.357 50.5452 204.875 51.0488 203.357H55.9002C54.2074 205.478 51.8996 207.028 49.2913 207.795H49.2404ZM57.0695 201.648H51.5499C52.0453 199.797 52.3447 197.899 52.4432 195.986H58.769C58.6487 197.975 58.0776 199.911 57.0986 201.648H57.0695ZM58.769 194.277H52.4723C52.441 192.369 52.1974 190.47 51.746 188.615H57.0913C58.0819 190.35 58.6654 192.286 58.798 194.277H58.769Z" fill="white"/>
<path d="M81.3055 44.9863H7.66268C6.93267 44.9863 6.23255 44.6972 5.71635 44.1826C5.20015 43.668 4.91016 42.97 4.91016 42.2422C4.91016 41.5144 5.20015 40.8164 5.71635 40.3018C6.23255 39.7872 6.93267 39.498 7.66268 39.498H81.3055C82.0355 39.498 82.7356 39.7872 83.2518 40.3018C83.768 40.8164 84.058 41.5144 84.058 42.2422C84.058 42.97 83.768 43.668 83.2518 44.1826C82.7356 44.6972 82.0355 44.9863 81.3055 44.9863Z" fill="#C98BD2"/>
<path d="M464.24 224.326H428.494C427.763 224.324 427.063 224.033 426.547 223.517C426.031 223.001 425.741 222.303 425.741 221.574C425.741 220.846 426.031 220.148 426.547 219.634C427.064 219.119 427.764 218.83 428.494 218.83H464.24C464.97 218.83 465.67 219.119 466.187 219.634C466.703 220.148 466.993 220.846 466.993 221.574C466.993 222.303 466.703 223.001 466.187 223.517C465.671 224.033 464.971 224.324 464.24 224.326Z" fill="#56DFED"/>
<path d="M439.213 247.857H434.841C433.694 247.857 432.764 248.785 432.764 249.928V254.019C432.764 255.163 433.694 256.09 434.841 256.09H439.213C440.36 256.09 441.29 255.163 441.29 254.019V249.928C441.29 248.785 440.36 247.857 439.213 247.857Z" fill="#C98BD2"/>
<path d="M25.2085 266.885H20.8364C19.6892 266.885 18.7593 267.812 18.7593 268.956V273.046C18.7593 274.19 19.6892 275.117 20.8364 275.117H25.2085C26.3556 275.117 27.2856 274.19 27.2856 273.046V268.956C27.2856 267.812 26.3556 266.885 25.2085 266.885Z" fill="#FFB1A5"/>
<path d="M359.492 20.0918H286.8C285.593 20.0918 284.614 21.0675 284.614 22.2712V39.967C284.614 41.1706 285.593 42.1464 286.8 42.1464H359.492C360.699 42.1464 361.678 41.1706 361.678 39.967V22.2712C361.678 21.0675 360.699 20.0918 359.492 20.0918Z" fill="#FFB1A5"/>
<path d="M295.109 27.9492H346.804" stroke="white" stroke-width="0.87931" stroke-miterlimit="10"/>
<path d="M295.109 33.2422H316.163" stroke="white" stroke-width="0.87931" stroke-miterlimit="10"/>
<path d="M293.002 39.6484V48.2502L303.845 39.6484H293.002Z" fill="#FFB1A5"/>
<path d="M144.221 0H180.904C182.149 0 183.342 0.492792 184.222 1.36997C185.102 2.24715 185.596 3.43685 185.596 4.67737V38.7801C185.592 40.0181 185.096 41.2041 184.217 42.0782C183.337 42.9522 182.146 43.443 180.904 43.443H145.717C144.076 43.443 142.502 42.7931 141.342 41.6362C140.181 40.4793 139.529 38.9102 139.529 37.2741V4.69185C139.527 4.07639 139.647 3.46661 139.882 2.89745C140.117 2.32829 140.462 1.81095 140.898 1.37508C141.334 0.939216 141.852 0.593388 142.422 0.357424C142.992 0.121459 143.604 -2.94957e-06 144.221 0V0Z" fill="#56DFED"/>
<path d="M173.307 24.9445L170.686 22.3307C170.476 22.0884 170.218 21.8929 169.928 21.7569C169.637 21.6209 169.321 21.5475 169.001 21.5415C168.365 21.5513 167.759 21.8116 167.316 22.2655L165.812 23.7571L165.536 23.6195C165.348 23.5254 165.21 23.4747 165.064 23.3878C163.584 22.4212 162.272 21.2204 161.179 19.8327C160.686 19.2547 160.275 18.6115 159.959 17.9212C160.336 17.5954 160.685 17.1972 160.99 16.8931L161.411 16.4731C161.661 16.2597 161.862 15.9948 162 15.6968C162.137 15.3987 162.208 15.0744 162.208 14.7463C162.208 14.4181 162.137 14.0939 162 13.7958C161.862 13.4977 161.661 13.2329 161.411 13.0194L160.104 11.7089C159.95 11.5646 159.807 11.4098 159.676 11.2455L158.789 10.3549C158.343 9.90487 157.739 9.64526 157.105 9.63086C156.789 9.63081 156.477 9.695 156.187 9.81951C155.897 9.94401 155.636 10.1262 155.42 10.3549L153.778 11.9913C153.162 12.6049 152.782 13.4147 152.703 14.2793C152.649 15.4912 152.854 16.7007 153.306 17.8271C154.126 20.0731 155.357 22.1477 156.938 23.9453C158.996 26.3954 161.55 28.3841 164.433 29.7812C165.753 30.4484 167.182 30.8751 168.652 31.041H168.979C169.507 31.0494 170.03 30.946 170.515 30.7375C170.999 30.5291 171.434 30.2204 171.79 29.8319L171.833 29.7812C172.092 29.4799 172.373 29.1991 172.676 28.9413L173.286 28.3331C173.517 28.1161 173.702 27.8545 173.83 27.564C173.957 27.2736 174.023 26.9604 174.025 26.6435C174.027 26.3266 173.965 26.0125 173.841 25.7205C173.718 25.4284 173.536 25.1644 173.307 24.9445ZM172.233 27.3773L171.673 27.9349C171.339 28.2172 171.063 28.5431 170.736 28.8689C170.522 29.1028 170.261 29.2883 169.969 29.4132C169.677 29.5381 169.362 29.5994 169.044 29.5929H168.812C167.54 29.4579 166.306 29.0767 165.181 28.4707C162.482 27.145 160.096 25.2647 158.179 22.9534C156.736 21.2708 155.58 19.3628 154.759 17.3058C154.325 16.4047 154.132 15.4069 154.2 14.4096C154.214 14.1522 154.279 13.9001 154.391 13.6678C154.503 13.4354 154.66 13.2274 154.853 13.0556L156.444 11.4699C156.615 11.2822 156.851 11.1658 157.105 11.1441C157.23 11.1494 157.354 11.1812 157.466 11.2374C157.579 11.2935 157.678 11.3728 157.758 11.4699L158.601 12.3098C158.747 12.4774 158.905 12.6347 159.073 12.7805L160.38 14.0838C160.562 14.2559 160.678 14.4866 160.707 14.7354C160.688 14.9891 160.571 15.2254 160.38 15.3943L159.959 15.8143L158.789 16.98L158.739 17.0234C158.576 17.1658 158.461 17.3554 158.412 17.5658C158.362 17.7761 158.38 17.9966 158.463 18.1964V18.2398C158.857 19.1546 159.378 20.01 160.01 20.7812C161.203 22.3032 162.644 23.615 164.273 24.6621C164.464 24.7874 164.666 24.8963 164.876 24.988C165.038 25.055 165.195 25.1324 165.348 25.2197L165.391 25.2703C165.606 25.383 165.852 25.4206 166.09 25.3773C166.328 25.334 166.545 25.2122 166.706 25.0314L168.347 23.4023C168.428 23.3064 168.528 23.2276 168.64 23.1704C168.753 23.1132 168.875 23.0788 169.001 23.0692C169.238 23.1028 169.455 23.2212 169.611 23.4023L172.233 26.0161C172.333 26.099 172.414 26.203 172.469 26.3206C172.525 26.4383 172.554 26.5667 172.554 26.6967C172.554 26.8268 172.525 26.9552 172.469 27.0728C172.414 27.1905 172.333 27.2945 172.233 27.3773Z" fill="white"/>
<path d="M333.986 208.005L307.477 204.486L307.688 207.115L285.021 210.119C285.021 210.119 270.38 246.684 283.256 327.054H301.696L308.327 245.562H310.687L317.114 327.054H335.547C348.424 246.684 333.986 208.005 333.986 208.005Z" fill="#8E716C"/>
<path d="M299.902 245.533H319.14" stroke="#282828" stroke-width="0.916569" stroke-linecap="round" stroke-linejoin="round"/>
<path d="M349.44 169.457C347.174 165.837 334.429 165.975 333.76 165.895C330.318 165.497 335.939 192.815 343.129 216.702C343.456 217.78 344.006 218.777 344.745 219.629C345.483 220.481 346.394 221.169 347.417 221.647C348.44 222.125 349.552 222.383 350.681 222.404C351.811 222.425 352.932 222.209 353.972 221.77L354.117 221.712C355.811 220.998 357.209 219.727 358.077 218.11C358.945 216.494 359.232 214.629 358.889 212.828C355.483 194.835 352.062 173.628 349.44 169.457Z" fill="#FFB1A5"/>
<path d="M352.476 179.334L336.215 185.626L334.689 177.936L351.531 173.744L352.476 179.334Z" fill="#F3978E"/>
<path d="M355.548 194.733C355.548 194.733 347.842 205.044 348.213 204.573C348.583 204.102 354.255 187.92 354.255 187.92L355.548 194.733Z" fill="#F3978E"/>
<path d="M366.565 180.861L344.48 209.396C343.794 210.282 343.3 211.299 343.028 212.385C342.756 213.47 342.713 214.6 342.902 215.703C343.09 216.805 343.506 217.857 344.122 218.792C344.739 219.727 345.543 220.524 346.484 221.133C347.422 221.742 348.476 222.151 349.58 222.335C350.684 222.519 351.814 222.473 352.9 222.202C353.985 221.93 355.003 221.437 355.888 220.755C356.774 220.073 357.509 219.215 358.046 218.237L376.435 184.416L366.565 180.861Z" fill="#FFB1A5"/>
<path d="M372.281 188.188C370.568 187.634 369.058 186.587 367.942 185.178C366.825 183.77 366.153 182.063 366.01 180.273C365.867 178.483 366.259 176.692 367.136 175.124C368.014 173.557 369.338 172.284 370.942 171.466C372.545 170.649 374.355 170.324 376.144 170.532C377.932 170.74 379.619 171.472 380.99 172.635C382.362 173.799 383.356 175.342 383.849 177.068C384.341 178.795 384.309 180.629 383.756 182.337C383.388 183.473 382.8 184.526 382.024 185.434C381.248 186.343 380.301 187.091 379.235 187.634C378.169 188.178 377.006 188.506 375.813 188.601C374.62 188.696 373.42 188.556 372.281 188.188Z" fill="#FFB1A5"/>
<path d="M381.723 174.083C381.723 174.083 384.221 171.505 379.798 169.695C375.375 167.885 369.906 168.305 366.413 176.755L381.723 174.083Z" fill="#FFB1A5"/>
<path d="M386.276 156.056L395.529 160.053C395.651 160.109 395.761 160.19 395.85 160.291C395.938 160.393 396.005 160.512 396.044 160.64C396.083 160.769 396.094 160.905 396.077 161.038C396.059 161.171 396.014 161.3 395.943 161.414L383.807 184.07C383.676 184.324 383.455 184.521 383.186 184.622C382.918 184.724 382.622 184.723 382.354 184.62L373.109 180.623C372.987 180.568 372.878 180.487 372.789 180.387C372.7 180.286 372.633 180.168 372.593 180.04C372.554 179.913 372.542 179.778 372.558 179.645C372.574 179.512 372.618 179.384 372.688 179.269L384.853 156.614C384.982 156.365 385.198 156.171 385.459 156.069C385.721 155.966 386.011 155.962 386.276 156.056Z" fill="#372F5F"/>
<path d="M385.426 155.657L394.672 159.654C394.794 159.709 394.903 159.79 394.992 159.89C395.081 159.99 395.147 160.108 395.187 160.236C395.227 160.364 395.239 160.499 395.223 160.632C395.207 160.765 395.162 160.893 395.093 161.008L382.928 183.692C382.798 183.948 382.578 184.146 382.309 184.249C382.041 184.352 381.744 184.352 381.476 184.25L372.223 180.253C372.1 180.197 371.991 180.116 371.902 180.014C371.813 179.913 371.747 179.794 371.708 179.665C371.669 179.537 371.658 179.401 371.675 179.268C371.692 179.134 371.738 179.006 371.809 178.892L383.981 156.178C384.117 155.931 384.339 155.741 384.605 155.645C384.871 155.549 385.163 155.553 385.426 155.657Z" fill="#261B43"/>
<path d="M384.38 157.959L392.507 161.471L382.594 179.934L374.467 176.422L384.38 157.959Z" fill="#E6E6E6"/>
<path d="M392.507 161.471L374.467 176.422L384.38 157.959L392.507 161.471Z" fill="white"/>
<path d="M377.14 168.943C378.51 169.237 379.83 169.725 381.062 170.391C381.459 170.616 381.773 170.964 381.955 171.382C382.137 171.8 382.178 172.265 382.071 172.708C381.969 173.114 381.747 173.48 381.434 173.757C381.12 174.035 380.73 174.212 380.314 174.265L375.506 174.866C375.506 174.866 373 179.21 369.696 179.659L372.724 172.107L377.14 168.943Z" fill="#FFB1A5"/>
<path d="M315.742 133.529C315.212 133.529 349.833 138.308 355.548 177.696L337.617 180.411L333.986 210.098H283.874L273.917 155.2C273.917 155.2 285.021 139.336 305.647 133.479L315.742 133.529Z" fill="#56DFED"/>
<path d="M337.581 180.404L339.142 163.223" stroke="#282828" stroke-width="0.916569" stroke-linecap="round" stroke-linejoin="round"/>
<path d="M319.032 134.094V120.424H302.959V134.253C301.48 134.727 300.038 135.311 298.646 135.998L311.173 143.441L323.992 135.998C322.427 135.154 320.76 134.514 319.032 134.094Z" fill="#FFB1A5"/>
<path d="M302.814 122.091C302.814 122.091 305.719 129.73 313.403 129.071C320.484 128.47 319.358 117.877 319.358 117.877L302.814 122.091Z" fill="#282828"/>
<path d="M295.806 111.932C293.286 114.212 287.65 105.574 290.09 103.149C292.53 100.723 294.375 104.525 294.375 104.525L295.464 107.102L296.285 110.599L296.481 111.512L295.806 111.932Z" fill="#F3978E"/>
<path d="M291.26 106.219C291.26 106.219 293.17 105.364 294.891 108.123" stroke="#282828" stroke-width="0.737726" stroke-linecap="round" stroke-linejoin="round"/>
<path d="M325.59 111.671C327.906 114.155 334.254 106.016 332.032 103.395C329.809 100.774 327.674 104.409 327.674 104.409L326.374 106.885L325.263 110.303L324.987 111.193L325.59 111.671Z" fill="#F3978E"/>
<path d="M330.601 106.349C330.601 106.349 328.771 105.335 326.854 107.935" stroke="#282828" stroke-width="0.737726" stroke-linecap="round" stroke-linejoin="round"/>
<path d="M291.383 94.9018C291.383 106.342 300.134 111.765 310.919 111.765C321.704 111.765 330.456 106.342 330.456 94.9018C330.456 83.4618 321.74 75.6855 310.919 75.6855C300.098 75.6855 291.383 83.4691 291.383 94.9018Z" fill="#282828"/>
<path d="M294.041 95.6982C294.049 101.547 294.716 107.376 296.031 113.075C297.004 117.289 299.735 120.229 303.606 122.597L304.332 123.031C306.368 124.262 308.697 124.924 311.078 124.95C313.458 124.975 315.801 124.363 317.863 123.176C322.053 120.743 324.987 117.536 325.888 113.039C326.935 107.321 327.545 101.531 327.711 95.7199C327.711 95.7199 329.272 78.0024 311.123 78.3427C292.974 78.683 294.041 95.6982 294.041 95.6982Z" fill="#FFB1A5"/>
<path d="M309.765 105.812V108.267C309.765 108.408 309.792 108.548 309.845 108.68C309.953 108.92 310.145 109.114 310.385 109.224C310.626 109.334 310.898 109.355 311.152 109.281L312.277 108.984" stroke="#282828" stroke-width="0.916569" stroke-linecap="round" stroke-linejoin="round"/>
<path d="M306.881 96.3056L297.861 98.4125C297.861 98.4125 298.268 96.1245 301.957 95.2919C305.647 94.4592 306.881 96.3056 306.881 96.3056Z" fill="#282828"/>
<path d="M314.885 96.3056L323.6 98.4125C323.6 98.4125 323.2 96.1245 319.642 95.2919C316.083 94.4592 314.885 96.3056 314.885 96.3056Z" fill="#282828"/>
<path d="M303.453 104.415C304.292 104.415 304.971 103.738 304.971 102.902C304.971 102.066 304.292 101.389 303.453 101.389C302.615 101.389 301.936 102.066 301.936 102.902C301.936 103.738 302.615 104.415 303.453 104.415Z" fill="#282828"/>
<path d="M319.387 102.91C319.387 103.209 319.298 103.502 319.132 103.75C318.965 103.999 318.728 104.193 318.45 104.308C318.173 104.422 317.868 104.452 317.573 104.394C317.279 104.336 317.008 104.191 316.796 103.98C316.584 103.768 316.439 103.499 316.381 103.205C316.322 102.911 316.352 102.607 316.467 102.331C316.582 102.054 316.777 101.818 317.026 101.652C317.276 101.485 317.569 101.396 317.869 101.396C318.272 101.396 318.658 101.556 318.943 101.84C319.227 102.124 319.387 102.508 319.387 102.91Z" fill="#282828"/>
<path d="M304.971 112.135H316.7C316.7 112.135 311.471 118.441 304.971 112.135Z" fill="white"/>
<path d="M307.389 108.049C309.913 105.532 309.913 101.452 307.389 98.9356C304.865 96.419 300.772 96.419 298.248 98.9356C295.724 101.452 295.724 105.532 298.248 108.049C300.772 110.565 304.865 110.565 307.389 108.049Z" stroke="#C98BD2" stroke-width="0.998539" stroke-miterlimit="10"/>
<path d="M323.276 108.053C325.8 105.536 325.8 101.456 323.276 98.9395C320.751 96.4229 316.659 96.4229 314.135 98.9394C311.61 101.456 311.61 105.536 314.135 108.053C316.659 110.569 320.751 110.569 323.276 108.053Z" stroke="#C98BD2" stroke-width="0.998539" stroke-miterlimit="10"/>
<path d="M309.292 103.497C309.292 103.497 310.825 102.049 312.248 103.497" stroke="#C98BD2" stroke-width="0.998539" stroke-miterlimit="10"/>
<path d="M296.35 103.495L294.31 103.438" stroke="#C98BD2" stroke-width="0.998539" stroke-miterlimit="10"/>
<path d="M325.168 103.495L327.217 103.438" stroke="#C98BD2" stroke-width="0.998539" stroke-miterlimit="10"/>
<path d="M327.449 101.578C327.449 101.578 320.186 91.7956 321.864 81.8906C323.624 82.9252 325.141 84.324 326.312 85.9927C327.483 87.6614 328.282 89.5612 328.654 91.5639C330.063 98.5365 327.449 101.578 327.449 101.578Z" fill="#282828"/>
<path d="M294.041 102.236C294.041 102.236 302.473 91.1288 300.796 81.2383C297.099 83.5919 294.487 87.3095 293.533 91.5777C292.131 98.5358 294.041 102.236 294.041 102.236Z" fill="#282828"/>
<path d="M326.846 85.7934C326.846 85.7934 317.528 95.9301 292.043 94.2213C292.043 94.2213 295.943 79.2986 308.297 77.713C308.297 77.713 322.561 76.0114 326.846 85.7934Z" fill="#282828"/>
<path d="M338.215 75.8351C339.286 69.2187 334.774 62.9892 328.138 61.9212C321.501 60.8531 315.253 65.3509 314.181 71.9673C313.11 78.5837 317.622 84.8131 324.258 85.8812C330.895 86.9492 337.143 82.4515 338.215 75.8351Z" fill="#282828"/>
<path d="M177.636 207.977L154.977 204.972L155.18 202.344L128.671 205.863C128.671 205.863 114.204 244.512 127.081 324.882H145.513L151.941 243.39H154.301L160.939 324.882H179.372C192.248 244.512 177.636 207.977 177.636 207.977Z" fill="#282828"/>
<path d="M175.835 98.038C172.452 93.998 169.869 89.3542 168.224 84.3535C165.98 78.0325 158.644 80.6029 158.644 80.6029C158.644 80.6029 152.529 72.7614 143.328 75.4911C134.126 78.2207 130.93 84.7517 130.741 92.5063C130.553 100.261 124.43 101.484 119.717 110.463C111.394 126.312 125.403 139.656 150.946 135.957V135.71C153.988 136.548 157.155 136.842 160.3 136.579C190.912 134.769 188.007 112.295 175.835 98.038Z" fill="#282828"/>
<path d="M165.798 109.789C168.318 112.07 173.947 103.432 171.514 101.006C169.081 98.5808 167.229 102.382 167.229 102.382L166.139 104.96L165.319 108.457L165.123 109.369L165.798 109.789Z" fill="#F3978E"/>
<path d="M170.337 104.047C170.337 104.047 168.434 103.192 166.742 105.951" stroke="#282828" stroke-width="0.737726" stroke-linecap="round" stroke-linejoin="round"/>
<path d="M136.014 109.528C133.697 112.011 127.35 103.88 129.572 101.252C131.794 98.6235 133.93 102.265 133.93 102.265L135.237 104.749L136.348 108.159L136.617 109.05L136.014 109.528Z" fill="#F3978E"/>
<path d="M131.003 104.206C131.003 104.206 132.826 103.193 134.75 105.792" stroke="#282828" stroke-width="0.737726" stroke-linecap="round" stroke-linejoin="round"/>
<path d="M170.214 92.7651C170.214 104.198 161.499 109.621 150.685 109.621C139.871 109.621 131.148 104.198 131.148 92.7651C131.148 81.3324 139.864 73.5488 150.685 73.5488C161.506 73.5488 170.214 81.3251 170.214 92.7651Z" fill="#282828"/>
<path d="M158.644 118.273H142.572V139.017H158.644V118.273Z" fill="#FFB1A5"/>
<path d="M140.227 116.986C140.227 116.986 144.7 125.885 150.205 127.275C151.684 127.63 153.236 127.542 154.665 127.022C156.734 126.298 159.356 123.213 159.807 119.781L160.01 117.833C160.01 117.833 150.242 123.17 140.227 116.986Z" fill="#282828"/>
<path d="M167.563 93.5551C167.554 99.4035 166.887 105.232 165.573 110.932C164.6 115.139 161.862 118.079 157.998 120.446L157.272 120.881C155.236 122.111 152.907 122.774 150.527 122.799C148.146 122.825 145.803 122.212 143.742 121.026C139.551 118.593 136.617 115.385 135.716 110.889C134.669 105.17 134.059 99.3804 133.894 93.5696C133.894 93.5696 132.332 75.852 150.474 76.1923C168.616 76.5326 167.563 93.5551 167.563 93.5551Z" fill="#FFB1A5"/>
<path d="M149.472 104.633V106.081C149.472 106.222 149.499 106.362 149.552 106.494C149.66 106.734 149.852 106.927 150.092 107.038C150.333 107.148 150.605 107.168 150.859 107.095L151.985 106.798" stroke="#282828" stroke-width="0.916569" stroke-linecap="round" stroke-linejoin="round"/>
<path d="M153.248 95.0251L162.907 97.3059C162.907 97.3059 162.464 94.8296 158.513 93.9318C154.563 93.034 153.248 95.0251 153.248 95.0251Z" fill="#282828"/>
<path d="M148.179 95.0251L138.403 97.3059C138.403 97.3059 138.846 94.8296 142.848 93.9318C146.85 93.034 148.179 95.0251 148.179 95.0251Z" fill="#282828"/>
<path d="M144.678 100.998C144.681 101.3 144.594 101.596 144.428 101.848C144.262 102.1 144.024 102.297 143.745 102.414C143.466 102.531 143.159 102.563 142.862 102.505C142.565 102.448 142.292 102.303 142.077 102.09C141.863 101.878 141.717 101.606 141.657 101.31C141.598 101.014 141.629 100.708 141.745 100.429C141.861 100.151 142.057 99.9128 142.309 99.746C142.562 99.5791 142.858 99.4908 143.16 99.4922C143.562 99.4922 143.947 99.6506 144.231 99.9329C144.515 100.215 144.676 100.598 144.678 100.998Z" fill="#282828"/>
<path d="M159.094 100.998C159.096 101.298 159.008 101.591 158.842 101.841C158.676 102.091 158.44 102.286 158.162 102.401C157.885 102.517 157.58 102.548 157.285 102.491C156.99 102.433 156.719 102.289 156.506 102.078C156.293 101.867 156.147 101.597 156.088 101.303C156.029 101.01 156.059 100.705 156.173 100.428C156.288 100.151 156.483 99.9143 156.732 99.7477C156.982 99.5811 157.276 99.4922 157.576 99.4922C157.775 99.4913 157.973 99.5295 158.157 99.6048C158.341 99.68 158.508 99.7908 158.649 99.9307C158.79 100.071 158.902 100.237 158.979 100.42C159.055 100.603 159.094 100.8 159.094 100.998Z" fill="#282828"/>
<path d="M143.705 109.621H157.054C157.054 109.621 156.11 113.278 150.06 113.278C148.767 113.305 147.491 112.978 146.37 112.334C145.25 111.689 144.328 110.751 143.705 109.621Z" fill="white"/>
<path d="M134.147 99.435C134.147 99.435 141.41 89.6531 139.732 79.748C137.972 80.7826 136.456 82.1814 135.284 83.8501C134.113 85.5188 133.314 87.4187 132.942 89.4214C131.54 96.4012 134.147 99.435 134.147 99.435Z" fill="#282828"/>
<path d="M167.57 99.1093C167.57 99.1093 159.145 88.9726 160.816 79.082C164.513 81.4356 167.124 85.1532 168.078 89.4215C169.473 96.4013 167.57 99.1093 167.57 99.1093Z" fill="#282828"/>
<path d="M134.758 83.6508C134.758 83.6508 143.081 94.8084 168.565 93.0634C168.565 93.0634 165.66 77.1343 153.314 75.5704C153.307 75.5704 139.043 73.8689 134.758 83.6508Z" fill="#282828"/>
<path d="M111.524 257.047C111.154 257.633 132.738 163.427 126.326 164.846C125.745 164.976 114.524 166.019 112.853 169.4C108.017 179.197 104.552 256.337 104.552 256.337L111.524 257.047Z" fill="#FFB1A5"/>
<path d="M104.552 256.336C104.552 256.336 101.073 272.425 114.226 274.199C114.646 274.255 115.074 274.165 115.435 273.943C115.797 273.722 116.07 273.382 116.209 272.982L116.252 272.874C116.399 272.435 116.376 271.957 116.186 271.534C115.996 271.112 115.655 270.776 115.228 270.593C113.086 269.637 109.759 267.226 111.408 261.738C111.408 261.738 113.311 261.506 114.357 265.039C114.419 265.253 114.527 265.451 114.674 265.619C114.821 265.786 115.003 265.92 115.207 266.01C115.411 266.099 115.633 266.143 115.856 266.138C116.08 266.133 116.299 266.08 116.499 265.981C116.782 265.839 117.014 265.613 117.162 265.334C117.311 265.055 117.368 264.737 117.327 264.424C117.008 261.948 115.758 255.989 110.965 254.389L104.552 256.336Z" fill="#FFB1A5"/>
<path d="M108.975 192.034C108.975 192.034 121.409 209.491 121.474 209.158C121.539 208.825 125.832 184.641 125.832 184.641L110.74 178.125L108.975 192.034Z" fill="#F3978E"/>
<path d="M143.531 135.608C144.061 135.608 112.795 136.165 107.08 175.524L125.047 178.269L128.679 207.955H178.791L188.733 153.079C188.733 153.079 181.659 141.19 161.041 135.361L143.531 135.608Z" fill="#00857B"/>
<path d="M128.25 140.364C128.25 140.364 132.666 146.215 150.764 146.215C168.695 146.215 173.278 140.06 173.278 140.06C173.278 140.06 162.704 134.174 150.437 132.27C142.685 133.874 135.21 136.601 128.25 140.364Z" fill="#FFB1A5"/>
<path d="M189.765 265.047L189.808 343.541H228.758L231.75 265.047H189.765Z" fill="#005683"/>
<path d="M274.33 265.047L274.287 343.541H235.337L232.345 265.047H274.33Z" fill="#005683"/>
<path d="M253.058 265.047H212.787V292.315H253.058V265.047Z" fill="#005683"/>
<path d="M218.415 292.314H246.187" stroke="#282828" stroke-width="1.04325" stroke-linecap="round" stroke-linejoin="round"/>
<path d="M298.936 196.551C301.347 223.152 298.798 242.528 299.502 291.467L276.262 292.444L272.798 200.83L298.936 196.551Z" fill="#FFB1A5"/>
<path d="M275.659 217.31C275.659 217.31 290.054 215.992 299.902 209.519L299.64 203.828L275.674 207.086L275.659 217.31Z" fill="#F3978E"/>
<path d="M252.564 135.318C252.564 135.318 298.319 146.78 306.576 204.646C306.576 204.646 284.2 214.319 261.773 210.156L266.814 190.802L252.564 135.318Z" fill="#C98BD2"/>
<path d="M115.984 159.379L150.031 199.462L139.616 228.714C139.616 228.714 113.74 192.845 102.112 165.121L115.984 159.379Z" fill="#FFB1A5"/>
<path d="M117.102 160.82C117.102 160.82 105.148 167.561 102.112 165.121C96.7957 160.863 92.4019 145.282 92.4019 145.282C92.4019 145.282 114.763 136.883 114.553 137.208C114.342 137.534 117.102 160.82 117.102 160.82Z" fill="#FFB1A5"/>
<path d="M117.102 160.819C116.891 159.624 121.539 146.678 123.13 141.827C123.208 141.538 123.226 141.236 123.181 140.94C123.137 140.644 123.032 140.36 122.872 140.107C122.712 139.853 122.502 139.635 122.254 139.466C122.006 139.298 121.725 139.182 121.43 139.126C120.909 138.99 120.357 139.026 119.857 139.23C119.358 139.433 118.939 139.794 118.663 140.256L113.057 149.813L117.102 160.819Z" fill="#FFB1A5"/>
<path d="M116.696 146.83L112.847 127.736C112.725 127.117 112.365 126.571 111.844 126.213C111.322 125.856 110.681 125.717 110.058 125.825C109.534 125.919 109.065 126.209 108.748 126.635C108.431 127.062 108.289 127.593 108.351 128.12L110.036 142.341L116.696 146.83Z" fill="#FFB1A5"/>
<path d="M109.04 139.786L103.811 126.152C103.594 125.578 103.166 125.109 102.614 124.84C102.062 124.571 101.428 124.522 100.841 124.704C100.346 124.866 99.931 125.207 99.678 125.661C99.4249 126.115 99.3526 126.647 99.4754 127.151L103.354 142.906L109.04 139.786Z" fill="#FFB1A5"/>
<path d="M103.419 143.804L96.8031 130.409C96.514 129.808 96.0052 129.341 95.3812 129.102C94.7572 128.864 94.0654 128.873 93.4477 129.127C93.1711 129.247 92.9208 129.42 92.7114 129.636C92.502 129.852 92.3375 130.108 92.2275 130.388C92.1175 130.668 92.0641 130.966 92.0703 131.267C92.0766 131.568 92.1424 131.864 92.2639 132.139L97.5438 144.788L103.419 143.804Z" fill="#FFB1A5"/>
<path d="M92.4022 145.318L87.2167 137.114C87.1106 136.892 87.0499 136.651 87.0382 136.405C87.0265 136.16 87.064 135.914 87.1485 135.683C87.233 135.452 87.3628 135.24 87.5304 135.059C87.698 134.878 87.8999 134.733 88.1245 134.631C88.5743 134.436 89.0776 134.402 89.5498 134.534C90.0219 134.666 90.4342 134.956 90.7172 135.355L97.5441 144.767L92.4022 145.318Z" fill="#FFB1A5"/>
<path d="M115.65 145.396C115.65 145.396 107.857 144.578 107.051 154.932" stroke="#282828" stroke-width="1.14012" stroke-linecap="round" stroke-linejoin="round"/>
<path d="M132.71 215.028C132.71 215.028 139.116 237.119 151.876 234.187C164.636 231.254 184.521 204.081 184.521 204.081L180.069 157.684L144.257 201.633L132.71 215.028Z" fill="#FFB1A5"/>
<path d="M155.361 187.978C155.361 187.978 167.454 206.166 177.766 212.596L184.521 204.103L158.477 184.018L155.361 187.978Z" fill="#F3978E"/>
<path d="M208.262 134.312C208.262 134.312 172.755 142.292 153.873 183.425C153.873 183.425 165.304 200.592 183.649 208.224L195.923 193.243L208.262 134.312Z" fill="#C98BD2"/>
<path d="M208.262 134.19C199.908 138.463 192.287 144.03 185.683 150.684L188.413 270.919H275.804L275.521 151.306C275.521 151.306 264.504 140.554 252.564 135.319C242.425 130.837 218.125 129.15 208.262 134.19Z" fill="#C98BD2"/>
<path d="M237.487 168.537H261.795V180.65C261.795 183.865 260.514 186.948 258.234 189.221C255.954 191.494 252.862 192.771 249.638 192.771C246.415 192.769 243.324 191.491 241.046 189.218C238.767 186.946 237.487 183.864 237.487 180.65V168.537Z" stroke="#282828" stroke-width="1.04325" stroke-linecap="round" stroke-linejoin="round"/>
<path d="M275.667 210.598L276.8 171.268" stroke="#282828" stroke-width="1.04325" stroke-linecap="round" stroke-linejoin="round"/>
<path d="M187.026 204.045L185.138 169.949" stroke="#282828" stroke-width="1.04325" stroke-linecap="round" stroke-linejoin="round"/>
<path d="M209.287 90.289L205.655 72.3253C205.445 70.8772 204.878 68.6037 205.576 66.4822C206.73 62.9706 210.972 56.2297 218.22 59.3141L219.788 66.4316C219.788 66.4316 212.257 67.9448 209.236 77.7557L209.287 90.289Z" fill="#282828"/>
<path d="M217.675 63C217.544 65.3604 215.452 75.6926 208.11 79.4577C208.11 79.4287 201.668 65.6717 217.675 63Z" fill="#282828"/>
<path d="M243.457 130.881V100.369H215.242V130.881L206.846 134.696C206.846 134.696 208.814 147.338 229.643 147.621C250.473 147.903 252.564 135.312 252.564 135.312L243.457 130.881Z" fill="#FFB1A5"/>
<path d="M218.212 59.2929C218.212 59.2929 223.391 45.6735 239.354 52.914C249.02 57.2945 251.7 63.1738 252.877 67.3371C253.257 68.9246 253.401 70.559 253.305 72.1883L249.442 90.2895L234.364 65.2736L219.781 66.3959L218.212 59.2929Z" fill="#282828"/>
<path d="M249.442 90.2904C249.442 90.2904 251.345 87.2784 255.252 88.7627C259.159 90.247 257.431 99.7393 251.519 100.956C250.858 101.072 250.179 101.044 249.53 100.874C248.88 100.704 248.276 100.396 247.757 99.971C247.757 99.971 249.217 92.9332 249.442 90.2904Z" fill="#F3978E"/>
<path d="M254.489 92.0927C254.489 92.0927 251.206 90.9994 248.875 95.8216" stroke="#282828" stroke-width="1.04325" stroke-linecap="round" stroke-linejoin="round"/>
<path d="M209.286 90.2904C209.286 90.2904 207.383 87.2784 203.476 88.7627C199.569 90.247 201.297 99.7393 207.216 100.956C207.878 101.072 208.556 101.044 209.206 100.874C209.855 100.704 210.46 100.396 210.978 99.971C210.978 99.971 209.519 92.9332 209.286 90.2904Z" fill="#F3978E"/>
<path d="M204.239 92.0927C204.239 92.0927 207.529 90.9994 209.861 95.8216" stroke="#282828" stroke-width="1.04325" stroke-linecap="round" stroke-linejoin="round"/>
<path d="M249.833 81.2613C249.833 86.9813 249.274 98.9643 245.745 106.074C242.433 112.75 236.95 116.342 229.767 116.551C222.584 116.761 217.224 114.01 212.932 105.343C208.64 96.6763 208.843 81.3626 208.843 81.3626C208.843 81.3626 208.843 60.9082 229.12 60.9082C250.465 60.9082 249.833 81.2613 249.833 81.2613Z" fill="#FFB1A5"/>
<path d="M215.453 109.615C215.453 109.615 217.82 121.562 228.249 122.938C240.254 124.516 243.457 109.905 243.457 109.905C243.457 109.905 238.148 116.53 229.76 116.537C227.007 116.527 224.292 115.9 221.815 114.701C219.339 113.503 217.164 111.765 215.453 109.615Z" fill="#282828"/>
<path d="M227.893 89.7461V94.4814C227.892 94.6796 227.929 94.8762 228.002 95.0606C228.152 95.3969 228.42 95.6674 228.755 95.8219C229.09 95.9764 229.471 96.0043 229.825 95.9005L231.401 95.4878" stroke="#282828" stroke-width="1.04325" stroke-linecap="round" stroke-linejoin="round"/>
<path d="M221.902 87.4875C221.902 87.8513 221.794 88.2068 221.591 88.5093C221.388 88.8117 221.1 89.0474 220.763 89.1866C220.426 89.3258 220.055 89.3623 219.697 89.2913C219.339 89.2203 219.011 89.0452 218.753 88.788C218.495 88.5308 218.319 88.2031 218.248 87.8463C218.177 87.4896 218.213 87.1198 218.353 86.7837C218.492 86.4477 218.729 86.1605 219.032 85.9584C219.336 85.7563 219.692 85.6484 220.057 85.6484C220.299 85.6484 220.539 85.696 220.763 85.7884C220.987 85.8809 221.19 86.0163 221.362 86.1871C221.533 86.3579 221.669 86.5606 221.761 86.7837C221.854 87.0069 221.902 87.246 221.902 87.4875Z" fill="#282828"/>
<path d="M239.208 87.4875C239.208 87.8513 239.1 88.2068 238.898 88.5093C238.695 88.8117 238.407 89.0474 238.07 89.1866C237.733 89.3258 237.362 89.3623 237.004 89.2913C236.646 89.2203 236.317 89.0452 236.059 88.788C235.801 88.5308 235.626 88.2031 235.554 87.8463C235.483 87.4896 235.52 87.1198 235.659 86.7837C235.799 86.4477 236.036 86.1605 236.339 85.9584C236.642 85.7563 236.999 85.6484 237.364 85.6484C237.853 85.6484 238.322 85.8422 238.668 86.1871C239.014 86.532 239.208 86.9998 239.208 87.4875Z" fill="#282828"/>
<path d="M232.636 78.3359L245.048 81.5289C245.048 81.5289 244.488 78.0607 239.412 76.8009C234.335 75.541 232.636 78.3359 232.636 78.3359Z" fill="#282828"/>
<path d="M224.93 78.3359L212.518 81.5289C212.518 81.5289 213.077 78.0607 218.154 76.8009C223.23 75.541 224.93 78.3359 224.93 78.3359Z" fill="#282828"/>
<path d="M222.461 99.2539C222.461 99.2539 224.291 100.651 229.106 100.651C231.55 100.706 233.976 100.229 236.216 99.2539" stroke="#282828" stroke-width="1.04325" stroke-linecap="round" stroke-linejoin="round"/>
<path d="M219.563 95.8426C223.895 95.8426 227.407 92.3416 227.407 88.0229C227.407 83.7041 223.895 80.2031 219.563 80.2031C215.231 80.2031 211.72 83.7041 211.72 88.0229C211.72 92.3416 215.231 95.8426 219.563 95.8426Z" stroke="white" stroke-width="1.4531" stroke-miterlimit="10"/>
<path d="M238.83 95.8426C243.162 95.8426 246.674 92.3416 246.674 88.0229C246.674 83.7041 243.162 80.2031 238.83 80.2031C234.499 80.2031 230.987 83.7041 230.987 88.0229C230.987 92.3416 234.499 95.8426 238.83 95.8426Z" stroke="white" stroke-width="1.4531" stroke-miterlimit="10"/>
<path d="M227.407 88.0237C227.407 88.0237 229.259 86.3005 230.987 88.0237" stroke="white" stroke-width="1.4531" stroke-miterlimit="10"/>
<path d="M211.72 88.0222L209.091 87.957" stroke="white" stroke-width="1.4531" stroke-miterlimit="10"/>
<path d="M246.674 88.0239L249.608 87.9805" stroke="white" stroke-width="1.4531" stroke-miterlimit="10"/>
<path d="M215.453 63.5007C215.453 63.5007 219.222 74.166 236.224 73.8402C247.771 73.6157 250.531 81.9495 250.531 81.9495C250.531 81.9495 248.519 63.327 247.989 63.5007C247.459 63.6745 230.414 58.9609 230.414 58.9609L215.453 63.5007Z" fill="#282828"/>
</g>
<defs>
<clipPath id="clip0_378_10244">
<rect width="467" height="343.54" fill="white"/>
</clipPath>
</defs>
</svg>
