<svg width="467" height="344" fill="none" xmlns="http://www.w3.org/2000/svg"><g clip-path="url(#a)"><path d="M51.456 89.326h362.672m-4.735-23.697H56.191a4.728 4.728 0 0 0-4.735 4.72v214.262a4.728 4.728 0 0 0 4.735 4.721h353.202a4.728 4.728 0 0 0 4.735-4.721V70.35a4.728 4.728 0 0 0-4.735-4.721Z" stroke="#DED8D5" stroke-width="1.468" stroke-miterlimit="10"/><path d="M75.357 77.72a3.316 3.316 0 0 1-2.044 3.062 3.328 3.328 0 0 1-3.62-.713 3.306 3.306 0 0 1-.722-3.607 3.326 3.326 0 0 1 5.411-1.078c.622.62.973 1.46.975 2.336Z" fill="#FFB1A5"/><path d="M88.248 77.72a3.302 3.302 0 0 1-2.044 3.062 3.328 3.328 0 0 1-3.62-.713 3.306 3.306 0 0 1-.722-3.607 3.326 3.326 0 0 1 5.411-1.078c.622.62.973 1.46.975 2.336Z" fill="#EAD254"/><path d="M101.139 77.72a3.304 3.304 0 0 1-2.044 3.062 3.328 3.328 0 0 1-3.62-.713 3.306 3.306 0 0 1-.722-3.607 3.326 3.326 0 0 1 3.067-2.044 3.32 3.32 0 0 1 2.346.964 3.292 3.292 0 0 1 .973 2.338Z" fill="#00857B"/><path d="M461.241 81.898h-85.234a4.343 4.343 0 0 0-4.35 4.338v78.588a4.343 4.343 0 0 0 4.35 4.337h85.234a4.343 4.343 0 0 0 4.35-4.337V86.235a4.343 4.343 0 0 0-4.35-4.337Z" fill="#EDEDED"/><path d="M461.241 81.898h-85.234a4.343 4.343 0 0 0-4.35 4.338v78.588a4.343 4.343 0 0 0 4.35 4.337h85.234a4.343 4.343 0 0 0 4.35-4.337V86.235a4.343 4.343 0 0 0-4.35-4.337Z" stroke="#DED8D5" stroke-width="1.468" stroke-miterlimit="10"/><path d="M396.611 146.461h44.302a4.366 4.366 0 0 0 4.372-4.359v-36.195a4.366 4.366 0 0 0-4.372-4.359h-44.302a4.366 4.366 0 0 0-4.372 4.359v36.195a4.366 4.366 0 0 0 4.372 4.359Z" fill="#C98BD2"/><path d="M430.861 131.472h-24.475v-16.37h24.475v16.37Z" stroke="#fff" stroke-width="1.23" stroke-linecap="round" stroke-linejoin="round"/><path d="m406.386 115.102 12.238 9.615 12.237-9.615" stroke="#fff" stroke-width="1.23" stroke-linecap="round" stroke-linejoin="round"/><path d="M86.15 156.041H4.858a4.14 4.14 0 0 0-4.147 4.134v70.66a4.14 4.14 0 0 0 4.147 4.135h81.29a4.14 4.14 0 0 0 4.147-4.135v-70.66a4.14 4.14 0 0 0-4.147-4.134Z" fill="#EDEDED"/><path d="M86.15 156.041H4.858a4.14 4.14 0 0 0-4.147 4.134v70.66a4.14 4.14 0 0 0 4.147 4.135h81.29a4.14 4.14 0 0 0 4.147-4.135v-70.66a4.14 4.14 0 0 0-4.147-4.134Z" stroke="#DED8D5" stroke-width="1.468" stroke-miterlimit="10"/><path d="M66.38 169.559H24.22c-2.662 0-4.822 2.152-4.822 4.807v40.591c0 2.655 2.16 4.807 4.823 4.807h42.16c2.662 0 4.822-2.152 4.822-4.807v-40.591c0-2.655-2.16-4.807-4.823-4.807Z" fill="#FFB1A5"/><path d="M35.253 184.807a14.565 14.565 0 0 0-3.178 15.916 14.618 14.618 0 0 0 5.395 6.555 14.687 14.687 0 0 0 16.278 0 14.619 14.619 0 0 0 5.395-6.555 14.565 14.565 0 0 0-3.177-15.916 14.728 14.728 0 0 0-10.357-4.252c-3.88 0-7.602 1.528-10.356 4.252Zm20.676 2.107h-4.662a30.277 30.277 0 0 0-1.816-4.388 13.173 13.173 0 0 1 6.478 4.388Zm-15.694 7.363c.012-1.909.256-3.811.726-5.662h9.369c.47 1.851.714 3.753.726 5.662H40.235ZM50.933 196a27.617 27.617 0 0 1-1.01 5.663h-8.62A27.603 27.603 0 0 1 40.3 196h10.633Zm-5.324-14.024c.693-.003 1.385.051 2.07.159a26.568 26.568 0 0 1 2.12 4.793h-8.38a26.84 26.84 0 0 1 2.12-4.793 13.048 13.048 0 0 1 2.07-.174v.015Zm-3.842.564a30.334 30.334 0 0 0-1.815 4.388h-4.663a13.21 13.21 0 0 1 6.478-4.402v.014Zm-7.64 6.09h5.345a24.881 24.881 0 0 0-.726 5.662h-6.319a13.082 13.082 0 0 1 1.7-5.677v.015Zm0 13.033a13.06 13.06 0 0 1-1.7-5.663h6.319c.098 1.914.398 3.811.893 5.663h-5.512Zm1.162 1.708h4.859a34.907 34.907 0 0 0 1.8 4.439 13.266 13.266 0 0 1-6.659-4.453v.014Zm10.32 4.938a13.503 13.503 0 0 1-1.728-.116 39.3 39.3 0 0 1-2.048-4.836h7.553a38.181 38.181 0 0 1-2.048 4.836 13.51 13.51 0 0 1-1.729.116Zm3.631-.514a36.048 36.048 0 0 0 1.809-4.438H55.9a13.231 13.231 0 0 1-6.609 4.438h-.05Zm7.83-6.147h-5.52c.495-1.851.795-3.749.893-5.662h6.326a13.148 13.148 0 0 1-1.67 5.662h-.03Zm1.699-7.371h-6.297a25.732 25.732 0 0 0-.726-5.662h5.345a13.187 13.187 0 0 1 1.707 5.662h-.029Z" fill="#fff"/><path d="M81.305 44.986H7.663c-.73 0-1.43-.289-1.947-.803a2.74 2.74 0 0 1 0-3.881 2.757 2.757 0 0 1 1.947-.804h73.642c.73 0 1.43.29 1.947.804a2.74 2.74 0 0 1 0 3.88 2.757 2.757 0 0 1-1.947.804Z" fill="#C98BD2"/><path d="M464.24 224.326h-35.746a2.764 2.764 0 0 1-1.947-.809 2.738 2.738 0 0 1 0-3.883 2.758 2.758 0 0 1 1.947-.804h35.746c.73 0 1.43.289 1.947.804a2.738 2.738 0 0 1 0 3.883 2.764 2.764 0 0 1-1.947.809Z" fill="#56DFED"/><path d="M439.213 247.857h-4.372a2.075 2.075 0 0 0-2.077 2.071v4.091c0 1.144.93 2.071 2.077 2.071h4.372a2.074 2.074 0 0 0 2.077-2.071v-4.091c0-1.143-.93-2.071-2.077-2.071Z" fill="#C98BD2"/><path d="M25.209 266.885h-4.373a2.074 2.074 0 0 0-2.077 2.071v4.09c0 1.144.93 2.071 2.077 2.071h4.373a2.074 2.074 0 0 0 2.077-2.071v-4.09c0-1.144-.93-2.071-2.078-2.071ZM359.492 20.092H286.8a2.183 2.183 0 0 0-2.186 2.18v17.695c0 1.204.979 2.18 2.186 2.18h72.692a2.183 2.183 0 0 0 2.186-2.18V22.271c0-1.204-.979-2.18-2.186-2.18Z" fill="#FFB1A5"/><path d="M295.109 27.95h51.695m-51.695 5.292h21.054" stroke="#fff" stroke-width=".879" stroke-miterlimit="10"/><path d="M293.002 39.648v8.602l10.843-8.602h-10.843Z" fill="#FFB1A5"/><path d="M144.221 0h36.683a4.7 4.7 0 0 1 3.318 1.37 4.67 4.67 0 0 1 1.374 3.307V38.78a4.673 4.673 0 0 1-1.379 3.298 4.701 4.701 0 0 1-3.313 1.365h-35.187a6.196 6.196 0 0 1-4.375-1.807 6.158 6.158 0 0 1-1.813-4.362V4.692a4.662 4.662 0 0 1 1.369-3.317A4.697 4.697 0 0 1 144.221 0Z" fill="#56DFED"/><path d="m173.307 24.945-2.621-2.614a2.29 2.29 0 0 0-1.685-.79c-.636.01-1.242.27-1.685.724l-1.504 1.492-.276-.138c-.188-.094-.326-.144-.472-.231a16.27 16.27 0 0 1-3.885-3.555 8.216 8.216 0 0 1-1.22-1.912c.377-.326.726-.724 1.031-1.028l.421-.42c.25-.213.451-.478.589-.776a2.276 2.276 0 0 0 0-1.901 2.282 2.282 0 0 0-.589-.777l-1.307-1.31a4.36 4.36 0 0 1-.428-.463l-.887-.891a2.45 2.45 0 0 0-1.684-.724 2.325 2.325 0 0 0-1.685.724l-1.642 1.636a3.705 3.705 0 0 0-1.075 2.288 8.508 8.508 0 0 0 .603 3.548 19.27 19.27 0 0 0 3.632 6.118 22.736 22.736 0 0 0 7.495 5.836 12.448 12.448 0 0 0 4.219 1.26h.327a3.737 3.737 0 0 0 2.811-1.21l.043-.05a7.64 7.64 0 0 1 .843-.84l.61-.608a2.334 2.334 0 0 0 .021-3.389Zm-1.074 2.432-.56.558c-.334.282-.61.608-.937.934a2.225 2.225 0 0 1-1.692.724h-.232a9.85 9.85 0 0 1-3.631-1.122 21.29 21.29 0 0 1-7.002-5.518 20.151 20.151 0 0 1-3.42-5.647 5.77 5.77 0 0 1-.559-2.896 1.952 1.952 0 0 1 .653-1.354l1.591-1.586a1.01 1.01 0 0 1 .661-.326.892.892 0 0 1 .653.326l.843.84c.146.167.304.325.472.47l1.307 1.304c.182.172.298.403.327.651a.976.976 0 0 1-.327.66l-.421.42-1.17 1.165-.05.043a1.032 1.032 0 0 0-.276 1.173v.044c.394.915.915 1.77 1.547 2.541a17.305 17.305 0 0 0 4.263 3.881c.191.125.393.234.603.326.162.067.319.144.472.232l.043.05a1.087 1.087 0 0 0 1.315-.239l1.641-1.629a.948.948 0 0 1 .654-.333.988.988 0 0 1 .61.333l2.622 2.614a.881.881 0 0 1 0 1.361Z" fill="#fff"/><path d="m333.986 208.005-26.509-3.519.211 2.629-22.667 3.004s-14.641 36.565-1.765 116.935h18.44l6.631-81.492h2.36l6.427 81.492h18.433c12.877-80.37-1.561-119.049-1.561-119.049Z" fill="#8E716C"/><path d="M299.902 245.533h19.238" stroke="#282828" stroke-width=".917" stroke-linecap="round" stroke-linejoin="round"/><path d="M349.44 169.457c-2.266-3.62-15.011-3.482-15.68-3.562-3.442-.398 2.179 26.92 9.369 50.807a8.036 8.036 0 0 0 4.288 4.945 8.065 8.065 0 0 0 6.555.123l.145-.058a8.035 8.035 0 0 0 3.96-3.602 8 8 0 0 0 .812-5.282c-3.406-17.993-6.827-39.2-9.449-43.371Z" fill="#FFB1A5"/><path d="m352.476 179.334-16.261 6.292-1.526-7.69 16.842-4.192.945 5.59Zm3.072 15.399s-7.706 10.311-7.335 9.84c.37-.471 6.042-16.653 6.042-16.653l1.293 6.813Z" fill="#F3978E"/><path d="m366.565 180.861-22.085 28.535a8.092 8.092 0 0 0-1.452 2.989 8.09 8.09 0 0 0 3.456 8.748 8.144 8.144 0 0 0 11.562-2.896l18.389-33.821-9.87-3.555Z" fill="#FFB1A5"/><path d="M372.281 188.188a9.11 9.11 0 0 1-4.339-3.01 9.05 9.05 0 0 1-.806-10.054 9.1 9.1 0 0 1 3.806-3.658 9.133 9.133 0 0 1 10.048 1.169 9.086 9.086 0 0 1 2.859 4.433 9.053 9.053 0 0 1-1.825 8.366 9.12 9.12 0 0 1-9.743 2.754Z" fill="#FFB1A5"/><path d="M381.723 174.083s2.498-2.578-1.925-4.388-9.892-1.39-13.385 7.06l15.31-2.672Z" fill="#FFB1A5"/><path d="m386.276 156.056 9.253 3.997a.964.964 0 0 1 .321.238.958.958 0 0 1 .093 1.123l-12.136 22.656a1.164 1.164 0 0 1-1.453.55l-9.245-3.997a.955.955 0 0 1-.516-.583.958.958 0 0 1 .095-.771l12.165-22.655a1.167 1.167 0 0 1 1.423-.558Z" fill="#372F5F"/><path d="m385.426 155.657 9.246 3.997a.955.955 0 0 1 .515.582.948.948 0 0 1-.094.772l-12.165 22.684a1.167 1.167 0 0 1-1.452.558l-9.253-3.997a.944.944 0 0 1-.515-.588.951.951 0 0 1 .101-.773l12.172-22.714a1.164 1.164 0 0 1 1.445-.521Z" fill="#261B43"/><path d="m384.38 157.959 8.127 3.512-9.913 18.463-8.127-3.512 9.913-18.463Z" fill="#E6E6E6"/><path d="m392.507 161.471-18.04 14.951 9.913-18.463 8.127 3.512Z" fill="#fff"/><path d="M377.14 168.943c1.37.294 2.69.782 3.922 1.448.397.225.711.573.893.991.182.418.223.883.116 1.326a2.076 2.076 0 0 1-1.757 1.557l-4.808.601s-2.506 4.344-5.81 4.793l3.028-7.552 4.416-3.164Z" fill="#FFB1A5"/><path d="M315.742 133.529c-.53 0 34.091 4.779 39.806 44.167l-17.931 2.715-3.631 29.687h-50.112l-9.957-54.898s11.104-15.864 31.73-21.721l10.095.05Z" fill="#56DFED"/><path d="m337.581 180.404 1.561-17.181" stroke="#282828" stroke-width=".917" stroke-linecap="round" stroke-linejoin="round"/><path d="M319.032 134.094v-13.67h-16.073v13.829a31.405 31.405 0 0 0-4.313 1.745l12.527 7.443 12.819-7.443a20.798 20.798 0 0 0-4.96-1.904Z" fill="#FFB1A5"/><path d="M302.814 122.091s2.905 7.639 10.589 6.98c7.081-.601 5.955-11.194 5.955-11.194l-16.544 4.214Z" fill="#282828"/><path d="M295.806 111.932c-2.52 2.28-8.156-6.358-5.716-8.783 2.44-2.426 4.285 1.376 4.285 1.376l1.089 2.577.821 3.497.196.913-.675.42Z" fill="#F3978E"/><path d="M291.26 106.219s1.91-.855 3.631 1.904" stroke="#282828" stroke-width=".738" stroke-linecap="round" stroke-linejoin="round"/><path d="M325.59 111.671c2.316 2.484 8.664-5.655 6.442-8.276-2.223-2.621-4.358 1.014-4.358 1.014l-1.3 2.476-1.111 3.418-.276.89.603.478Z" fill="#F3978E"/><path d="M330.601 106.349s-1.83-1.014-3.747 1.586" stroke="#282828" stroke-width=".738" stroke-linecap="round" stroke-linejoin="round"/><path d="M291.383 94.902c0 11.44 8.751 16.863 19.536 16.863 10.785 0 19.537-5.423 19.537-16.863s-8.716-19.216-19.537-19.216-19.536 7.783-19.536 19.216Z" fill="#282828"/><path d="M294.041 95.698a77.758 77.758 0 0 0 1.99 17.377c.973 4.214 3.704 7.154 7.575 9.522l.726.434a13.317 13.317 0 0 0 13.531.145c4.19-2.433 7.124-5.64 8.025-10.137a114.277 114.277 0 0 0 1.823-17.32s1.561-17.717-16.588-17.376c-18.149.34-17.082 17.355-17.082 17.355Z" fill="#FFB1A5"/><path d="M309.765 105.812v2.455c0 .141.027.281.08.413.108.24.3.434.54.544.241.11.513.131.767.057l1.125-.297" stroke="#282828" stroke-width=".917" stroke-linecap="round" stroke-linejoin="round"/><path d="m306.881 96.306-9.02 2.106s.407-2.288 4.096-3.12c3.69-.833 4.924 1.014 4.924 1.014Zm8.004 0 8.715 2.106s-.4-2.288-3.958-3.12c-3.559-.833-4.757 1.014-4.757 1.014Zm-11.432 8.109c.839 0 1.518-.677 1.518-1.513 0-.836-.679-1.513-1.518-1.513-.838 0-1.517.677-1.517 1.513 0 .836.679 1.513 1.517 1.513Zm15.934-1.505a1.512 1.512 0 0 1-.937 1.398 1.521 1.521 0 0 1-2.069-1.103 1.503 1.503 0 0 1 .645-1.553 1.517 1.517 0 0 1 2.361 1.258Z" fill="#282828"/><path d="M304.971 112.135H316.7s-5.229 6.306-11.729 0Z" fill="#fff"/><path d="M307.389 108.049a6.43 6.43 0 0 0 0-9.113 6.478 6.478 0 0 0-9.141 0 6.43 6.43 0 0 0 0 9.113 6.479 6.479 0 0 0 9.141 0Zm15.887.004a6.43 6.43 0 0 0 0-9.114 6.478 6.478 0 0 0-9.141 0 6.43 6.43 0 0 0 0 9.114 6.479 6.479 0 0 0 9.141 0Z" stroke="#C98BD2" stroke-width=".999" stroke-miterlimit="10"/><path d="M309.292 103.497s1.533-1.448 2.956 0m-15.898-.002-2.04-.057m30.858.057 2.049-.057" stroke="#C98BD2" stroke-width=".999" stroke-miterlimit="10"/><path d="M327.449 101.578s-7.263-9.782-5.585-19.687a14.264 14.264 0 0 1 4.448 4.102 14.22 14.22 0 0 1 2.342 5.57c1.409 6.974-1.205 10.015-1.205 10.015Zm-33.408.658s8.432-11.107 6.755-20.998a16.537 16.537 0 0 0-7.263 10.34c-1.402 6.958.508 10.658.508 10.658Z" fill="#282828"/><path d="M326.846 85.793s-9.318 10.137-34.803 8.428c0 0 3.9-14.922 16.254-16.508 0 0 14.264-1.702 18.549 8.08Z" fill="#282828"/><path d="M338.215 75.835c1.071-6.616-3.441-12.846-10.077-13.914-6.637-1.068-12.885 3.43-13.957 10.046-1.071 6.617 3.441 12.846 10.077 13.914 6.637 1.068 12.885-3.43 13.957-10.046ZM177.636 207.977l-22.659-3.005.203-2.628-26.509 3.519s-14.467 38.649-1.59 119.019h18.432l6.428-81.492h2.36l6.638 81.492h18.433c12.876-80.37-1.736-116.905-1.736-116.905Zm-1.801-109.939a41.53 41.53 0 0 1-7.611-13.684c-2.244-6.322-9.58-3.751-9.58-3.751s-6.115-7.842-15.316-5.112c-9.202 2.73-12.398 9.26-12.587 17.015-.188 7.755-6.311 8.978-11.024 17.957-8.323 15.849 5.686 29.193 31.229 25.494v-.247a26.81 26.81 0 0 0 9.354.869c30.612-1.81 27.707-24.284 15.535-38.541Z" fill="#282828"/><path d="M165.798 109.789c2.52 2.281 8.149-6.357 5.716-8.783-2.433-2.425-4.285 1.376-4.285 1.376l-1.09 2.578-.82 3.497-.196.912.675.42Z" fill="#F3978E"/><path d="M170.337 104.047s-1.903-.855-3.595 1.904" stroke="#282828" stroke-width=".738" stroke-linecap="round" stroke-linejoin="round"/><path d="M136.014 109.528c-2.317 2.483-8.664-5.648-6.442-8.276 2.222-2.628 4.358 1.013 4.358 1.013l1.307 2.484 1.111 3.41.269.891-.603.478Z" fill="#F3978E"/><path d="M131.003 104.206s1.823-1.013 3.747 1.586" stroke="#282828" stroke-width=".738" stroke-linecap="round" stroke-linejoin="round"/><path d="M170.214 92.765c0 11.433-8.715 16.856-19.529 16.856s-19.537-5.423-19.537-16.856c0-11.433 8.716-19.216 19.537-19.216s19.529 7.776 19.529 19.216Z" fill="#282828"/><path d="M158.644 118.273h-16.072v20.744h16.072v-20.744Z" fill="#FFB1A5"/><path d="M140.227 116.986s4.473 8.899 9.978 10.289a7.754 7.754 0 0 0 4.46-.253c2.069-.724 4.691-3.809 5.142-7.241l.203-1.948s-9.768 5.337-19.783-.847Z" fill="#282828"/><path d="M167.563 93.555a77.886 77.886 0 0 1-1.99 17.377c-.973 4.207-3.711 7.147-7.575 9.514l-.726.435a13.315 13.315 0 0 1-13.53.145c-4.191-2.433-7.125-5.641-8.026-10.137a114.17 114.17 0 0 1-1.822-17.32s-1.562-17.717 16.58-17.377c18.142.34 17.089 17.363 17.089 17.363Z" fill="#FFB1A5"/><path d="M149.472 104.633v1.448c0 .141.027.281.08.413a1.096 1.096 0 0 0 1.307.601l1.126-.297" stroke="#282828" stroke-width=".917" stroke-linecap="round" stroke-linejoin="round"/><path d="m153.248 95.025 9.659 2.28s-.443-2.475-4.394-3.373c-3.95-.898-5.265 1.093-5.265 1.093Zm-5.069 0-9.776 2.28s.443-2.475 4.445-3.373c4.002-.898 5.331 1.093 5.331 1.093Zm-3.501 5.973a1.518 1.518 0 0 1-.933 1.416 1.526 1.526 0 0 1-2.088-1.104 1.52 1.52 0 0 1 .652-1.564 1.533 1.533 0 0 1 1.922.187c.284.282.445.665.447 1.065Zm14.416 0a1.505 1.505 0 0 1-.932 1.403 1.522 1.522 0 0 1-1.656-.323 1.51 1.51 0 0 1 1.07-2.586 1.518 1.518 0 0 1 1.403.928c.076.183.115.38.115.578Z" fill="#282828"/><path d="M143.705 109.621h13.349s-.944 3.657-6.994 3.657a7.111 7.111 0 0 1-3.69-.944 7.072 7.072 0 0 1-2.665-2.713Z" fill="#fff"/><path d="M134.147 99.435s7.263-9.782 5.585-19.687a14.275 14.275 0 0 0-4.448 4.102 14.221 14.221 0 0 0-2.342 5.571c-1.402 6.98 1.205 10.014 1.205 10.014Zm33.423-.325s-8.425-10.137-6.754-20.028a16.535 16.535 0 0 1 7.262 10.34c1.395 6.98-.508 9.687-.508 9.687Z" fill="#282828"/><path d="M134.758 83.65s8.323 11.158 33.807 9.413c0 0-2.905-15.929-15.251-17.493-.007 0-14.271-1.701-18.556 8.08Z" fill="#282828"/><path d="M111.524 257.047c-.37.586 21.214-93.62 14.802-92.201-.581.13-11.802 1.173-13.473 4.554-4.836 9.797-8.301 86.937-8.301 86.937l6.972.71Z" fill="#FFB1A5"/><path d="M104.552 256.336s-3.479 16.089 9.674 17.863a1.845 1.845 0 0 0 1.983-1.217l.043-.108a1.842 1.842 0 0 0-1.024-2.281c-2.142-.956-5.469-3.367-3.82-8.855 0 0 1.903-.232 2.949 3.301a1.525 1.525 0 0 0 2.142.942 1.523 1.523 0 0 0 .828-1.557c-.319-2.476-1.569-8.435-6.362-10.035l-6.413 1.947Z" fill="#FFB1A5"/><path d="M108.975 192.034s12.434 17.457 12.499 17.124c.065-.333 4.358-24.517 4.358-24.517l-15.092-6.516-1.765 13.909Z" fill="#F3978E"/><path d="M143.531 135.608c.53 0-30.736.557-36.451 39.916l17.967 2.745 3.632 29.686h50.112l9.942-54.876s-7.074-11.889-27.692-17.718l-17.51.247Z" fill="#00857B"/><path d="M128.25 140.364s4.416 5.851 22.514 5.851c17.931 0 22.514-6.155 22.514-6.155s-10.574-5.886-22.841-7.79a81.28 81.28 0 0 0-22.187 8.094Z" fill="#FFB1A5"/><path d="m189.765 265.047.043 78.494h38.95l2.992-78.494h-41.985Zm84.565 0-.043 78.494h-38.95l-2.992-78.494h41.985Z" fill="#005683"/><path d="M253.058 265.047h-40.271v27.268h40.271v-27.268Z" fill="#005683"/><path d="M218.415 292.314h27.772" stroke="#282828" stroke-width="1.043" stroke-linecap="round" stroke-linejoin="round"/><path d="M298.936 196.551c2.411 26.601-.138 45.977.566 94.916l-23.24.977-3.464-91.614 26.138-4.279Z" fill="#FFB1A5"/><path d="M275.659 217.31s14.395-1.318 24.243-7.791l-.262-5.691-23.966 3.258-.015 10.224Z" fill="#F3978E"/><path d="M252.564 135.318s45.755 11.462 54.012 69.328c0 0-22.376 9.673-44.803 5.51l5.041-19.354-14.25-55.484Z" fill="#C98BD2"/><path d="m115.984 159.379 34.047 40.083-10.415 29.252s-25.876-35.869-37.504-63.593l13.872-5.742Z" fill="#FFB1A5"/><path d="M117.102 160.82s-11.954 6.741-14.99 4.301c-5.316-4.258-9.71-19.839-9.71-19.839s22.361-8.399 22.151-8.074c-.211.326 2.549 23.612 2.549 23.612Z" fill="#FFB1A5"/><path d="M117.102 160.819c-.211-1.195 4.437-14.141 6.028-18.992a2.159 2.159 0 0 0-.258-1.72 2.183 2.183 0 0 0-1.442-.981 2.496 2.496 0 0 0-2.767 1.13l-5.606 9.557 4.045 11.006Z" fill="#FFB1A5"/><path d="m116.696 146.83-3.849-19.094a2.414 2.414 0 0 0-2.789-1.911 2.083 2.083 0 0 0-1.707 2.295l1.685 14.221 6.66 4.489Zm-7.656-7.044-5.229-13.634a2.415 2.415 0 0 0-2.97-1.448 2.065 2.065 0 0 0-1.366 2.447l3.879 15.755 5.686-3.12Zm-5.621 4.018-6.616-13.395a2.614 2.614 0 0 0-3.355-1.282 2.277 2.277 0 0 0-1.184 3.012l5.28 12.649 5.875-.984Z" fill="#FFB1A5"/><path d="m92.402 145.318-5.185-8.204a1.848 1.848 0 0 1 .907-2.483 2.137 2.137 0 0 1 2.593.724l6.827 9.412-5.142.551Z" fill="#FFB1A5"/><path d="M115.65 145.396s-7.793-.818-8.599 9.536" stroke="#282828" stroke-width="1.14" stroke-linecap="round" stroke-linejoin="round"/><path d="M132.71 215.028s6.406 22.091 19.166 19.159c12.76-2.933 32.645-30.106 32.645-30.106l-4.452-46.397-35.812 43.949-11.547 13.395Z" fill="#FFB1A5"/><path d="M155.361 187.978s12.093 18.188 22.405 24.618l6.755-8.493-26.044-20.085-3.116 3.96Z" fill="#F3978E"/><path d="M208.262 134.312s-35.507 7.98-54.389 49.113c0 0 11.431 17.167 29.776 24.799l12.274-14.981 12.339-58.931Z" fill="#C98BD2"/><path d="M208.262 134.19a88.753 88.753 0 0 0-22.579 16.494l2.73 120.235h87.391l-.283-119.613s-11.017-10.752-22.957-15.987c-10.139-4.482-34.439-6.169-44.302-1.129Z" fill="#C98BD2"/><path d="M237.487 168.537h24.308v12.113c0 3.215-1.281 6.298-3.561 8.571a12.176 12.176 0 0 1-17.188-.003 12.098 12.098 0 0 1-3.559-8.568v-12.113Zm38.18 42.061 1.133-39.33m-89.774 32.777-1.888-34.096" stroke="#282828" stroke-width="1.043" stroke-linecap="round" stroke-linejoin="round"/><path d="m209.287 90.289-3.632-17.964c-.21-1.448-.777-3.721-.079-5.843 1.154-3.511 5.396-10.252 12.644-7.168l1.568 7.118s-7.531 1.513-10.552 11.324l.051 12.533Z" fill="#282828"/><path d="M217.675 63c-.131 2.36-2.223 12.693-9.565 16.458 0-.03-6.442-13.786 9.565-16.458Z" fill="#282828"/><path d="M243.457 130.881v-30.512h-28.215v30.512l-8.396 3.815s1.968 12.642 22.797 12.925c20.83.282 22.921-12.309 22.921-12.309l-9.107-4.431Z" fill="#FFB1A5"/><path d="M218.212 59.293s5.179-13.62 21.142-6.379c9.666 4.38 12.346 10.26 13.523 14.423.38 1.588.524 3.222.428 4.851l-3.863 18.102-15.078-25.016-14.583 1.122-1.569-7.103Z" fill="#282828"/><path d="M249.442 90.29s1.903-3.012 5.81-1.527c3.907 1.484 2.179 10.976-3.733 12.193a4.668 4.668 0 0 1-3.762-.985s1.46-7.038 1.685-9.68Z" fill="#F3978E"/><path d="M254.489 92.093s-3.283-1.094-5.614 3.729" stroke="#282828" stroke-width="1.043" stroke-linecap="round" stroke-linejoin="round"/><path d="M209.286 90.29s-1.903-3.012-5.81-1.527c-3.907 1.484-2.179 10.976 3.74 12.193a4.673 4.673 0 0 0 3.762-.985s-1.459-7.038-1.692-9.68Z" fill="#F3978E"/><path d="M204.239 92.093s3.29-1.094 5.622 3.729" stroke="#282828" stroke-width="1.043" stroke-linecap="round" stroke-linejoin="round"/><path d="M249.833 81.261c0 5.72-.559 17.703-4.088 24.813-3.312 6.676-8.795 10.268-15.978 10.477-7.183.21-12.543-2.541-16.835-11.208-4.292-8.667-4.089-23.98-4.089-23.98s0-20.455 20.277-20.455c21.345 0 20.713 20.353 20.713 20.353Z" fill="#FFB1A5"/><path d="M215.453 109.615s2.367 11.947 12.796 13.323c12.005 1.578 15.208-13.033 15.208-13.033s-5.309 6.625-13.697 6.632a18.387 18.387 0 0 1-7.945-1.836 18.336 18.336 0 0 1-6.362-5.086Z" fill="#282828"/><path d="M227.893 89.746v4.735c-.001.199.036.395.109.58a1.522 1.522 0 0 0 1.823.84l1.576-.413" stroke="#282828" stroke-width="1.043" stroke-linecap="round" stroke-linejoin="round"/><path d="M221.902 87.487a1.833 1.833 0 0 1-1.139 1.7 1.85 1.85 0 0 1-2.01-.399 1.836 1.836 0 0 1 1.304-3.14 1.852 1.852 0 0 1 1.305.54 1.83 1.83 0 0 1 .54 1.3Zm17.306 0a1.84 1.84 0 0 1-2.204 1.804 1.848 1.848 0 0 1-1.45-1.445 1.84 1.84 0 0 1 1.81-2.198 1.844 1.844 0 0 1 1.844 1.84Zm-6.572-9.151 12.412 3.193s-.56-3.468-5.636-4.728c-5.077-1.26-6.776 1.535-6.776 1.535Zm-7.706 0-12.412 3.193s.559-3.468 5.636-4.728c5.076-1.26 6.776 1.535 6.776 1.535Z" fill="#282828"/><path d="M222.461 99.254s1.83 1.397 6.645 1.397c2.444.055 4.87-.422 7.11-1.397" stroke="#282828" stroke-width="1.043" stroke-linecap="round" stroke-linejoin="round"/><path d="M219.563 95.843c4.332 0 7.844-3.501 7.844-7.82 0-4.319-3.512-7.82-7.844-7.82-4.332 0-7.843 3.501-7.843 7.82 0 4.319 3.511 7.82 7.843 7.82Zm19.267 0c4.332 0 7.844-3.501 7.844-7.82 0-4.319-3.512-7.82-7.844-7.82-4.331 0-7.843 3.501-7.843 7.82 0 4.319 3.512 7.82 7.843 7.82Zm-11.423-7.819s1.852-1.724 3.58 0m-19.267-.002-2.629-.065m37.583.067 2.934-.043" stroke="#fff" stroke-width="1.453" stroke-miterlimit="10"/><path d="M215.453 63.5s3.769 10.666 20.771 10.34c11.547-.224 14.307 8.11 14.307 8.11s-2.012-18.623-2.542-18.45c-.53.175-17.575-4.54-17.575-4.54l-14.961 4.54Z" fill="#282828"/></g><defs><clipPath id="a"><path fill="#fff" d="M0 0h467v343.54H0z"/></clipPath></defs></svg>