<svg width="288" height="231" viewBox="0 0 288 231" fill="none" xmlns="http://www.w3.org/2000/svg">
<path d="M284.185 134.2C281.116 131.395 277.465 129.478 273.618 127.91C268.914 125.994 264.013 124.707 259.005 123.839C250.073 122.288 241.132 120.808 232.191 119.294C231.42 119.164 230.654 119.005 229.918 118.862C228.488 115.424 226.657 112.506 224.585 109.751C224.114 109.122 223.763 108.577 223.536 107.818C220.159 96.4637 215.725 85.5958 208.128 76.2121C201.237 67.7006 192.082 62.4427 181.823 58.8578C174.294 56.2289 166.483 54.9794 158.496 54.8075C154.935 54.7278 151.374 54.7362 147.771 54.7027C146.838 51.6712 147.36 48.6314 147.214 45.5538C149.928 45.0506 152.453 44.6481 154.948 44.0989C156.54 43.7467 158.124 43.2729 159.635 42.6733C160.461 42.3462 161.257 41.7508 161.852 41.0884C163.307 39.4615 163.097 37.6712 161.338 36.363C160.611 35.8221 159.772 35.3148 158.903 35.08C155.954 34.2708 152.971 33.5789 149.992 32.8745C149.307 32.7152 148.588 32.6942 147.694 32.5852C147.826 29.4867 147.955 26.4468 148.083 23.4699C153.288 22.2078 155.826 20.0317 156.027 16.7948C156.232 13.4573 153.728 10.4594 149.08 8.68162C149.149 6.84094 149.213 4.91221 149.299 2.9793C149.371 1.40697 149.106 0.786425 148.28 0.853511C147.103 0.949948 147.077 1.90173 147.004 2.72353C146.85 4.45519 146.752 6.19523 146.653 7.60823C144.595 8.58098 142.647 9.28539 140.935 10.3504C137.16 12.6984 136.878 17.5831 140.37 20.3127C141.851 21.4699 143.64 22.2582 145.502 23.3357C145.404 25.7928 145.305 28.5097 145.181 31.2267C145.164 31.6292 145.053 32.0318 144.963 32.5643C141.398 31.6963 138.175 32.9793 134.883 33.6712C132.632 34.145 130.843 35.4448 129.298 37.0213C127.188 39.1722 127.444 41.7215 130.09 43.1639C131.802 44.0989 133.766 44.7278 135.701 45.101C137.712 45.4909 139.818 45.4196 141.881 45.5286C142.724 45.5748 143.572 45.558 144.633 45.5748C144.663 48.6565 144.693 51.6335 144.723 54.8201C144.021 54.8955 143.349 54.9962 142.669 55.0423C129.846 55.9437 117.583 59.0213 106.014 64.4805C98.2587 68.1408 91.6374 73.3274 86.5655 80.2289C83.3126 84.6524 80.0641 89.0885 77.0209 93.6503C72.8436 99.9187 69.839 106.699 68.6405 114.162C68.5635 114.636 68.4608 115.139 68.2382 115.558C67.2067 117.462 65.9655 119.277 65.118 121.252C64.4675 122.774 63.4916 123.256 61.9379 123.491C50.0821 125.286 38.282 127.374 26.6359 130.204C21.8593 131.365 17.1085 132.669 12.4132 134.12C9.21172 135.105 6.12151 136.451 3.55346 138.673C0.570252 141.252 -0.615326 144.422 0.30489 148.288C0.694376 149.931 1.75155 151.156 2.84297 152.359C5.72774 155.525 9.17748 157.998 12.9054 160.112C18.3625 163.202 24.0679 165.759 30.0257 167.793C42.9943 172.216 56.2326 175.73 69.5608 178.933C71.0246 179.286 71.8164 179.873 72.407 181.286C77.1451 192.552 85.0161 201.319 95.1684 208.2C97.9847 210.108 100.917 211.86 103.81 213.663C105.03 214.422 106.442 214.791 107.32 216.179C107.803 216.942 109.083 217.282 110.059 217.68C111.694 218.347 113.372 218.908 115.156 219.562C115.156 219.562 115.285 219.529 115.473 219.479C116.821 220.137 121.071 222.032 127.218 223.181C134.866 224.611 145.425 224.82 156.87 220.032C157.687 219.848 158.428 219.613 158.325 219.378C159.22 218.95 160.042 218.573 160.85 218.17C162.31 217.437 164.001 216.942 165.156 215.885C166.624 214.548 168.319 213.797 170.044 212.996C173.789 211.265 177.551 209.55 181.271 207.768C191.226 203.001 198.755 195.789 203.78 186.112C205.102 183.567 206.245 180.938 207.52 178.237C207.884 178.242 208.569 178.359 209.207 178.237C224.059 175.441 238.928 172.694 253.587 169.001C258.774 167.692 263.885 166.091 268.704 163.738C274.919 160.703 280.401 156.757 284.536 151.193C285.208 150.292 285.863 149.365 286.419 148.393C289.159 143.604 288.29 137.956 284.185 134.2ZM77.9326 96.9417C81.1426 91.5622 84.8321 86.5014 88.6927 81.5455C93.5934 75.2478 99.6968 70.4301 106.849 66.841C113.697 63.4071 121.02 61.2352 128.48 59.5957C140.85 56.8788 153.39 56.6104 165.961 57.8557C172.167 58.4679 178.185 59.9941 183.984 62.296C193.94 66.2456 202.371 72.1157 208.573 80.8411C212.524 86.3966 215.25 92.5643 217.895 98.7614C219.102 101.592 220.04 104.539 221.063 107.445C221.208 107.86 221.161 108.342 221.212 108.938C219.77 108.673 218.524 108.346 217.258 108.242C215.875 108.128 215.135 107.508 214.578 106.262C211.989 100.481 208.937 94.9669 204.794 90.0612C201.704 86.4008 198.977 82.4469 195.309 79.2729C184.883 70.2582 172.788 65.1513 158.882 64.254C147.051 63.4909 135.346 64.4637 123.768 66.8494C118.405 67.9522 113.38 69.9899 108.985 73.2478C105.976 75.4784 103.095 77.8851 100.236 80.3044C93.7689 85.7719 89.5401 92.6105 87.4771 100.732C87.2888 101.478 87.0663 102.216 86.8565 102.958C86.0048 105.982 85.1531 109.005 84.2971 112.049C79.9571 112.992 75.7283 113.906 71.1957 114.891C71.3242 114.032 71.3884 113.55 71.4697 113.072C72.4841 107.256 74.928 101.977 77.9326 96.9417ZM203.146 104.078C202.205 104.46 201.473 104.044 200.749 102.917C198.815 99.9061 196.979 96.8285 194.847 93.9564C188.495 85.4071 180.385 79.361 169.496 77.4616C169.218 77.4113 168.936 77.3442 168.674 77.2394C167.609 76.8159 167.142 76.0947 167.292 75.1555C167.438 74.2457 168.182 73.6041 169.248 73.5413C169.667 73.5161 170.1 73.6041 170.515 73.6838C177.782 75.1304 184.322 78.0109 189.938 82.862C195.583 87.7425 199.696 93.7509 203.6 100.262C203.698 100.543 203.929 101.059 204.066 101.596C204.396 102.908 204.084 103.701 203.146 104.078ZM161.009 73.8935C160.059 74.384 158.933 74.0318 158.458 73.0968C157.979 72.1576 158.372 71.0968 159.365 70.6482C160.294 70.2289 161.257 70.5266 161.749 71.3861C162.28 72.3169 161.959 73.4029 161.009 73.8935ZM96.3583 97.9941C95.5194 97.5581 95.1898 96.6147 95.5365 95.6419C95.6778 95.252 95.9175 94.8956 96.1315 94.535C99.4186 88.9962 103.596 84.1702 108.535 79.9899C110.029 78.7279 111.728 77.7006 112.875 76.8914C115.392 75.9815 117.318 75.2394 119.274 74.5979C120.622 74.1576 122.013 73.8264 123.4 73.5203C124.645 73.2436 125.578 73.709 125.844 74.6188C126.113 75.5413 125.608 76.3421 124.397 76.8452C123.875 77.0633 123.318 77.21 122.775 77.3777C121.551 77.7551 120.31 78.0738 119.107 78.5056C115.811 79.688 112.751 81.2016 110.2 83.709C106.468 87.3736 102.83 91.0843 100.172 95.6084C99.7481 96.3296 99.2559 97.0298 98.6909 97.6545C98.0575 98.3589 97.21 98.4386 96.3583 97.9941ZM95.2883 105.583C94.3296 106.044 93.2724 105.684 92.8016 104.732C92.3479 103.814 92.7245 102.694 93.6362 102.258C94.5136 101.839 95.7334 102.258 96.17 103.126C96.6194 104.032 96.2256 105.135 95.2883 105.583ZM68.6962 119.059C69.0557 118.191 69.6378 117.772 70.5794 117.587C81.2753 115.457 91.8899 112.854 102.663 111.218C139.711 105.6 176.858 105.223 214.035 110.128C216.718 110.481 219.385 111.009 222.034 111.579C222.723 111.726 223.515 112.208 223.892 112.774C224.975 114.397 225.873 116.137 227.042 118.183C223.108 117.692 219.672 117.508 216.346 116.812C203.266 114.082 189.942 114.17 176.7 113.566C169.094 113.218 161.428 113.659 153.81 114.116C125.668 115.797 97.6338 118.598 69.702 122.351C68.9059 122.455 68.1055 122.514 67.0398 122.623C67.6946 121.214 68.2425 120.153 68.6962 119.059ZM65.1566 175.361C65.9698 174.51 66.5818 173.877 67.1382 173.294C72.1203 175.349 72.6082 175.671 72.5054 177.105C70.1642 176.548 67.8573 176.003 65.1566 175.361ZM68.9958 171.474C70.5794 170.325 71.9105 169.357 73.3229 168.33C75.1291 169.697 76.7941 170.954 78.5917 172.313C77.3077 173.139 76.2462 173.822 75.1163 174.552C73.0619 173.52 71.1915 172.581 68.9958 171.474ZM106.973 163.625C104.276 164.212 101.734 164.766 99.0505 165.349C98.1345 163.508 97.2742 161.78 96.2898 159.806C99.1104 159.177 101.845 158.564 104.811 157.902C105.406 160.045 106.759 161.562 106.973 163.625ZM107.101 157.558C109.421 157.202 111.339 156.904 113.397 156.59C113.684 158.669 115.045 160.355 114.168 162.451C112.657 162.669 111.202 162.883 109.849 163.076C108.946 161.265 108.116 159.6 107.101 157.558ZM96.5552 166.003C94.2225 166.711 92.014 167.382 89.6942 168.086C88.4273 166.397 87.3059 164.904 85.9663 163.118C88.7269 162.195 91.2308 161.357 93.8074 160.493C94.7576 162.397 95.6179 164.12 96.5552 166.003ZM87.276 168.862C84.7593 169.831 82.5936 170.665 80.7489 171.374C79.0497 169.898 77.5517 168.598 75.8225 167.093C78.5746 165.998 81.1041 164.992 83.6764 163.965C84.9219 165.663 86.0219 167.156 87.276 168.862ZM122.801 212.9C123.734 212.175 124.769 211.554 126.036 211.131C128.883 210.183 131.802 210.175 134.712 210.149C139.36 210.108 143.987 210.535 148.541 211.495C149.388 211.676 150.24 211.969 151.276 212.284C139.168 216.527 127.363 214.149 122.801 212.9ZM119.372 218.141C119.685 217.952 119.745 217.793 119.334 217.713C119.698 216.745 120.16 215.902 120.682 215.126C121.743 215.466 123.721 216.036 126.383 216.535C132.354 217.65 141.689 218.317 151.443 215.093C151.815 215.294 152.329 215.365 153.001 215.189C153.429 215.957 153.921 216.837 154.469 217.818C154.101 217.936 153.694 218.204 153.296 218.502C138.333 223.822 125.103 220.279 119.372 218.141ZM157.114 217.093C157.063 217.097 157.011 217.118 156.956 217.126C156.151 215.785 155.149 214.678 154.798 213.495C154.965 213.16 155 212.762 154.846 212.388C154.726 212.103 154.503 211.898 154.251 211.755C153.617 210.472 152.44 209.898 151.002 209.592C148.22 208.992 145.408 208.43 142.579 208.166C139.176 207.852 135.739 207.919 132.319 207.713C130.308 207.592 128.365 207.6 126.469 208.409C125.296 208.908 124.072 209.441 122.822 209.6C121.333 209.785 120.631 210.602 119.967 211.747C119.826 211.994 119.668 212.229 119.522 212.476C119.304 212.627 119.111 212.82 119.013 213.084C118.974 213.185 118.974 213.29 118.961 213.395C118.2 214.619 117.425 215.827 116.68 217.001C116.65 216.996 116.616 216.984 116.586 216.98C116.436 216.908 116.351 216.862 116.338 216.858C116.059 216.711 115.76 216.69 115.469 216.736C112.832 216.149 110.187 215.152 108.856 214.166C109.468 212.108 111 210.791 112.811 209.755C117.784 206.913 123.233 205.579 128.921 205.168C136.681 204.606 144.317 205.571 151.901 207.097C156.005 207.923 159.802 209.504 163.419 211.541C163.954 211.843 164.441 212.229 165.045 212.636C162.858 215.026 159.922 215.697 157.114 217.093ZM204.404 179.617C203.078 182.095 201.892 184.648 200.467 187.072C196.431 193.936 190.935 199.52 183.971 203.487C179.045 206.296 173.742 208.468 168.636 210.975C167.579 211.491 166.898 210.984 166.111 210.481C161.458 207.495 156.451 205.29 150.951 204.38C146.662 203.671 142.335 203.118 138.003 202.703C133.877 202.309 129.713 202.326 125.617 203.034C118.388 204.284 111.296 205.881 106.566 212.254C91.9327 204.393 79.9913 194.128 73.6012 178.162C76.9995 176.376 80.0812 174.418 83.4239 173.076C87.841 171.302 92.3992 169.81 97.0003 168.56C111.321 164.665 125.976 162.98 140.811 162.866C153.112 162.774 165.374 163.361 177.333 166.531C185.037 168.573 192.883 170.292 199.786 174.51C201.105 175.315 202.461 176.066 203.762 176.896C204.837 177.575 205.004 178.497 204.404 179.617ZM115.768 156.225C118.341 155.977 120.648 155.759 123.237 155.512C123.387 157.667 123.661 159.487 123.211 161.344C121.089 161.562 119.081 161.772 117.142 161.973C116.663 159.961 116.235 158.183 115.768 156.225ZM125.681 155.349C128.446 155.235 131.091 155.13 134.027 155.009C133.638 156.594 133.419 157.902 132.966 159.126C132.752 159.705 132.14 160.485 131.622 160.552C129.7 160.799 127.753 161.072 125.822 160.946C125.771 159.009 125.728 157.286 125.681 155.349ZM135.234 160.397C135.645 158.493 136.009 156.808 136.416 154.925C139.591 154.925 142.729 154.921 146.191 154.921C145.455 156.967 144.847 158.644 144.244 160.33C141.128 160.355 138.247 160.376 135.234 160.397ZM146.872 160.325C147.445 158.497 147.942 156.904 148.545 154.975C151.653 155.189 154.657 155.395 157.902 155.621C157.101 157.55 156.438 159.147 155.77 160.762C152.757 160.611 149.876 160.472 146.872 160.325ZM158.33 160.9C159.036 159.072 159.652 157.474 160.286 155.839C162.896 156.116 165.336 156.38 168.088 156.673C167.172 158.514 166.385 160.099 165.601 161.671C163.072 161.399 160.773 161.156 158.33 160.9ZM168.118 161.982C168.961 160.216 169.736 158.598 170.545 156.9C173.674 157.382 176.661 157.839 179.738 158.313C178.467 160.183 177.363 161.814 176.152 163.596C173.455 163.055 170.892 162.539 168.118 161.982ZM181.164 158.59C183.291 159.193 185.247 159.747 187.464 160.376C186.467 162.325 185.572 164.082 184.656 165.873C182.546 165.281 180.663 164.757 178.775 164.229C179.482 162.195 181.442 160.959 181.164 158.59ZM187.16 166.254C187.939 164.669 188.757 163.001 189.668 161.143C192.155 162.208 194.535 163.227 197.18 164.359C196.028 165.982 195.035 167.382 194.222 168.531C191.611 167.688 189.42 166.984 187.16 166.254ZM196.26 169.801C197.33 168.267 198.271 166.912 199.328 165.399C201.396 166.694 203.296 167.885 205.706 169.39C203.904 170.372 202.633 171.11 201.314 171.747C200.998 171.902 200.467 171.835 200.12 171.684C198.845 171.118 197.603 170.468 196.26 169.801ZM207.426 176.049C206.981 176.116 206.386 176.053 206.052 175.801C205.162 175.139 204.375 174.346 203.373 173.449C204.773 172.556 206.048 171.747 207.371 170.904C208.822 172.242 210.324 173.378 211.154 175.29C209.789 175.575 208.616 175.868 207.426 176.049ZM283.487 148.342C280.658 152.548 276.969 155.898 272.685 158.669C267.061 162.309 260.846 164.623 254.379 166.149C243.627 168.686 232.803 170.925 222 173.256C219.295 173.839 216.564 174.288 213.855 174.795C211.051 170.296 207.127 167.164 202.757 164.602C195.468 160.325 187.687 157.122 179.276 155.776C172.377 154.669 165.417 153.822 158.449 153.214C140.011 151.608 121.654 152.25 103.433 155.68C93.3366 157.579 83.762 160.984 74.4058 165.059C70.5623 166.732 67.3779 169.328 64.5445 172.325C63.9624 172.942 63.6757 173.827 63.1064 174.85C61.3045 174.363 59.387 173.831 57.4567 173.328C47.6468 170.77 37.9011 168.015 28.3779 164.556C22.4628 162.409 16.8174 159.717 11.5315 156.334C8.71095 154.527 6.12151 152.439 4.00715 149.843C2.064 147.458 1.99124 144.267 3.97719 141.927C4.82893 140.921 5.86042 139.948 7.01604 139.332C9.20316 138.166 11.4545 136.992 13.8299 136.317C20.2714 134.489 26.7429 132.732 33.2829 131.29C51.7557 127.214 70.4639 124.535 89.2619 122.392C109.472 120.091 129.713 118.166 150.013 116.803C150.779 116.753 151.563 116.833 152.333 116.912C153.386 117.021 154.435 117.336 155.479 117.311C162.614 117.126 169.744 116.787 176.884 116.669C186.308 116.514 195.754 116.413 205.115 117.646C213.585 118.766 222.017 120.179 230.457 121.525C236.873 122.543 243.285 123.604 249.675 124.745C254.871 125.671 260.08 126.59 265.216 127.801C271.02 129.168 276.511 131.365 281.27 135.009C285.957 138.602 286.766 143.466 283.487 148.342Z" fill="#939597"/>
<path d="M273.536 141.529C269.586 138.204 264.895 136.095 260.148 134.145C251.995 130.799 243.439 128.845 234.746 127.487C210.645 123.722 186.377 122.103 161.985 122.3C128.104 122.573 94.4238 125.285 60.9279 130.321C51.6829 131.709 42.4294 132.958 33.3899 135.382C28.776 136.619 24.1621 137.843 19.5781 139.168C16.6805 140.007 13.9584 141.327 11.6771 143.265C10.2989 144.43 9.22034 145.956 8.09896 147.39C7.57679 148.057 7.54683 148.908 8.41996 149.386C9.19465 149.81 9.80242 149.353 10.2005 148.694C12.7942 144.401 17.04 142.464 21.6411 141.172C30.625 138.652 39.5875 135.952 48.8538 134.615C67.5577 131.906 86.2531 129.13 105.107 127.537C134.725 125.038 164.369 123.885 194.072 125.654C209.335 126.564 224.538 128.091 239.57 130.891C248.515 132.556 257.242 134.975 265.289 139.286C267.968 140.719 270.472 142.481 272.954 144.233C273.913 144.908 274.7 145.898 275.364 146.875C276.19 148.095 276.481 149.453 275.471 150.782C275.342 150.95 275.141 151.13 275.141 151.311C275.133 151.759 275.09 152.514 275.291 152.594C275.732 152.77 276.571 152.808 276.789 152.543C277.44 151.759 278.18 150.837 278.304 149.898C278.467 148.644 278.077 147.319 277.911 145.923C276.413 144.397 275.086 142.833 273.536 141.529Z" fill="#939597"/>
<path d="M204.058 133.512C203.565 133.91 203.073 134.313 202.628 134.762C200.081 137.344 200.437 140.762 203.45 142.82C206.574 144.95 210.961 144.565 213.641 141.919C215.241 140.338 215.507 138.166 214.368 135.936C213.05 132.938 207.858 130.426 204.058 133.512ZM210.512 141.105C208.389 142.108 206.082 141.843 204.503 140.443C203.698 139.73 203.274 138.892 203.574 137.827C204.494 134.594 208.975 133.466 211.402 135.852C213.35 137.768 212.982 139.94 210.512 141.105Z" fill="#939597"/>
<path d="M149.662 133.227C147.616 131.278 145.078 130.766 142.399 130.846C141.782 130.862 140.854 131.525 140.64 132.095C139.963 133.907 139.411 135.793 139.086 137.697C138.833 139.164 139.677 140.376 140.849 141.303C142.861 142.892 145.99 143.215 148.305 142.087C151.999 140.288 152.628 136.057 149.662 133.227ZM147.051 139.969C145.506 140.51 143.892 140.435 142.519 139.328C142.043 138.946 141.628 138.15 141.667 137.575C141.748 136.41 142.078 135.24 142.489 134.137C142.634 133.751 143.298 133.374 143.768 133.311C145.545 133.064 146.944 133.902 148.117 135.101C149.705 136.716 149.238 138.976 147.051 139.969Z" fill="#939597"/>
<path d="M262.142 147.944C260.276 146.325 257.892 146.351 255.679 146.426C253.437 146.502 251.245 149.982 251.601 152.309C252.046 155.256 254.562 157.369 257.708 157.441C260.679 157.508 263.559 155.328 264 152.535C264.145 151.613 263.91 150.632 263.85 149.734C263.2 149.047 262.716 148.443 262.142 147.944ZM259.925 154.464C257.717 155.474 255.328 154.724 254.485 153.055C254.032 152.154 253.972 151.244 254.52 150.275C255.876 147.877 260.516 148.682 261.393 150.606C261.65 151.172 261.689 152.045 261.419 152.581C261.008 153.411 260.246 154.078 259.925 154.464Z" fill="#939597"/>
<path d="M84.3442 137.42C83.2913 136.674 81.9388 136.175 80.6548 135.94C78.4078 135.525 77.5089 136.137 76.5588 138.204C76.1778 139.03 75.7284 139.831 75.4074 140.678C74.2732 143.663 75.5915 146.12 78.733 146.963C80.3851 147.403 81.9731 147.21 83.4839 146.565C87.199 144.456 88.4745 140.355 84.3442 137.42ZM81.9003 144.565C81.3524 144.552 80.2782 144.695 79.2852 144.477C77.7229 144.133 77.235 143.126 77.7572 141.646C78.0354 140.862 78.4077 140.103 78.8186 139.378C79.5591 138.061 79.9957 137.894 81.3867 138.422C81.9688 138.644 82.5423 138.967 83.026 139.357C85.0718 140.992 84.7808 143.181 81.9003 144.565Z" fill="#939597"/>
<path d="M33.146 150.766C30.8133 149.311 28.3223 148.703 25.6644 149.998C24.603 150.514 23.9952 151.277 24.252 152.51C24.5773 154.07 24.894 155.629 25.2107 157.185C26.4905 159.231 28.0955 160.124 30.441 159.923C32.9919 159.705 34.8452 158.242 35.3973 156.003C35.8852 154.04 35.0677 151.961 33.146 150.766ZM32.9191 155.613C32.4997 156.82 31.481 157.286 30.304 157.428C29.2468 157.558 28.4165 157.227 27.8216 156.237C26.9656 154.812 26.987 153.369 27.462 151.793C29.204 151.353 30.7491 151.91 32.1273 153.001C32.9705 153.667 33.2829 154.573 32.9191 155.613Z" fill="#939597"/>
<path d="M110.003 167.952C108.985 167.785 107.876 167.621 106.892 167.843C103.909 168.518 100.955 169.336 98.0148 170.175C95.5538 170.879 93.1142 171.667 90.6831 172.472C86.5828 173.831 82.949 176.024 79.5463 178.606C79.3238 178.778 79.1269 178.984 78.9257 179.181C78.3993 179.688 78.1853 180.33 78.7802 180.816C79.1269 181.101 79.7646 181.042 80.0728 181.097C80.8346 180.518 81.3397 180.133 81.8533 179.755C86.4972 176.33 91.8601 174.464 97.3771 172.938C100.052 172.195 102.723 171.437 105.419 170.774C106.789 170.439 108.223 170.372 109.597 170.045C110.038 169.94 110.555 169.458 110.692 169.038C110.774 168.762 110.303 168.003 110.003 167.952Z" fill="#939597"/>
<path d="M155.864 174.741C156.485 174.9 157.127 174.972 157.756 175.097C163.902 176.351 170.087 177.445 176.169 178.938C179.396 179.731 182.439 181.236 185.568 182.406C186.202 182.645 186.856 182.829 187.276 182.963C188.153 182.502 188.312 181.693 187.764 181.194C187.25 180.733 186.608 180.389 185.975 180.083C181.275 177.814 176.357 176.137 171.243 175.072C166.847 174.158 162.413 173.42 157.992 172.615C157.431 172.515 156.862 172.443 156.292 172.422C155.595 172.393 154.978 172.624 154.841 173.37C154.7 174.12 155.171 174.565 155.864 174.741Z" fill="#939597"/>
<path d="M133.805 196.301C132.538 196.242 131.198 196.179 130.004 196.511C125.416 197.785 120.862 199.186 116.317 200.599C112.623 201.743 109.165 203.378 105.993 205.58C105.471 205.945 104.962 206.326 104.461 206.72C103.909 207.152 103.523 207.777 104.037 208.322C104.362 208.67 105.09 208.649 105.411 208.737C106.537 207.986 107.35 207.425 108.189 206.892C111.754 204.62 115.739 203.278 119.728 201.97C122.835 200.951 125.985 200.053 129.157 199.248C130.582 198.884 132.097 198.821 133.578 198.72C134.34 198.67 135.115 198.657 135.239 197.794C135.38 196.842 134.627 196.339 133.805 196.301Z" fill="#939597"/>
<path d="M168.953 205.009C168.037 204.472 167.104 203.919 166.107 203.566C159.665 201.285 153.207 199.051 146.74 196.833C145.871 196.535 144.938 196.405 144.026 196.254C143.303 196.137 142.639 196.422 142.622 197.164C142.614 197.592 143.059 198.086 143.414 198.439C143.637 198.661 144.069 198.678 144.407 198.787C150.707 200.833 157.025 202.828 163.291 204.963C165.088 205.575 166.719 206.644 168.474 207.407C168.893 207.592 169.548 207.483 169.993 207.285C170.207 207.189 170.186 206.577 170.284 206.145C169.796 205.726 169.424 205.285 168.953 205.009Z" fill="#939597"/>
<path d="M198.614 178.049C193.307 175.047 187.901 172.246 181.978 170.573C181.032 170.305 180.026 170.141 179.041 170.124C178.07 170.107 177.612 170.963 178.211 171.944C178.498 172.066 178.981 172.359 179.504 172.472C184.918 173.638 189.797 176.095 194.698 178.493C195.901 179.084 197.035 179.818 198.182 180.518C198.824 180.908 199.496 180.967 199.825 180.3C200.01 179.927 199.8 179.273 199.582 178.837C199.41 178.502 198.978 178.254 198.614 178.049Z" fill="#939597"/>
<path d="M103.421 184.774C101.499 185.68 99.5259 186.531 97.7454 187.659C94.9334 189.445 92.2541 191.428 89.532 193.349C89.074 193.672 88.5433 194.024 88.3036 194.489C88.0896 194.904 88.0297 195.642 88.2736 195.965C88.5005 196.263 89.2238 196.2 89.3522 196.225C91.993 194.405 94.2144 192.749 96.5598 191.294C99.0252 189.768 101.602 188.41 104.153 187.022C104.88 186.628 105.646 186.288 105.244 185.315C104.906 184.506 104.101 184.456 103.421 184.774Z" fill="#939597"/>
<path d="M94.9162 179.679C95.4512 179.264 95.7851 178.572 95.2372 178.048C94.8862 177.713 94.1715 177.742 93.4824 177.57C89.8443 180.338 86.2961 183.013 82.7908 185.734C82.0803 186.283 81.327 187.021 82.0246 188.036C82.4655 188.673 83.1332 188.359 84.3359 187.428C86.7883 185.528 89.3136 183.721 91.8174 181.889C92.8447 181.143 93.9147 180.459 94.9162 179.679Z" fill="#939597"/>
<path d="M175.668 199.994C172.997 198.715 170.33 197.424 167.613 196.254C166.872 195.935 165.943 195.91 165.113 195.961C164.227 196.015 163.838 196.766 164.283 197.642C164.535 197.768 164.933 198.099 165.378 198.174C168.734 198.749 171.674 200.271 174.546 201.956C174.85 202.133 175.163 202.397 175.484 202.418C175.865 202.439 176.472 202.351 176.601 202.112C176.789 201.764 176.768 201.189 176.601 200.803C176.46 200.46 176.036 200.17 175.668 199.994Z" fill="#939597"/>
<path d="M183.693 188.741C183.368 188.657 182.858 188.896 182.572 189.143C182.371 189.315 182.405 189.751 182.332 190.082C182.674 190.368 182.927 190.611 183.209 190.804C184.669 191.802 186.133 192.791 187.601 193.781C187.836 193.94 188.072 194.187 188.32 194.208C188.714 194.242 189.33 194.242 189.471 194.02C189.689 193.68 189.805 192.95 189.587 192.72C187.947 190.95 186.128 189.378 183.693 188.741Z" fill="#939597"/>
<path d="M196.392 186.212C195.001 184.866 193.358 183.923 191.423 183.592C190.315 183.403 189.6 184.158 190.053 185.181C190.302 185.327 190.7 185.587 191.115 185.814C192.343 186.48 193.602 187.097 194.8 187.814C195.459 188.208 196.075 188.547 196.675 187.872C197.201 187.273 196.867 186.673 196.392 186.212Z" fill="#939597"/>
<path d="M169.633 169.194C169.428 168.519 168.683 168.322 168.097 168.724C167.733 168.976 167.6 169.554 167.168 170.347C168.11 170.473 168.756 170.749 169.171 170.552C169.496 170.401 169.753 169.588 169.633 169.194Z" fill="#939597"/>
<path d="M101.456 177.684C101.76 177.353 101.956 176.644 101.798 176.271C101.648 175.915 100.972 175.772 100.202 175.361C100.048 176.225 99.8122 176.745 99.9063 177.206C100.03 177.827 101.032 178.145 101.456 177.684Z" fill="#939597"/>
<path d="M158.039 168.506C158.792 168.384 159.045 167.671 158.655 167.055C158.42 166.686 157.821 166.539 157.042 166.095C156.862 166.954 156.537 167.554 156.721 167.885C156.913 168.241 157.624 168.577 158.039 168.506Z" fill="#939597"/>
</svg>
