<svg width="526" height="424" fill="none" xmlns="http://www.w3.org/2000/svg"><path d="M470.209 408.703c-3.097-4.27-6.961-8.103-11.682-11.449-1.312-.933-2.574-1.916-3.831-2.889-4.348-3.377-7.701-7.254-10.175-11.589-2.18-3.832-3.754-7.784-5.132-11.781-1.574-4.588-2.975-9.205-4.76-13.748-3.041-7.775-8.663-14.055-17.748-18.161-2.291-1.038-4.532-2.16-6.801-3.228-2.268-1.067-4.548-2.11-6.816-3.177-6.951-3.272-12.205-7.825-15.691-13.634-1.496-2.502-2.97-5.054-3.943-7.68-2.363-6.4-4.587-12.834-6.544-19.299-4.137-13.757-11.743-25.956-24.226-36.069-3.392-2.756-5.972-6.008-7.668-9.647a130.36 130.36 0 0 1-4.036-9.677c-2.291-6.226-4.421-12.481-6.595-18.722-.055-.164 0-.348.006-.641.811-.233 1.673-.471 2.53-.72 6.705-1.941 13.4-3.887 20.078-5.838 1.306-.383 2.491-1.063 4.014-.889.289.035.628-.194.912-.343.862-.451 1.663-1.003 2.574-1.38 3.298-1.38 6.684-2.631 9.931-4.081 6.194-2.765 12.149-5.824 17.454-9.677 11.159-8.157 18.432-18.35 20.89-31.109.355-1.857.422-3.694-.301-5.561-2.029-5.268-4.331-10.426-7.578-15.287a128.904 128.904 0 0 0-10.793-14.055c-7.684-8.739-16.119-16.757-26.617-22.779-4.943-2.845-10.053-5.437-15.079-8.128-4.143-2.22-8.535-3.917-13.05-5.347-1.157-.367-2.313-.715-3.72-1.152-.105-1.425-.222-2.74-.3-4.056-.284-4.746-1.429-9.33-3.848-13.644-4.72-8.445-11.671-15.103-20.517-19.973-5.416-2.99-11.143-5.541-16.887-7.94-10.67-4.458-21.857-7.074-33.572-7.481-4.955-.169-9.914-.293-14.874-.214-14.295.224-27.395 4.032-39.217 11.588-6.733 4.275-12.543 9.478-18.221 14.84-5.193 4.886-9.869 10.119-13.867 15.823-1.69 2.403-3.458 4.772-5.238 7.13-.361.477-.834 1.063-1.39 1.231-3.553 1.093-6.905 2.517-10.175 4.206-2.841 1.464-5.883 2.63-8.863 3.892-13.217 5.576-24.849 13.157-35.33 22.233-6.906 5.928-13.133 12.337-18.349 19.437-1.545 2.095-2.913 4.28-5.27 5.859a2.426 2.426 0 0 0-.79.844c-.184.357-.434.898-.256 1.137.506.695.083 1.201-.29 1.782-1.867 2.949-3.113 6.027-3.574 9.324-.729 5.203.5 10.054 2.563 14.8 3.392 7.77 9.28 14.081 16.403 19.636 11.081 8.6 23.875 15.203 37.921 20.312 8.273 3.003 16.936 5.168 25.588 7.383.439.114.839.317 1.457.551-2.753 3.058-5.372 5.987-8.041 8.887-4.915 5.332-9.941 10.605-14.078 16.399-2.263 3.157-4.126 6.444-5.327 9.974-1.601 4.697-1.94 9.493-2.079 14.304-.162 5.635-.245 11.275-.317 16.91-.084 6.683-2.68 12.616-8.407 17.601-2.786 2.413-5.677 4.756-8.58 7.085-5.032 4.021-10.286 7.889-15.179 12.029-7.084 5.958-12.494 12.755-15.285 20.679-1.563 4.409-3.025 8.843-4.47 13.271-2.464 7.507-6.317 14.508-12.623 20.669-2.88 2.805-5.577 5.729-8.34 8.609-5.177 5.372-10.448 10.704-15.524 16.146-1.802 1.921-3.114 4.116-4.599 6.206-.289.407-.483.914-.45 1.36.028.333.417.825.784.909.372.084.962-.194 1.384-.397.229-.114.345-.392.462-.611 2.09-3.972 5.493-7.338 8.796-10.739 7.19-7.432 14.413-14.83 21.54-22.267 3.882-4.067 6.934-8.47 8.78-13.301 1.93-5.069 3.815-10.153 5.372-15.292 2.752-9.131 8.056-17.184 16.302-23.99 4.893-4.062 10.009-7.949 15.063-11.871 4.076-3.178 8.14-6.345 11.454-10.064 2.941-3.317 5.027-6.926 5.51-10.982.417-3.486.601-6.986.751-10.486.261-5.933.322-11.866.656-17.799.35-6.246 2.791-12.02 6.889-17.323 2.452-3.182 5.01-6.31 7.707-9.354 4.648-5.267 9.43-10.456 14.128-15.679.123-.134.323-.223.517-.357 1.441.298 2.875.596 4.438.918.316-.64.572-1.166.889-1.807-1.345-.377-2.546-.71-3.703-1.033.017-.198-.006-.327.045-.431.111-.219.25-.432.405-.631 5.444-6.896 7.857-14.497 8.091-22.66.111-3.882 1.05-7.675 2.791-11.384l1.546.308c.311-.537.606-1.053.906-1.569-.462-.402-.845-.735-1.179-1.023.033-.204.022-.333.078-.437.217-.442.439-.879.673-1.316 2.357-4.324 5.477-8.226 9.28-11.717 1.112-1.022 1.851-1.961.712-3.356 1.084-.685 1.99-1.34 2.98-1.877 3.08-1.673 6.422-2.859 9.936-3.624 3.72-.809 7.456-1.559 11.215-2.19 6.728-1.127 13.506-1.658 20.362-.893.45.049 1.056.015 1.373-.209.745-.526 1.551-.476 2.374-.397 2.975.288 5.955.546 8.919.924 10.042 1.271 19.85 3.41 29.325 6.712 2.385.834 4.665 1.976 6.85 3.178 1.279.7 2.424 1.698 3.364 2.735 2.113 2.334 1.712 4.32-1.04 5.983-.767.467-1.59.864-2.491 1.35l1.474 1.589c.828-.397 1.573-.71 2.257-1.087.684-.383 1.318-.829 2.08-1.321.139.407.266.68.322.963 1.757 8.431 6.706 15.337 14.423 20.937a618.89 618.89 0 0 1 10.281 7.591c4.215 3.178 7.668 6.847 9.925 11.241-.823.963-.906 1.902-.166 2.562.411-.03.878-.06 1.412-.095.256.482.545.909.712 1.366 1.162 3.138 2.374 6.261 3.425 9.418 1.885 5.62 3.53 11.29 6.099 16.772 2.263 4.81 5.572 9.041 10.042 12.71 9.525 7.789 16.036 17.074 20.061 27.47 1.885 4.841 3.242 9.801 4.793 14.716 1.88 5.928 3.904 11.831 7.095 17.476 2.747 4.841 6.25 9.324 11.516 12.691 3.258 2.08 6.855 3.818 10.392 5.6 4.064 2.051 8.262 3.922 12.338 5.983 4.737 2.398 8.224 5.739 10.787 9.731 2.052 3.192 3.481 6.524 4.626 9.93 1.473 4.349 2.83 8.718 4.37 13.057 3.264 9.17 9.019 17.243 18.56 23.673 1.885 1.266 3.576 2.745 5.227 4.215 2.497 2.219 4.521 4.652 6.328 7.189a20.808 20.808 0 0 1 1.979-1.42ZM393.767 132.79c1.34.224 2.179.829 2.891 1.842 1.251 1.778 2.647 3.486 4.17 5.467-4.009.114-8.218-2.806-8.841-5.824-.272-1.296.345-1.723 1.78-1.485Zm-220.77-47.255c2.396-3.153 4.804-6.3 7.189-9.453 2.886-3.823 6.383-7.2 9.886-10.566 5.472-5.282 11.171-10.327 17.732-14.507 11.237-7.21 23.692-10.948 37.315-11.24 5.288-.115 10.587-.005 15.874.198 12.077.467 23.515 3.406 34.441 8.123 4.876 2.1 9.747 4.3 14.362 6.861 8.54 4.736 15.307 11.116 19.828 19.303 2.179 3.928 3.263 8.088 3.497 12.413.056 1.072.133 2.144.228 3.58-2.452-.547-4.604-1.023-6.878-1.53-.973-3.182-1.952-6.32-2.875-9.468-1.295-4.419-3.214-8.594-6.027-12.457-1.457-2.006-3.103-3.833-5.099-5.401-4.854-3.828-10.136-7.01-16.152-9.076-7.362-2.532-14.796-4.826-22.48-6.306-9.853-1.901-19.717-2.135-29.631-.238-7.934 1.514-15.869 3.014-23.692 5.07-7.735 2.025-14.329 5.65-19.784 10.976-4.476 4.35-8.918 8.744-13.344 13.157-2.908 2.895-5.394 6.052-7.256 9.568-.212.392-.618.888-1.035.993-2.263.57-4.559 1.037-7.183 1.608.478-.715.756-1.176 1.084-1.608Zm145.678-3.098c-.728.362-1.128.72-1.54.724-.7.01-1.045-.471-.928-1.092.1-.551.578-.834 1.14-.66.405.129.706.526 1.328 1.028Zm-3.202-7.612c.016.83-.718 1.301-1.396.998-.4-.178-.723-.526-1.034-.834-1.763-1.767-3.503-3.545-5.249-5.317-.133-.134-.378-.248-.406-.397-.067-.383-.206-.904 0-1.132.2-.224.856-.293 1.218-.174.478.159.923.511 1.279.864a308.668 308.668 0 0 1 4.848 4.91c.339.363.556.814.74 1.082Zm-13.956-10.312c-.173.194-.868.154-1.24.02-.412-.149-.729-.521-1.079-.804-6.183-5.09-13.578-7.586-21.691-8.565-.394-.05-.795-.069-1.195-.109-.695-.07-1.429-.208-1.396-.988.039-.918.895-.893 1.635-.883.595.01 1.19.094 1.79.149 5.972.605 11.605 2.229 16.77 5.049 2.102 1.147 3.959 2.676 5.911 4.056.311.218.689.521.75.82.078.406.011.958-.255 1.255Zm-33.445-10.55c.089.606-.267 1.256-1.046 1.216-.394-.02-.756-.56-1.395-1.077.706-.501 1.117-.899 1.623-1.077.134-.05.768.576.818.938Zm-141.036 56.778c1.84 2.11 1.79 4.126.183 6.087-1.801 2.195-4.264 3.466-7.439 3.327-1.296-.055-1.857-.427-2.875-1.659 3.358-2.566 6.733-5.148 10.131-7.755Zm-11.966 9.394c2.73 2.353 5.861 2.567 9.202 1.256 3.592-1.41 6.072-3.654 6.489-7.184.206-1.753-.278-3.267-2.068-4.474.611-.432 1.179-.854 1.773-1.246 6.278-4.18 13.1-7.527 20.101-10.575 5.115-2.24 10.27-4.399 15.413-6.549.762-.317 1.673-.347 2.507-.53.373-.085.929-.135 1.062-.353.595-.944 1.657-.993 2.614-1.232 10.208-2.567 20.612-3.867 31.082-4.632 8.09-.59 16.186-1.157 24.281-1.34 8.229-.189 16.47.064 24.704.183 11.277.164 22.531.725 33.779 1.599 12.205.948 24.293 2.676 36.32 5.02 6.049 1.181 12.06 2.522 17.898 4.463 1.696.566 3.236 1.549 4.865 2.304.451.208.968.322 1.468.427.628.134 1.368.054 1.891.332 7.617 4.091 15.485 7.855 22.674 12.676 8.23 5.501 15.019 12.248 21.374 19.412.167.184.272.407.395.591-.128.139-.195.283-.295.303-2.902.511-3.547 2.731-2.491 5.054 1.802 3.952 5.722 6.534 10.464 6.683 1.385.045 2.186.452 2.764 1.539 1.479 2.805 3.03 5.585 4.543 8.386.2.372.305.774.595 1.524-.812-.452-1.279-.675-1.696-.953-3.648-2.408-7.29-4.811-10.915-7.234-11.643-7.805-24.387-13.649-37.599-18.619-14.451-5.441-29.308-9.338-44.554-11.905a494.733 494.733 0 0 0-68.864-6.703c-24.176-.655-48.162 1.167-72.049 5.337-13.862 2.403-27.651 5.169-41.113 9.329-9.558 2.94-18.816 6.514-27.534 11.191-1.674.894-3.281 1.887-4.921 2.835 4.381-6.251 9.83-11.742 15.841-16.915Zm-20.567 24.223c.817-.536 1.74-1.062 1.434-2.204-.066-.253.612-.745 1.035-1.033a96.707 96.707 0 0 1 14.123-8.033c11.821-5.496 24.259-9.383 37.036-12.338 18.8-4.379 37.793-7.447 56.976-9.16 10.287-.923 20.607-1.415 30.926-1.181 10.582.243 21.179.521 31.733 1.246 16.642 1.142 33.2 3.153 49.631 6.216 4.837.903 9.619 2.065 14.434 3.118.245.054.484.149.656.203-.434.79-.873 1.505-1.218 2.249-.539 1.162-1.034 2.329-2.207 3.133-.534.363-.84.864-.367 1.395.473.532 1.112.353 1.685.095.178-.085.339-.194.5-.298 1.679-1.112 3.064-4.29 2.669-6.36 1.785.481 3.492.918 5.193 1.4 14.707 4.17 28.936 9.523 42.392 16.617 5.137 2.701 10.003 5.859 14.929 8.917 3.425 2.125 6.7 4.454 10.081 6.653.945.616 1.696 1.291 2.007 2.349-25.749 13.052-54.363 18.946-85.172 19.641.128-.71.189-1.232.317-1.743.745-2.914.217-5.744-1.245-8.465-.801-1.485-1.808-2.895-2.719-4.339l-.985-1.569.017.039c-.178-.059-.417-.074-.534-.183-5.271-5.05-11.737-8.525-18.838-11.161-.639-.239-1.273-.492-2.074-.8.373-.422.634-.824 1.007-1.127 7.289-5.963 12.61-13.191 17.498-20.683a378.535 378.535 0 0 0 3.747-5.909c.957-1.539 1.001-2.005.289-2.373-.722-.377-1.262-.01-2.19 1.356a1750.254 1750.254 0 0 1-9.569 13.847c-3.181 4.533-7.223 8.445-11.427 12.278-1.557 1.415-2.791 1.713-4.932 1.072-5.293-1.574-10.814-2.264-16.319-2.899-1.329-.154-2.719.139-4.081.233-.273.02-.54.124-.807.114-2.757-.124-5.515-.263-8.484-.407.027-.571.044-.958.072-1.345.422-6.087.795-12.179 1.29-18.261.256-3.158.739-6.296 1.123-9.443.089-.715.295-1.43.239-2.135-.028-.383-.406-.939-.778-1.063-.707-.233-1.129.244-1.246.844-.339 1.768-.801 3.525-.956 5.308-.729 8.281-1.379 16.572-2.052 24.859-.022.293.044.591.078.978-.445.045-.829.124-1.218.119-10.053-.169-20.095-.124-30.092 1.018-.951.109-1.507-.154-2.029-.854-4.921-6.569-9.397-13.341-12.884-20.53-1.629-3.376-2.641-6.98-3.92-10.486-.061-.168 0-.407-.116-.516-.301-.273-.779-.75-.984-.68-.417.139-.885.551-.985.918-.133.497-.05 1.088.134 1.579 1.401 3.778 2.591 7.646 4.354 11.3 2.974 6.142 6.733 11.966 10.953 17.571.478.63.89 1.301 1.429 2.085-4.231.581-8.19 1.107-12.149 1.673-6.044.864-12.005 2.061-17.798 3.838-.834.253-1.518.308-2.336-.134-11.615-6.3-22.908-12.874-32.766-20.991-2.363-1.957-4.543-4.027-6.217-6.465a5.862 5.862 0 0 0-1.256-1.355c-.234-.179-.901-.228-1.09-.075-.295.234-.473.701-.456 1.053.017.313.367.606.562.914 2.296 3.584 5.565 6.464 9.018 9.224 8.546 6.817 18.166 12.477 28.052 17.894.684.372 1.351.769 2.246 1.276-.934.397-1.601.69-2.268.973-3.542 1.504-6.834 3.316-9.558 5.819-2.097 1.916-3.82 4.066-4.399 6.643-.378 1.663-.255 3.396-.367 5.267-.533-.024-1.278-.039-2.018-.104-5.721-.496-11.471-.824-17.142-1.539-14.896-1.862-29.586-4.359-43.354-9.329-6.727-2.433-13.094-5.397-18.738-9.294-.572-.397-1.112-.829-1.723-1.286 1.017-1.981 2.135-3.823 4.198-5.174Zm75.892 73.307c-5.049-1.301-9.931-2.562-14.974-3.863.206-.059 20.812-5.844 21.123-5.928-1.501 3.53-3.625 6.588-6.149 9.791Zm8.785-21.985c-.484.159-.918.338-1.374.442-5.71 1.276-11.431 2.507-17.325 3.049-.773.069-1.579.173-2.28.437-.423.158-.923.64-.951.997-.05.641.629.889 1.335.83 1.768-.154 3.553-.269 5.299-.566 4.186-.715 8.351-1.52 12.516-2.294.75-.139 1.495-.283 2.385-.447.217 2.249-.367 4.265-.962 6.266-.111.367-.706.744-1.179.913-6.377 2.284-12.81 4.478-19.588 5.849-1.441.293-2.97.278-4.454.407-.489.045-1.123-.045-1.429.174-.751.541-1.39.372-2.158.129-16.308-5.189-30.998-12.417-43.597-22.208-6.806-5.317-12.372-11.39-15.62-18.822-2.195-5.054-3.29-10.223-2-15.709.216-.933.538-1.852.855-2.765.095-.273.317-.522.529-.849.305.149.55.233.745.372 8.718 6.256 18.916 10.367 29.88 13.331 9.937 2.686 20.168 4.563 30.554 5.839 7.267.893 14.618 1.415 21.935 2.1.762.069 1.524.149 2.313.223 1.73 3.391 4.582 5.953 8.013 8.217-2.124 4.568-3.097 9.24-3.442 14.085Zm14.012-28.587c-.089.208-.378.352-.529.551-1.162 1.559-2.757 2.363-4.97 2.562-2.986.268-5.944.804-8.925 1.191-.656.085-1.184.348-1.067.864.083.362.6.834 1.023.909.723.134 1.535.064 2.291-.03 2.346-.288 4.681-.631 7.323-.998-1.691 2.606-3.175 4.895-4.727 7.278-1.968-1.017-3.53-2.368-4.715-3.937a22.227 22.227 0 0 1-2.641-4.582c-1.457-3.396-.089-6.365 2.563-9.305l14.896 3.838c-.211.69-.328 1.187-.522 1.659Zm1.067-3.669c-4.615-1.147-9.057-2.25-13.856-3.446 1.229-.854 2.113-1.638 3.169-2.175 2.402-1.221 4.882-2.328 7.346-3.46.733-.338 1.473-.611 2.368-.224.3.129 1.129-.064 1.262-.298.951-1.663 2.942-1.32 4.454-1.971.539 2.647 3.081 3.967 4.749 6.028-3.253 1.653-6.951 2.76-9.492 5.546Zm25.121-8.972c-3.92.794-7.856 1.549-11.771 2.403-.945.204-1.562.139-2.196-.492-1.568-1.568-3.186-3.093-5.01-4.855 5.355-1.236 10.287-2.15 15.391-2.701.651 2.368 2.936 3.58 4.682 5.337-.467.134-.773.243-1.096.308Zm17.148-1.286c-3.675.164-7.356.298-11.037.427-.411.015-.862.035-1.229-.089-2.752-.929-4.648-2.676-6.577-4.985 2.691-.343 4.982-.655 7.284-.909.361-.039.756.273 1.151.313.45.045 1.134.114 1.34-.099.789-.829 1.851-.725 2.863-.809 2.324-.199 4.654-.373 7.128-.566.384 2.174.74 4.16 1.129 6.345-.773.144-1.407.342-2.052.372Zm4.337-.764c-.35-1.793-.728-3.754-1.134-5.829 2.736-.541 17.632-.586 20.556-.055a2414.176 2414.176 0 0 1-3.08 7.442c-5.282-.506-10.704-1.022-16.342-1.558Zm18.583 2.035c1.078-2.646 2.151-5.297 3.302-8.132 2.486-.075 5.083.069 7.668.337 1.735.179 3.347.675 5.21-.025 1.062-.397 2.669.254 4.348.477-2.079 3.878-5.204 6.713-7.829 9.796-4.292-.834-8.418-1.629-12.699-2.453Zm25.688 6.4c-3.414-1.038-6.834-2.08-10.375-3.158 2.635-3.371 5.182-6.648 7.901-10.143a73.862 73.862 0 0 1 15.285 3.947c-.945.64-1.613 1.122-2.313 1.559-2.614 1.638-5.26 3.237-7.862 4.895-1.735 1.108-1.835 1.281-2.636 2.9Zm8.952 4.821c-2.096-1.266-4.437-2.686-6.906-4.181.617-.576 1.168-1.281 1.907-1.767 3.715-2.438 7.473-4.821 11.271-7.274 5.327 2.016 10.031 4.861 14.54 8.575-3.798.814-7.212 1.474-10.57 2.288-3.336.815-6.884 1.098-10.242 2.359Zm2.413 2.547c-.3-.368-.728-.666-1.218-1.093 7.362-1.439 14.357-2.81 21.263-4.17 5.71 6.027 5.872 12.263 1.801 16.667-1.067-.487-2.079-1.018-3.147-1.42a1592.958 1592.958 0 0 0-15.163-5.65c-1.445-.531-2.629-1.053-2.479-2.701.044-.511-.634-1.117-1.057-1.633Zm8.179 20.331c-3.43-4.334-5.749-9.086-6.655-14.597a29132.04 29132.04 0 0 0 18.988 7.224c-3.153 3.55-7.701 5.357-12.333 7.373Zm4.132 2.884c-.668-.327-1.274-.744-2.136-1.251.59-.317.94-.556 1.335-.71 5.421-2.12 9.992-5.079 13.139-9.453.333-.466.656-.953 1.468-.576l-.078.055c1.646-.174 3.286-.457 4.943-.511 11.643-.363 23.092-1.728 34.357-3.759 11.598-2.1 22.758-5.253 33.283-9.657 4.521-1.901 8.919-3.981 13.362-5.982.589-.263 1.19-.512 2.124-.914.05 1.132.233 2.031.1 2.87-1.98 12.541-8.852 22.595-19.622 30.688-5.294 3.947-11.271 7.07-17.532 9.85-3.797 1.683-7.773 3.108-11.637 4.712-1.507.625-2.975.715-4.677.437-7.239-1.192-14.412-2.617-21.462-4.538-5.888-1.609-11.482-3.818-16.898-6.36-3.38-1.599-6.722-3.257-10.069-4.901Zm16.202 13.659c-3.481-2.84-7.117-5.531-10.609-8.436.478.179.979.318 1.424.547 10.153 5.203 21.145 8.43 32.605 10.58 2.007.377 4.009.759 6.016 1.142.039.173.078.347.111.516-7 1.976-14.012 3.952-21.273 5.988-2.13-3.893-4.704-7.428-8.274-10.337Z" fill="#939597"/><path d="M268.144 193.695c2.174-.184 3.981-.338 5.927-.497-.006-.591-.017-1.097-.022-1.752.628-.09 1.284-.179 2.24-.308-.356 1.499-.661 2.805-.978 4.125-2.147.144-4.165.283-6.411.437-.228-.615-.456-1.206-.756-2.005Zm-50.977-.14-9.041-2.398c.111-.397.145-.631.25-.839.134-.263.323-.507.506-.785 3.025.164 5.466 1.683 8.418 2.15-.039.477-.072.963-.133 1.872Zm39.2 2.741-7.584-.03c-.034-.765-.056-1.321-.067-1.683 2.485-1.202 4.821-.804 7.4-.104.051.397.128.948.251 1.817Zm-58.115-9.786c2.457.74 4.681 1.405 7.045 2.115-.39.65-.69 1.157-1.107 1.852l-7.123-2.125c.429-.671.751-1.172 1.185-1.842Zm87.907-7.551c-1.107.173-1.991.307-3.047.476-.251-.635-.484-1.231-.757-1.926 1.357-.273 2.564-.521 3.826-.775 1.168 1.217 2.319 2.413 3.581 3.729l-1.073 1.152c-1.374-.546-2.141-1.41-2.53-2.656Zm-78.873 48.069c.061-.779.095-1.296.156-2.06 2.546.322 4.971.63 7.567.963l-.639 1.971-7.084-.874Zm21.842-32.023c.111-.744.2-1.315.3-1.976 1.474.328 2.775.71 4.109.894 1.307.179 2.652.159 4.12.238-.139.601-.244 1.043-.389 1.654-2.741-.273-5.366-.537-8.14-.81Zm-40.473 28.806c.317-.76.534-1.296.806-1.952 1.908.348 3.681.671 5.6 1.023-.15.68-.273 1.236-.445 2.031-1.963-.368-3.798-.705-5.961-1.102Zm15.107.561c-.128.75-.211 1.266-.339 2.021-1.735-.283-3.358-.551-5.154-.844.222-.75.383-1.291.589-1.996 1.651.273 3.158.526 4.904.819Zm82.818-30.231c-.3-.715-.528-1.261-.845-2.011 1.763-.248 3.364-.467 5.105-.71.25.645.461 1.187.767 1.956-1.69.253-3.219.487-5.027.765ZM185.742 221.09l-.729 1.966c-1.74-.347-3.364-.675-5.182-1.042.311-.71.545-1.237.856-1.942 1.663.338 3.22.651 5.055 1.018Zm58.421 6.714.078 1.827c-1.73-.095-3.353-.179-5.177-.278l-.261-1.837c1.862.104 3.53.193 5.36.288Zm5.455-47.927c1.834 0 3.564.005 5.504.005.089.626.162 1.157.25 1.797a3117.8 3117.8 0 0 1-5.838-.298c.022-.481.05-.918.084-1.504Zm-54.803 5.437-1.279 1.747c-1.44-.6-2.774-1.161-4.225-1.767.378-.685.656-1.197 1.012-1.837 1.529.631 2.941 1.211 4.492 1.857Zm69.097 43.929c-.217-.74-.384-1.301-.6-2.041 1.679-.119 3.191-.223 4.893-.343.055.785.094 1.346.139 2.026-1.502.119-2.831.228-4.432.358Zm27.301-4.965c.222.79.384 1.351.578 2.036-1.601.223-3.041.422-4.62.645-.189-.68-.345-1.236-.551-1.971 1.524-.233 2.941-.456 4.593-.71Zm-26.867-30.365c.228.655.417 1.197.689 1.971l-4.86.258c-.133-.695-.239-1.241-.389-2.055a928.35 928.35 0 0 1 4.56-.174Zm-5.226-12.045c-.106-.79-.178-1.351-.272-2.046 1.618-.084 3.052-.154 4.604-.233.066.755.116 1.325.177 2.055-1.49.075-2.852.144-4.509.224Zm-33.706 12.735c-1.646-.253-3.008-.462-4.51-.69.145-.715.262-1.276.406-1.991l4.376.611c-.089.665-.161 1.221-.272 2.07Zm-8.392-15.694c.295-.586.534-1.052.873-1.722 1.585.243 3.131.476 4.843.739l-.383 1.654c-1.802-.229-3.481-.437-5.333-.671Zm38.421 50.667c-.061-.77-.1-1.291-.15-1.986 1.44-.045 2.758-.084 4.181-.129.2.63.362 1.137.545 1.728-1.44.6-2.902.377-4.576.387Zm23.988-49.54c-1.268.194-2.347.363-3.537.546-.517-.556-1.006-1.087-1.729-1.862 1.807-.263 3.219-.466 4.776-.69.162.651.301 1.212.49 2.006Zm22.809 44.624c-.217-.809-.356-1.32-.54-2.015 1.346-.278 2.597-.542 3.981-.83.306.666.551 1.207.89 1.942-1.457.307-2.78.581-4.331.903Zm-63.415-45.16c.167 1.028-.183 1.44-1.223 1.37-1.507-.099-3.013-.159-4.654-.243.073-.377.173-.874.278-1.415 1.913.104 3.703.194 5.599.288Zm28.558 1.931c-.061-.775-.106-1.286-.161-1.976l4.064-.457c.056.74.106 1.365.162 2.1-1.313.109-2.553.209-4.065.333Zm8.506 44.704c.139.774.234 1.281.367 2.006-1.323.154-2.541.293-3.925.456-.172-.665-.311-1.226-.512-2.005 1.357-.154 2.569-.288 4.07-.457Zm-30.992-31.919.133 1.926a1194.6 1194.6 0 0 0-3.886-.198c.122-.651.228-1.252.35-1.902 1.212.06 2.252.114 3.403.174Zm68.057 26.075c.278.71.478 1.216.767 1.946l-3.419.795c-.328-.646-.617-1.222-.995-1.962l3.647-.779Zm-110.972-48.263c-.706.491-1.234.859-1.924 1.335-.89-.576-1.74-1.132-2.769-1.802l1.929-1.321c.896.576 1.707 1.102 2.764 1.788Zm117.939 46.704c.256.71.45 1.257.701 1.957l-3.225.764-.923-1.906c1.173-.278 2.224-.527 3.447-.815Zm-74.285-38.806c-.033.606-.067 1.167-.111 1.852-1.068-.054-2.013-.104-3.153-.159.083-.61.167-1.166.261-1.847 1.068.055 1.997.105 3.003.154Zm-20.462 46.944c1.256.065 2.163.114 3.253.174.072.596.139 1.162.222 1.896l-3.214-.168c-.072-.566-.15-1.132-.261-1.902Zm70.355-1.122c-.228-.715-.406-1.271-.629-1.956 1.09-.179 2.041-.333 3.12-.507.2.7.367 1.261.572 1.976-1.056.169-1.996.318-3.063.487Zm-47.373 4.001c-.073-.759-.128-1.32-.195-2.03 1.195-.02 2.23-.04 3.375-.06l.395 1.991-3.575.099Zm-19.101-48.993c-1.134-.125-2.007-.219-3.058-.333l.462-1.837c1.045.055 1.985.099 3.074.154-.172.7-.3 1.256-.478 2.016Zm53.957 44.604c.1.829.166 1.356.244 2.016-1.034.124-1.996.238-3.125.377-.194-.67-.356-1.221-.572-1.961 1.195-.149 2.207-.278 3.453-.432Zm-61.391 3.048-3.375-.178c.178-.685.317-1.236.478-1.852.946.05 1.752.094 2.719.144.061.64.117 1.191.178 1.886Zm61.18-33.889c-1.223.129-2.241.234-3.536.368.139-.835.239-1.445.35-2.086.845-.094 1.523-.168 2.396-.268.267.666.501 1.261.79 1.986Zm-71.365-18.688c.7.119 1.179.179 1.64.288.323.079.623.223 1.073.392-.306.566-.584 1.073-.939 1.733-.957-.218-1.858-.417-2.931-.66.434-.651.756-1.147 1.157-1.753Zm-4.611.516c-1.084-.532-1.951-.959-2.813-1.381.956-1.584 1.801-1.286 3.825-.129-.294.427-.584.864-1.012 1.51Zm28.241 51.104a254.21 254.21 0 0 0-.117 1.842c-.778-.04-1.523-.08-2.402-.129-.111-.581-.222-1.152-.361-1.867.984.054 1.807.099 2.88.154Zm88.403-9.563c.967-.239 1.684-.417 2.596-.646.234.656.423 1.197.679 1.917-.834.248-1.579.471-2.502.744-.267-.695-.473-1.246-.773-2.015Zm-86.229-33.821c-.173.849-.317 1.534-.479 2.329-.75-.04-1.401-.07-2.274-.114.189-.795.362-1.52.551-2.324l2.202.109Zm-35.058-6.126-2.079 1.47c-.651-.278-1.296-.556-2.013-.864 1.946-1.46 2.235-1.5 4.092-.606Zm90.91 7.209c-.645-.477-1.162-.854-1.79-1.321.55-.491 1.006-.894 1.529-1.36.561.417 1.023.759 1.601 1.186-.461.517-.862.959-1.34 1.495Zm-75.808-3.193c.84.189 1.407.313 1.985.447-.684 1.748-.684 1.747-2.914 1.191.29-.511.568-.998.929-1.638Zm78.75 5.233c.506-.561.907-1.012 1.379-1.539.528.368.945.661 1.418.993-.406.502-.751.929-1.223 1.51l-1.574-.964Zm-62.42 3.526c.301-1.425.301-1.425 2.141-.963-.128 1.315-.128 1.315-2.141.963Zm60.958.312c1.557-.462 1.557-.462 2.402 1.356-.5.139-.995.278-1.673.471-.273-.67-.501-1.251-.729-1.827Zm-78.066-3.902c-.668 1.281-.668 1.281-2.619.606.661-1.246.661-1.246 2.619-.606Zm36.402-.903c-.717-.035-1.256-.065-1.962-.1l-.084-1.301c2.046-.139 2.046-.139 2.046 1.401Zm48.931 3.177c.028.516.145 1.047.033 1.539-.055.248-.533.417-.823.621-.255-.313-.784-.696-.711-.919.167-.521.628-.963.973-1.44.178.065.35.129.528.199Zm-105.138-7.73c-1.246.71-1.991.01-2.858-.263 1.012-1.028 1.012-1.028 2.858.263Zm78.021 2.085c-2.002-.03-2.002-.03-1.974-1.361 1.851-.015 1.851-.015 1.974 1.361Zm-23.92 5.649c1.212 0 2.241-.308 2.446 1.073-1.101.044-2.096.377-2.446-1.073Zm24.803-1.419c-.834.114-1.418.194-2.14.288-.112-.437-.201-.794-.295-1.177 1.568-.034 1.568-.034 2.435.889Zm42.748-27.079c.495-.363.917-.859 1.49-1.068 3.22-1.171 6.589-2.085 9.686-3.435 10.148-4.449 19.478-9.935 28.252-16.057 2.786-1.951 5.46-4.016 8.185-6.022.255-.189.511-.442.811-.497.356-.059.951-.049 1.101.135.234.288.362.834.206 1.117-.256.456-.745.824-1.195 1.171-5.8 4.479-11.566 9.012-18.205 12.626-5.238 2.845-10.414 5.809-15.824 8.435-3.503 1.698-7.356 2.885-11.048 4.31-1.357.521-2.558.481-3.47-.75-.006-.005.011.035.011.035Zm-168.136 3.113c-.128.909-.845 1.291-1.584 1.102-4.832-1.246-9.72-2.363-14.468-3.778-4.031-1.201-7.957-2.651-11.827-4.15-4.37-1.698-8.613-3.605-12.938-5.358-2.063-.839-3.932-1.861-5.505-3.252-.523-.461-.868-.958-.239-1.529.556-.506 1.217-.308 1.668.08 3.458 2.969 8.351 3.877 12.494 5.873 3.152 1.514 6.505 2.751 9.814 4.047 6.294 2.457 13.077 3.758 19.761 5.317.661.154 1.373.303 1.918.625.456.264.701.785.906 1.023Zm198.3-27.207c-.189.188-.434.551-.789.774-7.557 4.662-15.13 9.329-22.803 13.917-2.068 1.231-4.354 2.209-6.544 3.291a9.976 9.976 0 0 1-1.301.522c-.762.248-1.668.665-2.158-.278-.506-.963.556-1.142 1.24-1.5 3.331-1.737 6.739-3.366 9.925-5.272 5.866-3.52 11.571-7.224 17.343-10.824a22.219 22.219 0 0 1 3.297-1.713c.895-.377 1.818.159 1.79 1.083Zm-150.226-20.734c.345-.278.701-.794 1.073-.809.378-.015.984.402 1.118.74.545 1.395.75 2.914 1.44 4.245 2.252 4.304 4.626 8.564 7.072 12.799 1.113 1.917 2.586 3.639 4.799 4.781.172.09.411.194.467.338.145.362.423.913.245 1.087-.295.288-1.018.561-1.351.437-.929-.347-1.869-.804-2.592-1.4-.984-.814-1.896-1.728-2.618-2.721-3.581-4.935-6.328-10.217-8.558-15.694-.478-1.161-.706-2.403-1.095-3.803Zm-56.893 7.696c.217.144.64.333.929.626 5.527 5.57 12.088 10.188 18.921 14.571.328.209.668.413.968.646.495.387.767.869.339 1.415-.434.556-1.051.506-1.651.228a7.97 7.97 0 0 1-.873-.461c-6.589-4.017-12.522-8.639-17.999-13.664a10.852 10.852 0 0 1-1.69-1.956c-.473-.71.011-1.43 1.056-1.405Zm157.266 15.748c-1.09-.119-1.401-.918-.828-1.678 1.595-2.125 3.252-4.215 4.776-6.379 2.547-3.63 5.004-7.309 7.484-10.968.067-.099.111-.218.178-.318.323-.476.723-.963 1.44-.7.817.303.762.939.501 1.534a8.342 8.342 0 0 1-.707 1.276 2029.258 2029.258 0 0 1-10.57 15.56 5.38 5.38 0 0 1-1.162 1.217c-.339.258-.834.352-1.112.456Zm-45.627-17.114c.361-2.542.717-5.089 1.101-7.631.077-.526.177-1.092.467-1.544.183-.283.778-.581 1.101-.516.333.064.722.531.789.869.095.447-.111.938-.167 1.41-.372 3.262-.823 6.524-1.062 9.79-.083 1.147.289 2.349.612 3.491.189.655.334 1.286-.489 1.469-.434.1-1.302-.203-1.507-.541-.467-.764-.857-1.653-.907-2.502-.089-1.425.112-2.86.195-4.29a.593.593 0 0 1-.133-.005Zm72.822-.754c-.201.407-.323.754-.523 1.052-1.379 2.036-2.741 4.081-4.192 6.077-.384.532-.974 1.013-1.602 1.316-.367.174-1.162.084-1.457-.164-.233-.198-.178-.923.056-1.236 1.713-2.334 3.497-4.622 5.26-6.921.222-.293.395-.665.712-.839.289-.159.806-.224 1.106-.099.295.119.439.536.64.814Zm-59.968 18.31c.228-1.658.45-3.316.678-4.975.034-.238-.005-.551.151-.685.305-.268.711-.566 1.106-.591.261-.015.745.383.823.656.139.511.122 1.072.056 1.598-.245 1.897-.534 3.789-.818 5.68-.033.234-.022.536-.189.68-.311.268-.75.636-1.095.601-.317-.03-.784-.511-.829-.829-.094-.7.028-1.425.067-2.14a.188.188 0 0 0 .05.005Zm81.237-33.17c-.089 4.841-4.565 7.651-9.97 6.132-3.141-.884-5.843-2.498-7.884-4.851-2.174-2.517-2.341-5.243-.562-7.537 1.885-2.428 5.694-3.753 8.724-2.66 3.159 1.141 6.144 2.675 8.313 5.182 1.001 1.152 1.407 2.274 1.379 3.734Zm-8.168 4.409c2.708.154 4.354-.69 5.227-2.388 1.023-1.996.85-3.674-.968-5.104-1.785-1.405-3.753-2.656-5.777-3.773-1.802-.999-4.665-.338-6.266 1.181-1.502 1.42-1.78 3.163-.556 4.95 2.035 2.939 5.176 4.444 8.34 5.134Zm-142.838-5.153c-3.926-.179-6.556-1.857-7.634-4.861-.484-1.35-.44-2.696.228-4.006 1.523-3.004 4.098-5.08 7.562-6.241.756-.253 1.768-.194 2.563.01 2.497.645 4.682 1.832 6.472 3.475 2.085 1.907 1.968 4.205.94 6.499-1.546 3.416-5.444 5.337-10.131 5.124Zm.044-2.09c.545-.005 1.09.024 1.63-.015 3.358-.249 5.938-2.115 6.611-4.781.367-1.445.083-2.751-1.296-3.67-1.112-.744-2.257-1.519-3.531-2-.917-.343-2.135-.467-3.102-.249-2.341.527-3.942 1.966-5.16 3.794-1.184 1.772-.973 3.396.3 4.974 1.101 1.361 2.68 1.897 4.548 1.947Zm95.264 1.171a11.517 11.517 0 0 1-7.846-4.389c-1.612-2.08-1.512-4.344.145-6.36 1.584-1.93 3.825-2.909 6.411-3.395.906-.17 1.812-.378 2.674-.67.973-.328 1.88-.269 2.691.277 2.152 1.46 4.009 3.237 4.754 5.541 1.452 4.493-2.619 9.225-8.829 8.996Zm.089-2.13c2.001.13 3.642-.307 4.726-1.3 3.319-3.034 2.113-6.474-1.029-8.272-2.786-1.594-7.545-.367-9.48 2.001-1.195 1.46-1.273 2.84-.072 4.305a9.121 9.121 0 0 0 5.855 3.266Zm-46.957-.66c-5.482-.223-8.557-2.487-9.23-6.236-.834-4.657 3.286-8.514 8.596-8.49 3.298.015 5.672 1.222 7.796 3.178 2.458 2.259 2.747 4.865.928 7.527-2.035 2.964-5.048 4.2-8.09 4.021Zm-.394-12.73c-3.342-.154-5.366 1.152-6.284 3.759-.811 2.303.267 4.93 2.514 6.096 3.536 1.833 8.462.636 10.42-2.536.928-1.515.811-3.014-.451-4.335-1.723-1.817-3.831-3.009-6.199-2.984Zm-90.698 21.85c-5.494-.303-7.913-4.642-4.771-8.644 2.219-2.835 5.277-4.726 8.985-5.774.707-.198 1.468-.263 2.208-.308.383-.024 1.023.025 1.129.219.695 1.316 2.407 1.549 3.419 2.532 1.991 1.926 2.319 4.409.717 6.688-2.474 3.52-6.967 5.55-11.687 5.287Zm6.35-12.998c-4.432 1.058-7.84 2.979-9.792 6.509-1.04 1.882.228 3.764 2.635 4.285 3.798.829 9.036-1.39 10.743-4.558.912-1.698.033-4.076-1.885-4.374-1.273-.189-1.69-.675-1.701-1.862Zm220.768 26.344c.045 2.959-3.124 5.133-6.377 4.17a17.366 17.366 0 0 1-4.749-2.234c-3.019-2.05-3.341-4.96-1.084-7.447 2.102-2.314 5.827-2.671 8.568-.814 2.024 1.365 3.609 4.115 3.642 6.325Zm-2.435-.119c-.172-1.793-1.029-3.262-2.319-4.508-1.262-1.222-3.808-1.152-5.198.024-1.602 1.351-1.746 3.103-.306 4.474 1.223 1.161 2.769 1.901 4.459 2.308 1.818.432 3.403-.744 3.364-2.298Zm-252.358 45.687c-3.736-.844-7.284-1.485-10.687-2.448-5.11-1.445-10.142-3.058-15.146-4.707-1.585-.521-3.002-1.375-4.476-2.11-.406-.203-.845-.471-1.04-.809-.172-.308-.205-.854.017-1.102.206-.223.829-.204 1.268-.258.111-.015.239.099.35.164 5.104 3.058 11.154 4.433 17.026 6.111 3.853 1.103 7.867 1.852 11.815 2.761.4.094.818.154 1.207.268.739.218 1.612.506 1.173 1.316-.2.402-1.023.576-1.507.814Zm34.647 8.34c-5.666-.66-10.731-1.241-15.791-1.841-.617-.075-1.273-.159-1.796-.413-.333-.158-.684-.675-.6-.943.089-.288.645-.556 1.062-.69.289-.094.678.06 1.023.094 7.234.671 14.468 1.351 21.713 2.001 1.534.139 3.08.139 4.553-.437.668-.258 1.435-.402 1.835.288.462.8-.261 1.316-.973 1.51-1.318.367-2.708.734-4.064.744-2.519.015-5.043-.218-6.962-.313Zm-39.034-5.124c-6.711-1.018-13.617-2.368-20.356-4.205a6.692 6.692 0 0 1-.962-.318c-.706-.313-1.379-.725-.895-1.499.44-.715 1.157-.427 1.841-.248 2.113.556 4.214 1.166 6.377 1.583 4.81.929 9.658 1.748 14.496 2.617.751.134 1.557.179 2.224.452.384.154.706.675.728 1.052.012.204-.645.606-1.039.656-.69.084-1.402-.035-2.414-.09Zm201.137 5.888c.417-.024.84-.114 1.245-.064 9.514 1.147 18.922.491 28.324-.174 4.104-.293 8.196-.635 12.294-.938.623-.045 1.284-.114 1.879.029.456.11 1.046.467 1.201.82.267.615-.233 1.032-.945 1.107-1.379.149-2.769.248-4.159.342-6.889.467-13.778.983-20.684 1.371-5.46.308-10.943.109-16.419-.407-.417-.04-.84-.105-1.251-.184-1.685-.323-1.752-.417-1.402-1.961-.011.005-.083.059-.083.059Zm67.702-7.704c-.3-.209-.901-.432-1.067-.79-.284-.615.239-.988.878-1.176.195-.06.401-.09.601-.125 4.554-.759 8.457-2.666 12.204-4.766 1.224-.685 2.23-.74 2.53-.154.529 1.038-.439 1.395-1.151 1.778-3.675 1.981-7.339 4.006-11.704 4.875-.667.129-1.351.209-2.291.358Zm-76.487 16.354c.5.164.906.273 1.29.422 2.596.998 5.232 1.936 7.778 3.038 1.113.482 2.091 1.247 3.003 2.001.239.199.122.914-.111 1.232-.128.173-1.012.168-1.296-.03-2.891-2.031-6.555-2.686-9.686-4.265-.55-.278-1.156-.506-1.612-.874-.239-.194-.373-.69-.256-.948.111-.263.589-.397.89-.576Zm120.64 27.302c3.637.377 6.339-1.221 8.563-3.649 1.857-2.026 2.797-4.449 3.492-6.951 1.145-4.096 1.468-8.291 1.818-12.487.284-3.391.701-6.772 1.068-10.153.028-.263.055-.561.211-.769.167-.229.506-.542.723-.512.306.04.673.308.823.566.161.283.156.67.139 1.013-.067 1.256-.1 2.522-.278 3.773-.74 5.278-1.223 10.571-.879 15.893.189 2.929.968 5.729 2.647 8.296 1.262 1.927 3.014 3.272 5.371 4.051 1.991.661 4.026 1.008 6.128 1.142.467.03.956.03 1.39.164.267.08.556.363.628.601.05.159-.234.546-.434.581-.478.094-.578.298-.639.695-.084.531-.467.68-1.118.626-2.241-.189-4.32.228-6.149 1.474-2.097 1.43-3.709 3.197-4.493 5.456-.923 2.662-1.818 5.338-2.541 8.044-.873 3.266-1.546 6.573-2.308 9.865-.044.183-.039.417-.161.541-.183.179-.473.387-.7.372-.228-.015-.54-.243-.634-.447-.123-.268-.084-.6-.089-.903-.089-3.441-.106-6.881-.289-10.317-.112-2.095-.39-4.191-.757-6.261-.65-3.674-3.102-6.017-7.022-7.184-2.074-.616-4.143-1.221-6.356-1.291a5.39 5.39 0 0 1-1.384-.218c-.239-.075-.506-.313-.567-.527-.117-.377 1.073-1.514 1.534-1.524.384-.01.768.025 1.157.03.339.015.684.01 1.106.01Zm2.302 1.326v.188c.896.248 1.796.492 2.686.75 4.198 1.221 6.922 3.669 7.907 7.566.678 2.696.889 5.442.984 8.192.028.74.005 1.48.005 2.22l.334.029c.139-.496.267-.997.417-1.494.962-3.128 1.735-6.32 2.941-9.369 1.668-4.2 4.816-7.139 9.842-7.924-1.423-.397-2.986-.789-4.515-1.261-2.396-.739-4.198-2.149-5.56-4.051-1.379-1.926-2.235-4.031-2.725-6.261-.133-.615-.261-1.236-.394-1.852-.351.452-.479.909-.607 1.371-.767 2.805-1.818 5.501-3.881 7.79-1.562 1.732-3.458 3.063-5.855 3.758-.511.149-1.05.233-1.579.348ZM50.565 248.264c.061-2.487-.072-4.965-.75-7.383-.234-.844-.662-1.658-1.101-2.437-.712-1.267-1.974-1.803-3.503-1.684-1.352.105-2.691.363-4.032.561-.139.02-.266.09-.4.115-.461.079-.928-.015-1.029-.437-.06-.258.14-.621.334-.864.15-.189.473-.258.712-.392 1.195-.671 2.424-1.296 3.575-2.021 2.18-1.375 3.492-3.287 3.914-5.63.14-.765.028-1.584-.11-2.359-.184-.993-.507-1.966-.785-2.939-.15-.521-.028-.913.584-1.107.678-.213 1.229-.035 1.43.621.294.968.572 1.961.644 2.954.072 1.018.356 1.921 1.14 2.636 1.479 1.351 2.975 2.696 4.56 3.942.683.536 1.617.834 2.451 1.217.373.173.79.268 1.174.427.572.238 1.112.536 1.117 1.176.006.616-.561.81-1.073 1.038-2.24 1.003-3.803 2.572-4.815 4.602-.95 1.907-1.312 3.942-1.657 5.978-.256 1.494-.423 3.004-.617 4.503-.134 1.033-.456 1.465-1.079 1.331-.912-.199-.673-.889-.678-1.45-.011-.799-.006-1.599-.006-2.398Zm1.324-6.137c.783-1.454 1.356-2.949 2.318-4.205.956-1.251 2.297-2.264 3.509-3.421-3.325-.988-5.338-3.5-7.84-5.501-1.53 3.282-.768 2.647-4.515 6.147 4.826.372 5.694 3.654 6.528 6.98Z" fill="#939597"/><path d="M233.447 274.657c.017 0 .023-.005.04-.01-.006-.01 0-.015-.006-.025a.221.221 0 0 0-.034.035Z" fill="#4867F8"/><path d="M268.443 290.167c-.706-.1-1.295.069-1.907.437-2.035 1.216-1.924 1.142-3.603.178-1.245-.715-2.574-1.32-3.742-2.149-1.168-.83-2.408-1.569-3.614-2.349a1.12 1.12 0 0 0-.845-.571c-.273-.129-.529-.342-.812-.377-1.913-.248-3.809-.273-5.666.342-.589.194-1.223.626-1.885.035-.117-.104-.467-.04-.701 0-.734.124-1.479.219-2.19.417-.884.244-1.546.015-2.185-.526-1.891-1.609-3.815-3.187-5.711-4.796-.495-.417-1.256-.725-1.384-1.311-.162-.725.767-1.062 1.145-1.608.556-.8 1.157-1.579 1.74-2.369.295-.402-.355-.859.095-1.251.984-.273 1.918-.64 2.724-1.231.234-.075.479-.124.701-.224 1.073-.481 2.118-.858 3.336-.273.467.229.706 0 .94-.645.206-.576.478-.685 1.079-.442.111.045.205.124.305.189.273.179.501.198.823 0 .623-.387.64-.358.339-1.197-.055-.149.045-.342-.016-.486-.334-.839-.945-1.157-1.852-.899-.767.219-1.507.521-2.252.789-.4.144-.784.378-1.201.447-1.351.219-2.607.735-3.936 1.008-1.418.293-2.497 1.212-3.876 1.579-.25.065-.411.392-.611.601-.19.084-.301.218-.312.412-.517.328-.945.725-1.234 1.236.111.094.217.189.328.288.206-.03.372-.253.617-.134-.1-.318.106-.501.378-.655.078-.164.156-.328.234-.497l.339-.303c.15-.025.422-.134.428.02.017.432-.339.68-.968.79.173.357-.105.516-.378.675-.244.437-.461.898-1.106.958.055-.164.111-.323.172-.487.184-.069.289-.193.289-.377-.111-.094-.216-.193-.328-.288l-.344.353c-.796.62-1.574 1.251-2.386 1.852-.239.178-.561.273-.834.009-.244-.233-.645-.466-.328-.834.495-.566.378-1.082.106-1.703-.306-.69-.584-1.325-1.424-1.623-.211-.075-.378-.283-.528-.457-.339-.377-.517-.754-.022-1.162.189-.154.256-.372.083-.59-.128-.164-.339-.179-.5-.115-.767.313-1.629-.064-2.38.278-.511.234-1.029.383-1.612.249a.601.601 0 0 0-.645.238c-.506.735-1.357 1.34-1.09 2.363.039.144-.011.328-.072.472-.518 1.261-.123 2.244 1.117 2.984.312.183.595.402.879.62.25.194.539.303.856.234 1.229-.273 1.763.6 2.469 1.186.2.164.2.407.044.606-.25.318-.517.626-.8.919-1.046 1.102-1.963 2.278-2.708 3.559-.317.542-.623 1.088-.729 1.703-.239 1.425-.534 2.84-.723 4.265-.127.983-.378 1.981.006 2.969.161.417-.072.77-.278 1.097-.211.338-.523.621-.751.954-.489.705-.689 1.395-.027 2.144.222.249.244.661.728.621.445-.035.562-.397.706-.7.095-.204.15-.422.25-.626.139-.292.362-.213.584-.074.295.184.562.467.968.159.333-.253.333-.576.289-.909a1.315 1.315 0 0 0-.139-.481c-.339-.576-.273-1.197-.223-1.798.128-1.494.317-2.983.473-4.478.039-.382-.056-.839.317-1.087.189-.124.584.01.884.005.117 0 .3-.02.345-.09.372-.59 1.195-.774 1.529-1.415.194-.372.422-.779.873-1.047 1.112.973 1.801 2.085 2.474 3.197.678 1.122 1.268 2.289 1.941 3.416.672 1.117.828 2.443 1.69 3.485.773-.437 1.04-1.295 1.957-1.633.2.392.373.735.539 1.082.623 1.291 1.663 1.996 3.298 2.051 1.551.054 3.097.164 4.62.491.862.184 1.713.1 2.48-.412.384-.258.817-.079.806.293-.066 1.783.112 3.545.429 5.303a.552.552 0 0 1-.051.327c-.05.095-.155.214-.244.224-.601.049-.606.427-.651.829-.105.889-.078 1.772-.028 2.661.023.457.245.715.707.859 1.245.392 2.546.501 3.847.586.673.044 1.001-.383.823-.983-.139-.472-.461-.77-.978-.919-.412-.119-.846-.213-1.229-.392-.195-.089-.462-.372-.423-.492.3-.898-.022-1.851.362-2.75.939-2.209 1.228-4.523 1.329-6.866.016-.333-.034-.666-.067-.998-.061-.616-.456-1.023-1.073-1.252-.339-.124-.712-.188-1.068-.283-.356-.094-.812-.153-.945-.466-.3-.72-.99-.73-1.646-.889-.617-.154-1.357-.139-1.796-.854 1.162-.372 2.269-.735 3.375-1.082.356-.114.773-.204.829-.581.083-.601.533-.66 1.056-.71a22.685 22.685 0 0 0 1.657-.229 3.823 3.823 0 0 1 2.508.383c.856.447 1.718.889 2.68 1.162 1.067.302 2.102.68 3.152 1.017.312.1.556.244.662.532a.779.779 0 0 0 .489.471c1.574.561 2.958 1.41 4.354 2.244.378.224.717.134.973-.168 1.012-1.197 2.041-2.384 2.869-3.699.167-.258.006-.512-.367-.561ZM230.3 278.206c-.184-.149-.072-.283.039-.387.089-.084.183-.278.372-.109.028.025.05.089.034.124a.589.589 0 0 1-.445.372Zm.839-.968c-.022.01-.072-.02-.111-.035.05-.089.1-.173.15-.263.123.1.139.204-.039.298Zm.062-.318c.116-.094.233-.183.344-.278.067.368.034.398-.344.278Zm.389-.317c.067-.149.172-.254.361-.268.006.223-.05.387-.361.268Zm2.591 6.36c-.072-.05-.139-.1-.211-.149.072.049.144.099.211.149Zm2.024 4.25c-.078.074-.156.149-.239.218.078-.069.161-.144.239-.218Zm-1.907-3.396c-.006.039.061.084.1.124-.039-.04-.106-.085-.1-.124Zm2.035 3.957c-.056-.055-.117-.105-.173-.159.056.054.117.104.173.159.011.049.016.104.033.154-.017-.05-.022-.105-.033-.154Zm12.032 6.459c.1-.04.234-.01.451-.01.133.055.367.119.561.228.061.035.056.189.056.288 0 .035-.061.085-.106.105-.356.144-.712.084-1.045-.06-.134-.06-.228-.199-.339-.298.139-.084.266-.193.422-.253Z" fill="#4E4B66"/><path d="M233.475 274.622c-.005.005-.017.01-.022.015-.006.005-.006.015-.012.02l.034-.035Zm-.401.665c.006.02 0 .031.012.051.005-.005.017-.01.022-.015.006-.005.006-.015.012-.021-.017-.01-.029-.005-.046-.015Z" fill="#4867F8"/><path d="M72.74 277.288c.194-.005.389 0 .583-.02 1.207-.114 2.119-.809 2.335-1.772.117-.521 0-.993-.5-1.311-.406-.258-.829-.531-1.29-.69a2.133 2.133 0 0 0-1.118-.064c-.84.208-1.4.739-1.818 1.405-.411.645-.317 1.231.156 1.787.406.482.979.665 1.651.665Zm422.239 55.269c.661.64 1.329.784 2.029.536.823-.293 1.246-.77 1.168-1.544a12.197 12.197 0 0 0-.456-2.264c-.195-.66-1.123-1.122-1.963-1.082-.789.039-1.345.432-1.518 1.166-.289 1.217.111 2.309.74 3.188Zm-.489-61.937c-.829-.779-1.718-.888-2.686-.412-.851.422-1.301 1.346-1.04 2.145.412 1.261 2.03 2.041 3.42 1.648.662-.188 1.051-.605 1.09-1.231.061-.854-.161-1.633-.784-2.15Zm-62.693-159.402c.662.64 1.329.784 2.03.536.823-.293 1.245-.769 1.168-1.544-.073-.76-.24-1.524-.456-2.264-.195-.66-1.124-1.122-1.963-1.082-.79.039-1.346.432-1.518 1.166-.295 1.217.111 2.304.739 3.188Zm-.489-61.941c-.828-.78-1.718-.89-2.685-.413-.851.422-1.302 1.346-1.04 2.145.411 1.261 2.029 2.04 3.419 1.649.662-.189 1.051-.606 1.09-1.232.061-.854-.161-1.628-.784-2.15Zm-282.672-.731c-1.206-.03-1.918.457-2.224 1.4-.272.835.145 1.773.962 2.175 1.29.63 3.053.164 3.726-.993.322-.55.261-1.092-.206-1.559-.634-.635-1.407-1.052-2.258-1.023Zm17.721-11.016c.723.03 1.307-.14 1.691-.507 1.162-1.117.695-2.348-.451-2.969-1.017-.551-2.719-.074-3.392.794-.417.537-.428 1.033.017 1.55a3.286 3.286 0 0 0 2.135 1.131ZM56.81 31.64c-.83-.779-1.719-.888-2.686-.411-.851.422-1.302 1.345-1.04 2.145.411 1.26 2.03 2.04 3.42 1.648.661-.189 1.05-.606 1.09-1.231.06-.854-.157-1.634-.785-2.15ZM37.877 385.642c.662.64 1.33.784 2.03.536.823-.293 1.246-.77 1.168-1.544a12.23 12.23 0 0 0-.456-2.264c-.195-.66-1.123-1.122-1.963-1.082-.79.034-1.346.432-1.518 1.166-.295 1.217.111 2.309.74 3.188Zm-.49-61.943c-.828-.779-1.718-.888-2.685-.412-.851.422-1.301 1.346-1.04 2.145.411 1.261 2.03 2.041 3.42 1.649.661-.189 1.05-.606 1.09-1.232.06-.849-.162-1.628-.785-2.15Z" fill="#939597"/></svg>