<svg width="526" height="424" viewBox="0 0 526 424" fill="none" xmlns="http://www.w3.org/2000/svg">
<path d="M470.209 408.703C467.112 404.433 463.248 400.6 458.527 397.254C457.215 396.321 455.953 395.338 454.696 394.365C450.348 390.988 446.995 387.111 444.521 382.776C442.341 378.944 440.767 374.992 439.389 370.995C437.815 366.407 436.414 361.79 434.629 357.247C431.588 349.472 425.966 343.192 416.881 339.086C414.59 338.048 412.349 336.926 410.08 335.858C407.812 334.791 405.532 333.748 403.264 332.681C396.313 329.409 391.059 324.856 387.573 319.047C386.077 316.545 384.603 313.993 383.63 311.367C381.267 304.967 379.043 298.533 377.086 292.068C372.949 278.311 365.343 266.112 352.86 255.999C349.468 253.243 346.888 249.991 345.192 246.352C343.713 243.159 342.357 239.932 341.156 236.675C338.865 230.449 336.735 224.194 334.561 217.953C334.506 217.789 334.561 217.605 334.567 217.312C335.378 217.079 336.24 216.841 337.097 216.592C343.802 214.651 350.497 212.705 357.175 210.754C358.481 210.371 359.666 209.691 361.189 209.865C361.478 209.9 361.817 209.671 362.101 209.522C362.963 209.071 363.764 208.519 364.675 208.142C367.973 206.762 371.359 205.511 374.606 204.061C380.8 201.296 386.755 198.237 392.06 194.384C403.219 186.227 410.492 176.034 412.95 163.275C413.305 161.418 413.372 159.581 412.649 157.714C410.62 152.446 408.318 147.288 405.071 142.427C401.818 137.532 398.232 132.845 394.278 128.372C386.594 119.633 378.159 111.615 367.661 105.593C362.718 102.748 357.608 100.156 352.582 97.4652C348.439 95.2459 344.047 93.5479 339.532 92.1181C338.375 91.7507 337.219 91.4031 335.812 90.9662C335.707 89.5413 335.59 88.2256 335.512 86.9099C335.228 82.1635 334.083 77.5809 331.664 73.2664C326.944 64.8212 319.993 58.1633 311.147 53.2928C305.731 50.3039 300.004 47.752 294.26 45.3539C283.59 40.8955 272.403 38.279 260.688 37.8719C255.733 37.7031 250.774 37.5789 245.814 37.6584C231.519 37.8818 218.419 41.6899 206.597 49.2464C199.864 53.5211 194.054 58.7243 188.376 64.0864C183.183 68.9718 178.507 74.2048 174.509 79.9094C172.819 82.3124 171.051 84.6807 169.271 87.039C168.91 87.5156 168.437 88.1015 167.881 88.2703C164.328 89.3626 160.976 90.7875 157.706 92.4755C154.865 93.9402 151.823 95.1069 148.843 96.368C135.626 101.944 123.994 109.525 113.513 118.601C106.607 124.529 100.38 130.938 95.1644 138.038C93.6187 140.133 92.2508 142.318 89.8933 143.897C89.5652 144.115 89.2705 144.423 89.1037 144.741C88.9203 145.098 88.67 145.639 88.848 145.878C89.354 146.573 88.9314 147.079 88.5588 147.66C86.6906 150.609 85.4451 153.687 84.9836 156.984C84.2552 162.187 85.484 167.038 87.5469 171.784C90.9386 179.554 96.8269 185.865 103.95 191.42C115.031 200.02 127.825 206.623 141.871 211.732C150.144 214.735 158.807 216.9 167.459 219.115C167.898 219.229 168.298 219.432 168.916 219.666C166.163 222.724 163.544 225.653 160.875 228.553C155.96 233.885 150.934 239.158 146.797 244.952C144.534 248.109 142.671 251.396 141.47 254.926C139.869 259.623 139.53 264.419 139.391 269.23C139.229 274.865 139.146 280.505 139.074 286.14C138.99 292.823 136.394 298.756 130.667 303.741C127.881 306.154 124.99 308.497 122.087 310.826C117.055 314.847 111.801 318.715 106.908 322.855C99.8239 328.813 94.4138 335.61 91.6225 343.534C90.0601 347.943 88.5978 352.377 87.1521 356.805C84.6889 364.312 80.8356 371.313 74.5303 377.474C71.6501 380.279 68.9534 383.203 66.1899 386.083C61.0133 391.455 55.7422 396.787 50.6657 402.229C48.8642 404.15 47.552 406.345 46.0674 408.435C45.7783 408.842 45.5836 409.349 45.617 409.795C45.6448 410.128 46.034 410.62 46.401 410.704C46.7735 410.788 47.3629 410.51 47.7855 410.307C48.0135 410.193 48.1302 409.915 48.247 409.696C50.3377 405.724 53.7405 402.358 57.0433 398.957C64.2327 391.525 71.4555 384.127 78.5837 376.69C82.4648 372.623 85.5174 368.22 87.3634 363.389C89.2928 358.32 91.1777 353.236 92.7346 348.097C95.4869 338.966 100.791 330.913 109.037 324.107C113.93 320.045 119.046 316.158 124.1 312.236C128.176 309.058 132.24 305.891 135.554 302.172C138.495 298.855 140.581 295.246 141.064 291.19C141.481 287.704 141.665 284.204 141.815 280.704C142.076 274.771 142.137 268.838 142.471 262.905C142.821 256.659 145.262 250.885 149.36 245.582C151.812 242.4 154.37 239.272 157.067 236.228C161.715 230.961 166.497 225.772 171.195 220.549C171.318 220.415 171.518 220.326 171.712 220.192C173.153 220.49 174.587 220.788 176.15 221.11C176.466 220.47 176.722 219.944 177.039 219.303C175.694 218.926 174.493 218.593 173.336 218.27C173.353 218.072 173.33 217.943 173.381 217.839C173.492 217.62 173.631 217.407 173.786 217.208C179.23 210.312 181.643 202.711 181.877 194.548C181.988 190.666 182.927 186.873 184.668 183.164C185.185 183.268 185.641 183.357 186.214 183.472C186.525 182.935 186.82 182.419 187.12 181.903C186.658 181.501 186.275 181.168 185.941 180.88C185.974 180.676 185.963 180.547 186.019 180.443C186.236 180.001 186.458 179.564 186.692 179.127C189.049 174.803 192.169 170.901 195.972 167.41C197.084 166.388 197.823 165.449 196.684 164.054C197.768 163.369 198.674 162.714 199.664 162.177C202.744 160.504 206.086 159.318 209.6 158.553C213.32 157.744 217.056 156.994 220.815 156.363C227.543 155.236 234.321 154.705 241.177 155.47C241.627 155.519 242.233 155.485 242.55 155.261C243.295 154.735 244.101 154.785 244.924 154.864C247.899 155.152 250.879 155.41 253.843 155.788C263.885 157.059 273.693 159.198 283.168 162.5C285.553 163.334 287.833 164.476 290.018 165.678C291.297 166.378 292.442 167.376 293.382 168.413C295.495 170.747 295.094 172.733 292.342 174.396C291.575 174.863 290.752 175.26 289.851 175.746C290.385 176.322 290.813 176.784 291.325 177.335C292.153 176.938 292.898 176.625 293.582 176.248C294.266 175.865 294.9 175.419 295.662 174.927C295.801 175.334 295.928 175.607 295.984 175.89C297.741 184.321 302.69 191.227 310.407 196.827C313.86 199.325 317.291 201.852 320.688 204.418C324.903 207.596 328.356 211.265 330.613 215.659C329.79 216.622 329.707 217.561 330.447 218.221C330.858 218.191 331.325 218.161 331.859 218.126C332.115 218.608 332.404 219.035 332.571 219.492C333.733 222.63 334.945 225.753 335.996 228.91C337.881 234.53 339.526 240.2 342.095 245.682C344.358 250.492 347.667 254.723 352.137 258.392C361.662 266.181 368.173 275.466 372.198 285.862C374.083 290.703 375.44 295.663 376.991 300.578C378.871 306.506 380.895 312.409 384.086 318.054C386.833 322.895 390.336 327.378 395.602 330.745C398.86 332.825 402.457 334.563 405.994 336.345C410.058 338.396 414.256 340.267 418.332 342.328C423.069 344.726 426.556 348.067 429.119 352.059C431.171 355.251 432.6 358.583 433.745 361.989C435.218 366.338 436.575 370.707 438.115 375.046C441.379 384.216 447.134 392.289 456.675 398.719C458.56 399.985 460.251 401.464 461.902 402.934C464.399 405.153 466.423 407.586 468.23 410.123C468.858 409.622 469.514 409.135 470.209 408.703ZM393.767 132.79C395.107 133.014 395.946 133.619 396.658 134.632C397.909 136.41 399.305 138.118 400.828 140.099C396.819 140.213 392.61 137.293 391.987 134.275C391.715 132.979 392.332 132.552 393.767 132.79ZM172.997 85.5346C175.393 82.3819 177.801 79.2342 180.186 76.0815C183.072 72.2586 186.569 68.8825 190.072 65.5163C195.544 60.2337 201.243 55.1893 207.804 51.0089C219.041 43.7999 231.496 40.0614 245.119 39.7685C250.407 39.6543 255.706 39.7635 260.993 39.967C273.07 40.4337 284.508 43.3729 295.434 48.0896C300.31 50.1897 305.181 52.3891 309.796 54.951C318.336 59.6875 325.103 66.0674 329.624 74.2544C331.803 78.1817 332.887 82.3422 333.121 86.6666C333.177 87.739 333.254 88.8114 333.349 90.2463C330.897 89.7002 328.745 89.2235 326.471 88.7171C325.498 85.5346 324.519 82.3968 323.596 79.2491C322.301 74.8304 320.382 70.6549 317.569 66.7922C316.112 64.7864 314.466 62.9594 312.47 61.3905C307.616 57.5625 302.334 54.3801 296.318 52.3147C288.956 49.7826 281.522 47.4888 273.838 46.0093C263.985 44.1077 254.121 43.8744 244.207 45.771C236.273 47.2853 228.338 48.7847 220.515 50.8401C212.78 52.8658 206.186 56.4901 200.731 61.8174C196.255 66.1667 191.813 70.5606 187.387 74.9743C184.479 77.8689 181.993 81.0265 180.131 84.5417C179.919 84.9339 179.513 85.4304 179.096 85.5346C176.833 86.1056 174.537 86.5723 171.913 87.1432C172.391 86.4283 172.669 85.9666 172.997 85.5346ZM318.675 82.4366C317.947 82.799 317.547 83.1565 317.135 83.1614C316.435 83.1714 316.09 82.6898 316.207 82.0691C316.307 81.518 316.785 81.2351 317.347 81.4088C317.752 81.5379 318.053 81.9351 318.675 82.4366ZM315.473 74.8254C315.489 75.6545 314.755 76.1262 314.077 75.8233C313.677 75.6446 313.354 75.2971 313.043 74.9892C311.28 73.2217 309.54 71.4443 307.794 69.6719C307.661 69.5378 307.416 69.4236 307.388 69.2747C307.321 68.8924 307.182 68.3711 307.388 68.1427C307.588 67.9193 308.244 67.8498 308.606 67.9689C309.084 68.1278 309.529 68.4803 309.885 68.8328C311.519 70.4514 313.137 72.0898 314.733 73.7431C315.072 74.1055 315.289 74.5573 315.473 74.8254ZM301.517 64.5134C301.344 64.707 300.649 64.6673 300.277 64.5332C299.865 64.3843 299.548 64.0119 299.198 63.7289C293.015 58.6399 285.62 56.1426 277.507 55.1645C277.113 55.1149 276.712 55.095 276.312 55.0553C275.617 54.9858 274.883 54.8468 274.916 54.0673C274.955 53.1488 275.811 53.1736 276.551 53.1835C277.146 53.1935 277.741 53.2779 278.341 53.3325C284.313 53.9382 289.946 55.5617 295.111 58.3817C297.213 59.5286 299.07 61.0578 301.022 62.438C301.333 62.6565 301.711 62.9594 301.772 63.2573C301.85 63.6644 301.783 64.2155 301.517 64.5134ZM268.072 53.963C268.161 54.5687 267.805 55.2191 267.026 55.1794C266.632 55.1595 266.27 54.6184 265.631 54.102C266.337 53.6006 266.748 53.2034 267.254 53.0247C267.388 52.975 268.022 53.6006 268.072 53.963ZM127.036 110.741C128.876 112.851 128.826 114.867 127.219 116.828C125.418 119.023 122.955 120.294 119.78 120.155C118.484 120.1 117.923 119.728 116.905 118.496C120.263 115.93 123.638 113.348 127.036 110.741ZM115.07 120.135C117.8 122.488 120.931 122.702 124.272 121.391C127.864 119.981 130.344 117.737 130.761 114.207C130.967 112.454 130.483 110.94 128.693 109.733C129.304 109.301 129.872 108.879 130.466 108.487C136.744 104.307 143.566 100.96 150.567 97.9121C155.682 95.6729 160.837 93.5132 165.98 91.3634C166.742 91.0456 167.653 91.0159 168.487 90.8322C168.86 90.7478 169.416 90.6981 169.549 90.4796C170.144 89.5363 171.206 89.4867 172.163 89.2484C182.371 86.6815 192.775 85.3807 203.245 84.6161C211.335 84.0253 219.431 83.4593 227.526 83.2756C235.755 83.087 243.996 83.3402 252.23 83.4593C263.507 83.6232 274.761 84.1842 286.009 85.058C298.214 86.0063 310.302 87.7341 322.329 90.0775C328.378 91.2591 334.389 92.5997 340.227 94.5409C341.923 95.1069 343.463 96.0899 345.092 96.8446C345.543 97.0531 346.06 97.1673 346.56 97.2716C347.188 97.4056 347.928 97.3262 348.451 97.6042C356.068 101.695 363.936 105.459 371.125 110.28C379.355 115.781 386.144 122.528 392.499 129.692C392.666 129.876 392.771 130.099 392.894 130.283C392.766 130.422 392.699 130.566 392.599 130.586C389.697 131.097 389.052 133.317 390.108 135.64C391.91 139.592 395.83 142.174 400.572 142.323C401.957 142.368 402.758 142.775 403.336 143.862C404.815 146.667 406.366 149.447 407.879 152.248C408.079 152.62 408.184 153.022 408.474 153.772C407.662 153.32 407.195 153.097 406.778 152.819C403.13 150.411 399.488 148.008 395.863 145.585C384.22 137.78 371.476 131.936 358.264 126.966C343.813 121.525 328.956 117.628 313.71 115.061C290.891 111.218 267.949 108.984 244.846 108.358C220.67 107.703 196.684 109.525 172.797 113.695C158.935 116.098 145.146 118.864 131.684 123.024C122.126 125.964 112.868 129.538 104.15 134.215C102.476 135.109 100.869 136.102 99.229 137.05C103.61 130.799 109.059 125.308 115.07 120.135ZM94.5028 144.358C95.3201 143.822 96.2431 143.296 95.9373 142.154C95.8706 141.901 96.5489 141.409 96.9715 141.121C101.409 138.073 106.113 135.397 111.095 133.088C122.916 127.592 135.354 123.705 148.131 120.75C166.931 116.371 185.924 113.303 205.107 111.59C215.394 110.667 225.714 110.175 236.033 110.409C246.615 110.652 257.212 110.93 267.766 111.655C284.408 112.797 300.966 114.808 317.397 117.871C322.234 118.774 327.016 119.936 331.831 120.989C332.076 121.043 332.315 121.138 332.487 121.192C332.053 121.982 331.614 122.697 331.269 123.441C330.73 124.603 330.235 125.77 329.062 126.574C328.528 126.937 328.222 127.438 328.695 127.969C329.168 128.501 329.807 128.322 330.38 128.064C330.558 127.979 330.719 127.87 330.88 127.766C332.559 126.654 333.944 123.476 333.549 121.406C335.334 121.887 337.041 122.324 338.742 122.806C353.449 126.976 367.678 132.329 381.134 139.423C386.271 142.124 391.137 145.282 396.063 148.34C399.488 150.465 402.763 152.794 406.144 154.993C407.089 155.609 407.84 156.284 408.151 157.342C382.402 170.394 353.788 176.288 322.979 176.983C323.107 176.273 323.168 175.751 323.296 175.24C324.041 172.326 323.513 169.496 322.051 166.775C321.25 165.29 320.243 163.88 319.332 162.436C319.004 161.914 318.675 161.388 318.347 160.867L318.364 160.906C318.186 160.847 317.947 160.832 317.83 160.723C312.559 155.673 306.093 152.198 298.992 149.562C298.353 149.323 297.719 149.07 296.918 148.762C297.291 148.34 297.552 147.938 297.925 147.635C305.214 141.672 310.535 134.444 315.423 126.952C316.696 124.995 317.936 123.019 319.17 121.043C320.127 119.504 320.171 119.038 319.459 118.67C318.737 118.293 318.197 118.66 317.269 120.026C314.105 124.653 310.913 129.27 307.7 133.873C304.519 138.406 300.477 142.318 296.273 146.151C294.716 147.566 293.482 147.864 291.341 147.223C286.048 145.649 280.527 144.959 275.022 144.324C273.693 144.17 272.303 144.463 270.941 144.557C270.668 144.577 270.401 144.681 270.134 144.671C267.377 144.547 264.619 144.408 261.65 144.264C261.677 143.693 261.694 143.306 261.722 142.919C262.144 136.832 262.517 130.74 263.012 124.658C263.268 121.5 263.751 118.362 264.135 115.215C264.224 114.5 264.43 113.785 264.374 113.08C264.346 112.697 263.968 112.141 263.596 112.017C262.889 111.784 262.467 112.261 262.35 112.861C262.011 114.629 261.549 116.386 261.394 118.169C260.665 126.45 260.015 134.741 259.342 143.028C259.32 143.321 259.386 143.619 259.42 144.006C258.975 144.051 258.591 144.13 258.202 144.125C248.149 143.956 238.107 144.001 228.11 145.143C227.159 145.252 226.603 144.989 226.081 144.289C221.16 137.72 216.684 130.948 213.197 123.759C211.568 120.383 210.556 116.779 209.277 113.273C209.216 113.105 209.277 112.866 209.161 112.757C208.86 112.484 208.382 112.007 208.177 112.077C207.76 112.216 207.292 112.628 207.192 112.995C207.059 113.492 207.142 114.083 207.326 114.574C208.727 118.352 209.917 122.22 211.68 125.874C214.654 132.016 218.413 137.84 222.633 143.445C223.111 144.075 223.523 144.746 224.062 145.53C219.831 146.111 215.872 146.637 211.913 147.203C205.869 148.067 199.908 149.264 194.115 151.041C193.281 151.294 192.597 151.349 191.779 150.907C180.164 144.607 168.871 138.033 159.013 129.916C156.65 127.959 154.47 125.889 152.796 123.451C152.457 122.955 152.035 122.473 151.54 122.096C151.306 121.917 150.639 121.868 150.45 122.021C150.155 122.255 149.977 122.722 149.994 123.074C150.011 123.387 150.361 123.68 150.556 123.988C152.852 127.572 156.121 130.452 159.574 133.212C168.12 140.029 177.74 145.689 187.626 151.106C188.31 151.478 188.977 151.875 189.872 152.382C188.938 152.779 188.271 153.072 187.604 153.355C184.062 154.859 180.77 156.671 178.046 159.174C175.949 161.09 174.226 163.24 173.647 165.817C173.269 167.48 173.392 169.213 173.28 171.084C172.747 171.06 172.002 171.045 171.262 170.98C165.541 170.484 159.791 170.156 154.12 169.441C139.224 167.579 124.534 165.082 110.766 160.112C104.039 157.679 97.6721 154.715 92.0284 150.818C91.4557 150.421 90.9164 149.989 90.3048 149.532C91.3223 147.551 92.4399 145.709 94.5028 144.358ZM170.395 217.665C165.346 216.364 160.464 215.103 155.421 213.802C155.627 213.743 176.233 207.958 176.544 207.874C175.043 211.404 172.919 214.462 170.395 217.665ZM179.18 195.68C178.696 195.839 178.262 196.018 177.806 196.122C172.096 197.398 166.375 198.629 160.481 199.171C159.708 199.24 158.902 199.344 158.201 199.608C157.778 199.766 157.278 200.248 157.25 200.605C157.2 201.246 157.879 201.494 158.585 201.435C160.353 201.281 162.138 201.166 163.884 200.869C168.07 200.154 172.235 199.349 176.4 198.575C177.15 198.436 177.895 198.292 178.785 198.128C179.002 200.377 178.418 202.393 177.823 204.394C177.712 204.761 177.117 205.138 176.644 205.307C170.267 207.591 163.834 209.785 157.056 211.156C155.615 211.449 154.086 211.434 152.602 211.563C152.113 211.608 151.479 211.518 151.173 211.737C150.422 212.278 149.783 212.109 149.015 211.866C132.707 206.677 118.017 199.449 105.418 189.658C98.6118 184.341 93.046 178.268 89.7988 170.836C87.6025 165.782 86.5071 160.613 87.7971 155.127C88.0139 154.194 88.3364 153.275 88.6534 152.362C88.7479 152.089 88.9703 151.84 89.1816 151.513C89.4874 151.662 89.732 151.746 89.9267 151.885C98.6451 158.141 108.843 162.252 119.807 165.216C129.744 167.902 139.975 169.779 150.361 171.055C157.628 171.948 164.979 172.47 172.296 173.155C173.058 173.224 173.82 173.304 174.609 173.378C176.339 176.769 179.191 179.331 182.622 181.595C180.498 186.163 179.525 190.835 179.18 195.68ZM193.192 167.093C193.103 167.301 192.814 167.445 192.663 167.644C191.501 169.203 189.906 170.007 187.693 170.206C184.707 170.474 181.749 171.01 178.768 171.397C178.112 171.482 177.584 171.745 177.701 172.261C177.784 172.623 178.301 173.095 178.724 173.17C179.447 173.304 180.259 173.234 181.015 173.14C183.361 172.852 185.696 172.509 188.338 172.142C186.647 174.748 185.163 177.037 183.611 179.42C181.643 178.403 180.081 177.052 178.896 175.483C177.823 174.058 176.939 172.494 176.255 170.901C174.798 167.505 176.166 164.536 178.818 161.596C183.717 162.858 188.61 164.119 193.714 165.434C193.503 166.124 193.386 166.621 193.192 167.093ZM194.259 163.424C189.644 162.277 185.202 161.174 180.403 159.978C181.632 159.124 182.516 158.34 183.572 157.803C185.974 156.582 188.454 155.475 190.918 154.343C191.651 154.005 192.391 153.732 193.286 154.119C193.586 154.248 194.415 154.055 194.548 153.821C195.499 152.158 197.49 152.501 199.002 151.85C199.541 154.497 202.083 155.817 203.751 157.878C200.498 159.531 196.8 160.638 194.259 163.424ZM219.38 154.452C215.46 155.246 211.524 156.001 207.609 156.855C206.664 157.059 206.047 156.994 205.413 156.363C203.845 154.795 202.227 153.27 200.403 151.508C205.758 150.272 210.69 149.358 215.794 148.807C216.445 151.175 218.73 152.387 220.476 154.144C220.009 154.278 219.703 154.387 219.38 154.452ZM236.528 153.166C232.853 153.33 229.172 153.464 225.491 153.593C225.08 153.608 224.629 153.628 224.262 153.504C221.51 152.575 219.614 150.828 217.685 148.519C220.376 148.176 222.667 147.864 224.969 147.61C225.33 147.571 225.725 147.883 226.12 147.923C226.57 147.968 227.254 148.037 227.46 147.824C228.249 146.995 229.311 147.099 230.323 147.015C232.647 146.816 234.977 146.642 237.451 146.449C237.835 148.623 238.191 150.609 238.58 152.794C237.807 152.938 237.173 153.136 236.528 153.166ZM240.865 152.402C240.515 150.609 240.137 148.648 239.731 146.573C242.467 146.032 257.363 145.987 260.287 146.518C259.253 149.025 258.23 151.503 257.207 153.96C251.925 153.454 246.503 152.938 240.865 152.402ZM259.448 154.437C260.526 151.791 261.599 149.14 262.75 146.305C265.236 146.23 267.833 146.374 270.418 146.642C272.153 146.821 273.765 147.317 275.628 146.617C276.69 146.22 278.297 146.871 279.976 147.094C277.897 150.972 274.772 153.807 272.147 156.89C267.855 156.056 263.729 155.261 259.448 154.437ZM285.136 160.837C281.722 159.799 278.302 158.757 274.761 157.679C277.396 154.308 279.943 151.031 282.662 147.536C287.599 148.261 292.692 149.512 297.947 151.483C297.002 152.123 296.334 152.605 295.634 153.042C293.02 154.68 290.374 156.279 287.772 157.937C286.037 159.045 285.937 159.218 285.136 160.837ZM294.088 165.658C291.992 164.392 289.651 162.972 287.182 161.477C287.799 160.901 288.35 160.196 289.089 159.71C292.804 157.272 296.562 154.889 300.36 152.436C305.687 154.452 310.391 157.297 314.9 161.011C311.102 161.825 307.688 162.485 304.33 163.299C300.994 164.114 297.446 164.397 294.088 165.658ZM296.501 168.205C296.201 167.837 295.773 167.539 295.283 167.112C302.645 165.673 309.64 164.302 316.546 162.942C322.256 168.969 322.418 175.205 318.347 179.609C317.28 179.122 316.268 178.591 315.2 178.189C310.152 176.283 305.097 174.391 300.037 172.539C298.592 172.008 297.408 171.486 297.558 169.838C297.602 169.327 296.924 168.721 296.501 168.205ZM304.68 188.536C301.25 184.202 298.931 179.45 298.025 173.939C304.48 176.397 310.663 178.75 317.013 181.163C313.86 184.713 309.312 186.52 304.68 188.536ZM308.812 191.42C308.144 191.093 307.538 190.676 306.676 190.169C307.266 189.852 307.616 189.613 308.011 189.459C313.432 187.339 318.003 184.38 321.15 180.006C321.483 179.54 321.806 179.053 322.618 179.43L322.54 179.485C324.186 179.311 325.826 179.028 327.483 178.974C339.126 178.611 350.575 177.246 361.84 175.215C373.438 173.115 384.598 169.962 395.123 165.558C399.644 163.657 404.042 161.577 408.485 159.576C409.074 159.313 409.675 159.064 410.609 158.662C410.659 159.794 410.842 160.693 410.709 161.532C408.729 174.073 401.857 184.127 391.087 192.22C385.793 196.167 379.816 199.29 373.555 202.07C369.758 203.753 365.782 205.178 361.918 206.782C360.411 207.407 358.943 207.497 357.241 207.219C350.002 206.027 342.829 204.602 335.779 202.681C329.891 201.072 324.297 198.863 318.881 196.321C315.501 194.722 312.159 193.064 308.812 191.42ZM325.014 205.079C321.533 202.239 317.897 199.548 314.405 196.643C314.883 196.822 315.384 196.961 315.829 197.19C325.982 202.393 336.974 205.62 348.434 207.77C350.441 208.147 352.443 208.529 354.45 208.912C354.489 209.085 354.528 209.259 354.561 209.428C347.561 211.404 340.549 213.38 333.288 215.416C331.158 211.523 328.584 207.988 325.014 205.079Z" fill="#939597"/>
<path d="M268.144 193.695C270.318 193.511 272.125 193.357 274.071 193.198C274.065 192.607 274.054 192.101 274.049 191.446C274.677 191.356 275.333 191.267 276.289 191.138C275.933 192.637 275.628 193.943 275.311 195.263C273.164 195.407 271.146 195.546 268.9 195.7C268.672 195.085 268.444 194.494 268.144 193.695Z" fill="#939597"/>
<path d="M217.167 193.555C213.909 192.691 211.045 191.931 208.126 191.157C208.237 190.76 208.271 190.526 208.376 190.318C208.51 190.055 208.699 189.811 208.882 189.533C211.907 189.697 214.348 191.216 217.3 191.683C217.261 192.16 217.228 192.646 217.167 193.555Z" fill="#939597"/>
<path d="M256.367 196.296C253.676 196.286 251.318 196.276 248.783 196.266C248.749 195.501 248.727 194.945 248.716 194.583C251.201 193.381 253.537 193.779 256.116 194.479C256.167 194.876 256.244 195.427 256.367 196.296Z" fill="#939597"/>
<path d="M198.252 186.51C200.709 187.25 202.933 187.915 205.297 188.625C204.907 189.275 204.607 189.782 204.19 190.477C201.81 189.767 199.531 189.087 197.067 188.352C197.496 187.681 197.818 187.18 198.252 186.51Z" fill="#939597"/>
<path d="M286.159 178.959C285.052 179.132 284.168 179.266 283.112 179.435C282.861 178.8 282.628 178.204 282.355 177.509C283.712 177.236 284.919 176.988 286.181 176.734C287.349 177.951 288.5 179.147 289.762 180.463C289.462 180.786 289.1 181.173 288.689 181.615C287.315 181.069 286.548 180.205 286.159 178.959Z" fill="#939597"/>
<path d="M207.286 227.028C207.347 226.249 207.381 225.732 207.442 224.968C209.988 225.29 212.413 225.598 215.009 225.931C214.765 226.686 214.587 227.232 214.37 227.902C211.951 227.604 209.699 227.326 207.286 227.028Z" fill="#939597"/>
<path d="M229.128 195.005C229.239 194.261 229.328 193.69 229.428 193.029C230.902 193.357 232.203 193.739 233.537 193.923C234.844 194.102 236.189 194.082 237.657 194.161C237.518 194.762 237.413 195.204 237.268 195.815C234.527 195.542 231.902 195.278 229.128 195.005Z" fill="#939597"/>
<path d="M188.655 223.811C188.972 223.051 189.189 222.515 189.461 221.859C191.369 222.207 193.142 222.53 195.061 222.882C194.911 223.562 194.788 224.118 194.616 224.913C192.653 224.545 190.818 224.208 188.655 223.811Z" fill="#939597"/>
<path d="M203.762 224.372C203.634 225.122 203.551 225.638 203.423 226.393C201.688 226.11 200.065 225.842 198.269 225.549C198.491 224.799 198.652 224.258 198.858 223.553C200.509 223.826 202.016 224.079 203.762 224.372Z" fill="#939597"/>
<path d="M286.58 194.141C286.28 193.426 286.052 192.88 285.735 192.13C287.498 191.882 289.099 191.663 290.84 191.42C291.09 192.065 291.301 192.607 291.607 193.376C289.917 193.629 288.388 193.863 286.58 194.141Z" fill="#939597"/>
<path d="M185.742 221.09C185.453 221.87 185.269 222.366 185.013 223.056C183.273 222.709 181.649 222.381 179.831 222.014C180.142 221.304 180.376 220.777 180.687 220.072C182.35 220.41 183.907 220.723 185.742 221.09Z" fill="#939597"/>
<path d="M244.163 227.804C244.191 228.449 244.213 228.975 244.241 229.631C242.511 229.536 240.888 229.452 239.064 229.353C238.992 228.851 238.914 228.295 238.803 227.516C240.665 227.62 242.333 227.709 244.163 227.804Z" fill="#939597"/>
<path d="M249.618 179.877C251.452 179.877 253.182 179.882 255.122 179.882C255.211 180.508 255.284 181.039 255.372 181.679C253.304 181.575 251.452 181.481 249.534 181.381C249.556 180.9 249.584 180.463 249.618 179.877Z" fill="#939597"/>
<path d="M194.815 185.314C194.376 185.915 194.02 186.401 193.536 187.061C192.096 186.461 190.762 185.9 189.311 185.294C189.689 184.609 189.967 184.097 190.323 183.457C191.852 184.088 193.264 184.668 194.815 185.314Z" fill="#939597"/>
<path d="M263.912 229.243C263.695 228.503 263.528 227.942 263.312 227.202C264.991 227.083 266.503 226.979 268.205 226.859C268.26 227.644 268.299 228.205 268.344 228.885C266.842 229.004 265.513 229.113 263.912 229.243Z" fill="#939597"/>
<path d="M291.213 224.278C291.435 225.068 291.597 225.629 291.791 226.314C290.19 226.537 288.75 226.736 287.171 226.959C286.982 226.279 286.826 225.723 286.62 224.988C288.144 224.755 289.561 224.532 291.213 224.278Z" fill="#939597"/>
<path d="M264.346 193.913C264.574 194.568 264.763 195.11 265.035 195.884C263.334 195.974 261.843 196.053 260.175 196.142C260.042 195.447 259.936 194.901 259.786 194.087C261.393 194.022 262.805 193.968 264.346 193.913Z" fill="#939597"/>
<path d="M259.12 181.868C259.014 181.078 258.942 180.517 258.848 179.822C260.466 179.738 261.9 179.668 263.452 179.589C263.518 180.344 263.568 180.914 263.629 181.644C262.139 181.719 260.777 181.788 259.12 181.868Z" fill="#939597"/>
<path d="M225.414 194.603C223.768 194.35 222.406 194.141 220.904 193.913C221.049 193.198 221.166 192.637 221.31 191.922C222.795 192.13 224.152 192.319 225.686 192.533C225.597 193.198 225.525 193.754 225.414 194.603Z" fill="#939597"/>
<path d="M217.022 178.909C217.317 178.323 217.556 177.857 217.895 177.187C219.48 177.43 221.026 177.663 222.738 177.926C222.599 178.522 222.488 179.004 222.355 179.58C220.553 179.351 218.874 179.143 217.022 178.909Z" fill="#939597"/>
<path d="M255.443 229.576C255.382 228.806 255.343 228.285 255.293 227.59C256.733 227.545 258.051 227.506 259.474 227.461C259.674 228.091 259.836 228.598 260.019 229.189C258.579 229.789 257.117 229.566 255.443 229.576Z" fill="#939597"/>
<path d="M279.431 180.036C278.163 180.23 277.084 180.399 275.894 180.582C275.377 180.026 274.888 179.495 274.165 178.72C275.972 178.457 277.384 178.254 278.941 178.03C279.103 178.681 279.242 179.242 279.431 180.036Z" fill="#939597"/>
<path d="M302.24 224.66C302.023 223.851 301.884 223.34 301.7 222.645C303.046 222.367 304.297 222.103 305.681 221.815C305.987 222.481 306.232 223.022 306.571 223.757C305.114 224.064 303.791 224.338 302.24 224.66Z" fill="#939597"/>
<path d="M238.825 179.5C238.992 180.528 238.642 180.94 237.602 180.87C236.095 180.771 234.589 180.711 232.948 180.627C233.021 180.25 233.121 179.753 233.226 179.212C235.139 179.316 236.929 179.406 238.825 179.5Z" fill="#939597"/>
<path d="M267.383 181.431C267.322 180.656 267.277 180.145 267.222 179.455C268.595 179.301 269.874 179.157 271.286 178.998C271.342 179.738 271.392 180.363 271.448 181.098C270.135 181.207 268.895 181.307 267.383 181.431Z" fill="#939597"/>
<path d="M275.889 226.135C276.028 226.909 276.123 227.416 276.256 228.141C274.933 228.295 273.715 228.434 272.331 228.597C272.159 227.932 272.02 227.371 271.819 226.592C273.176 226.438 274.388 226.304 275.889 226.135Z" fill="#939597"/>
<path d="M244.897 194.216C244.941 194.851 244.98 195.427 245.03 196.142C243.707 196.073 242.55 196.013 241.144 195.944C241.266 195.293 241.372 194.692 241.494 194.042C242.706 194.102 243.746 194.156 244.897 194.216Z" fill="#939597"/>
<path d="M312.954 220.291C313.232 221.001 313.432 221.507 313.721 222.237C312.609 222.495 311.564 222.739 310.302 223.032C309.974 222.386 309.685 221.81 309.307 221.07C310.652 220.783 311.77 220.544 312.954 220.291Z" fill="#939597"/>
<path d="M201.982 172.028C201.276 172.519 200.748 172.887 200.058 173.363C199.168 172.787 198.318 172.231 197.289 171.561C198.006 171.069 198.573 170.682 199.218 170.24C200.114 170.816 200.925 171.342 201.982 172.028Z" fill="#939597"/>
<path d="M319.921 218.732C320.177 219.442 320.371 219.989 320.622 220.689C319.51 220.952 318.525 221.185 317.397 221.453C317.074 220.788 316.813 220.247 316.474 219.547C317.647 219.269 318.698 219.02 319.921 218.732Z" fill="#939597"/>
<path d="M245.636 179.926C245.603 180.532 245.569 181.093 245.525 181.778C244.457 181.724 243.512 181.674 242.372 181.619C242.455 181.009 242.539 180.453 242.633 179.772C243.701 179.827 244.63 179.877 245.636 179.926Z" fill="#939597"/>
<path d="M225.174 226.87C226.43 226.935 227.337 226.984 228.427 227.044C228.499 227.64 228.566 228.206 228.649 228.94C227.526 228.881 226.581 228.831 225.435 228.772C225.363 228.206 225.285 227.64 225.174 226.87Z" fill="#939597"/>
<path d="M295.529 225.748C295.301 225.033 295.123 224.477 294.9 223.792C295.99 223.613 296.941 223.459 298.02 223.285C298.22 223.985 298.387 224.546 298.592 225.261C297.536 225.43 296.596 225.579 295.529 225.748Z" fill="#939597"/>
<path d="M248.156 229.749C248.083 228.99 248.028 228.429 247.961 227.719C249.156 227.699 250.191 227.679 251.336 227.659C251.475 228.359 251.586 228.92 251.731 229.65C250.502 229.685 249.401 229.715 248.156 229.749Z" fill="#939597"/>
<path d="M229.055 180.756C227.921 180.631 227.048 180.537 225.997 180.423C226.175 179.713 226.314 179.162 226.459 178.586C227.504 178.641 228.444 178.685 229.533 178.74C229.361 179.44 229.233 179.996 229.055 180.756Z" fill="#939597"/>
<path d="M283.012 225.36C283.112 226.189 283.178 226.716 283.256 227.376C282.222 227.5 281.26 227.614 280.131 227.753C279.937 227.083 279.775 226.532 279.559 225.792C280.754 225.643 281.766 225.514 283.012 225.36Z" fill="#939597"/>
<path d="M221.621 228.408C220.331 228.339 219.375 228.289 218.246 228.23C218.424 227.545 218.563 226.994 218.724 226.378C219.67 226.428 220.476 226.472 221.443 226.522C221.504 227.162 221.56 227.713 221.621 228.408Z" fill="#939597"/>
<path d="M282.801 194.519C281.578 194.648 280.56 194.753 279.265 194.887C279.404 194.052 279.504 193.442 279.615 192.801C280.46 192.707 281.138 192.633 282.011 192.533C282.278 193.199 282.512 193.794 282.801 194.519Z" fill="#939597"/>
<path d="M211.436 175.831C212.136 175.95 212.615 176.01 213.076 176.119C213.399 176.198 213.699 176.342 214.149 176.511C213.843 177.077 213.565 177.584 213.21 178.244C212.253 178.026 211.352 177.827 210.279 177.584C210.713 176.933 211.035 176.437 211.436 175.831Z" fill="#939597"/>
<path d="M206.825 176.347C205.741 175.815 204.874 175.388 204.012 174.966C204.968 173.382 205.813 173.68 207.837 174.837C207.543 175.264 207.253 175.701 206.825 176.347Z" fill="#939597"/>
<path d="M235.066 227.451C235.021 228.126 234.988 228.642 234.949 229.293C234.171 229.253 233.426 229.213 232.547 229.164C232.436 228.583 232.325 228.012 232.186 227.297C233.17 227.351 233.993 227.396 235.066 227.451Z" fill="#939597"/>
<path d="M323.469 217.888C324.436 217.649 325.153 217.471 326.065 217.242C326.299 217.898 326.488 218.439 326.744 219.159C325.91 219.407 325.165 219.63 324.242 219.903C323.975 219.208 323.769 218.657 323.469 217.888Z" fill="#939597"/>
<path d="M237.24 184.067C237.067 184.916 236.923 185.601 236.761 186.396C236.011 186.356 235.36 186.326 234.487 186.282C234.676 185.487 234.849 184.762 235.038 183.958C235.761 183.993 236.356 184.023 237.24 184.067Z" fill="#939597"/>
<path d="M202.182 177.941C201.509 178.418 200.876 178.865 200.103 179.411C199.452 179.133 198.807 178.855 198.09 178.547C200.036 177.087 200.325 177.047 202.182 177.941Z" fill="#939597"/>
<path d="M293.092 185.15C292.447 184.673 291.93 184.296 291.302 183.829C291.852 183.338 292.308 182.935 292.831 182.469C293.392 182.886 293.854 183.228 294.432 183.655C293.971 184.172 293.57 184.614 293.092 185.15Z" fill="#939597"/>
<path d="M217.284 181.957C218.124 182.146 218.691 182.27 219.269 182.404C218.585 184.152 218.585 184.151 216.355 183.595C216.645 183.084 216.923 182.597 217.284 181.957Z" fill="#939597"/>
<path d="M296.034 187.19C296.54 186.629 296.941 186.178 297.413 185.651C297.941 186.019 298.358 186.312 298.831 186.644C298.425 187.146 298.08 187.573 297.608 188.154C297.079 187.831 296.612 187.543 296.034 187.19Z" fill="#939597"/>
<path d="M233.614 190.716C233.915 189.291 233.915 189.291 235.755 189.753C235.627 191.068 235.627 191.068 233.614 190.716Z" fill="#939597"/>
<path d="M294.572 191.028C296.129 190.566 296.129 190.566 296.974 192.384C296.474 192.523 295.979 192.662 295.301 192.855C295.028 192.185 294.8 191.604 294.572 191.028Z" fill="#939597"/>
<path d="M216.506 187.126C215.838 188.407 215.838 188.407 213.887 187.732C214.548 186.486 214.548 186.486 216.506 187.126Z" fill="#939597"/>
<path d="M252.908 186.223C252.191 186.188 251.652 186.158 250.946 186.123C250.918 185.676 250.89 185.249 250.862 184.822C252.908 184.683 252.908 184.683 252.908 186.223Z" fill="#939597"/>
<path d="M301.839 189.4C301.867 189.916 301.984 190.447 301.872 190.939C301.817 191.187 301.339 191.356 301.049 191.56C300.794 191.247 300.265 190.864 300.338 190.641C300.505 190.12 300.966 189.678 301.311 189.201C301.489 189.266 301.661 189.33 301.839 189.4Z" fill="#939597"/>
<path d="M196.701 181.67C195.455 182.38 194.71 181.68 193.843 181.407C194.855 180.379 194.855 180.379 196.701 181.67Z" fill="#939597"/>
<path d="M274.722 183.755C272.72 183.725 272.72 183.725 272.748 182.394C274.599 182.379 274.599 182.379 274.722 183.755Z" fill="#939597"/>
<path d="M250.802 189.404C252.014 189.404 253.043 189.096 253.248 190.477C252.147 190.521 251.152 190.854 250.802 189.404Z" fill="#939597"/>
<path d="M275.605 187.985C274.771 188.099 274.187 188.179 273.465 188.273C273.353 187.836 273.264 187.479 273.17 187.096C274.738 187.062 274.738 187.062 275.605 187.985Z" fill="#939597"/>
<path d="M318.353 160.906C318.848 160.543 319.27 160.047 319.843 159.838C323.063 158.667 326.432 157.753 329.529 156.403C339.677 151.954 349.007 146.468 357.781 140.346C360.567 138.395 363.241 136.33 365.966 134.324C366.221 134.135 366.477 133.882 366.777 133.827C367.133 133.768 367.728 133.778 367.878 133.962C368.112 134.25 368.24 134.796 368.084 135.079C367.828 135.535 367.339 135.903 366.889 136.25C361.089 140.729 355.323 145.262 348.684 148.876C343.446 151.721 338.27 154.685 332.86 157.311C329.357 159.009 325.504 160.196 321.812 161.621C320.455 162.142 319.254 162.102 318.342 160.871C318.336 160.866 318.353 160.906 318.353 160.906Z" fill="#939597"/>
<path d="M150.217 164.019C150.089 164.928 149.372 165.31 148.633 165.121C143.801 163.875 138.913 162.758 134.165 161.343C130.134 160.142 126.208 158.692 122.338 157.193C117.968 155.495 113.725 153.588 109.4 151.835C107.337 150.996 105.468 149.974 103.895 148.583C103.372 148.122 103.027 147.625 103.656 147.054C104.212 146.548 104.873 146.746 105.324 147.134C108.782 150.103 113.675 151.011 117.818 153.007C120.97 154.521 124.323 155.758 127.632 157.054C133.926 159.511 140.709 160.812 147.393 162.371C148.054 162.525 148.766 162.674 149.311 162.996C149.767 163.26 150.012 163.781 150.217 164.019Z" fill="#939597"/>
<path d="M348.517 136.812C348.328 137 348.083 137.363 347.728 137.586C340.171 142.248 332.598 146.915 324.925 151.503C322.857 152.734 320.571 153.712 318.381 154.794C317.964 154.998 317.524 155.172 317.08 155.316C316.318 155.564 315.412 155.981 314.922 155.038C314.416 154.075 315.478 153.896 316.162 153.538C319.493 151.801 322.901 150.172 326.087 148.266C331.953 144.746 337.658 141.042 343.43 137.442C344.464 136.792 345.576 136.206 346.727 135.729C347.622 135.352 348.545 135.888 348.517 136.812Z" fill="#939597"/>
<path d="M198.291 116.078C198.636 115.8 198.992 115.284 199.364 115.269C199.742 115.254 200.348 115.671 200.482 116.009C201.027 117.404 201.232 118.923 201.922 120.254C204.174 124.558 206.548 128.818 208.994 133.053C210.107 134.97 211.58 136.692 213.793 137.834C213.965 137.924 214.204 138.028 214.26 138.172C214.405 138.534 214.683 139.085 214.505 139.259C214.21 139.547 213.487 139.82 213.154 139.696C212.225 139.349 211.285 138.892 210.562 138.296C209.578 137.482 208.666 136.568 207.944 135.575C204.363 130.64 201.616 125.358 199.386 119.881C198.908 118.72 198.68 117.478 198.291 116.078Z" fill="#939597"/>
<path d="M141.398 123.774C141.615 123.918 142.038 124.107 142.327 124.4C147.854 129.97 154.415 134.588 161.248 138.971C161.576 139.18 161.916 139.384 162.216 139.617C162.711 140.004 162.983 140.486 162.555 141.032C162.121 141.588 161.504 141.538 160.904 141.26C160.603 141.121 160.309 140.972 160.031 140.799C153.442 136.782 147.509 132.16 142.032 127.135C141.387 126.544 140.809 125.879 140.342 125.179C139.869 124.469 140.353 123.749 141.398 123.774Z" fill="#939597"/>
<path d="M298.664 139.522C297.574 139.403 297.263 138.604 297.836 137.844C299.431 135.719 301.088 133.629 302.612 131.465C305.159 127.835 307.616 124.156 310.096 120.497C310.163 120.398 310.207 120.279 310.274 120.179C310.597 119.703 310.997 119.216 311.714 119.479C312.531 119.782 312.476 120.418 312.215 121.013C312.02 121.455 311.781 121.882 311.508 122.289C308.011 127.483 304.491 132.676 300.938 137.849C300.627 138.301 300.227 138.723 299.776 139.066C299.437 139.324 298.942 139.418 298.664 139.522Z" fill="#939597"/>
<path d="M253.037 122.408C253.398 119.866 253.754 117.319 254.138 114.777C254.215 114.251 254.315 113.685 254.605 113.233C254.788 112.95 255.383 112.652 255.706 112.717C256.039 112.781 256.428 113.248 256.495 113.586C256.59 114.033 256.384 114.524 256.328 114.996C255.956 118.258 255.505 121.52 255.266 124.786C255.183 125.933 255.555 127.135 255.878 128.277C256.067 128.932 256.212 129.563 255.389 129.746C254.955 129.846 254.087 129.543 253.882 129.205C253.415 128.441 253.025 127.552 252.975 126.703C252.886 125.278 253.087 123.843 253.17 122.413C253.126 122.418 253.081 122.413 253.037 122.408Z" fill="#939597"/>
<path d="M325.859 121.654C325.658 122.061 325.536 122.408 325.336 122.706C323.957 124.742 322.595 126.787 321.144 128.783C320.76 129.315 320.17 129.796 319.542 130.099C319.175 130.273 318.38 130.183 318.085 129.935C317.852 129.737 317.907 129.012 318.141 128.699C319.854 126.365 321.638 124.077 323.401 121.778C323.623 121.485 323.796 121.113 324.113 120.939C324.402 120.78 324.919 120.715 325.219 120.84C325.514 120.959 325.658 121.376 325.859 121.654Z" fill="#939597"/>
<path d="M265.891 139.964C266.119 138.306 266.341 136.648 266.569 134.989C266.603 134.751 266.564 134.438 266.72 134.304C267.025 134.036 267.431 133.738 267.826 133.713C268.087 133.698 268.571 134.096 268.649 134.369C268.788 134.88 268.771 135.441 268.705 135.967C268.46 137.864 268.171 139.756 267.887 141.647C267.854 141.881 267.865 142.183 267.698 142.327C267.387 142.595 266.948 142.963 266.603 142.928C266.286 142.898 265.819 142.417 265.774 142.099C265.68 141.399 265.802 140.674 265.841 139.959C265.863 139.964 265.874 139.964 265.891 139.964Z" fill="#939597"/>
<path d="M347.128 106.794C347.039 111.635 342.563 114.445 337.158 112.926C334.017 112.042 331.315 110.428 329.274 108.075C327.1 105.558 326.933 102.832 328.712 100.538C330.597 98.1104 334.406 96.7848 337.436 97.8771C340.595 99.019 343.58 100.553 345.749 103.06C346.75 104.212 347.156 105.334 347.128 106.794ZM338.96 111.203C341.668 111.357 343.314 110.513 344.187 108.815C345.21 106.819 345.037 105.141 343.219 103.711C341.434 102.306 339.466 101.055 337.442 99.9375C335.64 98.9395 332.777 99.5999 331.176 101.119C329.674 102.539 329.396 104.282 330.62 106.069C332.655 109.008 335.796 110.513 338.96 111.203Z" fill="#939597"/>
<path d="M196.122 106.05C192.196 105.871 189.566 104.193 188.488 101.189C188.004 99.8388 188.048 98.4933 188.716 97.1825C190.239 94.1788 192.814 92.1035 196.278 90.9417C197.034 90.6885 198.046 90.7481 198.841 90.9516C201.338 91.5971 203.523 92.7837 205.313 94.4271C207.398 96.3336 207.281 98.6323 206.253 100.926C204.707 104.342 200.809 106.263 196.122 106.05ZM196.166 103.96C196.711 103.955 197.256 103.984 197.796 103.945C201.154 103.696 203.734 101.83 204.407 99.1635C204.774 97.7188 204.49 96.413 203.111 95.4945C201.999 94.7498 200.854 93.9752 199.58 93.4937C198.663 93.1511 197.445 93.027 196.478 93.2454C194.137 93.7717 192.536 95.2115 191.318 97.0386C190.134 98.811 190.345 100.435 191.618 102.013C192.719 103.374 194.298 103.91 196.166 103.96Z" fill="#939597"/>
<path d="M291.43 105.131C288.538 104.809 285.63 103.379 283.584 100.742C281.972 98.6622 282.072 96.3982 283.729 94.3824C285.313 92.4511 287.554 91.473 290.14 90.9865C291.046 90.8177 291.952 90.6091 292.814 90.3162C293.787 89.9885 294.694 90.0481 295.505 90.5943C297.657 92.0539 299.514 93.8313 300.259 96.135C301.711 100.628 297.64 105.36 291.43 105.131ZM291.519 103.001C293.52 103.131 295.161 102.694 296.245 101.701C299.564 98.6671 298.358 95.2265 295.216 93.4292C292.43 91.8355 287.671 93.0618 285.736 95.43C284.541 96.8897 284.463 98.2699 285.664 99.7346C287.226 101.636 289.367 102.718 291.519 103.001Z" fill="#939597"/>
<path d="M244.562 102.341C239.08 102.118 236.005 99.8538 235.332 96.1053C234.498 91.4482 238.618 87.5905 243.928 87.6154C247.226 87.6302 249.6 88.8367 251.724 90.7929C254.182 93.0519 254.471 95.6584 252.652 98.3196C250.617 101.284 247.604 102.52 244.562 102.341ZM244.168 89.6112C240.826 89.4573 238.802 90.7631 237.884 93.3696C237.073 95.6733 238.151 98.2998 240.398 99.4665C243.934 101.299 248.86 100.102 250.818 96.9295C251.746 95.4152 251.629 93.9158 250.367 92.5951C248.644 90.778 246.536 89.5864 244.168 89.6112Z" fill="#939597"/>
<path d="M153.47 111.461C147.976 111.158 145.557 106.819 148.699 102.817C150.918 99.9824 153.976 98.0908 157.684 97.0432C158.391 96.8446 159.152 96.7801 159.892 96.7354C160.275 96.7106 160.915 96.7602 161.021 96.9539C161.716 98.2696 163.428 98.5029 164.44 99.486C166.431 101.412 166.759 103.895 165.157 106.174C162.683 109.694 158.19 111.724 153.47 111.461ZM159.82 98.4632C155.388 99.5207 151.98 101.442 150.028 104.972C148.988 106.854 150.256 108.736 152.663 109.257C156.461 110.086 161.699 107.867 163.406 104.699C164.318 103.001 163.439 100.623 161.521 100.325C160.248 100.136 159.831 99.6498 159.82 98.4632Z" fill="#939597"/>
<path d="M380.588 124.807C380.633 127.766 377.464 129.94 374.211 128.977C372.537 128.481 370.869 127.701 369.462 126.743C366.443 124.693 366.121 121.783 368.378 119.296C370.48 116.982 374.205 116.625 376.946 118.482C378.97 119.847 380.555 122.597 380.588 124.807ZM378.153 124.688C377.981 122.895 377.124 121.426 375.834 120.18C374.572 118.958 372.026 119.028 370.636 120.204C369.034 121.555 368.89 123.307 370.33 124.678C371.553 125.839 373.099 126.579 374.789 126.986C376.607 127.418 378.192 126.242 378.153 124.688Z" fill="#939597"/>
<path d="M125.795 170.375C122.059 169.531 118.511 168.89 115.108 167.927C109.998 166.482 104.966 164.869 99.9622 163.22C98.3775 162.699 96.9596 161.845 95.4862 161.11C95.0803 160.907 94.641 160.639 94.4464 160.301C94.274 159.993 94.2407 159.447 94.4631 159.199C94.6688 158.976 95.2916 158.995 95.7308 158.941C95.842 158.926 95.9699 159.04 96.0811 159.105C101.185 162.163 107.235 163.538 113.107 165.216C116.96 166.319 120.974 167.068 124.922 167.977C125.322 168.071 125.74 168.131 126.129 168.245C126.868 168.463 127.741 168.751 127.302 169.561C127.102 169.963 126.279 170.137 125.795 170.375Z" fill="#939597"/>
<path d="M160.442 178.715C154.776 178.055 149.711 177.474 144.651 176.874C144.034 176.799 143.378 176.715 142.855 176.461C142.522 176.303 142.171 175.786 142.255 175.518C142.344 175.23 142.9 174.962 143.317 174.828C143.606 174.734 143.995 174.888 144.34 174.922C151.574 175.593 158.808 176.273 166.053 176.923C167.587 177.062 169.133 177.062 170.606 176.486C171.274 176.228 172.041 176.084 172.441 176.774C172.903 177.574 172.18 178.09 171.468 178.284C170.15 178.651 168.76 179.018 167.404 179.028C164.885 179.043 162.361 178.81 160.442 178.715Z" fill="#939597"/>
<path d="M121.408 173.591C114.697 172.573 107.791 171.223 101.052 169.386C100.724 169.297 100.391 169.202 100.09 169.068C99.3843 168.755 98.7115 168.343 99.1953 167.569C99.6345 166.854 100.352 167.142 101.036 167.321C103.149 167.877 105.25 168.487 107.413 168.904C112.223 169.833 117.071 170.652 121.909 171.521C122.66 171.655 123.466 171.7 124.133 171.973C124.517 172.127 124.839 172.648 124.861 173.025C124.873 173.229 124.216 173.631 123.822 173.681C123.132 173.765 122.42 173.646 121.408 173.591Z" fill="#939597"/>
<path d="M322.545 179.479C322.962 179.455 323.385 179.365 323.79 179.415C333.304 180.562 342.712 179.906 352.114 179.241C356.218 178.948 360.31 178.606 364.408 178.303C365.031 178.258 365.692 178.189 366.287 178.332C366.743 178.442 367.333 178.799 367.488 179.152C367.755 179.767 367.255 180.184 366.543 180.259C365.164 180.408 363.774 180.507 362.384 180.601C355.495 181.068 348.606 181.584 341.7 181.972C336.24 182.28 330.757 182.081 325.281 181.565C324.864 181.525 324.441 181.46 324.03 181.381C322.345 181.058 322.278 180.964 322.628 179.42C322.617 179.425 322.545 179.479 322.545 179.479Z" fill="#939597"/>
<path d="M390.247 171.775C389.947 171.566 389.346 171.343 389.18 170.985C388.896 170.37 389.419 169.997 390.058 169.809C390.253 169.749 390.459 169.719 390.659 169.684C395.213 168.925 399.116 167.018 402.863 164.918C404.087 164.233 405.093 164.178 405.393 164.764C405.922 165.802 404.954 166.159 404.242 166.542C400.567 168.523 396.903 170.548 392.538 171.417C391.871 171.546 391.187 171.626 390.247 171.775Z" fill="#939597"/>
<path d="M313.76 188.129C314.26 188.293 314.666 188.402 315.05 188.551C317.646 189.549 320.282 190.487 322.828 191.589C323.941 192.071 324.919 192.836 325.831 193.59C326.07 193.789 325.953 194.504 325.72 194.822C325.592 194.995 324.708 194.99 324.424 194.792C321.533 192.761 317.869 192.106 314.738 190.527C314.188 190.249 313.582 190.021 313.126 189.653C312.887 189.459 312.753 188.963 312.87 188.705C312.981 188.442 313.459 188.308 313.76 188.129Z" fill="#939597"/>
<path d="M434.4 215.431C438.037 215.808 440.739 214.21 442.963 211.782C444.82 209.756 445.76 207.333 446.455 204.831C447.6 200.735 447.923 196.54 448.273 192.344C448.557 188.953 448.974 185.572 449.341 182.191C449.369 181.928 449.396 181.63 449.552 181.422C449.719 181.193 450.058 180.88 450.275 180.91C450.581 180.95 450.948 181.218 451.098 181.476C451.259 181.759 451.254 182.146 451.237 182.489C451.17 183.745 451.137 185.011 450.959 186.262C450.219 191.54 449.736 196.833 450.08 202.155C450.269 205.084 451.048 207.884 452.727 210.451C453.989 212.378 455.741 213.723 458.098 214.502C460.089 215.163 462.124 215.51 464.226 215.644C464.693 215.674 465.182 215.674 465.616 215.808C465.883 215.888 466.172 216.171 466.244 216.409C466.294 216.568 466.01 216.955 465.81 216.99C465.332 217.084 465.232 217.288 465.171 217.685C465.087 218.216 464.704 218.365 464.053 218.311C461.812 218.122 459.733 218.539 457.904 219.785C455.807 221.215 454.195 222.982 453.411 225.241C452.488 227.903 451.593 230.579 450.87 233.285C449.997 236.551 449.324 239.858 448.562 243.15C448.518 243.333 448.523 243.567 448.401 243.691C448.218 243.87 447.928 244.078 447.701 244.063C447.473 244.048 447.161 243.82 447.067 243.616C446.944 243.348 446.983 243.016 446.978 242.713C446.889 239.272 446.872 235.832 446.689 232.396C446.577 230.301 446.299 228.205 445.932 226.135C445.282 222.461 442.83 220.118 438.91 218.951C436.836 218.335 434.767 217.73 432.554 217.66C432.087 217.645 431.609 217.576 431.17 217.442C430.931 217.367 430.664 217.129 430.603 216.915C430.486 216.538 431.676 215.401 432.137 215.391C432.521 215.381 432.905 215.416 433.294 215.421C433.633 215.436 433.978 215.431 434.4 215.431ZM436.702 216.757C436.702 216.821 436.702 216.886 436.702 216.945C437.598 217.193 438.498 217.437 439.388 217.695C443.586 218.916 446.31 221.364 447.295 225.261C447.973 227.957 448.184 230.703 448.279 233.453C448.307 234.193 448.284 234.933 448.284 235.673C448.396 235.683 448.507 235.693 448.618 235.702C448.757 235.206 448.885 234.705 449.035 234.208C449.997 231.08 450.77 227.888 451.976 224.839C453.644 220.639 456.792 217.7 461.818 216.915C460.395 216.518 458.832 216.126 457.303 215.654C454.907 214.915 453.105 213.505 451.743 211.603C450.364 209.677 449.508 207.572 449.018 205.342C448.885 204.727 448.757 204.106 448.624 203.49C448.273 203.942 448.145 204.399 448.017 204.861C447.25 207.666 446.199 210.362 444.136 212.651C442.574 214.383 440.678 215.714 438.281 216.409C437.77 216.558 437.231 216.642 436.702 216.757Z" fill="#939597"/>
<path d="M50.5652 248.264C50.6263 245.777 50.4929 243.299 49.8145 240.881C49.581 240.037 49.1529 239.223 48.7136 238.444C48.0019 237.177 46.7397 236.641 45.2106 236.76C43.8595 236.865 42.5195 237.123 41.1794 237.321C41.0404 237.341 40.9126 237.411 40.7791 237.436C40.3176 237.515 39.8506 237.421 39.7505 236.999C39.6893 236.741 39.8895 236.378 40.0841 236.135C40.2342 235.946 40.5567 235.877 40.7958 235.743C41.9912 235.072 43.2201 234.447 44.371 233.722C46.5507 232.347 47.8629 230.435 48.2855 228.092C48.4245 227.327 48.3133 226.508 48.1742 225.733C47.9908 224.74 47.6683 223.767 47.3903 222.794C47.2401 222.273 47.3625 221.881 47.9741 221.687C48.6524 221.474 49.2029 221.652 49.4031 222.308C49.6978 223.276 49.9758 224.269 50.0481 225.262C50.1203 226.28 50.4039 227.183 51.1879 227.898C52.6669 229.249 54.1626 230.594 55.7473 231.84C56.4312 232.376 57.3654 232.674 58.1994 233.057C58.5719 233.23 58.9889 233.325 59.3726 233.484C59.9453 233.722 60.4847 234.02 60.4902 234.66C60.4958 235.276 59.9286 235.47 59.4171 235.698C57.1763 236.701 55.6139 238.27 54.6019 240.3C53.6511 242.207 53.2897 244.242 52.945 246.278C52.6892 247.772 52.5224 249.282 52.3278 250.781C52.1943 251.814 51.8718 252.246 51.2491 252.112C50.3372 251.913 50.5763 251.223 50.5707 250.662C50.5596 249.863 50.5652 249.063 50.5652 248.264ZM51.8885 242.127C52.6725 240.673 53.2452 239.178 54.2071 237.922C55.1635 236.671 56.5035 235.658 57.7157 234.501C54.3906 233.513 52.3778 231.001 49.8757 229C48.3466 232.282 49.1084 231.647 45.3608 235.147C50.1871 235.519 51.0545 238.801 51.8885 242.127Z" fill="#939597"/>
<path d="M233.447 274.657C233.464 274.657 233.47 274.652 233.487 274.647C233.481 274.637 233.487 274.632 233.481 274.622C233.476 274.622 233.447 274.657 233.447 274.657Z" fill="#4867F8"/>
<path d="M268.443 290.167C267.737 290.067 267.148 290.236 266.536 290.604C264.501 291.82 264.612 291.746 262.933 290.782C261.688 290.067 260.359 289.462 259.191 288.633C258.023 287.803 256.783 287.064 255.577 286.284C255.393 285.976 255.126 285.768 254.732 285.713C254.459 285.584 254.203 285.371 253.92 285.336C252.007 285.088 250.111 285.063 248.254 285.678C247.665 285.872 247.031 286.304 246.369 285.713C246.252 285.609 245.902 285.673 245.668 285.713C244.934 285.837 244.189 285.932 243.478 286.13C242.594 286.374 241.932 286.145 241.293 285.604C239.402 283.995 237.478 282.417 235.582 280.808C235.087 280.391 234.326 280.083 234.198 279.497C234.036 278.772 234.965 278.435 235.343 277.889C235.899 277.089 236.5 276.31 237.083 275.52C237.378 275.118 236.728 274.661 237.178 274.269C238.162 273.996 239.096 273.629 239.902 273.038C240.136 272.963 240.381 272.914 240.603 272.814C241.676 272.333 242.721 271.956 243.939 272.541C244.406 272.77 244.645 272.541 244.879 271.896C245.085 271.32 245.357 271.211 245.958 271.454C246.069 271.499 246.163 271.578 246.263 271.643C246.536 271.822 246.764 271.841 247.086 271.643C247.709 271.256 247.726 271.285 247.425 270.446C247.37 270.297 247.47 270.104 247.409 269.96C247.075 269.121 246.464 268.803 245.557 269.061C244.79 269.28 244.05 269.582 243.305 269.85C242.905 269.994 242.521 270.228 242.104 270.297C240.753 270.516 239.497 271.032 238.168 271.305C236.75 271.598 235.671 272.517 234.292 272.884C234.042 272.949 233.881 273.276 233.681 273.485C233.491 273.569 233.38 273.703 233.369 273.897C232.852 274.225 232.424 274.622 232.135 275.133C232.246 275.227 232.352 275.322 232.463 275.421C232.669 275.391 232.835 275.168 233.08 275.287C232.98 274.969 233.186 274.786 233.458 274.632C233.536 274.468 233.614 274.304 233.692 274.135C233.803 274.036 233.92 273.932 234.031 273.832C234.181 273.807 234.453 273.698 234.459 273.852C234.476 274.284 234.12 274.532 233.491 274.642C233.664 274.999 233.386 275.158 233.113 275.317C232.869 275.754 232.652 276.215 232.007 276.275C232.062 276.111 232.118 275.952 232.179 275.788C232.363 275.719 232.468 275.595 232.468 275.411C232.357 275.317 232.252 275.218 232.14 275.123C232.024 275.242 231.912 275.357 231.796 275.476C231 276.096 230.222 276.727 229.41 277.328C229.171 277.506 228.849 277.601 228.576 277.337C228.332 277.104 227.931 276.871 228.248 276.503C228.743 275.937 228.626 275.421 228.354 274.8C228.048 274.11 227.77 273.475 226.93 273.177C226.719 273.102 226.552 272.894 226.402 272.72C226.063 272.343 225.885 271.966 226.38 271.558C226.569 271.404 226.636 271.186 226.463 270.968C226.335 270.804 226.124 270.789 225.963 270.853C225.196 271.166 224.334 270.789 223.583 271.131C223.072 271.365 222.554 271.514 221.971 271.38C221.709 271.32 221.459 271.419 221.326 271.618C220.82 272.353 219.969 272.958 220.236 273.981C220.275 274.125 220.225 274.309 220.164 274.453C219.646 275.714 220.041 276.697 221.281 277.437C221.593 277.62 221.876 277.839 222.16 278.057C222.41 278.251 222.699 278.36 223.016 278.291C224.245 278.018 224.779 278.891 225.485 279.477C225.685 279.641 225.685 279.884 225.529 280.083C225.279 280.401 225.012 280.709 224.729 281.002C223.683 282.104 222.766 283.28 222.021 284.561C221.704 285.103 221.398 285.649 221.292 286.264C221.053 287.689 220.758 289.104 220.569 290.529C220.442 291.512 220.191 292.51 220.575 293.498C220.736 293.915 220.503 294.268 220.297 294.595C220.086 294.933 219.774 295.216 219.546 295.549C219.057 296.254 218.857 296.944 219.519 297.693C219.741 297.942 219.763 298.354 220.247 298.314C220.692 298.279 220.809 297.917 220.953 297.614C221.048 297.41 221.103 297.192 221.203 296.988C221.342 296.696 221.565 296.775 221.787 296.914C222.082 297.098 222.349 297.381 222.755 297.073C223.088 296.82 223.088 296.497 223.044 296.164C223.022 296 222.988 295.827 222.905 295.683C222.566 295.107 222.632 294.486 222.682 293.885C222.81 292.391 222.999 290.902 223.155 289.407C223.194 289.025 223.099 288.568 223.472 288.32C223.661 288.196 224.056 288.33 224.356 288.325C224.473 288.325 224.656 288.305 224.701 288.235C225.073 287.645 225.896 287.461 226.23 286.82C226.424 286.448 226.652 286.041 227.103 285.773C228.215 286.746 228.904 287.858 229.577 288.97C230.255 290.092 230.845 291.259 231.518 292.386C232.19 293.503 232.346 294.829 233.208 295.871C233.981 295.434 234.248 294.576 235.165 294.238C235.365 294.63 235.538 294.973 235.704 295.32C236.327 296.611 237.367 297.316 239.002 297.371C240.553 297.425 242.099 297.535 243.622 297.862C244.484 298.046 245.335 297.962 246.102 297.45C246.486 297.192 246.919 297.371 246.908 297.743C246.842 299.526 247.02 301.288 247.337 303.046C247.353 303.15 247.337 303.279 247.286 303.373C247.236 303.468 247.131 303.587 247.042 303.597C246.441 303.646 246.436 304.024 246.391 304.426C246.286 305.315 246.313 306.198 246.363 307.087C246.386 307.544 246.608 307.802 247.07 307.946C248.315 308.338 249.616 308.447 250.917 308.532C251.59 308.576 251.918 308.149 251.74 307.549C251.601 307.077 251.279 306.779 250.762 306.63C250.35 306.511 249.916 306.417 249.533 306.238C249.338 306.149 249.071 305.866 249.11 305.746C249.41 304.848 249.088 303.895 249.472 302.996C250.411 300.787 250.7 298.473 250.801 296.13C250.817 295.797 250.767 295.464 250.734 295.132C250.673 294.516 250.278 294.109 249.661 293.88C249.322 293.756 248.949 293.692 248.593 293.597C248.237 293.503 247.781 293.444 247.648 293.131C247.348 292.411 246.658 292.401 246.002 292.242C245.385 292.088 244.645 292.103 244.206 291.388C245.368 291.016 246.475 290.653 247.581 290.306C247.937 290.192 248.354 290.102 248.41 289.725C248.493 289.124 248.943 289.065 249.466 289.015C250.022 288.96 250.578 288.881 251.123 288.786C252.018 288.628 252.83 288.757 253.631 289.169C254.487 289.616 255.349 290.058 256.311 290.331C257.378 290.633 258.413 291.011 259.463 291.348C259.775 291.448 260.019 291.592 260.125 291.88C260.209 292.103 260.37 292.262 260.614 292.351C262.188 292.912 263.572 293.761 264.968 294.595C265.346 294.819 265.685 294.729 265.941 294.427C266.953 293.23 267.982 292.043 268.81 290.728C268.977 290.47 268.816 290.216 268.443 290.167ZM230.3 278.206C230.116 278.057 230.228 277.923 230.339 277.819C230.428 277.735 230.522 277.541 230.711 277.71C230.739 277.735 230.761 277.799 230.745 277.834C230.667 278.028 230.522 278.157 230.3 278.206ZM231.139 277.238C231.117 277.248 231.067 277.218 231.028 277.203C231.078 277.114 231.128 277.03 231.178 276.94C231.301 277.04 231.317 277.144 231.139 277.238ZM231.201 276.92C231.317 276.826 231.434 276.737 231.545 276.642C231.612 277.01 231.579 277.04 231.201 276.92ZM231.59 276.603C231.657 276.454 231.762 276.349 231.951 276.335C231.957 276.558 231.901 276.722 231.59 276.603ZM234.181 282.963C234.109 282.913 234.042 282.863 233.97 282.814C234.042 282.863 234.114 282.913 234.181 282.963ZM236.205 287.213C236.127 287.287 236.049 287.362 235.966 287.431C236.044 287.362 236.127 287.287 236.205 287.213ZM234.298 283.817C234.292 283.856 234.359 283.901 234.398 283.941C234.359 283.901 234.292 283.856 234.298 283.817ZM236.333 287.774C236.277 287.719 236.216 287.669 236.16 287.615C236.216 287.669 236.277 287.719 236.333 287.774C236.344 287.823 236.349 287.878 236.366 287.928C236.349 287.878 236.344 287.823 236.333 287.774ZM248.365 294.233C248.465 294.193 248.599 294.223 248.816 294.223C248.949 294.278 249.183 294.342 249.377 294.451C249.438 294.486 249.433 294.64 249.433 294.739C249.433 294.774 249.372 294.824 249.327 294.844C248.971 294.988 248.615 294.928 248.282 294.784C248.148 294.724 248.054 294.585 247.943 294.486C248.082 294.402 248.209 294.293 248.365 294.233Z" fill="#4E4B66"/>
<path d="M233.475 274.622C233.47 274.627 233.458 274.632 233.453 274.637C233.447 274.642 233.447 274.652 233.441 274.657L233.475 274.622Z" fill="#4867F8"/>
<path d="M233.074 275.287C233.08 275.307 233.074 275.318 233.086 275.338C233.091 275.333 233.103 275.328 233.108 275.323C233.114 275.318 233.114 275.308 233.12 275.302C233.103 275.292 233.091 275.297 233.074 275.287Z" fill="#4867F8"/>
<path d="M72.7392 277.288C72.9339 277.283 73.1285 277.288 73.3231 277.268C74.5296 277.154 75.4415 276.459 75.6584 275.496C75.7751 274.975 75.6584 274.503 75.158 274.185C74.7521 273.927 74.3295 273.654 73.868 273.495C73.5344 273.381 73.0951 273.346 72.7504 273.431C71.9108 273.639 71.3492 274.17 70.9322 274.836C70.5207 275.481 70.6152 276.067 71.0878 276.623C71.4937 277.105 72.0665 277.288 72.7392 277.288Z" fill="#939597"/>
<path d="M494.979 332.557C495.64 333.197 496.308 333.341 497.008 333.093C497.831 332.8 498.254 332.323 498.176 331.549C498.104 330.789 497.937 330.025 497.72 329.285C497.525 328.625 496.597 328.163 495.757 328.203C494.968 328.242 494.412 328.635 494.239 329.369C493.95 330.586 494.35 331.678 494.979 332.557Z" fill="#939597"/>
<path d="M494.49 270.62C493.661 269.841 492.772 269.732 491.804 270.208C490.953 270.63 490.503 271.554 490.764 272.353C491.176 273.614 492.794 274.394 494.184 274.001C494.846 273.813 495.235 273.396 495.274 272.77C495.335 271.916 495.113 271.137 494.49 270.62Z" fill="#939597"/>
<path d="M431.797 111.218C432.459 111.858 433.126 112.002 433.827 111.754C434.65 111.461 435.072 110.985 434.995 110.21C434.922 109.45 434.755 108.686 434.539 107.946C434.344 107.286 433.415 106.824 432.576 106.864C431.786 106.903 431.23 107.296 431.058 108.03C430.763 109.247 431.169 110.334 431.797 111.218Z" fill="#939597"/>
<path d="M431.308 49.2766C430.48 48.4971 429.59 48.3879 428.623 48.8645C427.772 49.2865 427.321 50.21 427.583 51.0093C427.994 52.2704 429.612 53.0499 431.002 52.6576C431.664 52.469 432.053 52.0519 432.092 51.4264C432.153 50.5724 431.931 49.7979 431.308 49.2766Z" fill="#939597"/>
<path d="M148.636 48.5464C147.43 48.5166 146.718 49.0032 146.412 49.9465C146.14 50.7806 146.557 51.719 147.374 52.1211C148.664 52.7517 150.427 52.285 151.1 51.1282C151.422 50.5771 151.361 50.0359 150.894 49.5692C150.26 48.9337 149.487 48.5166 148.636 48.5464Z" fill="#939597"/>
<path d="M166.357 37.5295C167.08 37.5593 167.664 37.3905 168.048 37.0231C169.21 35.906 168.743 34.6747 167.597 34.0541C166.58 33.503 164.878 33.9796 164.205 34.8485C163.788 35.3847 163.777 35.8812 164.222 36.3975C164.8 37.0727 165.584 37.4451 166.357 37.5295Z" fill="#939597"/>
<path d="M56.8092 31.6408C55.9807 30.8613 55.091 30.7521 54.1236 31.2287C53.2728 31.6508 52.8225 32.5742 53.0838 33.3736C53.4952 34.6346 55.1133 35.4141 56.5033 35.0219C57.165 34.8332 57.5542 34.4162 57.5932 33.7906C57.6543 32.9367 57.4375 32.1572 56.8092 31.6408Z" fill="#939597"/>
<path d="M37.8775 385.642C38.5392 386.282 39.2064 386.426 39.907 386.178C40.7299 385.885 41.1525 385.408 41.0747 384.634C41.0024 383.874 40.8356 383.11 40.6187 382.37C40.4241 381.71 39.4956 381.248 38.656 381.288C37.8664 381.322 37.3104 381.72 37.138 382.454C36.8433 383.671 37.2492 384.763 37.8775 385.642Z" fill="#939597"/>
<path d="M37.3873 323.699C36.5588 322.92 35.6692 322.811 34.7017 323.287C33.851 323.709 33.4006 324.633 33.6619 325.432C34.0734 326.693 35.6914 327.473 37.0815 327.081C37.7431 326.892 38.1324 326.475 38.1713 325.849C38.2324 325 38.01 324.221 37.3873 323.699Z" fill="#939597"/>
</svg>
