<svg width="288" height="231" fill="none" xmlns="http://www.w3.org/2000/svg"><path d="M284.185 134.2c-3.069-2.805-6.72-4.722-10.567-6.29-4.704-1.916-9.605-3.203-14.613-4.071-8.932-1.551-17.873-3.031-26.814-4.545-.771-.13-1.537-.289-2.273-.432-1.43-3.438-3.261-6.356-5.333-9.111-.471-.629-.822-1.174-1.049-1.933-3.377-11.354-7.811-22.222-15.408-31.606-6.891-8.511-16.046-13.77-26.305-17.354-7.529-2.63-15.34-3.879-23.327-4.05-3.561-.08-7.122-.072-10.725-.105-.933-3.032-.411-6.072-.557-9.15 2.714-.502 5.239-.905 7.734-1.454a30.787 30.787 0 0 0 4.687-1.426c.826-.327 1.622-.922 2.217-1.585 1.455-1.627 1.245-3.417-.514-4.725-.727-.54-1.566-1.048-2.435-1.283-2.949-.81-5.932-1.501-8.911-2.206-.685-.159-1.404-.18-2.298-.289l.389-9.115c5.205-1.262 7.743-3.438 7.944-6.675.205-3.338-2.299-6.336-6.947-8.113.069-1.841.133-3.77.219-5.703.072-1.572-.193-2.193-1.019-2.125-1.177.096-1.203 1.048-1.276 1.87-.154 1.731-.252 3.471-.351 4.884-2.058.973-4.006 1.677-5.718 2.742-3.775 2.348-4.057 7.233-.565 9.963 1.481 1.157 3.27 1.945 5.132 3.023-.098 2.457-.197 5.174-.321 7.89-.017.403-.128.806-.218 1.338-3.565-.868-6.788.415-10.08 1.107-2.251.474-4.04 1.774-5.585 3.35-2.11 2.151-1.854 4.7.792 6.143 1.712.935 3.676 1.564 5.611 1.937 2.011.39 4.117.319 6.18.428.843.046 1.691.029 2.752.046.03 3.081.06 6.058.09 9.245-.702.075-1.374.176-2.054.222-12.823.902-25.086 3.98-36.655 9.439-7.755 3.66-14.377 8.846-19.448 15.748-3.253 4.423-6.502 8.86-9.545 13.421-4.177 6.269-7.182 13.049-8.38 20.512-.078.474-.18.977-.403 1.396-1.031 1.904-2.272 3.719-3.12 5.694-.65 1.522-1.626 2.004-3.18 2.239-11.856 1.795-23.656 3.883-35.302 6.713a240.912 240.912 0 0 0-14.223 3.916c-3.201.985-6.291 2.331-8.86 4.553-2.983 2.579-4.168 5.749-3.248 9.615.39 1.643 1.447 2.868 2.538 4.071 2.885 3.166 6.334 5.639 10.062 7.753a100.668 100.668 0 0 0 17.12 7.681c12.97 4.423 26.208 7.937 39.536 11.14 1.464.353 2.255.94 2.846 2.353 4.738 11.266 12.61 20.033 22.761 26.914 2.817 1.908 5.749 3.66 8.642 5.463 1.22.759 2.632 1.128 3.51 2.516.483.763 1.763 1.103 2.739 1.501 1.635.667 3.313 1.228 5.097 1.882l.317-.083c1.348.658 5.598 2.553 11.745 3.702 7.648 1.43 18.207 1.639 29.652-3.149.817-.184 1.558-.419 1.455-.654.895-.428 1.717-.805 2.525-1.208 1.46-.733 3.151-1.228 4.306-2.285 1.468-1.337 3.163-2.088 4.888-2.889 3.745-1.731 7.507-3.446 11.227-5.228 9.955-4.767 17.484-11.979 22.509-21.656 1.322-2.545 2.465-5.174 3.74-7.875.364.005 1.049.122 1.687 0 14.852-2.796 29.721-5.543 44.38-9.236 5.187-1.309 10.298-2.91 15.117-5.263 6.215-3.035 11.697-6.981 15.832-12.545.672-.901 1.327-1.828 1.883-2.8 2.74-4.789 1.871-10.437-2.234-14.193ZM77.933 96.942c3.21-5.38 6.9-10.44 10.76-15.396 4.9-6.298 11.004-11.116 18.156-14.705 6.848-3.434 14.171-5.606 21.631-7.245 12.37-2.717 24.91-2.986 37.481-1.74 6.206.612 12.224 2.138 18.023 4.44 9.956 3.95 18.387 9.82 24.589 18.545 3.951 5.556 6.677 11.723 9.322 17.92 1.207 2.831 2.145 5.778 3.168 8.684.145.415.098.897.149 1.493-1.442-.265-2.688-.592-3.954-.696-1.383-.114-2.123-.734-2.68-1.98-2.589-5.781-5.641-11.295-9.784-16.2-3.09-3.661-5.817-7.615-9.485-10.79-10.426-9.014-22.521-14.12-36.427-15.018-11.831-.763-23.536.21-35.114 2.595-5.363 1.103-10.388 3.14-14.783 6.399-3.009 2.23-5.89 4.637-8.749 7.056-6.467 5.468-10.696 12.306-12.759 20.428-.188.746-.41 1.484-.62 2.226-.852 3.024-1.704 6.047-2.56 9.091-4.34.943-8.569 1.857-13.101 2.842.128-.859.192-1.341.274-1.819 1.014-5.816 3.458-11.095 6.463-16.13Zm125.213 7.136c-.941.382-1.673-.034-2.397-1.161-1.934-3.01-3.77-6.088-5.902-8.96-6.352-8.55-14.462-14.596-25.351-16.495a4.267 4.267 0 0 1-.822-.223c-1.065-.423-1.532-1.144-1.382-2.084.146-.91.89-1.55 1.956-1.614.419-.025.852.063 1.267.143 7.267 1.446 13.807 4.327 19.423 9.178 5.645 4.88 9.758 10.889 13.662 17.4.098.281.329.797.466 1.334.33 1.312.018 2.105-.92 2.482Zm-42.137-30.184c-.95.49-2.076.138-2.551-.797-.479-.94-.086-2 .907-2.449.929-.42 1.892-.121 2.384.738.531.93.21 2.017-.74 2.508Zm-64.65 24.1c-.84-.436-1.17-1.38-.822-2.352.14-.39.38-.746.594-1.107 3.288-5.539 7.465-10.365 12.404-14.545 1.494-1.262 3.193-2.29 4.34-3.099 2.517-.91 4.443-1.652 6.399-2.293 1.348-.44 2.739-.772 4.126-1.078 1.245-.276 2.178.189 2.444 1.099.269.922-.236 1.723-1.447 2.226-.522.218-1.079.365-1.622.533-1.224.377-2.465.696-3.668 1.128-3.296 1.182-6.356 2.696-8.907 5.203-3.732 3.665-7.37 7.375-10.028 11.9a12.478 12.478 0 0 1-1.481 2.046c-.633.704-1.481.784-2.333.34Zm-1.07 7.589c-.96.461-2.017.101-2.487-.851-.454-.918-.078-2.038.834-2.474.878-.419 2.097 0 2.534.868.45.906.056 2.009-.882 2.457Zm-26.593 13.476c.36-.868.942-1.287 1.883-1.472 10.696-2.13 21.31-4.733 32.084-6.369 37.048-5.618 74.195-5.995 111.372-1.09 2.683.353 5.35.881 7.999 1.451.689.147 1.481.629 1.858 1.195 1.083 1.623 1.981 3.363 3.15 5.409-3.934-.491-7.37-.675-10.696-1.371-13.08-2.73-26.404-2.642-39.646-3.246-7.606-.348-15.272.093-22.89.55-28.142 1.681-56.176 4.482-84.108 8.235-.796.104-1.596.163-2.662.272.655-1.409 1.203-2.47 1.656-3.564Zm-3.54 56.302c.814-.851 1.426-1.484 1.982-2.067 4.982 2.055 5.47 2.377 5.367 3.811-2.34-.557-4.648-1.102-7.348-1.744Zm3.84-3.887 4.327-3.144c1.806 1.367 3.471 2.624 5.269 3.983a2065.37 2065.37 0 0 0-3.476 2.239c-2.054-1.032-3.924-1.971-6.12-3.078Zm37.977-7.849-7.922 1.724-2.761-5.543c2.82-.629 5.555-1.242 8.521-1.904.595 2.143 1.948 3.66 2.162 5.723Zm.128-6.067c2.32-.356 4.238-.654 6.296-.968.287 2.079 1.648 3.765.771 5.861-1.511.218-2.966.432-4.319.625a4650.96 4650.96 0 0 1-2.748-5.518Zm-10.546 8.445-6.86 2.083c-1.268-1.689-2.39-3.182-3.729-4.968a9243.5 9243.5 0 0 0 7.841-2.625l2.748 5.51Zm-9.279 2.859c-2.517.969-4.682 1.803-6.527 2.512-1.7-1.476-3.197-2.776-4.926-4.281 2.752-1.095 5.281-2.101 7.853-3.128 1.246 1.698 2.346 3.191 3.6 4.897Zm35.525 44.038c.933-.725 1.968-1.346 3.235-1.769 2.847-.948 5.766-.956 8.676-.982 4.648-.041 9.275.386 13.829 1.346.847.181 1.699.474 2.735.789-12.108 4.243-23.913 1.865-28.475.616Zm-3.429 5.241c.313-.189.373-.348-.038-.428a12.43 12.43 0 0 1 1.348-2.587c1.061.34 3.039.91 5.701 1.409 5.971 1.115 15.306 1.782 25.06-1.442.372.201.886.272 1.558.096l1.468 2.629c-.368.118-.775.386-1.173.684-14.963 5.32-28.193 1.777-33.924-.361Zm37.742-1.048c-.051.004-.103.025-.158.033-.805-1.341-1.807-2.448-2.158-3.631a1.33 1.33 0 0 0 .048-1.107c-.12-.285-.343-.49-.595-.633-.634-1.283-1.811-1.857-3.249-2.163-2.782-.6-5.594-1.162-8.423-1.426-3.403-.314-6.84-.247-10.26-.453-2.011-.121-3.954-.113-5.85.696-1.173.499-2.397 1.032-3.647 1.191-1.489.185-2.191 1.002-2.855 2.147-.141.247-.299.482-.445.729-.218.151-.411.344-.509.608-.039.101-.039.206-.052.311-.761 1.224-1.536 2.432-2.281 3.606-.03-.005-.064-.017-.094-.021-.15-.072-.235-.118-.248-.122a1.367 1.367 0 0 0-.869-.122c-2.637-.587-5.282-1.584-6.613-2.57.612-2.058 2.144-3.375 3.955-4.411 4.973-2.842 10.422-4.176 16.11-4.587 7.76-.562 15.396.403 22.98 1.929 4.104.826 7.901 2.407 11.518 4.444.535.302 1.022.688 1.626 1.095-2.187 2.39-5.123 3.061-7.931 4.457Zm47.29-37.476c-1.326 2.478-2.512 5.031-3.937 7.455-4.036 6.864-9.532 12.448-16.496 16.415-4.926 2.809-10.229 4.981-15.335 7.488-1.057.516-1.738.009-2.525-.494-4.653-2.986-9.66-5.191-15.16-6.101a191.316 191.316 0 0 0-12.948-1.677c-4.126-.394-8.29-.377-12.386.331-7.229 1.25-14.321 2.847-19.051 9.22-14.633-7.861-26.575-18.126-32.965-34.092 3.398-1.786 6.48-3.744 9.823-5.086 4.417-1.774 8.975-3.266 13.576-4.516 14.321-3.895 28.976-5.58 43.811-5.694 12.301-.092 24.563.495 36.522 3.665 7.704 2.042 15.55 3.761 22.453 7.979 1.319.805 2.675 1.556 3.976 2.386 1.075.679 1.242 1.601.642 2.721Zm-88.636-23.392c2.573-.248 4.88-.466 7.469-.713.15 2.155.424 3.975-.026 5.832-2.122.218-4.13.428-6.069.629-.479-2.012-.907-3.79-1.374-5.748Zm9.913-.876c2.765-.114 5.41-.219 8.346-.34-.389 1.585-.608 2.893-1.061 4.117-.214.579-.826 1.359-1.344 1.426-1.922.247-3.869.52-5.8.394-.051-1.937-.094-3.66-.141-5.597Zm9.553 5.048 1.182-5.472c3.175 0 6.313-.004 9.775-.004-.736 2.046-1.344 3.723-1.947 5.409-3.116.025-5.997.046-9.01.067Zm11.638-.072c.573-1.828 1.07-3.421 1.673-5.35 3.108.214 6.112.42 9.357.646-.801 1.929-1.464 3.526-2.132 5.141-3.013-.151-5.894-.29-8.898-.437Zm11.458.575c.706-1.828 1.322-3.426 1.956-5.061 2.61.277 5.05.541 7.802.834-.916 1.841-1.703 3.426-2.487 4.998-2.529-.272-4.828-.515-7.271-.771Zm9.788 1.082c.843-1.766 1.618-3.384 2.427-5.082 3.129.482 6.116.939 9.193 1.413-1.271 1.87-2.375 3.501-3.586 5.283l-8.034-1.614Zm13.046-3.392 6.3 1.786c-.997 1.949-1.892 3.706-2.808 5.497-2.11-.592-3.993-1.116-5.881-1.644.707-2.034 2.667-3.27 2.389-5.639Zm5.996 7.664c.779-1.585 1.597-3.253 2.508-5.111l7.512 3.216a3623.324 3623.324 0 0 0-2.958 4.172c-2.611-.843-4.802-1.547-7.062-2.277Zm9.1 3.547c1.07-1.534 2.011-2.889 3.068-4.402 2.068 1.295 3.968 2.486 6.378 3.991-1.802.982-3.073 1.72-4.392 2.357-.316.155-.847.088-1.194-.063-1.275-.566-2.517-1.216-3.86-1.883Zm11.166 6.248c-.445.067-1.04.004-1.374-.248-.89-.662-1.677-1.455-2.679-2.352 1.4-.893 2.675-1.702 3.998-2.545 1.451 1.338 2.953 2.474 3.783 4.386-1.365.285-2.538.578-3.728.759Zm76.061-27.707c-2.829 4.206-6.518 7.556-10.802 10.327-5.624 3.64-11.839 5.954-18.306 7.48-10.752 2.537-21.576 4.776-32.379 7.107-2.705.583-5.436 1.032-8.145 1.539-2.804-4.499-6.728-7.631-11.098-10.193-7.289-4.277-15.07-7.48-23.481-8.826a291.495 291.495 0 0 0-20.827-2.562c-18.438-1.606-36.795-.964-55.016 2.466-10.096 1.899-19.671 5.304-29.027 9.379-3.844 1.673-7.028 4.269-9.862 7.266-.582.617-.868 1.502-1.438 2.525-1.802-.487-3.719-1.019-5.65-1.522-9.81-2.558-19.555-5.313-29.078-8.772-5.915-2.147-11.56-4.839-16.847-8.222-2.82-1.807-5.41-3.895-7.524-6.491-1.943-2.385-2.016-5.576-.03-7.916.852-1.006 1.883-1.979 3.039-2.595 2.187-1.166 4.438-2.34 6.814-3.015 6.441-1.828 12.913-3.585 19.453-5.027 18.473-4.076 37.18-6.755 55.979-8.898 20.21-2.301 40.451-4.226 60.751-5.589.766-.05 1.55.03 2.32.109 1.053.109 2.102.424 3.146.399 7.135-.185 14.265-.524 21.405-.642 9.424-.155 18.87-.256 28.231.977 8.47 1.12 16.902 2.533 25.342 3.879a1007.676 1007.676 0 0 1 19.218 3.22c5.196.926 10.405 1.845 15.541 3.056 5.804 1.367 11.295 3.564 16.054 7.208 4.687 3.593 5.496 8.457 2.217 13.333Z" fill="#939597"/><path d="M273.536 141.529c-3.95-3.325-8.641-5.434-13.388-7.384-8.153-3.346-16.709-5.3-25.402-6.658-24.101-3.765-48.369-5.384-72.761-5.187-33.881.273-67.561 2.985-101.057 8.021-9.245 1.388-18.499 2.637-27.538 5.061-4.614 1.237-9.228 2.461-13.812 3.786-2.898.839-5.62 2.159-7.9 4.097-1.38 1.165-2.458 2.691-3.579 4.125-.522.667-.552 1.518.321 1.996.775.424 1.382-.033 1.78-.692 2.594-4.293 6.84-6.23 11.441-7.522 8.984-2.52 17.947-5.22 27.213-6.557 18.704-2.709 37.4-5.485 56.253-7.078 29.618-2.499 59.262-3.652 88.965-1.883 15.263.91 30.466 2.437 45.498 5.237 8.945 1.665 17.672 4.084 25.719 8.395 2.679 1.433 5.183 3.195 7.665 4.947.959.675 1.746 1.665 2.41 2.642.826 1.22 1.117 2.578.107 3.907-.129.168-.33.348-.33.529-.008.448-.051 1.203.15 1.283.441.176 1.28.214 1.498-.051.651-.784 1.391-1.706 1.515-2.645.163-1.254-.227-2.579-.393-3.975-1.498-1.526-2.825-3.09-4.375-4.394Z" fill="#939597"/><path d="M204.058 133.512c-.493.398-.985.801-1.43 1.25-2.547 2.582-2.191 6 .822 8.058 3.124 2.13 7.511 1.745 10.191-.901 1.6-1.581 1.866-3.753.727-5.983-1.318-2.998-6.51-5.51-10.31-2.424Zm6.454 7.593c-2.123 1.003-4.43.738-6.009-.662-.805-.713-1.229-1.551-.929-2.616.92-3.233 5.401-4.361 7.828-1.975 1.948 1.916 1.58 4.088-.89 5.253Zm-60.85-7.878c-2.046-1.949-4.584-2.461-7.263-2.381-.617.016-1.545.679-1.759 1.249-.677 1.812-1.229 3.698-1.554 5.602-.253 1.467.591 2.679 1.763 3.606 2.012 1.589 5.141 1.912 7.456.784 3.694-1.799 4.323-6.03 1.357-8.86Zm-2.611 6.742c-1.545.541-3.159.466-4.532-.641-.476-.382-.891-1.178-.852-1.753.081-1.165.411-2.335.822-3.438.145-.386.809-.763 1.279-.826 1.777-.247 3.176.591 4.349 1.79 1.588 1.615 1.121 3.875-1.066 4.868Zm115.091 7.975c-1.866-1.619-4.25-1.593-6.463-1.518-2.242.076-4.434 3.556-4.078 5.883.445 2.947 2.961 5.06 6.107 5.132 2.971.067 5.851-2.113 6.292-4.906.145-.922-.09-1.903-.15-2.801-.65-.687-1.134-1.291-1.708-1.79Zm-2.217 6.52c-2.208 1.01-4.597.26-5.44-1.409-.453-.901-.513-1.811.035-2.78 1.356-2.398 5.996-1.593 6.873.331.257.566.296 1.439.026 1.975-.411.83-1.173 1.497-1.494 1.883ZM84.344 137.42c-1.053-.746-2.405-1.245-3.69-1.48-2.246-.415-3.145.197-4.095 2.264-.381.826-.83 1.627-1.152 2.474-1.134 2.985.184 5.442 3.326 6.285 1.652.44 3.24.247 4.75-.398 3.716-2.109 4.992-6.21.861-9.145Zm-2.444 7.145c-.548-.013-1.622.13-2.615-.088-1.562-.344-2.05-1.351-1.528-2.831a14.31 14.31 0 0 1 1.062-2.268c.74-1.317 1.177-1.484 2.568-.956a6.134 6.134 0 0 1 1.639.935c2.046 1.635 1.755 3.824-1.126 5.208Zm-48.754 6.201c-2.333-1.455-4.824-2.063-7.482-.768-1.061.516-1.669 1.279-1.412 2.512.325 1.56.642 3.119.959 4.675 1.28 2.046 2.885 2.939 5.23 2.738 2.55-.218 4.404-1.681 4.956-3.92.488-1.963-.33-4.042-2.251-5.237Zm-.227 4.847c-.42 1.207-1.438 1.673-2.615 1.815-1.057.13-1.887-.201-2.482-1.191-.856-1.425-.835-2.868-.36-4.444 1.742-.44 3.287.117 4.665 1.208.843.666 1.156 1.572.792 2.612Zm77.084 12.339c-1.018-.167-2.127-.331-3.111-.109-2.983.675-5.937 1.493-8.877 2.332-2.461.704-4.9 1.492-7.332 2.297-4.1 1.359-7.734 3.552-11.137 6.134-.222.172-.42.378-.62.575-.527.507-.74 1.149-.146 1.635.347.285.985.226 1.293.281.762-.579 1.267-.964 1.78-1.342 4.644-3.425 10.007-5.291 15.524-6.817 2.675-.743 5.346-1.501 8.042-2.164 1.37-.335 2.804-.402 4.178-.729.441-.105.958-.587 1.095-1.007.082-.276-.389-1.035-.689-1.086Zm45.861 6.789c.621.159 1.263.231 1.892.356 6.146 1.254 12.331 2.348 18.413 3.841 3.227.793 6.27 2.298 9.399 3.468.634.239 1.288.423 1.708.557.877-.461 1.036-1.27.488-1.769-.514-.461-1.156-.805-1.789-1.111a63.634 63.634 0 0 0-14.732-5.011c-4.396-.914-8.83-1.652-13.251-2.457-.561-.1-1.13-.172-1.7-.193-.697-.029-1.314.202-1.451.948-.141.75.33 1.195 1.023 1.371Zm-22.059 21.56c-1.267-.059-2.607-.122-3.801.21-4.588 1.274-9.142 2.675-13.687 4.088-3.694 1.144-7.152 2.779-10.324 4.981-.522.365-1.031.746-1.532 1.14-.552.432-.938 1.057-.424 1.602.325.348 1.053.327 1.374.415 1.126-.751 1.939-1.312 2.778-1.845 3.565-2.272 7.55-3.614 11.539-4.922a143.604 143.604 0 0 1 9.429-2.722c1.425-.364 2.94-.427 4.421-.528.762-.05 1.537-.063 1.661-.926.141-.952-.612-1.455-1.434-1.493Zm35.148 8.708c-.916-.537-1.849-1.09-2.846-1.443-6.442-2.281-12.9-4.515-19.367-6.733-.869-.298-1.802-.428-2.714-.579-.723-.117-1.387.168-1.404.91-.008.428.437.922.792 1.275.223.222.655.239.993.348 6.3 2.046 12.618 4.041 18.884 6.176 1.797.612 3.428 1.681 5.183 2.444.419.185 1.074.076 1.519-.122.214-.096.193-.708.291-1.14-.488-.419-.86-.86-1.331-1.136Zm29.661-26.96c-5.307-3.002-10.713-5.803-16.636-7.476a11.632 11.632 0 0 0-2.937-.449c-.971-.017-1.429.839-.83 1.82.287.122.77.415 1.293.528 5.414 1.166 10.293 3.623 15.194 6.021 1.203.591 2.337 1.325 3.484 2.025.642.39 1.314.449 1.643-.218.185-.373-.025-1.027-.243-1.463-.172-.335-.604-.583-.968-.788Zm-95.193 6.725c-1.922.906-3.895 1.757-5.676 2.885-2.812 1.786-5.49 3.769-8.213 5.69-.458.323-.989.675-1.228 1.14-.214.415-.274 1.153-.03 1.476.227.298.95.235 1.078.26 2.641-1.82 4.862-3.476 7.208-4.931 2.465-1.526 5.042-2.884 7.593-4.272.727-.394 1.493-.734 1.091-1.707-.338-.809-1.143-.859-1.823-.541Zm-8.505-5.095c.535-.415.87-1.107.321-1.631-.35-.335-1.066-.306-1.755-.478-3.638 2.768-7.186 5.443-10.691 8.164-.71.549-1.464 1.287-.766 2.302.44.637 1.108.323 2.31-.608 2.453-1.9 4.979-3.707 7.482-5.539 1.028-.746 2.098-1.43 3.1-2.21Zm80.752 20.315c-2.671-1.279-5.338-2.57-8.055-3.74-.741-.319-1.67-.344-2.5-.293-.886.054-1.275.805-.83 1.681.252.126.65.457 1.095.532 3.356.575 6.296 2.097 9.168 3.782.304.177.617.441.938.462.381.021.988-.067 1.117-.306.188-.348.167-.923 0-1.309-.141-.343-.565-.633-.933-.809Zm8.025-11.253c-.325-.084-.835.155-1.121.402-.201.172-.167.608-.24.939.342.286.595.529.877.722 1.46.998 2.924 1.987 4.392 2.977.235.159.471.406.719.427.394.034 1.01.034 1.151-.188.218-.34.334-1.07.116-1.3-1.64-1.77-3.459-3.342-5.894-3.979Zm12.699-2.529c-1.391-1.346-3.034-2.289-4.969-2.62-1.108-.189-1.823.566-1.37 1.589.249.146.647.406 1.062.633 1.228.666 2.487 1.283 3.685 2 .659.394 1.275.733 1.875.058.526-.599.192-1.199-.283-1.66Zm-26.759-17.018c-.205-.675-.95-.872-1.536-.47-.364.252-.497.83-.929 1.623.942.126 1.588.402 2.003.205.325-.151.582-.964.462-1.358Zm-68.177 8.49c.304-.331.5-1.04.342-1.413-.15-.356-.826-.499-1.596-.91-.154.864-.39 1.384-.296 1.845.124.621 1.126.939 1.55.478Zm56.583-9.178c.753-.122 1.006-.835.616-1.451-.235-.369-.834-.516-1.613-.96-.18.859-.505 1.459-.321 1.79.192.356.903.692 1.318.621Z" fill="#939597"/></svg>