<svg width="22" height="16" fill="none" xmlns="http://www.w3.org/2000/svg"><path d="M18.71 1.748C16.866.263 13.946.011 13.82.002a.46.46 0 0 0-.459.272 3.076 3.076 0 0 0-.141.386c1.22.206 2.72.621 4.078 1.463a.463.463 0 1 1-.49.789c-2.332-1.449-5.246-1.52-5.807-1.52-.561 0-3.477.072-5.808 1.52a.464.464 0 0 1-.49-.79C6.062 1.283 7.56.867 8.783.663c-.071-.23-.135-.376-.14-.388a.458.458 0 0 0-.46-.272c-.125.01-3.046.26-4.917 1.766C2.289 2.672.334 7.955.334 12.522c0 .081.022.16.062.23 1.347 2.37 5.027 2.989 5.865 3.016h.015a.464.464 0 0 0 .375-.19l.848-1.167c-2.288-.59-3.457-1.594-3.524-1.654a.464.464 0 0 1 .615-.695c.026.025 2.179 1.851 6.41 1.851 4.24 0 6.392-1.833 6.414-1.851a.464.464 0 0 1 .612.695c-.067.06-1.236 1.064-3.523 1.654l.847 1.167a.464.464 0 0 0 .376.19h.013c.84-.027 4.519-.647 5.867-3.016a.469.469 0 0 0 .061-.23c0-4.567-1.955-9.85-2.956-10.774ZM7.987 10.667c-.897 0-1.623-.83-1.623-1.855s.726-1.855 1.623-1.855 1.623.83 1.623 1.855-.726 1.855-1.623 1.855Zm6.03 0c-.898 0-1.624-.83-1.624-1.855s.726-1.855 1.623-1.855 1.623.83 1.623 1.855-.726 1.855-1.623 1.855Z" fill="#fff"/></svg>