<svg width="30" height="30" fill="none" xmlns="http://www.w3.org/2000/svg"><circle cx="15" cy="15" r="15" fill="#fff"/><path d="M20.783 10.311c-1.385-1.114-3.575-1.303-3.669-1.31a.345.345 0 0 0-.344.204c-.041.094-.077.19-.106.29.916.154 2.041.466 3.059 1.097a.35.35 0 0 1 .02.579.348.348 0 0 1-.387.013c-1.75-1.087-3.935-1.14-4.356-1.14-.42 0-2.607.054-4.356 1.14a.348.348 0 0 1-.367-.592c1.018-.63 2.143-.943 3.059-1.096a2.69 2.69 0 0 0-.105-.29.343.343 0 0 0-.345-.206c-.094.007-2.284.196-3.688 1.325C8.466 11.004 7 14.966 7 18.391c0 .062.016.12.046.173 1.011 1.777 3.77 2.242 4.4 2.262h.01a.348.348 0 0 0 .282-.143l.636-.875c-1.716-.442-2.593-1.195-2.643-1.24a.348.348 0 1 1 .46-.522c.02.02 1.635 1.389 4.809 1.389 3.18 0 4.793-1.375 4.81-1.389a.347.347 0 0 1 .459.522c-.05.045-.927.798-2.643 1.24l.636.875a.346.346 0 0 0 .282.143h.01c.63-.02 3.389-.485 4.4-2.262A.351.351 0 0 0 23 18.39c0-3.425-1.466-7.387-2.217-8.08ZM12.739 17c-.673 0-1.217-.623-1.217-1.391 0-.769.544-1.392 1.217-1.392s1.217.623 1.217 1.392c0 .768-.544 1.391-1.217 1.391Zm4.522 0c-.673 0-1.217-.623-1.217-1.391 0-.769.544-1.392 1.217-1.392s1.217.623 1.217 1.392c0 .768-.544 1.391-1.217 1.391Z" fill="#4E4B66"/></svg>