<svg width="160" height="160" fill="none" xmlns="http://www.w3.org/2000/svg"><rect width="160" height="160" rx="8" fill="#F7F7FC"/><path d="M119.043 53.602c-8.961-6.971-23.138-8.152-23.746-8.194a2.297 2.297 0 0 0-1.322.295 2.185 2.185 0 0 0-.902.98c-.27.588-.5 1.193-.687 1.81 5.928.969 13.209 2.916 19.797 6.867.251.15.469.348.642.58a2.13 2.13 0 0 1 .393 1.622 2.133 2.133 0 0 1-.309.795 2.2 2.2 0 0 1-.6.62 2.301 2.301 0 0 1-1.679.38 2.306 2.306 0 0 1-.823-.298c-11.324-6.795-25.467-7.132-28.194-7.132-2.724 0-16.876.34-28.194 7.13a2.328 2.328 0 0 1-1.701.27 2.25 2.25 0 0 1-1.4-.972 2.114 2.114 0 0 1-.28-1.644 2.181 2.181 0 0 1 1.006-1.353c6.588-3.94 13.869-5.896 19.797-6.856-.343-1.08-.653-1.76-.676-1.819a2.173 2.173 0 0 0-.905-.986 2.286 2.286 0 0 0-1.33-.289c-.608.044-14.785 1.223-23.87 8.288-4.739 4.238-14.229 29.021-14.229 50.448 0 .382.106.748.3 1.079 6.542 11.118 24.405 14.022 28.475 14.15h.07c.355.001.706-.079 1.023-.234.317-.155.591-.38.8-.658l4.114-5.474c-11.106-2.769-16.78-7.478-17.104-7.758a2.15 2.15 0 0 1-.757-1.497 2.129 2.129 0 0 1 .56-1.575 2.282 2.282 0 0 1 1.548-.732 2.3 2.3 0 0 1 1.63.54c.13.12 10.58 8.686 31.123 8.686 20.578 0 31.027-8.601 31.133-8.686a2.298 2.298 0 0 1 1.631-.532c.595.038 1.15.303 1.543.737a2.103 2.103 0 0 1 .329 2.387c-.13.256-.31.484-.532.672-.324.28-5.997 4.989-17.103 7.758l4.115 5.474c.209.277.484.502.8.657.317.155.667.236 1.021.235h.068c4.075-.128 21.935-3.035 28.48-14.15.191-.331.297-.697.297-1.079 0-21.427-9.489-46.208-14.352-50.542ZM66.979 95.44c-4.354 0-7.88-3.895-7.88-8.703s3.526-8.703 7.88-8.703c4.355 0 7.88 3.895 7.88 8.703s-3.525 8.703-7.88 8.703Zm29.268 0c-4.354 0-7.88-3.895-7.88-8.703s3.526-8.703 7.88-8.703c4.355 0 7.88 3.895 7.88 8.703s-3.525 8.703-7.88 8.703Z" fill="#121314"/></svg>