<svg width="119" height="119" viewBox="0 0 119 119" fill="none" xmlns="http://www.w3.org/2000/svg">
<path d="M96.6086 30.3949C87.6481 23.4239 73.4711 22.2425 72.8632 22.2012C72.4014 22.1645 71.9392 22.2674 71.5406 22.4959C71.1421 22.7243 70.8269 23.0669 70.6389 23.4762C70.3684 24.0641 70.139 24.6688 69.9522 25.2863C75.8801 26.2545 83.161 28.2018 89.7486 32.1529C89.9999 32.3036 90.218 32.5007 90.3905 32.7328C90.563 32.965 90.6865 33.2278 90.7539 33.5061C90.8214 33.7844 90.8314 34.0728 90.7835 34.3548C90.7356 34.6369 90.6306 34.907 90.4747 35.1499C90.3187 35.3928 90.1148 35.6036 89.8745 35.7703C89.6343 35.937 89.3624 36.0563 89.0744 36.1214C88.7864 36.1866 88.488 36.1963 88.1961 36.15C87.9043 36.1037 87.6247 36.0023 87.3734 35.8516C76.0489 29.0568 61.9057 28.7196 59.1793 28.7196C56.4551 28.7196 42.3029 29.059 30.9852 35.8494C30.7339 36.0001 30.4543 36.1015 30.1625 36.1478C29.8706 36.1941 29.5722 36.1844 29.2842 36.1193C28.7026 35.9877 28.1989 35.6382 27.8839 35.1477C27.569 34.6572 27.4685 34.0659 27.6047 33.5039C27.7408 32.9418 28.1025 32.4551 28.61 32.1507C35.1976 28.2105 42.4785 26.2545 48.4064 25.2951C48.0642 24.2159 47.7535 23.5349 47.731 23.4762C47.5437 23.064 47.2271 22.7192 46.8259 22.4904C46.4247 22.2616 45.9593 22.1605 45.4954 22.2012C44.8875 22.2447 30.7105 23.4239 21.6262 30.4885C16.887 34.7267 7.39746 59.5102 7.39746 80.9365C7.39746 81.3194 7.50328 81.6849 7.69689 82.0156C14.2394 93.1335 32.1019 96.0381 36.1724 96.1664H36.2422C36.5974 96.1673 36.9478 96.087 37.2648 95.9319C37.5817 95.7769 37.8562 95.5516 38.0658 95.2744L42.1791 89.8003C31.073 87.0307 25.3995 82.3224 25.0753 82.0418C24.6275 81.6598 24.355 81.1215 24.3179 80.5454C24.2807 79.9692 24.4819 79.4024 24.8772 78.9697C25.2725 78.5369 25.8295 78.2736 26.4257 78.2377C27.0218 78.2018 27.6083 78.3962 28.0562 78.7782C28.1867 78.8979 38.6354 87.4636 59.1793 87.4636C79.757 87.4636 90.2056 78.8631 90.3114 78.7782C90.7607 78.3989 91.3473 78.2075 91.9425 78.2458C92.5376 78.2841 93.0928 78.5492 93.4859 78.9827C93.6805 79.1964 93.8296 79.4451 93.9248 79.7145C94.0199 79.9839 94.0592 80.2687 94.0404 80.5528C94.0216 80.8369 93.945 81.1146 93.8151 81.3701C93.6852 81.6256 93.5045 81.8538 93.2833 82.0418C92.9591 82.3224 87.2856 87.0307 76.1795 89.8003L80.295 95.2744C80.5044 95.5513 80.7785 95.7764 81.0951 95.9314C81.4116 96.0865 81.7616 96.167 82.1164 96.1664H82.1839C86.259 96.0381 104.119 93.1313 110.664 82.0156C110.855 81.6849 110.961 81.3194 110.961 80.9365C110.961 59.5102 101.472 34.7289 96.6086 30.3949ZM44.5453 72.2337C40.1911 72.2337 36.6655 68.3392 36.6655 63.5309C36.6655 58.7226 40.1911 54.8281 44.5453 54.8281C48.8995 54.8281 52.4252 58.7226 52.4252 63.5309C52.4252 68.3392 48.8995 72.2337 44.5453 72.2337ZM73.8133 72.2337C69.4591 72.2337 65.9335 68.3392 65.9335 63.5309C65.9335 58.7226 69.4591 54.8281 73.8133 54.8281C78.1675 54.8281 81.6931 58.7226 81.6931 63.5309C81.6931 68.3392 78.1675 72.2337 73.8133 72.2337Z" fill="#121314"/>
</svg>
