<svg width="30" height="30" fill="none" xmlns="http://www.w3.org/2000/svg"><circle cx="15" cy="15" r="15" fill="#FCFCFC"/><path d="M12.96 22.603a10.654 10.654 0 0 0 5.134.157.586.586 0 0 1-.066-.277l.003-.581V21.9c.004-.536.01-1.343.01-2.272 0-.97-.332-1.609-.695-1.928 2.27-.262 4.654-1.136 4.654-5.133 0-1.137-.394-2.063-1.045-2.79.107-.263.457-1.322-.1-2.753 0 0-.857-.28-2.802 1.067a9.737 9.737 0 0 0-2.552-.352c-.87.007-1.74.122-2.553.352-1.945-1.348-2.802-1.067-2.802-1.067-.55 1.43-.2 2.484-.094 2.752-.657.728-1.05 1.654-1.05 2.79 0 3.985 2.376 4.879 4.634 5.134-.287.262-.55.722-.644 1.392-.582.268-2.058.728-2.965-.862 0 0-.544-.996-1.564-1.073 0 0-.994-.012-.069.633 0 0 .67.325 1.133 1.526 0 0 .6 2.017 3.434 1.391l.006.84v.002c.004.442.006.767.006.927a.624.624 0 0 1-.013.127Z" fill="#4E4B66"/></svg>