<svg width="161" height="160" fill="none" xmlns="http://www.w3.org/2000/svg"><rect x=".5" width="160" height="160" rx="8" fill="#F7F7FC"/><path d="M96.349 120.189V104.49a13.672 13.672 0 0 0-3.813-10.588c12.737-1.42 26.124-6.247 26.124-28.396a22.064 22.064 0 0 0-6.085-15.212A20.561 20.561 0 0 0 112.21 35s-4.787-1.42-15.861 6.004a54.277 54.277 0 0 0-28.396 0C56.878 33.581 52.09 35 52.09 35a20.567 20.567 0 0 0-.365 15.294 22.068 22.068 0 0 0-6.085 15.334c0 21.986 13.387 26.814 26.125 28.396a13.671 13.671 0 0 0-3.813 10.466v15.699" fill="#14142B"/><path d="M96.349 120.189V104.49a13.672 13.672 0 0 0-3.813-10.588c12.737-1.42 26.124-6.247 26.124-28.396a22.064 22.064 0 0 0-6.085-15.212A20.561 20.561 0 0 0 112.21 35s-4.787-1.42-15.861 6.004a54.277 54.277 0 0 0-28.396 0C56.878 33.581 52.09 35 52.09 35a20.567 20.567 0 0 0-.365 15.294 22.068 22.068 0 0 0-6.085 15.334c0 21.986 13.387 26.814 26.125 28.396a13.671 13.671 0 0 0-3.813 10.466v15.699" stroke="#14142B"/><path d="M67.953 109.435C47.67 115.519 47.67 97.878 39.557 95.85" stroke="#14142B" stroke-width="4" stroke-linecap="round" stroke-linejoin="round"/></svg>