<svg width="98" height="98" viewBox="0 0 98 98" fill="none" xmlns="http://www.w3.org/2000/svg">
<path d="M64.9056 89.2456C64.9056 83.1147 64.9056 73.5465 64.9056 73.5465C65.0578 71.6122 64.7964 69.6676 64.139 67.8421C63.4815 66.0166 62.443 64.3519 61.0924 62.9588C73.8301 61.539 87.2169 56.7116 87.2169 34.5626C87.2159 28.8989 85.0373 23.4524 81.132 19.3503C82.9812 14.3952 82.8505 8.91816 80.7669 4.05693C80.7669 4.05693 75.9801 2.63712 64.9056 10.0607C55.6079 7.54083 45.8071 7.54083 36.5094 10.0607C25.4349 2.63712 20.6481 4.05693 20.6481 4.05693C18.5645 8.91816 18.4337 14.3952 20.283 19.3503C16.3486 23.4828 14.1677 28.9785 14.1981 34.6843C14.1981 56.6711 27.5849 61.4984 40.3226 63.0805C38.988 64.4596 37.9587 66.1043 37.3017 67.9075C36.6447 69.7108 36.3747 71.6321 36.5094 73.5465V89.2456" fill="#14142B"/>
<path d="M64.9056 89.2456C64.9056 83.1147 64.9056 73.5465 64.9056 73.5465C65.0578 71.6122 64.7964 69.6676 64.139 67.8421C63.4815 66.0166 62.443 64.3519 61.0924 62.9588C73.8301 61.539 87.2169 56.7116 87.2169 34.5626C87.2159 28.8989 85.0373 23.4524 81.132 19.3503C82.9812 14.3952 82.8505 8.91816 80.7669 4.05693C80.7669 4.05693 75.9801 2.63712 64.9056 10.0607C55.6079 7.54083 45.8071 7.54083 36.5094 10.0607C25.4349 2.63712 20.6481 4.05693 20.6481 4.05693C18.5645 8.91816 18.4337 14.3952 20.283 19.3503C16.3486 23.4828 14.1677 28.9785 14.1981 34.6843C14.1981 56.6711 27.5849 61.4984 40.3226 63.0805C38.988 64.4596 37.9587 66.1043 37.3017 67.9075C36.6447 69.7108 36.3747 71.6321 36.5094 73.5465V89.2456" stroke="#14142B"/>
<path d="M36.5095 78.4902C16.2265 84.5751 16.2265 66.9336 8.11328 64.9053" stroke="#14142B" stroke-width="4" stroke-linecap="round" stroke-linejoin="round"/>
</svg>
