<svg width="16" height="16" fill="none" xmlns="http://www.w3.org/2000/svg"><path fill-rule="evenodd" clip-rule="evenodd" d="M9.027.797a1.565 1.565 0 0 1-.6 2.156l-4.8 2.694a.399.399 0 0 0-.206.347v4.229a.4.4 0 0 0 .205.347l3.8 2.13c.125.071.28.071.406 0l3.799-2.13a.398.398 0 0 0 .205-.347v-2.63L8.42 9.485a1.627 1.627 0 0 1-2.194-.6 1.565 1.565 0 0 1 .611-2.154l4.889-2.707c1.489-.825 3.331.231 3.331 1.91v4.61a3 3 0 0 1-1.544 2.612l-4.364 2.447a3.115 3.115 0 0 1-3.041 0l-4.364-2.447A3 3 0 0 1 .2 10.543v-4.87a3 3 0 0 1 1.544-2.612L6.83.208a1.627 1.627 0 0 1 2.197.589Z" fill="#fff"/></svg>