<svg width="15" height="16" viewBox="0 0 15 16" fill="none" xmlns="http://www.w3.org/2000/svg">
<path fill-rule="evenodd" clip-rule="evenodd" d="M8.21803 3.19722C8.51218 3.70257 8.33332 4.34635 7.81853 4.63513L4.61768 6.43063C4.53295 6.47816 4.48068 6.56641 4.48068 6.66195V9.48134C4.48068 9.57693 4.53295 9.66514 4.61768 9.71267L7.15027 11.1333C7.23426 11.1805 7.3375 11.1805 7.42149 11.1333L9.95408 9.71267C10.0388 9.66514 10.0911 9.57693 10.0911 9.48134V7.72801L7.81345 8.98955C7.29705 9.27555 6.64222 9.09647 6.35085 8.58955C6.05948 8.08262 6.24191 7.43981 6.75831 7.15379L10.0173 5.34872C11.01 4.79888 12.2383 5.50299 12.2383 6.6219V9.69503C12.2383 10.4148 11.8454 11.0794 11.2087 11.4366L8.29962 13.0684C7.67148 13.4208 6.90029 13.4208 6.27212 13.0684L3.36303 11.4366C2.72639 11.0794 2.3335 10.4148 2.3335 9.69503V6.44829C2.3335 5.72849 2.72639 5.06388 3.36303 4.70677L6.75323 2.80505C7.26803 2.51628 7.92382 2.69185 8.21803 3.19722Z" fill="black"/>
</svg>
