<svg width="264" height="239" fill="none" xmlns="http://www.w3.org/2000/svg"><path d="M35.828 176.551c-5.893 0-11.01-.776-15.353-2.326-4.342-1.655-8.012-3.774-11.01-6.359-2.895-2.688-5.118-5.686-6.668-8.994-1.551-3.308-2.43-6.72-2.637-10.235h14.578c.517 3.929 2.584 7.392 6.203 10.39 3.722 2.998 8.684 4.497 14.887 4.497 7.03 0 12.561-2.171 16.593-6.513 4.032-4.445 6.048-10.597 6.048-18.454 0-4.446-.672-8.271-2.016-11.476-1.24-3.205-2.946-5.789-5.117-7.754a19.52 19.52 0 0 0-7.134-4.342 25.431 25.431 0 0 0-8.374-1.395c-5.583 0-9.977 1.033-13.182 3.101-3.101 2.068-5.479 4.446-7.133 7.134H2.487V66.446h64.356v12.716h-49.78v30.24c5.377-5.892 12.407-8.839 21.091-8.839 10.752 0 19.23 3.257 25.433 9.77 6.306 6.513 9.46 15.921 9.46 28.224 0 5.789-.93 11.062-2.792 15.818-1.757 4.652-4.29 8.632-7.599 11.941-3.204 3.308-7.133 5.841-11.785 7.598-4.55 1.758-9.564 2.637-15.043 2.637Zm93.058 0c-5.272 0-10.286-.879-15.042-2.637-4.652-1.757-8.736-4.755-12.251-8.994-3.515-4.342-6.307-10.08-8.374-17.214-2.068-7.236-3.102-16.231-3.102-26.983v-3.101c0-10.029 1.034-18.403 3.102-25.123 2.067-6.72 4.859-12.096 8.374-16.128 3.515-4.135 7.599-7.082 12.251-8.84 4.756-1.757 9.77-2.636 15.042-2.636 5.273 0 10.235.88 14.888 2.637 4.755 1.757 8.891 4.704 12.406 8.84 3.515 4.031 6.306 9.407 8.374 16.127 2.068 6.72 3.102 15.094 3.102 25.123v3.101c0 10.752-1.034 19.747-3.102 26.983-2.068 7.134-4.859 12.872-8.374 17.214-3.515 4.239-7.651 7.237-12.406 8.994-4.653 1.758-9.615 2.637-14.888 2.637Zm0-12.717c3.205 0 6.255-.568 9.15-1.705 2.998-1.241 5.583-3.412 7.754-6.514 2.274-3.205 4.032-7.598 5.272-13.181 1.344-5.583 2.016-12.82 2.016-21.711v-3.101c0-8.064-.672-14.681-2.016-19.85-1.24-5.17-2.998-9.253-5.272-12.251-2.171-2.999-4.756-5.066-7.754-6.204-2.895-1.137-5.945-1.705-9.15-1.705-3.308 0-6.41.568-9.304 1.706-2.895 1.137-5.48 3.204-7.754 6.203-2.171 2.998-3.929 7.082-5.273 12.25-1.24 5.17-1.861 11.787-1.861 19.851v3.101c0 8.891.621 16.128 1.861 21.711 1.344 5.583 3.102 9.976 5.273 13.181 2.274 3.102 4.859 5.273 7.754 6.514 2.894 1.137 5.996 1.705 9.304 1.705Zm96.166 12.717c-5.272 0-10.287-.879-15.042-2.637-4.653-1.757-8.736-4.755-12.251-8.994-3.515-4.342-6.307-10.08-8.374-17.214-2.068-7.236-3.102-16.231-3.102-26.983v-3.101c0-10.029 1.034-18.403 3.102-25.123 2.067-6.72 4.859-12.096 8.374-16.128 3.515-4.135 7.598-7.082 12.251-8.84 4.755-1.757 9.77-2.636 15.042-2.636 5.273 0 10.235.88 14.888 2.637 4.755 1.757 8.891 4.704 12.406 8.84 3.515 4.031 6.306 9.407 8.374 16.127 2.068 6.72 3.101 15.094 3.101 25.123v3.101c0 10.752-1.033 19.747-3.101 26.983-2.068 7.134-4.859 12.872-8.374 17.214-3.515 4.239-7.651 7.237-12.406 8.994-4.653 1.758-9.615 2.637-14.888 2.637Zm0-12.717c3.205 0 6.255-.568 9.15-1.705 2.998-1.241 5.583-3.412 7.754-6.514 2.274-3.205 4.032-7.598 5.272-13.181 1.344-5.583 2.016-12.82 2.016-21.711v-3.101c0-8.064-.672-14.681-2.016-19.85-1.24-5.17-2.998-9.253-5.272-12.251-2.171-2.999-4.756-5.066-7.754-6.204-2.895-1.137-5.945-1.705-9.15-1.705-3.308 0-6.41.568-9.304 1.706-2.895 1.137-5.48 3.204-7.754 6.203-2.171 2.998-3.929 7.082-5.273 12.25-1.24 5.17-1.861 11.787-1.861 19.851v3.101c0 8.891.621 16.128 1.861 21.711 1.344 5.583 3.102 9.976 5.273 13.181 2.274 3.102 4.859 5.273 7.754 6.514 2.894 1.137 5.996 1.705 9.304 1.705Z" fill="#F7F7FC"/><path d="m80.666 129.808-8.01.148a2.96 2.96 0 0 1-2.943-2.331 2.962 2.962 0 0 1 2.246-3.507l4.375-.974a2.816 2.816 0 1 0-1.224-5.499l-4.375.974c-4.592 1.023-7.52 5.595-6.529 10.193a8.607 8.607 0 0 0 8.554 6.777l8.01-.149a6.342 6.342 0 0 1 6.486 6.08 1.975 1.975 0 0 1-1.587 2.019l-16.5 3.206a12.674 12.674 0 0 1-10.708-2.825l-7.333-6.273c-2.985-2.553-6.617-4.059-10.502-4.355-.672-.053-2.313-.344-6.688-.234-3.652.093-7.392.37-11.118.823a2.817 2.817 0 0 0 .682 5.592c4.409-.537 11.702-1.103 16.137-.619.22.024.401.043.56.055a12.597 12.597 0 0 1 7.268 3.019l7.333 6.273a18.276 18.276 0 0 0 15.443 4.074l16.5-3.205c3.673-.714 6.313-4.071 6.141-7.81a11.947 11.947 0 0 0-12.218-11.452Z" fill="#A5A4B1"/><path d="M60.264 103.376a12.775 12.775 0 0 1 9.814-2.749l40.324 5.623a1.774 1.774 0 0 1 1.515 1.487 1.786 1.786 0 0 1-1.374 2.018c-23.23 5.174-21.527 4.715-22.146 5.122a2.824 2.824 0 0 0-1.2 2.962c.16.709 1.47 3.662 1.118 7.98a2.816 2.816 0 1 0 5.615.457 23.833 23.833 0 0 0-.461-6.948l18.299-4.075c3.812-.849 6.322-4.536 5.712-8.394a7.374 7.374 0 0 0-6.3-6.189l-40.324-5.622a18.425 18.425 0 0 0-14.155 3.964l-11.832 9.661c-2.61 2.132-6.061 3.221-9.66 2.715-4.259-.598-9.82-2.58-16.534-5.869a2.817 2.817 0 1 0-2.479 5.059c5.46 2.675 12.265 5.559 18.301 6.399 4.944.687 10.022-.746 13.934-3.94l11.833-9.661Zm173.027 23.217a2.817 2.817 0 0 0-2.128-3.368c-6.778-1.529-12.88-1.928-19.903-1.583a41.268 41.268 0 0 0-20.846 6.891l-3.844 2.563a6.003 6.003 0 0 1-2.885.978 72.903 72.903 0 0 1-4.144.187c-3.968.067-7.78 1.665-10.459 4.386-2.858 2.903-7.835.57-7.119-3.274a3.98 3.98 0 0 1 2.54-3.036l14.821-5.5c2.897-1.071 5.089-4.43 4.447-8.089-.488-2.774-2.608-5.064-5.401-5.834-1.41-.389-3.166-.873-5.098-1.408a2.817 2.817 0 0 0-1.502 5.429l5.102 1.409c1.736.48 1.784 2.583.399 3.245l-14.729 5.467c-6.513 2.417-8.413 10.765-3.538 15.64 3.876 3.876 10.209 3.847 14.091-.096 1.652-1.678 4.036-2.664 6.539-2.706a79.589 79.589 0 0 0 4.464-.201 11.66 11.66 0 0 0 5.596-1.909l3.844-2.563a35.62 35.62 0 0 1 17.998-5.952c6.38-.314 11.997.01 18.387 1.452a2.819 2.819 0 0 0 3.368-2.128Z" fill="#A5A4B1"/><path d="M138.54 99.791c-3.314 4.207-2.937 10.276.886 14.099 4.1 4.1 10.82 4.093 14.994-.022a7.578 7.578 0 0 1 1.737-1.284 16.305 16.305 0 0 0-.105 6.753 2.817 2.817 0 0 0 5.528-1.084c-.529-2.698.033-5.388 1.34-7.697 1.259-1.91-.152-4.441-2.419-4.382-3.672-.332-7.309.994-10.035 3.682-1.829 1.803-4.998 2.11-7.067.04-1.825-1.837-2.008-4.621-.433-6.619 1.344-1.707 3.53-2.359 5.569-1.663 2.471.845 5.177.871 7.621.072 10.774-3.52 22.297-4.281 34.248-2.264 1.506.255 2.859.931 3.914 1.957 8.64 8.404 20.547 12.187 32.575 10.359a2.818 2.818 0 0 0-.847-5.57c-10.143 1.543-20.325-1.557-27.8-8.827-1.878-1.826-4.265-3.028-6.904-3.473-12.859-2.171-25.285-1.343-36.935 2.463a6.426 6.426 0 0 1-4.05-.047c-4.268-1.458-9.017-.049-11.817 3.507Zm-32.912-13.014a2.817 2.817 0 0 0 3.853 4.11 28.01 28.01 0 0 0 6.69-9.596 1.427 1.427 0 0 1 1.867-.764c6.867 2.78 14.417 2.771 21.258-.025.687-.28 1.495.077 1.8.797a28.072 28.072 0 0 0 6.03 8.951 2.816 2.816 0 1 0 3.985-3.982 22.478 22.478 0 0 1-4.828-7.165c-1.5-3.546-5.591-5.258-9.119-3.816-5.473 2.237-11.515 2.244-17.013.018-3.562-1.442-7.676.26-9.169 3.793a22.398 22.398 0 0 1-5.354 7.679Zm43.628 46.56a2.817 2.817 0 0 0-4.445-3.461 28.168 28.168 0 0 0-3.719 6.338 1.426 1.426 0 0 1-1.866.764c-6.868-2.78-14.417-2.771-21.258.024-.688.282-1.496-.076-1.8-.795a28.232 28.232 0 0 0-9.219-11.699 2.816 2.816 0 1 0-3.349 4.53 22.605 22.605 0 0 1 7.38 9.364c1.495 3.533 5.578 5.262 9.119 3.816 5.473-2.237 11.515-2.244 17.012-.019 3.563 1.443 7.676-.259 9.17-3.792a22.558 22.558 0 0 1 2.975-5.07Z" fill="#A5A4B1"/></svg>