<svg width="152" height="152" fill="none" xmlns="http://www.w3.org/2000/svg"><path d="m70.531 71.227-.003.008a6.532 6.532 0 0 1-3.688 3.693 14.361 14.361 0 0 1-5.764 1.074 21.746 21.746 0 0 1-8.1-1.61v-.001c-9.045-3.71-13.87-8.504-14.355-14.73-.313-3.86 1.095-9.51 4.978-12.792l.006-.005a11.157 11.157 0 0 1 10.33-2.042c5.235 1.33 10.397 6.055 13.868 12.553l2.728 13.852Zm0 0 .003-.008m-.003.008.003-.008m0 0c.594-1.673.597-3.84.121-6.21m-.121 6.21.121-6.21m0 0c-.478-2.38-1.448-5.008-2.852-7.634l2.852 7.634Zm-28.668-5.613v-.001c-.125-1.557.117-3.456.752-5.27.635-1.813 1.65-3.504 3.039-4.679l.002-.001a7.1 7.1 0 0 1 4.721-1.697h.005c.872.005 1.74.12 2.584.34h.004c4.231 1.07 8.644 5.094 11.735 10.875 1.177 2.2 2.013 4.434 2.45 6.404.439 1.979.46 3.627.081 4.709a3.192 3.192 0 0 1-1.842 1.745l-.017.006-.016.007c-1.35.604-3.181.866-5.182.769a18.596 18.596 0 0 1-6.043-1.339c-8.044-3.293-11.911-7.206-12.273-11.868Zm27.528 30.26a1.688 1.688 0 0 0 1.687 1.688h9.595a1.687 1.687 0 1 0 0-3.375h-9.595a1.69 1.69 0 0 0-1.193.494l.354.354-.354-.354a1.688 1.688 0 0 0-.494 1.193Z" fill="#A5A4B1" stroke="#A5A4B1"/><path d="M107.425 104.927c-.532-.743-1.506-1.996-2.748-3.115-1.148-1.036-2.635-2.058-4.293-2.34 6.432-6.992 11.239-15.66 14.425-22.561h.001c3.526-7.644 5.976-17.49 6.23-27.55.253-10.059-1.687-20.406-7.022-28.989-7.507-12.05-20.703-18.568-38.022-18.997h-.049c-17.262.43-30.459 6.947-37.959 18.997-5.338 8.583-7.28 18.93-7.025 28.99.255 10.061 2.707 19.91 6.24 27.556 3.186 6.89 7.997 15.565 14.423 22.558-1.66.282-3.148 1.305-4.296 2.342-1.242 1.12-2.215 2.373-2.745 3.114-.975 1.357-1.977 3.093-2.659 4.877-.672 1.758-1.084 3.698-.71 5.397l.004.02.005.02a8.004 8.004 0 0 0 1.337 2.767 74.744 74.744 0 0 0-11.11 12.722 7.823 7.823 0 0 0-1.381 6.219l.005.026.007.025c.395 1.526 1.332 2.741 2.426 3.72 1.091.976 2.39 1.763 3.59 2.424 4.781 2.64 19.127 7.476 39.901 7.476 20.776 0 35.122-4.836 39.909-7.48 1.2-.663 2.497-1.451 3.587-2.426 1.094-.979 2.031-2.192 2.428-3.717l.007-.026.005-.026a7.816 7.816 0 0 0-1.379-6.22 74.736 74.736 0 0 0-11.109-12.721 8.01 8.01 0 0 0 1.337-2.765l.005-.021.005-.021c.37-1.7-.044-3.64-.716-5.398-.682-1.784-1.682-3.52-2.654-4.877Zm0 0v.001l-.814.581.813-.582h.001ZM73.243 123.98l-.087.009h-.003c-.339.033-.678.06-1.019.08.054-.139.108-.279.165-.421l-12.064-17.892c6.759 4.6 12.985 12.615 14.312 18.057-.331.051-.664.096-.997.134m-.307.033-.015.037v.002c-.12.302-.227.584-.337.875l-.048.127c.301-.025.602-.055.903-.09a8.95 8.95 0 0 0-.196-.984m-.307.033c.077-.206.122-.421.135-.637m-.135.637.307-.033m0 0a11.75 11.75 0 0 0-.172-.604m1.359 1.453-.047-.299c.017.1.033.2.047.299Zm0 0-.924.127c.308-.037.616-.08.924-.127Zm-1.359-1.453a2.189 2.189 0 0 0-.638-1.68m.638 1.68a14.671 14.671 0 0 0-.325-.928c-.096-.246-.2-.497-.313-.752m0 0c-.813-1.845-2.061-3.903-3.639-5.982-2.579-3.398-5.941-6.724-9.429-9.098-2.812-1.918-5.2-2.83-6.83-2.83h-.002c-.14 0-.28.008-.42.023l-.002.001c-.381.042-1.021.333-1.84 1.008-.727.6-1.509 1.43-2.255 2.431l-.188.261c-.946 1.319-1.695 2.731-2.163 3.989-.471 1.267-.601 2.231-.504 2.769a4.741 4.741 0 0 0 1.626 2.274l.036.028.034.031c1.904 1.745 5.163 3.586 9.118 5.022 3.73 1.353 8.006 2.32 12.221 2.517.212-.569.431-1.143.667-1.725l.003-.005a2.186 2.186 0 0 1 3.567-.714Zm-7.424 24.352v-.225m0 .225v-.225m0 .225c.28 0 .554-.054.81-.157a96.377 96.377 0 0 1-.81-.068m0 0-.002-.775m.001.775-.31-.027.121-.763.188.015m.001.775-.001-.775m34.203-44.622a7.95 7.95 0 0 0-1.486.086c.358-.358.712-.721 1.061-1.09l.425 1.004Zm5.38 16.115-.036.027-.034.031c-1.902 1.743-5.159 3.582-9.113 5.017-3.729 1.353-8.006 2.319-12.224 2.518a70.285 70.285 0 0 0-.663-1.72 2.18 2.18 0 0 0-1.172-1.202 2.182 2.182 0 0 0-1.68-.017l.374.927-.375-.927a2.18 2.18 0 0 0-.716.471l-.023.023c.792-1.819 2.007-3.839 3.55-5.884 2.533-3.356 5.859-6.659 9.372-9.087 1.553-1.07 3.001-1.851 4.28-2.338 1.289-.489 2.346-.656 3.143-.57.381.043 1.021.334 1.839 1.008.789.651 1.643 1.574 2.446 2.692.946 1.319 1.696 2.73 2.163 3.988.471 1.268.598 2.23.499 2.765a4.758 4.758 0 0 1-1.63 2.278Zm-26.286 6.813c.013.223.061.444.142.654l-.315-.035c.05-.202.108-.408.173-.619Zm11.082-20.268c-8.872 5.947-18.603 5.933-27.54-.116-9.686-6.564-16.738-18.704-20.971-27.854-3.293-7.118-5.604-16.323-5.862-25.715-.258-9.394 1.539-18.9 6.38-26.681C48.41 11.907 59.876 6.158 75.971 5.75c16.152.408 27.618 6.158 34.329 16.937 4.842 7.782 6.64 17.288 6.384 26.681-.256 9.392-2.563 18.597-5.849 25.715-4.254 9.208-11.353 21.411-21.142 27.97Zm-22.717 25.339a106.86 106.86 0 0 0-3.82 15.075l-.002.009-.001.009a2.189 2.189 0 0 0 1.002 2.198c-14.09-1.376-23.263-4.884-25.953-6.369l-.001-.001c-.892-.491-1.81-1.043-2.55-1.656-.735-.609-1.18-1.187-1.33-1.711a3.648 3.648 0 0 1 .734-2.759l.017-.021.016-.023a70.841 70.841 0 0 1 10.653-12.11c4.64 3.439 12.756 6.693 21.235 7.359Z" fill="#A5A4B1" stroke="#A5A4B1" stroke-width="2"/><path d="M99.023 74.391c9.047-3.705 13.87-8.504 14.356-14.739.309-3.858-1.089-9.503-4.974-12.783l-.006-.005a11.16 11.16 0 0 0-10.327-2.042c-5.236 1.33-10.398 6.058-13.872 12.553-1.403 2.626-2.372 5.255-2.85 7.634-.476 2.37-.472 4.537.12 6.21l.002.008.004.007a6.53 6.53 0 0 0 3.684 3.694 14.36 14.36 0 0 0 5.764 1.074 21.757 21.757 0 0 0 8.1-1.61Zm-.117-26.299h.003c.845-.22 1.714-.335 2.588-.341h.004a7.107 7.107 0 0 1 4.724 1.697l.002.002c1.387 1.174 2.4 2.863 3.035 4.675.634 1.81.876 3.708.752 5.265v.001c-.364 4.669-4.231 8.584-12.27 11.881A18.603 18.603 0 0 1 91.7 72.61c-2 .097-3.83-.164-5.18-.767l-.017-.008-.017-.006a3.193 3.193 0 0 1-1.847-1.745c-.379-1.085-.358-2.734.08-4.713.438-1.97 1.274-4.204 2.451-6.405 3.091-5.78 7.504-9.804 11.735-10.874ZM73.15 82.093a1.687 1.687 0 0 0 1.386-.725 3.973 3.973 0 0 1 2.89 0 1.688 1.688 0 0 0 3.076-.963h-.5.5c0-.707-.346-1.237-.809-1.612-.449-.363-1.021-.594-1.552-.745a9.511 9.511 0 0 0-2.165-.327c-.045 0-1.1.025-2.16.327-.528.151-1.1.382-1.547.746-.462.374-.807.905-.807 1.612a1.687 1.687 0 0 0 1.688 1.687Z" fill="#A5A4B1" stroke="#A5A4B1"/></svg>