<svg width="17" height="17" viewBox="0 0 17 17" fill="none" xmlns="http://www.w3.org/2000/svg">
<path fill-rule="evenodd" clip-rule="evenodd" d="M12.683 11.2562C14.7195 8.64083 14.5355 4.85694 12.1312 2.45262C9.5277 -0.150874 5.3066 -0.150874 2.70311 2.45262C0.0996143 5.05612 0.0996143 9.27722 2.70311 11.8807C5.10743 14.285 8.89131 14.469 11.5067 12.4325C11.518 12.4453 11.5297 12.4578 11.5419 12.47L15.0775 16.0055C15.4029 16.3309 15.9306 16.3309 16.256 16.0055C16.5814 15.6801 16.5814 15.1524 16.256 14.827L12.7205 11.2915C12.7083 11.2793 12.6958 11.2675 12.683 11.2562ZM10.9527 3.63113C12.9053 5.58375 12.9053 8.74958 10.9527 10.7022C9.00007 12.6548 5.83424 12.6548 3.88162 10.7022C1.929 8.74958 1.929 5.58375 3.88162 3.63113C5.83424 1.67851 9.00007 1.67851 10.9527 3.63113Z" fill="#4E4B66"/>
</svg>
