<svg width="161" height="160" fill="none" xmlns="http://www.w3.org/2000/svg"><rect x=".5" width="160" height="160" rx="8" fill="#F7F7FC"/><circle cx="80.123" cy="80.377" r="40.377" fill="#121314"/><path d="M108.675 51.841C101.045 44.203 90.909 40 80.126 40c-22.267 0-40.38 18.13-40.38 40.414 0 22.284 18.113 40.413 40.38 40.413 10.783 0 20.927-4.203 28.549-11.841 7.63-7.638 11.825-17.782 11.825-28.572s-4.195-20.943-11.825-28.573Zm-28.549 66.19c-20.724 0-37.584-16.877-37.584-37.617s16.86-37.617 37.584-37.617c20.725 0 37.585 16.876 37.585 37.617 0 20.74-16.86 37.617-37.585 37.617Z" fill="#FCFCFC"/><path d="M93.382 81.367c-2.587-2.311-5.973-3.855-9.255-5.35l-.024-.008c-5.787-2.644-10.79-4.93-10.435-10.338.154-2.061 1.649-3.306 2.878-3.977 1.382-.76 3.217-1.212 4.914-1.212.202 0 .404.008.598.016 4.939.331 8.834 2.425 12.641 6.773l.227.267.266-.227 1.488-1.293.266-.234-.234-.267c-4.243-4.866-8.85-7.315-14.484-7.695a7.903 7.903 0 0 0-.784-.032c-.17 0-.356 0-.55.008h-.242c-3.694 0-7.744 1.212-10.823 3.25-3.678 2.432-5.739 5.778-5.795 9.424-.146 8.867 7.104 11.85 13.498 14.492l.016.008.064.025c5.659 2.344 10.54 4.364 10.435 9.78-.048 3.572-5.156 5.544-8.664 5.544h-.493v.009c-5.23-.154-9.902-2.41-13.886-6.685l-.243-.259-.259.235-1.446 1.342-.26.242.243.259c4.527 4.874 10.112 7.492 16.158 7.565h.275c3.904 0 8.147-1.051 11.348-2.821 4.009-2.19 6.345-5.383 6.587-8.988.275-3.96-1.042-7.185-4.025-9.853Zm-18.768-7.71c2.303 1.972 5.423 3.386 8.438 4.752l.057.024c3.193 1.471 6.216 2.862 8.406 4.793 2.425 2.134 3.451 4.608 3.233 7.784-.202 3.144-2.538 5.246-4.664 6.515.412-.84.639-1.754.663-2.724.049-3.266-1.204-5.876-3.84-7.994-2.303-1.85-5.358-3.104-8.316-4.324-6.151-2.53-11.963-4.923-11.858-11.987.032-2.716 1.665-5.286 4.6-7.234.096-.065.193-.13.298-.194a6.593 6.593 0 0 0-.59 2.385c-.234 3.273.938 5.956 3.573 8.203Z" fill="#FCFCFC"/></svg>