<svg width="81" height="81" viewBox="0 0 81 81" fill="none" xmlns="http://www.w3.org/2000/svg">
<circle cx="40.3774" cy="40.3774" r="40.3774" fill="#121314"/>
<path d="M68.9297 11.8412C61.2995 4.20303 51.1638 0 40.3814 0C18.1134 0 0 18.1296 0 40.4137C0 62.6979 18.1134 80.8275 40.3814 80.8275C51.1638 80.8275 61.3076 76.6244 68.9297 68.9862C76.5598 61.348 80.7547 51.2042 80.7547 40.4137C80.7547 29.6233 76.5598 19.4713 68.9297 11.8412ZM40.3814 78.0308C19.6572 78.0308 2.79663 61.1541 2.79663 40.4137C2.79663 19.6734 19.6572 2.79663 40.3814 2.79663C61.1056 2.79663 77.9662 19.6734 77.9662 40.4137C77.9662 61.1541 61.1056 78.0308 40.3814 78.0308Z" fill="#FCFCFC"/>
<path d="M53.6369 41.3674C51.0504 39.0557 47.6637 37.5119 44.3821 36.0166L44.3579 36.0085C38.5706 33.3655 33.5674 31.0781 33.9231 25.6707C34.0766 23.6096 35.5719 22.3649 36.8005 21.694C38.1827 20.9342 40.0174 20.4816 41.7148 20.4816C41.9169 20.4816 42.119 20.4897 42.3129 20.4978C47.2515 20.8292 51.1474 22.9226 54.9544 27.2711L55.1807 27.5378L55.4474 27.3115L56.9346 26.0183L57.2014 25.7839L56.967 25.5171C52.7235 20.6513 48.1164 18.2023 42.4827 17.8224C42.2402 17.7981 41.9816 17.79 41.6987 17.79C41.5289 17.79 41.343 17.79 41.149 17.7981H40.9065C37.2127 17.7981 33.1633 19.0105 30.0837 21.0474C26.4061 23.4803 24.345 26.8265 24.2884 30.4719C24.1429 39.3386 31.3932 42.3212 37.7866 44.9642L37.8028 44.9723L37.8674 44.9966C43.5254 47.3406 48.4073 49.3612 48.3023 54.7767C48.2538 58.3493 43.1455 60.3214 39.6376 60.3214H39.4921H39.1445V60.3295C33.915 60.176 29.2431 57.9209 25.2583 53.6451L25.0159 53.3864L24.7572 53.6208L23.3104 54.9626L23.0518 55.2051L23.2942 55.4637C27.8206 60.3376 33.4058 62.9564 39.4517 63.0292H39.7265C43.6304 63.0292 47.8739 61.9784 51.0746 60.2083C55.0837 58.0179 57.4196 54.8252 57.6621 51.2203C57.9369 47.2597 56.6194 44.0347 53.6369 41.3674ZM34.8687 33.6565C37.1723 35.6287 40.2923 37.0431 43.3071 38.4091L43.3637 38.4334C46.5564 39.9044 49.5793 41.2947 51.7698 43.2264C54.1946 45.3603 55.2211 47.8336 55.0029 51.0101C54.8008 54.1543 52.4649 56.2558 50.3391 57.5248C50.7513 56.6842 50.9776 55.7709 51.0019 54.8009C51.0504 51.5355 49.7976 48.9248 47.1626 46.8071C44.859 44.9561 41.8037 43.7033 38.8454 42.4828C32.6945 39.9529 26.883 37.5604 26.9881 30.4961C27.0204 27.7803 28.6531 25.21 31.5871 23.2621C31.6841 23.1974 31.7811 23.1327 31.8862 23.0681C31.5386 23.8278 31.3447 24.62 31.2962 25.4525C31.0618 28.726 32.2338 31.4095 34.8687 33.6565Z" fill="#FCFCFC"/>
</svg>
