<svg width="129" height="129" fill="none" xmlns="http://www.w3.org/2000/svg"><g clip-path="url(#a)" fill="#A5A4B1"><path d="M110.346 115.521c-.02-.176-2.081-17.659-2.785-23.455-.349-2.863-2.434-6.227-4.852-7.825l-18.272-12.08V37.248c0-7.297-1.766-14.555-5.107-20.99A46.059 46.059 0 0 0 65.716.397a2.058 2.058 0 0 0-2.431 0 46.062 46.062 0 0 0-13.614 15.86c-3.342 6.434-5.108 13.693-5.108 20.99v34.915l-18.272 12.08c-2.417 1.597-4.503 4.961-4.851 7.824a10649.49 10649.49 0 0 0-2.786 23.455 2.056 2.056 0 0 0 2.045 2.299h28.127v9.122c0 1.137.921 2.058 2.058 2.058h9.5a2.058 2.058 0 0 0 2.058-2.058v-2.946a2.059 2.059 0 1 0-4.117 0v.887h-5.383v-7.063h23.116v7.063h-5.382v-.887a2.059 2.059 0 1 0-4.117 0v2.946c0 1.137.921 2.058 2.058 2.058h9.5a2.058 2.058 0 0 0 2.058-2.058v-9.122h28.127c.588 0 1.148-.251 1.538-.691a2.054 2.054 0 0 0 .506-1.608Zm-61.666-5.935h31.64v4.117H48.68v-4.117Zm35.757 4.117V95.336a2.058 2.058 0 1 0-4.117 0v10.133H48.68V95.336a2.058 2.058 0 1 0-4.117 0v18.367H23.014c.586-4.969 1.963-16.618 2.513-21.14.2-1.64 1.646-3.969 3.034-4.887l16.002-10.578v10.004a2.058 2.058 0 1 0 4.117 0V37.247c0-12.68 5.886-24.754 15.82-32.603 9.934 7.849 15.82 19.923 15.82 32.603v49.855a2.058 2.058 0 1 0 4.117 0V77.098l16.002 10.578c1.389.918 2.835 3.247 3.035 4.887.55 4.522 1.927 16.172 2.513 21.14h-21.55Z"/><path d="M72.799 25.582H56.202c-.92 0-1.729.61-1.98 1.495a37.174 37.174 0 0 0-1.425 10.17c0 1.137.922 2.058 2.059 2.058h19.289a2.058 2.058 0 0 0 2.058-2.058 37.18 37.18 0 0 0-1.424-10.17 2.058 2.058 0 0 0-1.98-1.495Zm-15.82 9.606c.117-1.844.389-3.68.814-5.489h13.414c.425 1.81.698 3.645.814 5.49H56.98Z"/></g><defs><clipPath id="a"><path fill="#fff" d="M0 0h129v129H0z"/></clipPath></defs></svg>