<svg width="30" height="30" fill="none" xmlns="http://www.w3.org/2000/svg"><circle cx="15" cy="15" r="15" fill="#fff"/><path d="M21.667 10.867a5.661 5.661 0 0 1-1.574.426A2.747 2.747 0 0 0 21.3 9.78a5.473 5.473 0 0 1-1.74.667 2.734 2.734 0 0 0-4.666 2.493 7.759 7.759 0 0 1-5.634-2.86 2.774 2.774 0 0 0-.045 2.67c.211.396.518.734.892.983a2.701 2.701 0 0 1-1.24-.34v.034a2.733 2.733 0 0 0 2.2 2.666 2.608 2.608 0 0 1-.733.114 3.26 3.26 0 0 1-.514-.047 2.74 2.74 0 0 0 2.553 1.893 5.48 5.48 0 0 1-4.04 1.134 7.713 7.713 0 0 0 4.194 1.233 7.725 7.725 0 0 0 7.807-7.787v-.353c.523-.39.974-.868 1.333-1.413Z" fill="#4E4B66"/></svg>