<svg width="135" height="135" fill="none" xmlns="http://www.w3.org/2000/svg"><g clip-path="url(#a)" fill="#A5A4B1"><path d="M122.922 31.673c-6.739-3.414-16.012-6.126-26.886-7.871C93.577 10.283 81.717 0 67.5 0 53.282 0 41.423 10.283 38.964 23.802c-10.872 1.745-20.144 4.456-26.881 7.869C2.095 36.728 0 42.193 0 45.887c0 7.1 7.193 13.25 20.802 17.784 4.074 1.358 8.583 2.515 13.416 3.461a39.661 39.661 0 0 0 13.484 12.97A39.39 39.39 0 0 0 67.5 85.429a39.39 39.39 0 0 0 19.8-5.327 39.669 39.669 0 0 0 13.484-12.97c4.833-.946 9.341-2.103 13.416-3.461 13.608-4.534 20.802-10.684 20.802-17.784-.002-3.693-2.097-9.157-12.079-14.214Zm-79.153-2.67c0-13.084 10.646-23.73 23.731-23.73s23.73 10.646 23.73 23.73v9.293a2.25 2.25 0 0 1-1.663 2.17 85.194 85.194 0 0 1-44.134 0 2.25 2.25 0 0 1-1.663-2.17v-9.292ZM67.5 80.157c-9.922 0-19.339-4.396-25.767-11.762 8.053 1.142 16.776 1.742 25.767 1.742 8.99 0 17.715-.6 25.767-1.742C86.84 75.76 77.422 80.156 67.5 80.156Zm45.031-21.488c-4.124 1.374-8.722 2.536-13.673 3.469-.13.014-.26.037-.386.07-9.35 1.733-19.938 2.656-30.972 2.656-11.034 0-21.624-.923-30.974-2.656a2.641 2.641 0 0 0-.382-.07c-4.952-.933-9.55-2.094-13.675-3.469-10.767-3.587-17.195-8.365-17.195-12.781 0-5.416 10.421-12.802 33.222-16.663v9.072a7.53 7.53 0 0 0 5.57 7.262A90.38 90.38 0 0 0 67.5 48.646c7.884 0 15.769-1.03 23.434-3.088a7.53 7.53 0 0 0 5.57-7.262v-9.072c22.801 3.861 33.222 11.247 33.222 16.663 0 4.415-6.428 9.193-17.195 12.78Z"/><path d="M69.364 55.353a2.656 2.656 0 0 0-1.864-.773c-.694 0-1.374.282-1.864.773-.49.49-.773 1.17-.773 1.864 0 .693.282 1.373.773 1.864.49.49 1.17.772 1.864.772.694 0 1.374-.282 1.864-.772.49-.49.773-1.17.773-1.864 0-.694-.282-1.374-.773-1.864ZM21.42 41.099a2.658 2.658 0 0 0-1.863-.773c-.696 0-1.374.282-1.864.773a2.653 2.653 0 0 0-.773 1.864c0 .693.282 1.374.773 1.864.49.49 1.168.773 1.864.773.693 0 1.37-.282 1.864-.773.49-.49.773-1.17.773-1.864 0-.696-.283-1.374-.773-1.864Zm95.887-.003a2.649 2.649 0 0 0-1.864-.77c-.693 0-1.373.28-1.864.77a2.664 2.664 0 0 0-.772 1.867c0 .693.281 1.374.772 1.864s1.171.773 1.864.773c.696 0 1.374-.282 1.864-.773.491-.49.773-1.17.773-1.864a2.66 2.66 0 0 0-.773-1.867ZM97.753 52.55a2.66 2.66 0 0 0-1.864-.77 2.65 2.65 0 0 0-1.864.77 2.65 2.65 0 0 0-.772 1.863c0 .697.28 1.377.772 1.867.49.49 1.168.773 1.864.773.694 0 1.374-.282 1.864-.773.49-.493.773-1.17.773-1.867 0-.69-.282-1.37-.773-1.864Zm-56.779 0a2.652 2.652 0 0 0-1.863-.773c-.694 0-1.374.282-1.865.773a2.661 2.661 0 0 0-.772 1.864 2.646 2.646 0 0 0 2.637 2.64 2.642 2.642 0 0 0 2.636-2.64c0-.69-.28-1.371-.773-1.864Zm10.794-26.24a2.644 2.644 0 0 0-2.637 2.645v.049a2.63 2.63 0 0 0 2.636 2.628 2.644 2.644 0 0 0 2.637-2.646v-.048a2.63 2.63 0 0 0-2.636-2.628ZM67.5 10.635a18.427 18.427 0 0 0-14.914 7.644 2.636 2.636 0 1 0 4.279 3.081A13.141 13.141 0 0 1 67.5 15.908a2.637 2.637 0 0 0 0-5.273ZM42.054 78.946a2.636 2.636 0 0 0-3.392 1.55l-18.984 50.946a2.636 2.636 0 1 0 4.941 1.841l18.985-50.945a2.637 2.637 0 0 0-1.55-3.392Zm73.268 52.496L96.338 80.496a2.636 2.636 0 1 0-4.942 1.842l18.985 50.945a2.637 2.637 0 1 0 4.941-1.841ZM67.5 102.282a2.637 2.637 0 0 0-2.637 2.637v20.325a2.637 2.637 0 0 0 5.274 0v-20.325a2.637 2.637 0 0 0-2.637-2.637Zm1.864-10.016a2.655 2.655 0 0 0-1.864-.773c-.694 0-1.374.282-1.864.773-.49.49-.773 1.17-.773 1.864 0 .693.282 1.374.773 1.864.49.49 1.17.773 1.864.773.694 0 1.374-.282 1.864-.773.49-.49.773-1.17.773-1.864 0-.694-.282-1.374-.773-1.864Z"/></g><defs><clipPath id="a"><path fill="#fff" d="M0 0h135v135H0z"/></clipPath></defs></svg>