<svg width="30" height="30" fill="none" xmlns="http://www.w3.org/2000/svg"><circle cx="15" cy="15" r="15" fill="#FCFCFC"/><path d="M22.333 13.473a5.666 5.666 0 0 0-.606-2.753 1.947 1.947 0 0 0-1.147-.667A52.247 52.247 0 0 0 15 9.847a52.288 52.288 0 0 0-5.56.2 1.913 1.913 0 0 0-.973.493c-.6.553-.667 1.5-.734 2.3a32.192 32.192 0 0 0 0 4.32c.02.45.087.897.2 1.333.08.337.243.649.474.907.271.269.617.45.993.52 1.437.177 2.885.25 4.333.22 2.334.033 4.38 0 6.8-.187a1.915 1.915 0 0 0 1.02-.52c.187-.186.326-.415.407-.666a7.053 7.053 0 0 0 .346-2.267c.027-.373.027-2.627.027-3.027Zm-8.84 3.427v-4.127l3.947 2.074c-1.107.613-2.567 1.306-3.947 2.053Z" fill="#4E4B66"/></svg>