<svg width="144" height="246" viewBox="0 0 144 246" fill="none" xmlns="http://www.w3.org/2000/svg">
<path d="M28.7388 180.884C27.3811 180.506 26.0234 180.003 24.9125 179.06C23.7399 178.117 22.9377 176.859 22.1971 175.538C21.7651 177.299 22.6291 179.123 23.9251 180.255C25.2211 181.324 27.1959 181.764 28.7388 180.884Z" fill="#939597"/>
<path d="M27.8126 189.814C27.5658 188.933 27.3806 187.99 27.0721 187.173C26.7635 186.229 25.8995 185.537 24.8503 185.663C25.5909 186.481 26.2081 187.424 26.5166 188.493C27.2572 190.569 27.8743 192.707 28.5532 194.782C29.0469 196.291 29.5406 197.738 29.9726 199.247C29.8492 198.618 29.664 197.989 29.5406 197.361C29.0469 194.782 28.4298 192.329 27.8126 189.814Z" fill="#939597"/>
<path d="M28.4306 186.606C28.7391 187.801 29.1094 188.933 29.4797 190.065C30.4054 193.084 31.3928 196.165 32.3186 199.184C32.5654 199.939 32.8123 200.63 32.9974 201.385C32.5037 199.498 32.0717 197.612 31.578 195.662C30.8991 192.895 30.2203 190.191 29.5414 187.424C29.4797 187.109 29.3563 186.795 29.2946 186.418C29.1094 185.537 29.1711 184.594 29.2946 183.713C28.8009 183.965 28.4306 184.468 28.2454 184.971C28.1837 185.6 28.3071 186.103 28.4306 186.606Z" fill="#939597"/>
<path d="M39.971 233.521C38.5515 232.389 37.2555 231.006 36.3298 229.434C34.9721 227.233 34.0464 224.78 33.1207 222.327C32.2567 220 31.3927 217.673 30.6521 215.284C31.5778 219.937 32.5035 224.717 34.1698 229.182C35.0955 231.572 36.7001 233.584 38.4898 235.345C39.6007 236.414 41.5138 238.49 43.1801 237.358C43.859 236.917 44.2292 236.163 44.4761 235.408C44.7847 234.653 44.9698 233.836 45.0932 233.018C44.4144 233.584 43.6738 234.213 42.8098 234.402C41.7607 234.716 40.835 234.213 39.971 233.521Z" fill="#939597"/>
<path d="M50.4007 183.084C49.1047 185.286 48.4875 187.864 48.3024 190.442C48.1172 193.084 48.4258 195.914 49.4132 198.366C49.2898 196.92 49.2281 195.536 49.2898 194.09C49.3515 189.122 50.3389 184.216 52.9927 180.003C51.9435 180.82 51.0795 181.89 50.4007 183.084Z" fill="#939597"/>
<path d="M59.8425 186.543C60.2745 187.99 60.7065 189.373 60.83 190.883C60.9534 192.392 60.7682 193.839 60.398 195.285C62.99 193.147 62.4345 188.43 59.8425 186.543Z" fill="#939597"/>
<path d="M77.1844 179.186C78.5422 177.865 79.1593 175.915 78.9125 174.029C77.8633 175.475 76.9376 177.047 75.4564 178.117C73.9753 179.186 72.2473 179.563 70.5193 179.94C71.3833 180.506 72.4324 180.758 73.4816 180.695C74.8393 180.695 76.197 180.129 77.1844 179.186Z" fill="#939597"/>
<path d="M42.686 239.874C42.8095 240.188 42.9946 240.502 43.1798 240.817C43.3649 241.131 43.7352 241.76 44.1672 241.76C44.846 241.76 45.0929 240.377 45.2163 239.874C44.414 240.188 43.3649 240.377 42.686 239.874Z" fill="#939597"/>
<path d="M127.42 198.366C127.975 196.983 128.284 195.473 128.469 193.964C129.024 189.059 127.79 183.21 123.902 179.94C124.642 181.072 125.26 182.267 125.753 183.525C127.543 188.241 127.79 193.398 127.42 198.366Z" fill="#939597"/>
<path d="M116.496 195.285C116.126 193.839 115.941 192.392 116.064 190.883C116.188 189.373 116.62 187.927 117.052 186.543C114.398 188.43 113.843 193.147 116.496 195.285Z" fill="#939597"/>
<path d="M101.5 180.758C103.104 181.324 105.017 181.072 106.313 180.003C104.709 179.877 103.043 179.626 101.623 178.745C99.8334 177.676 98.9076 175.853 97.9819 174.029C97.6734 175.098 97.7351 176.167 98.0436 177.236C98.5373 178.871 99.8951 180.192 101.5 180.758Z" fill="#939597"/>
<path d="M92.0577 170.633C91.5023 172.519 90.8852 174.595 89.7126 176.23C89.404 176.67 88.972 177.299 88.3549 177.299C87.6143 177.236 87.0589 176.167 86.7503 175.601C85.7629 173.84 85.1457 171.765 84.5903 169.815C83.9732 167.74 83.5412 165.665 82.9857 163.526C82.8623 166.356 83.1092 169.186 83.6646 171.891C83.9114 173.085 84.22 174.217 84.652 175.349C85.084 176.356 85.5777 177.425 86.38 178.242C86.9355 178.808 87.676 179.186 88.4783 179.186C89.4657 179.123 90.3297 178.494 90.8852 177.676C92.3046 175.79 92.9217 173.337 93.292 171.01C93.724 168.557 93.9092 166.042 93.8475 163.526C93.292 165.916 92.7366 168.306 92.0577 170.633Z" fill="#939597"/>
<path d="M88.6634 192.77C90.0828 191.197 91.6257 189.688 92.9834 188.053C91.4405 188.367 89.9594 189.248 88.7868 190.317C88.3548 189.814 87.8611 189.311 87.3057 188.871C86.5034 188.305 85.4542 187.801 84.4668 187.99C85.6394 188.682 86.5034 189.751 87.3057 190.82C87.7377 191.512 88.2314 192.141 88.6634 192.77Z" fill="#939597"/>
<path d="M91.5641 215.221C91.0087 214.718 90.515 214.215 90.083 213.649C89.7127 213.146 89.4041 212.643 89.219 212.014C89.219 211.888 89.1573 211.385 89.0956 211.322C89.219 210.441 89.219 209.498 89.219 208.555C89.2807 206.165 89.0956 203.775 88.6636 201.448C88.4167 202.895 88.2316 204.341 88.1081 205.788C87.923 207.611 87.7996 209.435 87.5527 211.259C87.3676 212.391 86.9973 213.271 86.3184 214.215C85.7013 215.095 84.9607 215.913 84.4053 216.856C85.5161 216.416 86.5653 215.787 87.4293 214.969C87.7996 214.592 88.1081 214.215 88.355 213.775C88.7253 214.278 89.1573 214.655 89.5893 215.032C90.6384 215.85 91.8727 216.227 93.0453 216.856C92.675 216.164 92.1196 215.724 91.5641 215.221Z" fill="#939597"/>
<path d="M75.5803 219.812C76.5677 220.629 78.234 221.007 79.4683 220.692C78.3575 220.063 76.8763 219.749 75.5803 219.812Z" fill="#939597"/>
<path d="M74.0371 227.799C74.5925 228.365 75.3948 228.679 76.1354 228.931C76.8759 229.182 77.7399 229.371 78.5422 229.245C77.8634 228.868 77.1228 228.554 76.3205 228.302C75.58 228.05 74.7777 227.862 74.0371 227.799Z" fill="#939597"/>
<path d="M72.8643 234.339C73.6048 234.968 74.5305 235.408 75.3946 235.722C76.3203 236.037 77.3694 236.288 78.3568 236.288C77.4928 235.848 76.5671 235.471 75.6414 235.156C74.7157 234.779 73.79 234.528 72.8643 234.339Z" fill="#939597"/>
<path d="M101.068 219.812C99.7717 219.749 98.2905 220.063 97.1797 220.692C98.414 221.007 100.142 220.629 101.068 219.812Z" fill="#939597"/>
<path d="M100.574 228.868C101.315 228.616 102.055 228.302 102.672 227.736C101.87 227.799 101.13 228.05 100.389 228.302C99.6484 228.553 98.8461 228.805 98.1672 229.245C98.9695 229.308 99.8335 229.182 100.574 228.868Z" fill="#939597"/>
<path d="M98.3523 236.288C99.3397 236.288 100.389 236.037 101.315 235.722C102.24 235.408 103.104 234.968 103.845 234.339C102.919 234.528 101.993 234.842 101.068 235.156C100.142 235.408 99.2163 235.785 98.3523 236.288Z" fill="#939597"/>
<path d="M89.4038 231.698C89.342 231.509 89.3421 231.257 89.3421 231.006C89.3421 230.691 89.4038 230.377 89.4038 230C89.6506 227.421 89.4655 224.717 88.2929 222.39C88.6015 223.837 88.6632 225.346 88.6015 226.855C88.6015 227.044 88.6015 227.233 88.6015 227.421C88.478 227.861 88.3546 228.302 88.1078 228.742C87.7992 229.308 87.3055 229.748 86.8118 230.125C87.4906 229.937 88.0461 229.622 88.478 229.119C88.4163 231.006 88.3546 232.893 88.478 234.779C88.6015 236.1 88.7866 237.358 89.1569 238.615C89.0952 238.112 89.0335 237.609 89.0335 237.043C88.9718 235.597 89.0335 234.213 89.1569 232.767C89.2186 232.83 89.2186 232.893 89.2803 232.893C89.7741 233.459 90.3912 233.773 91.07 234.025C90.3295 233.396 89.5889 232.704 89.4038 231.698Z" fill="#939597"/>
<path d="M137.973 70.199C139.084 67.9979 143.404 59.0677 143.404 48.2508C143.404 41.1444 141.491 34.3524 137.788 28.0635C134.455 22.4664 129.765 17.4353 123.902 13.0959C113.473 5.3606 99.9571 0.455268 88.5399 0.266602H88.4165C77.0611 0.455268 63.4839 5.3606 53.0542 13.0959C47.1297 17.4353 42.5011 22.5293 39.1685 28.0635C35.4039 34.3524 33.5525 41.1444 33.5525 48.2508C33.5525 59.0048 37.8725 67.9979 38.9834 70.199C37.4405 75.7333 39.1068 79.4437 40.0942 81.3933C38.4897 85.481 38.0577 92.0215 40.6497 97.9959C43.2416 103.845 46.0188 108.561 52.5605 114.913C52.5605 114.976 52.6222 114.976 52.6839 115.039C52.7457 115.165 52.8074 115.29 52.8691 115.479C54.6588 119.944 59.9662 133.465 72.2474 142.961C72.9262 144.471 73.6051 145.791 74.2839 146.986C74.5308 148.244 76.3822 156.923 76.8759 164.344V164.407C75.0245 166.356 72.3091 170.067 71.4451 171.199C69.9639 171.639 66.0759 172.959 64.2245 173.903C60.4599 172.582 51.3879 172.771 46.8828 181.135C42.8714 188.556 44.7228 196.354 45.2782 198.367L42.3777 205.536C40.5262 201.071 36.9468 192.266 36.0211 188.367C34.7251 183.085 34.9102 179.311 35.1571 178.053C36.0211 175.349 38.0577 164.344 37.3171 161.388C36.6382 158.558 32.6885 155.602 30.5902 154.344C30.5902 149.942 31.0222 142.961 31.0839 141.704V141.641C32.0096 136.358 32.1948 129.818 31.7628 127.051C32.7502 124.158 33.3674 120.825 33.3674 118.246C33.3674 115.165 32.1948 111.265 28.9239 110.574C27.1959 110.196 25.5296 110.574 24.2954 111.58C22.6908 112.901 21.8885 115.227 21.8885 118.435C21.8885 122.271 22.5056 125.29 22.7525 126.485C21.5182 129.315 21.2097 136.547 21.8885 140.572C21.3331 142.27 21.2097 144.093 21.0862 145.729C21.0862 145.854 21.0862 146.043 21.0245 146.169C20.4074 144.156 19.6051 141.578 18.0005 139.314C17.7536 136.107 15.2851 130.509 13.8657 128.497C13.6805 126.107 12.3845 121.076 11.5822 119.189C10.6565 116.925 8.99022 115.165 7.07708 114.473C5.78108 113.97 4.48508 114.033 3.31251 114.661C0.103363 116.297 0.165078 121.642 1.89308 126.107C3.18908 129.377 4.54679 131.201 5.16393 131.893C5.41079 133.214 6.45993 137.867 8.74336 141.641C9.11365 144.156 10.9034 148.873 12.0142 151.137C11.7057 151.514 11.4588 151.892 11.2736 152.206C9.48393 152.206 7.01536 152.332 6.08965 152.835C4.91708 153.464 2.13993 156.168 2.26336 159.438C2.38679 162.08 5.28736 165.664 7.13879 167.488C8.80508 170.695 10.5331 172.897 12.2611 174.029C12.3228 174.217 12.3845 174.469 12.5079 174.783C13.3102 177.299 14.7914 181.89 19.4817 184.72C20.9011 187.298 22.4439 193.21 24.2337 203.146C26.2702 214.277 28.1217 223.459 29.6645 229.748C31.1457 235.974 37.5639 241.697 41.2051 244.087C42.8097 245.722 44.2908 245.722 45.2165 245.47C46.6977 245.03 47.8702 243.584 48.4257 241.571C49.5365 239.747 50.7091 236.855 52.2519 232.955C53.0542 231.006 53.9182 228.805 54.9674 226.289C57.7445 219.686 59.1022 212.517 59.9662 208.24C60.0279 207.863 60.0897 207.548 60.1514 207.234L61.3239 205.725C61.8794 208.114 62.7434 211.51 63.9777 213.837C63.5457 217.233 64.1628 220 64.7182 221.573C63.8542 223.899 64.4097 226.541 64.7182 227.736C63.8542 229.497 63.8542 232.452 64.2245 234.276C63.7925 236.477 63.9159 241.634 64.5331 243.143C64.7182 243.584 65.1502 243.898 65.6439 243.898L111.189 244.841C111.683 244.841 112.053 244.59 112.3 244.15C112.855 243.018 113.411 237.609 112.979 236.289C112.732 235.534 112.855 234.653 112.979 233.71C113.102 232.83 113.226 231.886 113.041 230.943C113.041 230 112.794 229.119 112.485 228.239C113.164 226.352 112.794 224.277 112.609 222.767C112.547 222.201 112.423 221.635 112.423 221.258C112.423 220.944 112.547 220.503 112.67 220.063C112.794 219.623 112.979 219.12 113.041 218.617C113.164 217.485 113.102 216.667 113.041 216.038C112.979 215.409 112.917 214.969 113.041 214.403C113.719 212.265 114.46 209.749 115.077 207.297C115.139 207.863 115.139 208.366 115.077 208.743C114.398 214.592 114.398 219.56 115.077 223.962C114.522 230.44 113.843 238.49 115.941 244.841C116.126 245.345 116.558 245.659 117.114 245.659H129.148C129.58 245.659 130.012 245.407 130.197 245.03C132.295 241.32 132.11 227.987 131.123 224.403C132.913 216.73 133.159 208.366 131.863 198.933C132.727 192.518 133.838 183.776 128.099 178.242C123.532 173.777 116.682 173.274 112.732 174.029C111.436 173.085 110.017 172.708 108.659 172.393C107.486 172.079 106.375 171.827 105.45 171.199C104.215 170.255 103.413 168.997 102.549 167.677C101.87 166.608 101.13 165.539 100.142 164.532C100.142 164.532 100.142 164.532 100.142 164.469C100.142 164.281 100.142 164.029 100.142 163.778C100.759 158.369 101.315 152.772 102.734 147.238C103.413 145.98 104.154 144.597 104.833 143.024C117.114 133.528 122.483 120.007 124.211 115.542C124.273 115.416 124.334 115.227 124.396 115.102C124.396 115.039 124.458 115.039 124.458 114.976C131.061 108.624 133.838 103.907 136.43 98.0588C139.022 92.0844 138.59 85.5439 136.986 81.4562C137.788 79.5066 139.516 75.7333 137.973 70.199ZM122.483 113.278C122.174 113.467 121.927 113.718 121.681 113.907C118.101 116.674 114.892 120.007 112.67 124.032C114.275 122.019 116.126 120.321 118.225 118.812C119.089 118.183 119.953 117.617 120.817 117.051C118.657 122.145 114.275 131.075 106.19 138.433C107.301 137.05 108.35 135.729 109.399 134.283C111.189 131.767 112.794 129.126 114.213 126.359C115.015 124.724 115.818 123.089 116.497 121.391C114.83 124.283 113.102 127.113 111.127 129.755C110.14 131.075 109.153 132.333 108.042 133.591C107.486 134.22 106.869 134.849 106.314 135.415C106.252 135.478 106.19 135.541 106.129 135.603C106.993 134.471 107.795 133.214 108.597 132.019C109.523 130.572 110.325 129.063 111.004 127.491C109.77 129.44 108.289 131.201 106.622 132.773C106.807 131.641 106.993 130.447 107.239 129.315C107.239 129.377 107.239 129.377 107.178 129.44C106.499 131.327 105.758 133.214 105.079 135.037C104.277 137.176 103.475 139.251 102.673 141.389C102.673 141.452 102.611 141.515 102.611 141.578C100.019 147.301 97.5502 150.76 95.9457 152.206C97.1182 150.319 98.1057 148.37 98.9697 146.295C100.142 143.59 101.191 140.823 101.994 138.056C100.821 141.075 99.3399 144.031 97.7354 146.861C96.3777 149.25 94.8348 151.703 92.7982 153.59C92.7365 153.59 92.6748 153.59 92.6131 153.59C93.1685 152.898 93.6622 152.08 94.0942 151.326C95.02 149.691 95.7605 147.93 96.3777 146.106C95.3902 147.93 94.2177 149.753 92.8599 151.326C92.3045 152.017 91.6257 152.709 90.9468 153.212C90.6999 153.401 90.3297 153.653 90.0211 153.715C89.4657 153.715 89.0337 153.653 88.7251 153.653C88.6634 153.653 88.6017 153.653 88.6017 153.653H88.4782C88.4165 153.653 88.3548 153.653 88.2931 153.653C87.9845 153.715 87.5525 153.715 87.0588 153.715C86.8737 153.653 86.6885 153.59 86.5034 153.527C86.1331 153.338 85.8245 153.087 85.5159 152.772C84.8371 152.143 84.2199 151.451 83.6645 150.76C82.4919 149.313 81.5045 147.678 80.5788 146.043C81.2577 148.055 82.1217 150.005 83.2325 151.829C83.5411 152.395 83.9114 152.961 84.3434 153.527C84.2817 153.527 84.2817 153.527 84.2199 153.527C83.9731 153.338 83.7262 153.087 83.5411 152.835C81.5662 150.823 80.0851 148.307 78.7274 145.854C77.3079 143.339 76.0737 140.697 74.9628 137.993C75.8885 141.138 77.0611 144.282 78.4188 147.238C79.1594 148.873 79.9617 150.508 80.9491 152.08C79.3445 150.634 76.8759 147.175 74.3457 141.515C74.2839 141.326 74.1605 141.075 74.0988 140.886C73.2348 138.622 72.3708 136.295 71.5068 134.031C70.8897 132.459 70.3342 130.824 69.7171 129.252C69.7171 129.315 69.7171 129.315 69.7171 129.377C69.9022 130.509 70.0874 131.579 70.2725 132.711C68.6679 131.075 67.1251 129.315 65.8908 127.428C66.5697 129 67.3719 130.509 68.2977 131.956C69.0382 133.214 69.9022 134.409 70.7662 135.541C70.7045 135.478 70.6428 135.415 70.5811 135.352C69.9639 134.723 69.4085 134.157 68.8531 133.528C67.7422 132.333 66.7548 131.013 65.7674 129.692C63.7925 127.051 62.0645 124.221 60.3982 121.328C61.0771 123.026 61.8794 124.661 62.6817 126.296C64.1011 129.063 65.7057 131.704 67.4954 134.22C68.4828 135.666 69.5937 137.05 70.7045 138.371C62.6199 131.013 58.2382 122.019 56.0782 116.925C59.1639 118.812 62.0028 121.076 64.2245 123.906C62.9902 121.642 61.4474 119.63 59.6577 117.806C58.0531 116.171 56.3868 114.599 54.5354 113.278L54.4737 113.215C47.9937 106.989 45.4017 102.65 42.8714 96.8639C40.4645 91.3926 41.0199 85.2295 42.5628 81.8335C42.6862 81.6448 42.7479 81.3933 42.8097 81.2046C42.9948 80.8902 43.1182 80.5757 43.3034 80.2613C46.4508 74.727 52.8074 71.9599 58.9788 72.3373C57.3742 72.0228 55.7079 71.9599 54.1034 72.0857C53.3628 72.0857 52.6222 72.2115 51.8816 72.2744C50.1536 72.5259 47.9319 73.0919 46.6977 71.4568C46.2657 70.8279 46.0805 70.1361 46.0805 69.3815C46.1422 69.0042 46.2039 68.6268 46.2657 68.2495C46.4508 66.6773 46.5125 65.105 46.3274 63.5328C46.2039 62.0864 45.8337 60.6399 45.4634 59.1935C44.6611 56.3006 43.7971 53.4077 43.3034 50.4519C42.8097 47.4962 42.6245 44.3517 43.3034 41.3959C43.9205 38.6917 45.2782 36.239 46.6359 33.8493C45.6485 35.3586 44.6611 36.805 43.7971 38.3773C42.9948 39.9495 42.4394 41.5846 42.1308 43.2826C41.5137 46.4899 41.6988 49.6973 42.1308 52.9046C42.3777 54.5397 42.6862 56.1119 42.9948 57.747C43.3034 59.3193 43.6737 60.9544 43.7971 62.5895C43.9205 64.2246 43.7971 65.7968 43.5502 67.4319C43.2416 69.0042 42.8097 70.5764 42.4394 72.1486C41.9457 74.161 41.6988 76.1735 41.5754 78.2488C40.8965 76.3622 40.5262 73.7837 41.5754 70.3248V70.2619C41.5754 70.199 41.5754 70.199 41.6371 70.1362C41.8222 69.5073 41.8839 68.8155 41.9457 68.1866C42.1925 65.6082 41.6988 62.9668 41.0817 60.4513C40.4028 57.8728 39.5388 55.4202 38.5514 52.9675C39.2919 55.9862 39.9091 59.0048 40.0942 62.0864C40.1559 63.4699 40.2177 64.8535 40.0325 66.1742C40.0325 66.237 40.0325 66.237 40.0325 66.2999C38.4279 62.5895 36.0828 55.7346 36.0828 48.125C36.0828 32.0255 46.1422 21.2086 54.5971 14.9826C64.6565 7.56171 77.6165 2.84505 88.5399 2.65638H88.6017C99.5251 2.84505 112.485 7.56171 122.545 14.9826C130.999 21.2086 141.059 32.0255 141.059 48.125C141.059 55.7975 138.652 62.5895 137.109 66.2999C136.862 64.539 136.986 62.7782 137.109 61.0173C137.356 58.2502 137.911 55.5459 138.59 52.9046C137.479 55.6088 136.492 58.4388 135.813 61.3317C135.258 63.8473 134.887 66.5515 135.319 69.1299C135.381 69.5073 135.443 70.0104 135.628 70.4506C136.677 73.8466 136.245 76.3622 135.628 78.2488C135.505 76.1735 135.258 74.161 134.764 72.1486C134.394 70.5764 133.962 69.067 133.653 67.4319C133.345 65.8597 133.283 64.2246 133.406 62.5895C133.53 60.9544 133.9 59.3822 134.209 57.747C134.517 56.1119 134.826 54.5397 135.073 52.9046C135.505 49.6973 135.69 46.427 135.073 43.2826C134.764 41.5846 134.209 39.8866 133.406 38.3773C132.604 36.805 131.555 35.3586 130.567 33.8493C131.863 36.239 133.283 38.6917 133.9 41.3959C134.579 44.3517 134.394 47.4962 133.9 50.4519C133.406 53.4077 132.481 56.3006 131.74 59.1935C131.37 60.6399 130.999 62.0864 130.876 63.5328C130.753 65.105 130.753 66.6773 130.938 68.2495C130.999 68.6268 131.061 69.0042 131.123 69.3815C131.123 70.1361 130.938 70.8279 130.506 71.4568C129.271 73.0919 127.05 72.5888 125.322 72.2744C124.581 72.1486 123.841 72.0857 123.038 72.0857C121.434 71.9599 119.767 72.0228 118.163 72.3373C121.681 72.1486 125.322 72.9661 128.407 74.7899C130.999 76.2993 133.036 78.5633 134.394 81.2675C134.455 81.3933 134.517 81.5819 134.579 81.7077V81.7706C136.122 85.1666 136.677 91.3926 134.27 96.8639C131.493 102.775 128.901 107.115 122.483 113.278ZM97.5502 163.526C97.5502 163.589 97.5502 163.589 97.5502 163.652C97.5502 163.966 97.5502 164.281 97.6119 164.658C97.6119 164.721 97.6119 164.721 97.6119 164.784C97.4268 166.922 97.3034 169.06 97.1799 171.199C97.6737 170.192 98.1674 169.186 98.6611 168.117C98.8462 167.803 98.9697 167.488 99.1548 167.174C99.6485 167.803 100.019 168.431 100.451 169.06C101.068 170.067 101.747 171.01 102.611 171.953C102.055 172.205 101.438 172.456 100.883 172.645C102.055 172.897 103.29 173.211 104.462 173.463C105.635 174.091 106.869 174.406 108.042 174.72C109.029 174.972 110.017 175.223 110.819 175.664C110.078 176.607 109.399 177.55 108.721 178.557C110.14 177.739 111.621 177.047 113.102 176.418C115.694 175.915 121.989 175.789 126.371 179.94C131.246 184.657 130.197 192.455 129.395 198.681C129.395 198.744 129.395 198.807 129.395 198.807C129.025 200.693 128.469 202.517 127.729 204.278C128.469 203.586 129.148 202.832 129.765 202.014C130.629 210.127 130.259 217.296 128.654 224.025V224.088C128.654 224.151 128.593 224.214 128.593 224.277C127.975 225.849 127.297 227.421 126.679 228.993C126.865 228.805 127.05 228.679 127.235 228.49C127.852 227.861 128.531 227.295 129.148 226.667C129.642 230.817 129.58 239.685 128.407 242.955H124.828C124.766 242.703 124.766 242.452 124.705 242.263C124.519 241.76 124.211 241.005 123.594 241.005C122.915 241.005 122.606 241.76 122.483 242.326C122.421 242.515 122.359 242.766 122.359 242.955H118.163C116.743 238.049 117.052 231.949 117.422 226.541C118.163 227.358 118.903 228.176 119.706 228.931C119.644 228.679 119.521 228.427 119.459 228.176C118.842 226.604 118.286 225.031 117.669 223.459C116.99 219.246 116.99 214.466 117.669 208.806C117.731 208.429 117.731 208.051 117.731 207.611C117.793 205.725 117.978 202.517 120.323 203.083C118.903 201.637 117.731 199.561 117.731 197.423C115.879 198.492 114.337 200.065 113.102 201.825C112.609 202.454 112.238 203.146 111.868 203.838C111.127 205.347 110.634 206.982 110.325 208.617C110.942 207.36 111.683 206.165 112.609 205.033C112.855 204.718 113.102 204.467 113.411 204.152C112.732 207.234 111.806 210.63 110.881 213.397C109.831 215.535 107.795 217.233 105.82 218.554C107.548 218.051 109.276 217.359 110.819 216.353C110.881 216.856 110.881 217.359 110.819 217.988C110.757 218.302 110.695 218.617 110.572 218.994C110.449 219.497 110.263 220 110.202 220.566C110.202 220.629 110.14 220.692 110.14 220.692C109.338 222.579 108.165 224.277 106.746 225.786C108.042 225.157 109.338 224.403 110.449 223.522C110.634 224.78 110.757 226.226 110.263 227.358C110.202 227.421 110.202 227.547 110.202 227.61C109.523 229.182 108.412 230.44 107.363 231.761C108.535 231.195 109.646 230.629 110.757 230C110.819 230.251 110.819 230.503 110.819 230.754C110.819 230.817 110.819 230.88 110.819 230.943C110.942 231.572 110.819 232.327 110.757 233.081C110.757 233.144 110.757 233.27 110.695 233.333C109.955 235.157 108.659 236.792 107.363 238.238C108.535 237.735 109.708 237.106 110.757 236.351C110.819 236.477 110.819 236.603 110.881 236.792C111.066 237.483 110.819 240.565 110.51 242.074L101.5 241.886C101.623 241.823 101.809 241.76 101.932 241.697C102.919 241.194 103.907 240.565 104.709 239.747C103.166 240.313 101.685 241.068 100.266 241.886L76.1354 241.383C74.9628 240.754 73.7902 240.188 72.5559 239.747C73.1731 240.376 73.9137 240.879 74.7159 241.383L66.8165 241.194C66.6314 240.062 66.5697 238.049 66.6314 236.414C67.7422 237.169 68.9148 237.798 70.0874 238.364C68.8531 236.98 67.6188 235.471 66.8782 233.773C66.5696 232.641 66.5697 231.006 66.8165 229.811C67.8657 230.629 68.9765 231.32 70.1491 231.886C69.0999 230.566 68.1742 229.056 67.4954 227.484C67.4954 227.421 67.4954 227.358 67.4337 227.295C67.4337 227.295 66.8165 225.472 66.9399 223.648C68.1125 224.528 69.3468 225.346 70.7045 225.975C69.4085 224.528 68.2359 222.893 67.4337 221.069C67.4337 221.007 67.4337 221.007 67.4337 220.944C67.0634 219.937 66.5696 218.177 66.5696 215.913C66.9399 216.227 67.3719 216.479 67.8039 216.73C69.0382 217.485 70.3342 218.177 71.6919 218.617C70.5811 217.862 69.6554 216.919 68.7297 215.913C67.9274 215.032 67.1868 214.026 66.6931 212.957C66.6931 212.894 66.6314 212.831 66.5696 212.768C65.3971 210.693 64.4714 207.171 63.9777 204.781C65.3354 205.725 66.3845 207.108 67.1868 208.68C66.9399 207.297 66.5079 205.976 65.8291 204.781C65.2119 203.586 64.5331 202.517 63.7308 201.448C62.8051 200.316 61.8177 199.184 60.7068 198.304C60.3982 200.756 58.2999 202.957 56.0165 203.586C55.0908 203.838 54.1651 203.838 53.2394 203.649C54.5971 207.674 53.4862 211.951 52.1285 215.787C51.4497 217.736 50.6474 219.623 49.7834 221.447C49.4748 220 48.9811 218.428 48.0554 217.296C48.7342 220.441 48.6108 223.711 48.2405 226.855C47.8702 229.748 47.3148 232.641 46.5742 235.471C46.2657 236.54 45.9571 237.609 45.6485 238.741C46.3274 237.798 46.8211 236.792 47.3765 235.785C48.0554 234.402 48.7342 233.018 49.3514 231.572C50.8325 228.176 52.2519 224.717 53.6714 221.321C54.3502 219.623 55.0908 217.862 55.8314 216.164C56.0782 215.661 56.2634 215.095 56.5102 214.592C55.7079 217.925 54.5971 221.635 53.1777 225.157C52.1285 227.673 51.2645 229.937 50.4622 231.886C48.9194 235.848 47.7468 238.678 46.7594 240.251C46.6977 240.376 46.6359 240.502 46.5742 240.628C46.2657 241.823 45.7102 242.703 45.0314 242.892C44.4142 243.081 43.7354 242.515 43.3034 242.074C43.3034 242.074 43.2416 242.074 43.2416 242.011C43.2416 241.949 43.1799 241.949 43.1799 241.886C42.2542 240.565 41.2668 239.307 40.3411 237.987C40.4028 238.238 40.4028 238.427 40.4645 238.678C40.5262 239.181 40.6497 239.622 40.7114 240.125C37.5639 237.483 33.5525 233.333 32.5651 228.993C31.0839 222.767 29.2325 213.586 27.1959 202.517C25.5297 193.335 24.1102 187.738 22.7525 184.531C23.6165 184.342 24.4805 184.091 25.2828 183.839C24.0485 183.588 22.8142 183.147 21.6417 182.644C21.5799 182.644 21.5799 182.581 21.5182 182.581C18.1239 180.695 16.7045 177.613 15.8405 175.286C16.0874 175.349 16.3342 175.349 16.6428 175.349C18.1239 175.349 19.7285 174.657 20.7159 173.463C21.5182 172.519 21.8268 171.261 21.7034 170.004C22.2588 168.746 23.1228 167.551 24.0485 166.608C24.0485 167.74 24.4188 168.997 24.9742 170.004C24.9742 168.369 25.6531 166.608 26.7022 165.35C27.2577 164.721 27.9365 164.155 28.6771 163.778C27.3811 163.903 25.8999 163.715 24.7274 163.023C24.1719 162.709 23.6782 162.268 23.4314 161.702C23.1228 161.011 23.1845 160.256 23.3696 159.564C22.8142 160.633 22.0119 161.639 21.0245 162.268H20.9628C20.7777 162.394 20.6542 162.457 20.4691 162.52C19.6051 162.96 18.5559 163.086 17.6302 163.023C16.8279 162.96 16.0256 162.771 15.2851 162.52C14.4211 162.205 13.5571 161.828 12.8782 161.199C12.0759 160.507 11.2736 159.25 11.8291 158.181C12.2611 157.426 13.1868 157.677 13.8657 157.74C14.7297 157.74 15.5319 157.74 16.3959 157.677C17.2599 157.615 18.0622 157.552 18.9262 157.615C19.3582 157.615 19.7285 157.677 20.1605 157.803C20.6542 157.929 21.0245 158.118 21.5182 157.866C22.6291 157.426 23.7399 157.049 24.9125 156.797C26.1468 156.483 27.5045 156.231 28.8005 156.231C29.0474 156.231 29.2942 156.294 29.5411 156.294C31.3925 157.237 35.0337 160.067 35.4657 161.954C35.9594 164.029 34.2314 174.595 33.3057 177.299C33.3057 177.362 33.3056 177.362 33.2439 177.425C33.2439 177.55 33.1822 177.613 33.1822 177.739C32.9971 178.431 32.7502 179.123 32.4417 179.814C32.0714 180.632 31.5777 181.449 31.1457 182.267C31.7628 181.764 32.3799 181.324 32.9971 180.821C33.0588 182.896 33.3056 185.663 34.1079 188.87C35.4656 194.405 41.5137 208.617 41.7605 209.183C42.9331 211.385 43.9205 213.711 44.9079 215.975C45.4017 217.17 45.8337 218.365 46.2657 219.56C46.6359 220.692 47.0062 221.887 47.1297 223.082C47.2531 221.761 47.0679 220.503 46.8211 219.246C46.6359 217.988 46.3891 216.73 46.0805 215.472C45.5251 213.208 44.9697 210.944 44.2291 208.68L47.5616 200.379C48.3022 201.071 49.0428 201.763 49.7834 202.454C49.2279 201.008 48.7342 199.561 48.3022 198.115C48.3022 197.989 48.3022 197.926 48.2405 197.801C48.2405 197.738 45.5251 189.562 49.5365 182.141C53.4245 174.909 61.6942 174.972 64.2862 176.23C64.4097 176.293 64.4714 176.293 64.5948 176.355C66.0142 176.984 67.4337 177.613 68.7297 178.368C68.1125 177.362 67.4336 176.481 66.6931 175.538C68.3594 174.846 71.1982 173.903 72.9879 173.274C73.0497 173.274 73.1731 173.211 73.2348 173.148C74.3457 172.897 75.4565 172.645 76.5674 172.393C75.8885 172.142 75.2097 171.827 74.5925 171.576C75.5182 170.318 77.0611 168.369 78.3571 166.859C78.9742 168.18 79.6531 169.563 80.2702 170.884C80.2085 169.752 80.0851 168.62 80.0234 167.488C79.9617 166.545 79.8999 165.664 79.8382 164.721C79.8382 164.658 79.8382 164.595 79.8382 164.595C79.5914 160.633 78.9742 156.294 78.4188 152.835C79.5297 155.665 80.4554 158.558 81.1342 161.514C81.4428 162.771 81.6279 164.092 81.7514 165.413C81.9365 164.407 82.1834 163.463 82.5537 162.52C82.8005 161.891 83.0474 161.262 83.4794 160.822C83.7262 160.57 84.0965 160.319 84.4668 160.445C84.8988 160.633 85.2074 161.199 85.3925 161.577C85.7628 160.067 86.3799 158.432 87.5525 157.426C87.8611 157.174 88.2314 156.986 88.6017 156.86C88.6634 156.86 88.9719 156.86 88.9719 156.797C89.0337 156.734 88.9719 156.357 88.9719 156.294C88.9719 156.168 88.9719 156.105 88.9719 155.979H89.0337C89.0337 156.105 89.0337 156.168 89.0337 156.294C89.0337 156.357 88.972 156.734 89.0337 156.797C89.0954 156.86 89.3422 156.86 89.4039 156.86C89.7742 156.986 90.1445 157.174 90.4531 157.426C91.6874 158.432 92.2428 160.067 92.6131 161.577C92.7982 161.136 93.1068 160.57 93.5388 160.445C93.9091 160.319 94.2794 160.507 94.5262 160.822C94.9582 161.325 95.2051 161.954 95.452 162.52C95.8222 163.463 96.0691 164.469 96.2542 165.413C96.3159 164.092 96.5628 162.834 96.8714 161.514C97.4885 158.747 98.3525 155.979 99.4017 153.275C98.2908 156.923 97.9205 160.256 97.5502 163.526ZM123.347 242.011C123.47 242.074 123.594 242.389 123.655 242.515C123.779 242.703 123.841 242.892 123.902 243.081H122.791C122.915 242.766 123.162 242.137 123.347 242.011ZM123.409 242.011C123.409 242.011 123.409 241.949 123.409 242.011V242.011ZM9.11365 166.042C9.05193 165.979 9.05194 165.916 8.99022 165.853C8.80508 165.35 8.61993 164.91 8.49651 164.407C8.31136 163.715 8.0645 163.023 7.94108 162.268C7.69422 162.834 7.50908 163.463 7.32393 164.092C5.78108 162.268 4.60851 160.319 4.60851 159.25C4.54679 157.3 6.39822 155.351 7.01536 155.036C7.50908 154.847 9.91593 154.659 11.8908 154.659C12.0759 154.659 12.1994 154.596 12.3228 154.596C12.8782 154.659 13.4336 154.659 13.9891 154.722C13.7422 154.281 13.4336 153.904 13.1868 153.464C13.3102 153.212 13.5571 152.898 13.8039 152.646C14.6679 152.772 15.5319 152.898 16.4576 153.087C15.8405 152.395 15.2234 151.64 14.6062 150.948C14.5445 150.885 14.5445 150.76 14.4828 150.697C13.9891 150.005 12.2611 145.791 11.4588 142.899C12.1377 143.087 12.7548 143.276 13.4336 143.465C12.5696 142.521 11.7674 141.578 10.9034 140.635C10.9034 140.572 10.9034 140.572 10.8417 140.509C9.11365 137.742 8.12622 134.22 7.69422 132.333C8.12622 132.333 8.61994 132.27 9.05194 132.27C8.49651 131.767 7.87936 131.201 7.32393 130.698C7.26222 130.572 7.20051 130.447 7.07708 130.384C7.07708 130.384 5.47251 128.686 4.05308 125.101C2.63365 121.453 2.69537 117.617 4.29994 116.863C4.85537 116.548 5.47251 116.548 6.15137 116.8C7.38565 117.24 8.55822 118.561 9.23708 120.133C10.1011 122.208 11.3354 127.428 11.3354 128.937C11.3354 129.063 11.3354 129.252 11.3971 129.377C11.3971 130.258 11.3971 131.138 11.3971 131.956C11.7057 131.579 12.0142 131.201 12.3845 130.887C13.6805 133.214 15.5319 137.679 15.5319 139.754C15.5319 139.88 15.5319 140.069 15.5936 140.194C15.5319 140.886 15.4702 141.515 15.3468 142.207C15.7171 141.955 16.0257 141.704 16.3959 141.452C17.5685 143.402 18.2474 145.603 18.7411 147.364C19.2965 149.376 19.6668 150.445 20.6542 150.823C21.1479 151.011 21.6416 150.885 22.0736 150.571C23.1845 149.753 23.3079 148.055 23.4314 145.917C23.4931 144.911 23.5548 143.779 23.8017 142.71C24.2954 143.087 24.7891 143.402 25.2828 143.716C24.8508 142.773 24.4805 141.704 24.2954 140.697C24.2954 140.635 24.2954 140.509 24.2954 140.446C24.2954 140.32 24.2337 140.257 24.2337 140.131C24.2337 140.069 24.2337 139.943 24.2337 139.88C23.6782 136.169 24.0485 130.447 24.7891 128.057C25.3445 128.245 25.8382 128.371 26.3937 128.56C26.0234 127.868 25.6531 127.176 25.2828 126.485C25.2828 126.422 25.2828 126.359 25.2211 126.296C25.2211 126.233 24.3571 122.9 24.3571 118.435C24.3571 116.045 24.8508 114.347 25.8999 113.529C26.7639 112.838 27.8748 112.901 28.4302 113.026C30.4051 113.467 30.8988 116.485 30.8988 118.246C30.8988 120.636 30.2817 123.843 29.3559 126.485C29.2942 126.61 29.2942 126.673 29.2942 126.799C28.9239 127.617 28.4919 128.497 28.1217 129.315C28.5537 129.126 29.0474 128.874 29.4794 128.686C29.6645 131.579 29.4177 136.735 28.7388 140.886C28.6154 141.201 28.3685 141.515 28.1834 141.767C27.8131 142.333 27.3811 142.836 26.8874 143.339C27.4428 143.213 27.9982 143.087 28.5536 142.899C28.4919 143.905 28.4302 145.163 28.3685 146.42C28.3068 148.181 28.1834 151.263 28.1217 153.778C27.5662 153.778 27.0108 153.841 26.4554 153.904C24.9742 154.093 23.5548 154.47 22.1354 154.847C21.8268 154.91 21.5182 155.036 21.2096 155.162C20.9628 155.225 20.7159 155.413 20.4691 155.413C20.2839 155.476 19.9754 155.351 19.7902 155.288C19.5434 155.225 19.3582 155.225 19.1114 155.162C18.6177 155.099 18.1239 155.099 17.6302 155.099C16.7662 155.099 15.9022 155.225 15.0999 155.225C14.1742 155.288 13.2485 155.225 12.3845 155.162C10.9034 155.099 9.60736 155.917 9.05194 157.3C8.55822 158.432 8.61993 159.69 9.11365 160.822C9.66908 162.205 10.7799 163.275 12.0759 164.029C13.4337 164.784 14.9148 165.35 16.4576 165.539C16.6428 165.853 16.8897 166.105 17.0748 166.419C17.8154 167.425 18.4942 168.557 18.7411 169.815C18.8028 170.255 18.8645 170.758 18.7411 171.199C18.5559 171.827 18.0622 172.268 17.5068 172.519C16.9514 172.771 16.2725 172.897 15.6554 172.771C15.2851 172.708 14.9148 172.582 14.6062 172.393C14.4211 172.268 14.2359 172.142 13.9891 172.016C12.6931 171.387 11.0885 169.941 9.11365 166.042Z" fill="#939597"/>
<path d="M80.3936 111.391C80.5171 112.461 80.1468 113.655 79.7765 114.662C79.7765 114.725 79.7148 114.85 79.6531 114.913C81.8748 112.398 82.4302 108.687 82.3068 105.417C82.2451 104.222 82.1216 102.964 81.8748 101.769C81.8131 101.392 81.7513 101.015 81.6896 100.637C80.7022 95.6063 77.8016 89.6318 71.2599 85.9214C66.3845 83.1543 61.6325 82.3996 57.7445 82.5883C57.6211 82.5254 57.4359 82.5254 57.3125 82.5254C57.0039 82.5254 56.6954 82.5254 56.3868 82.5883C54.5971 82.7141 52.8691 82.9656 51.1411 83.3429C49.5365 83.7203 47.7468 84.0976 46.3891 85.0409C44.9696 85.9843 44.6611 87.8081 44.5994 89.3803C44.5994 91.4556 45.2165 93.6567 46.5125 95.2918C46.2656 94.663 46.0188 94.0341 45.8954 93.3423C45.5251 91.6443 45.5251 89.3174 46.8828 88.0596C47.0679 87.8709 47.1914 87.8081 47.3765 87.6823C46.6359 91.4556 47.4382 100.386 56.5102 107.492C62.4965 112.209 69.0382 112.901 73.8519 112.209C70.0874 113.655 65.7674 113.718 61.8794 112.838C65.0885 114.096 68.6679 114.599 72.1239 114.284C75.0862 114.033 77.9251 113.089 80.3936 111.391ZM78.6656 107.681C79.4062 107.052 79.7148 106.109 80.0851 105.291C80.3936 106.423 80.1468 107.681 79.2211 108.436C78.2953 109.127 77.0611 109.19 76.0119 108.75C76.9376 108.436 77.9251 108.247 78.6656 107.681ZM68.5445 89.4432C69.2851 89.4432 69.9022 90.0092 69.9639 90.7638C69.9639 91.5185 69.4085 92.1474 68.6679 92.2103C67.9274 92.2103 67.3102 91.6443 67.2485 90.8896C67.2485 90.0721 67.8039 89.4432 68.5445 89.4432ZM59.0405 86.3616C62.0645 86.5503 64.5331 88.1854 64.6565 90.0721C64.7182 91.9587 62.3731 93.3423 59.3491 93.1536C56.3251 92.9649 53.8565 91.3298 53.7331 89.4432C53.6714 87.5565 56.0165 86.1729 59.0405 86.3616ZM54.7205 101.895C53.6096 100.575 52.6839 99.1281 52.0051 97.5558C53.8565 99.8827 55.9548 102.084 58.3616 103.845C60.8302 105.669 63.4839 107.052 66.3228 108.121C67.9891 108.75 69.6554 109.253 71.3834 109.693C65.0268 109.693 58.7936 106.801 54.7205 101.895Z" fill="#939597"/>
<path d="M47.7468 82.7139C49.0428 82.1479 50.4623 81.8335 51.82 81.5819C56.8188 80.6386 62.0646 80.6386 66.8783 82.2737C71.6303 83.8459 75.7034 86.7388 78.9743 90.5121C77.5548 88.0594 75.7034 85.9841 73.5434 84.2232C69.3468 80.8901 64.1628 79.1921 58.8554 79.0663C56.0166 79.0035 53.1777 79.3179 50.524 80.1983C49.2897 80.6386 48.0554 81.2046 46.9446 81.9592C45.9571 82.651 44.9697 83.6572 44.6611 84.8521C45.4017 83.8459 46.5743 83.1541 47.7468 82.7139Z" fill="#939597"/>
<path d="M79.5919 82.2109C80.209 83.1543 80.8261 84.0976 81.3199 85.1038C81.8753 86.2358 82.369 87.4307 82.9244 88.5627C82.6776 87.1163 82.369 85.6069 81.8136 84.1605C81.0113 82.148 79.9004 80.3242 78.4193 78.6891C75.8273 75.8591 72.1244 74.3498 68.3599 74.1611C70.273 74.8529 72.1244 75.5447 73.8524 76.5509C76.0741 78.0602 77.9873 79.9469 79.5919 82.2109Z" fill="#939597"/>
<path d="M79.4061 124.849C79.8381 124.032 80.3935 123.214 80.8872 122.46C81.9364 120.95 82.9855 119.252 82.9238 117.303C82.5535 118.183 82.1215 119.001 81.6278 119.755C81.0724 120.573 80.517 121.328 79.9615 122.145C78.9124 123.717 78.1718 125.541 78.1101 127.491C78.5421 126.61 78.9124 125.73 79.4061 124.849Z" fill="#939597"/>
<path d="M81.6895 116.674C80.6404 118.372 79.2827 119.818 78.1101 121.453C79.0358 121.013 79.8381 120.321 80.4553 119.504C81.0724 118.686 81.6278 117.68 81.6895 116.674Z" fill="#939597"/>
<path d="M85.269 120.321C84.7136 120.573 84.1582 120.887 83.6645 121.202C82.9239 121.642 82.1216 122.397 82.3068 123.34C82.5536 124.346 83.6028 124.724 84.4667 124.283C85.3307 123.843 85.8862 123.026 86.2565 122.145C86.4416 121.768 86.997 120.573 86.5033 120.259C86.133 120.007 85.6393 120.133 85.269 120.321Z" fill="#939597"/>
<path d="M78.9738 135.667C79.2206 134.912 79.5909 134.22 80.0229 133.528C78.1715 133.906 77.2458 136.61 78.6652 137.993C78.6652 137.176 78.7269 136.421 78.9738 135.667Z" fill="#939597"/>
<path d="M91.5024 69.1299C90.6384 69.3815 89.7744 69.5701 88.8487 69.633C87.9847 69.6959 87.1824 69.5072 86.3801 69.3814C85.331 69.1299 84.2818 68.8155 83.2327 68.501C79.9618 67.5577 76.6292 66.6143 73.235 66.3628C70.7047 66.1741 68.1127 66.237 65.7058 67.1175C69.0384 66.803 72.4327 67.369 75.6418 68.3123C78.4807 69.1299 81.1961 70.1361 83.9732 70.9537C85.3927 71.3939 86.9355 71.897 88.4784 71.897C90.0212 71.897 91.5641 71.3939 92.9835 70.9537C98.9698 69.1299 104.894 66.5515 111.251 67.1175C107.486 65.7968 103.228 66.237 99.4018 67.0546C96.6864 67.6206 94.0944 68.4381 91.5024 69.1299Z" fill="#939597"/>
<path d="M90.4531 63.9101C88.9102 64.0988 87.3674 64.0988 85.8245 63.8473C84.22 63.5957 82.6154 63.1555 80.9491 62.9039C79.2828 62.6524 77.6165 62.5266 76.012 62.6524C77.8634 63.0926 79.6531 63.5957 81.4428 64.1617C83.0474 64.6648 84.652 65.2308 86.2565 65.4824C87.9228 65.7339 89.5891 65.671 91.1937 65.3566C92.7983 65.0422 94.4028 64.4762 95.9457 63.973C97.5502 63.4699 99.1548 63.0297 100.759 62.6524C98.908 62.5266 97.0565 62.7153 95.2051 63.0297C93.6623 63.2184 92.1194 63.6586 90.4531 63.9101Z" fill="#939597"/>
<path d="M129.457 87.7453C129.642 87.8082 129.827 87.9339 129.951 88.1226C131.308 89.4433 131.308 91.7073 130.938 93.4053C130.815 94.0971 130.568 94.7259 130.321 95.3548C131.617 93.7197 132.234 91.5186 132.234 89.4433C132.234 87.8711 131.864 86.0473 130.444 85.1039C129.025 84.1606 127.297 83.7833 125.692 83.4059C123.964 83.0286 122.175 82.777 120.447 82.6513C120.138 82.6513 119.83 82.5884 119.521 82.5884C119.398 82.5884 119.212 82.5884 119.089 82.6513C115.201 82.4626 110.449 83.2173 105.574 85.9844C99.0318 89.6948 96.1312 95.6693 95.1438 100.7C95.0821 101.078 95.0204 101.455 94.9587 101.832C94.7735 103.027 94.5884 104.222 94.5267 105.48C94.4032 108.75 94.9587 112.461 97.1804 114.976C97.1187 114.913 97.1187 114.787 97.0569 114.725C96.7484 113.718 96.3164 112.523 96.4398 111.454C96.7484 111.643 97.0569 111.832 97.3655 112.02C102.611 115.102 109.338 115.102 114.954 112.901C111.56 113.718 107.98 113.655 104.648 112.775C104.092 112.649 103.599 112.461 103.105 112.272C107.98 112.964 114.46 112.209 120.385 107.555C129.395 100.449 130.259 91.5186 129.457 87.7453ZM117.052 86.739C117.793 86.5504 118.534 86.9906 118.719 87.6824C118.904 88.437 118.472 89.1917 117.793 89.3804C117.052 89.569 116.312 89.1288 116.127 88.437C115.88 87.6824 116.312 86.9277 117.052 86.739ZM98.2295 107.681C98.9701 108.31 99.9575 108.436 100.883 108.75C99.8341 109.19 98.5998 109.127 97.6741 108.436C96.7484 107.681 96.5015 106.423 96.8101 105.291C97.1804 106.109 97.4889 107.052 98.2295 107.681ZM103.599 94.2857C103.105 92.4619 105.018 90.135 107.795 89.0659C110.634 87.9968 113.288 88.5628 113.782 90.3237C114.275 92.1475 112.362 94.4744 109.585 95.5435C106.746 96.6755 104.092 96.1095 103.599 94.2857ZM111.683 108.75C110.017 109.253 108.289 109.568 106.499 109.568C109.276 108.687 112.054 107.681 114.646 106.235C117.114 104.851 119.459 103.216 121.496 101.203C122.668 100.071 123.779 98.8137 124.828 97.4931C122.483 103.09 117.299 107.052 111.683 108.75Z" fill="#939597"/>
<path d="M109.152 80.8272C104.462 82.7139 100.389 86.1099 97.8584 90.5121C99.7098 88.3739 101.808 86.4872 104.153 84.9779C108.35 82.2736 113.287 80.953 118.224 80.953C120.816 80.953 123.47 81.2045 126 81.7705C128.16 82.2736 130.814 82.9654 132.233 84.915C131.801 83.5314 130.629 82.4623 129.456 81.7076C128.222 80.8901 126.802 80.3241 125.321 79.9467C122.606 79.1921 119.767 79.0034 116.928 79.1292C114.274 79.255 111.621 79.821 109.152 80.8272Z" fill="#939597"/>
<path d="M95.6988 84.9152C96.6862 82.9028 97.9822 81.079 99.525 79.4439C100.698 78.1861 102.117 77.117 103.598 76.2994C105.141 75.419 106.869 74.7901 108.597 74.2241C106.314 74.3499 104.154 74.853 102.117 75.985C99.7102 77.3057 97.7353 79.2552 96.3776 81.645C95.1433 83.7832 94.4028 86.1101 94.0325 88.5628C94.4645 87.7452 94.773 86.8648 95.205 86.0472C95.3285 85.6699 95.5136 85.2926 95.6988 84.9152Z" fill="#939597"/>
<path d="M95.9453 122.46C96.439 123.214 96.9944 124.032 97.4264 124.849C97.9201 125.73 98.2904 126.61 98.7224 127.491C98.6607 125.541 97.9201 123.78 96.871 122.145C96.3155 121.328 95.7601 120.573 95.2047 119.755C94.711 119.001 94.279 118.183 93.9087 117.303C93.9087 119.252 94.9578 120.95 95.9453 122.46Z" fill="#939597"/>
<path d="M98.723 121.39C97.5504 119.818 96.2544 118.309 95.1436 116.611C95.2053 117.617 95.7607 118.623 96.3779 119.441C97.0567 120.258 97.7973 121.013 98.723 121.39Z" fill="#939597"/>
<path d="M90.3916 120.259C89.8979 120.636 90.4533 121.768 90.6385 122.145C91.0088 122.963 91.5642 123.843 92.4282 124.283C93.2922 124.724 94.3413 124.346 94.5882 123.34C94.7733 122.397 93.971 121.642 93.2305 121.202C92.675 120.887 92.1813 120.573 91.6259 120.321C91.1939 120.133 90.7619 120.007 90.3916 120.259Z" fill="#939597"/>
<path d="M94.4028 136.735C94.773 136.672 95.0199 136.547 95.3285 136.358C95.6988 136.169 95.9456 136.106 96.069 136.547C96.1925 136.861 96.2542 137.176 96.3159 137.49C96.7479 136.798 96.7479 135.918 96.501 135.1C96.4393 134.786 96.2542 134.346 95.9456 134.22C95.8222 135.163 94.9582 135.729 94.0325 135.729C92.7365 135.666 91.6873 134.597 90.3296 135.037C89.7125 135.226 89.2188 135.603 88.6016 135.729C87.9845 135.792 87.429 135.478 86.8119 135.226C86.2565 134.974 85.701 134.849 85.0839 135.037C84.405 135.226 83.8496 135.54 83.1708 135.729C82.1216 135.981 80.949 135.478 80.8256 134.283C80.3319 134.534 80.2085 135.289 80.1467 135.729C80.085 136.358 80.1467 136.987 80.4553 137.49C80.517 137.113 80.5787 136.044 81.1959 136.232C81.4427 136.295 81.6896 136.484 81.9365 136.61C82.3068 136.735 82.7388 136.798 83.109 136.735C83.7262 136.61 84.2816 136.484 84.8988 136.547C85.5776 136.61 86.0713 136.861 86.6885 137.113C87.6142 137.49 88.8485 137.553 89.7742 137.238C90.2679 137.05 90.6999 136.798 91.2553 136.672C91.8725 136.484 92.5513 136.484 93.2302 136.61C93.6005 136.672 93.9708 136.798 94.4028 136.735Z" fill="#939597"/>
<path d="M94.0328 139.314C93.2305 139.943 92.3665 140.257 91.3174 140.132C90.3299 140.006 89.4042 139.817 88.4168 139.817C87.4294 139.817 86.5036 140.069 85.5162 140.132C84.4671 140.257 83.6648 139.943 82.8008 139.314C83.7265 141.704 86.3802 141.075 88.3551 141.075C90.3916 141.075 93.0454 141.641 94.0328 139.314Z" fill="#939597"/>
<path d="M85.7012 144.785C86.6269 144.723 87.4909 144.408 88.4166 144.408C89.3423 144.408 90.2063 144.723 91.132 144.785C90.4532 144.094 89.404 143.465 88.4166 143.465C87.4292 143.528 86.38 144.094 85.7012 144.785Z" fill="#939597"/>
<path d="M96.9329 133.528C97.3031 134.22 97.7351 134.912 97.982 135.667C98.2288 136.421 98.2905 137.239 98.3523 137.993C99.7099 136.61 98.7225 133.906 96.9329 133.528Z" fill="#939597"/>
<path d="M126.926 105.354C124.951 108.058 122.73 110.574 120.446 112.963C121.989 111.894 123.347 110.699 124.705 109.379C126.988 107.115 129.025 104.536 130.629 101.769C131.431 100.323 132.172 98.8764 132.727 97.3042C133.283 95.6691 133.653 94.0339 133.9 92.3359C133.406 93.7195 132.974 95.0402 132.357 96.3608C130.876 99.5682 128.963 102.524 126.926 105.354Z" fill="#939597"/>
<path d="M52.6836 108.938C50.5853 106.486 48.6721 103.97 47.0059 101.203C46.2036 99.8196 45.4013 98.4361 44.7224 96.9267C44.0436 95.4174 43.5499 93.8452 43.0562 92.2729C43.2413 93.9709 43.5499 95.5432 44.1053 97.1783C45.2779 100.574 47.191 103.782 49.4744 106.549C51.511 109.001 53.7944 111.202 56.4481 112.963C55.1521 111.643 53.8561 110.322 52.6836 108.938Z" fill="#939597"/>
<path d="M80.5788 25.7996C81.2577 26.5543 82.3068 26.8058 83.2942 26.8687C84.3434 26.9316 85.4542 26.8058 86.5034 26.4914C87.5525 26.1769 88.4782 25.6738 89.5274 25.7367C90.5765 25.7367 91.6257 25.9254 92.6131 25.611C93.4771 25.2965 94.2794 24.6676 94.6497 23.8501C95.452 22.1521 94.5263 19.385 92.428 19.2592C94.2177 19.8252 94.8348 22.3407 93.6623 23.7243C92.3663 25.2965 90.3297 24.3532 88.6634 24.5418C87.7994 24.6676 86.9354 24.9821 86.1331 25.2965C85.2074 25.611 84.2817 25.7367 83.2942 25.7367C82.5537 25.7367 81.5662 25.6109 81.1342 24.9192C80.764 24.3532 80.764 23.5985 80.9491 22.9696C81.3194 21.3345 82.6771 19.6994 84.22 19.1963C83.0474 19.2592 81.9982 20.0138 81.2577 20.8314C80.5171 21.649 79.9617 22.781 79.9617 23.913C79.9617 24.5418 80.1468 25.2965 80.5788 25.7996Z" fill="#939597"/>
<path d="M114.09 22.781C114.707 23.0955 115.386 23.2841 116.065 23.347C116.682 23.347 117.546 23.2841 117.978 22.781C118.965 21.7119 117.546 20.1397 116.743 19.5108C117.052 20.0768 117.361 20.6428 117.546 21.2088C117.607 21.4604 117.731 21.8377 117.546 22.0264C117.422 22.215 117.175 22.2779 116.929 22.2779C115.879 22.4666 114.769 21.9006 113.905 21.2717C112.979 20.6428 112.177 19.8881 111.498 19.0077C110.942 18.253 110.263 17.1839 110.572 16.1777C110.881 15.2344 112.115 14.857 112.67 15.8004C112.547 15.0457 111.683 14.7313 111.066 14.857C110.449 15.0457 109.955 15.5488 109.708 16.1777C109.276 17.5612 110.078 19.0077 110.881 20.0768C111.683 21.2088 112.794 22.215 114.09 22.781Z" fill="#939597"/>
<path d="M63.1135 15.36C63.9775 15.5486 64.9649 15.1713 65.7055 14.7311C66.3843 14.2908 67.1866 13.5362 67.31 12.6557C67.3717 12.2784 67.1866 11.8382 66.8163 11.6495C66.446 11.4608 65.8906 11.6495 65.7055 12.0897C65.8906 11.9011 66.2609 11.8382 66.446 12.0268C66.6929 12.2155 66.6312 12.53 66.5078 12.7186C66.1992 13.2846 65.6437 13.7248 65.15 14.0393C64.5946 14.4166 63.9775 14.6682 63.2986 14.794C62.99 14.8568 62.6815 14.794 62.4963 14.5424C62.3729 14.2908 62.3729 13.9764 62.4963 13.7877C62.0643 13.9764 62.0026 14.5424 62.1878 14.9197C62.4346 15.1084 62.8049 15.2971 63.1135 15.36Z" fill="#939597"/>
<path d="M77.1228 15.3598C78.0485 15.2341 78.9742 15.0454 79.7765 14.5423C80.5171 14.1021 81.196 13.3474 81.0108 12.4041C80.9491 12.0267 80.7022 11.6494 80.332 11.4607C79.9617 11.335 79.4679 11.4607 79.3445 11.8381C79.5914 11.5865 80.0851 11.5865 80.332 11.901C80.5788 12.2154 80.5171 12.6556 80.332 12.9701C79.8382 13.7247 78.7891 14.0392 77.9868 14.2279C77.4931 14.3536 76.9377 14.4165 76.444 14.5423C76.0737 14.6052 75.58 14.731 75.2097 14.6052C74.2223 14.2907 75.148 13.0959 75.5182 12.6556C75.0862 12.8443 74.6542 13.1587 74.4074 13.599C74.1605 14.0392 74.2223 14.6052 74.5925 14.9825C75.2097 15.6743 76.3205 15.4856 77.1228 15.3598Z" fill="#939597"/>
<path d="M86.5034 9.13392C87.244 9.76281 88.4166 9.63703 89.2189 9.38547C89.9594 9.13392 91.0086 8.56792 90.8852 7.62459C90.8235 7.24725 90.5149 6.80703 90.1446 6.74414C90.0212 6.74414 89.7743 6.74414 89.6509 6.86992C89.5274 7.05859 89.7743 7.05859 89.9594 7.05859C90.0212 7.05859 90.0829 7.12147 90.0829 7.18436C90.268 7.37303 90.268 7.68747 90.0829 7.87614C89.7126 8.31636 89.0337 8.50503 88.4783 8.56792C87.9229 8.6937 87.1823 8.81947 86.6886 8.44214C86.3183 8.1277 86.3183 7.43592 86.8737 7.43592C86.4417 7.18436 86.0097 7.62459 85.948 8.00192C86.0097 8.50503 86.1949 8.88236 86.5034 9.13392Z" fill="#939597"/>
<path d="M100.821 11.5865C101.315 11.8381 101.87 12.0896 102.364 12.3412C103.105 12.6556 103.969 13.0958 104.771 12.8443C105.141 12.7185 105.512 12.4669 105.635 12.0896C105.758 11.7123 105.635 11.2721 105.265 11.1463C105.512 11.3978 105.45 11.8381 105.203 12.0896C104.894 12.3412 104.524 12.3412 104.154 12.2154C103.413 11.9638 102.673 11.4607 101.932 11.1463C101.747 11.0834 101.624 11.0205 101.438 10.8947C101.13 10.7689 100.574 10.5803 100.451 10.2029C100.328 9.8885 100.636 9.63695 100.883 9.51117C101.315 9.3225 101.809 9.38539 102.241 9.38539C101.438 8.94517 100.266 8.7565 99.7721 9.76272C99.3401 10.5803 100.142 11.2092 100.821 11.5865Z" fill="#939597"/>
<path d="M61.8796 26.9944C62.8053 26.7428 63.6693 26.2397 64.3481 25.5479C64.9653 24.919 65.5824 24.1015 65.7058 23.1582C65.891 22.0262 64.9036 21.5859 64.0396 21.2715C64.2864 21.6488 64.7184 21.9633 64.9036 22.4035C65.0887 22.8437 64.7184 23.3468 64.4716 23.6613C63.9161 24.4159 63.2373 24.9819 62.435 25.4222C61.6327 25.8624 60.5836 26.2397 59.6578 26.2397C59.2258 26.2397 58.7938 26.1139 58.547 25.7366C58.3001 25.3593 58.3001 24.7933 58.4853 24.4159C57.6213 25.1706 57.9916 26.5542 58.9173 26.9944C59.7813 27.4975 60.9538 27.3088 61.8796 26.9944Z" fill="#939597"/>
<path d="M70.6427 35.7989C71.5067 36.3649 72.6793 36.302 73.6667 36.0504C74.0987 35.9247 74.5307 35.6731 74.7159 35.17C74.8393 34.7927 74.8393 34.1009 74.3456 33.9122C74.5307 34.2267 74.3456 34.7298 74.0987 34.9184C73.9136 35.1071 73.605 35.1071 73.3582 35.1071C72.8027 35.1071 72.2473 35.0442 71.6919 34.9184C71.013 34.7298 70.5193 34.1638 70.3342 33.472C70.149 32.906 70.2724 31.774 70.9513 31.6482C70.4576 31.3967 69.9639 31.8369 69.717 32.2142C69.4084 32.5915 69.285 33.1575 69.3467 33.5978C69.4084 34.5411 69.9022 35.3587 70.6427 35.7989Z" fill="#939597"/>
<path d="M97.4888 35.107C97.4271 37.1823 94.4648 37.6225 92.9219 37.6225C91.9962 37.6225 90.8237 37.4967 90.2682 36.6163C89.8979 35.9874 90.0831 35.107 90.7619 34.7925C90.1448 34.7925 89.6511 35.4214 89.5276 35.9874C89.4042 36.6163 89.7128 37.2452 90.0831 37.7483C90.9471 38.6916 92.3048 38.8803 93.4774 38.8803C94.7734 38.8803 96.1311 38.5658 97.1802 37.7483C98.106 36.9936 98.6614 35.8616 98.2294 34.6667C97.8591 33.5976 96.6865 32.843 95.5757 33.1574C96.6248 33.2203 97.4888 34.0379 97.4888 35.107Z" fill="#939597"/>
<path d="M103.537 28.2521C102.302 29.0697 102.364 30.8935 103.228 31.9626C104.092 32.9688 105.573 33.2833 106.808 33.0946C108.165 32.9059 109.4 32.1513 110.51 31.3337C111.498 30.579 112.794 29.6986 113.102 28.3779C113.349 27.2459 112.547 25.5479 111.189 25.7995C111.806 25.9253 112.238 26.4913 112.424 27.0573C112.609 27.6861 112.424 28.2521 111.992 28.6924C111.498 29.2584 110.757 29.6986 110.14 30.1388C109.214 30.7677 108.289 31.3966 107.24 31.7739C106.129 32.1513 104.709 32.2141 103.784 31.3337C102.981 30.5161 102.92 29.1326 103.537 28.2521Z" fill="#939597"/>
<path d="M120.199 32.5917C121.001 33.0948 122.051 33.3464 122.915 32.9061C123.347 32.6546 123.717 32.3401 123.84 31.837C123.964 31.3968 123.964 30.7679 123.47 30.5164C123.717 31.1453 123.223 31.7741 122.606 31.9628C121.989 32.1515 121.31 31.8999 120.755 31.5855C120.261 31.271 119.582 30.9566 119.335 30.3906C119.088 29.8246 119.397 29.1328 120.014 29.007C119.582 28.7555 119.088 29.0699 118.78 29.3215C118.471 29.6359 118.409 30.0761 118.409 30.5164C118.595 31.3968 119.459 32.0886 120.199 32.5917Z" fill="#939597"/>
<path d="M60.3367 37.1193C61.139 37.3709 62.0647 37.2451 62.6818 36.742C62.9904 36.4904 63.1755 36.1131 63.1755 35.7358C63.1755 35.3584 62.9904 34.8553 62.5584 34.8553C62.9287 35.2956 62.5584 35.8616 62.0647 35.9873C61.571 36.1131 61.0155 36.0502 60.5835 35.9244C59.5961 35.5471 59.1024 34.4151 59.7195 33.5347C58.8555 33.6604 58.5469 34.7924 58.7321 35.5471C58.9172 36.3018 59.5961 36.8678 60.3367 37.1193Z" fill="#939597"/>
<path d="M66.7547 42.9055C66.1376 42.6539 66.1993 41.8364 66.693 41.459C66.1376 41.2704 65.6439 41.8364 65.5822 42.3395C65.4587 42.9055 65.829 43.4086 66.261 43.6601C67.2484 44.2261 68.6679 43.4086 68.421 42.2137C68.0507 42.7168 67.3719 43.157 66.7547 42.9055Z" fill="#939597"/>
<path d="M50.8325 22.9697C50.8943 23.5986 50.6474 24.2275 50.092 24.542C49.5365 24.8564 49.0428 24.4162 49.1663 23.7873C48.7343 23.976 48.6725 24.6048 48.8577 24.9822C49.1045 25.4853 49.66 25.674 50.1537 25.5482C51.2028 25.2337 51.9434 23.6615 50.8325 22.9697Z" fill="#939597"/>
<path d="M126.803 24.8561C127.111 24.6045 127.235 24.1014 127.05 23.7241C126.864 24.2901 126.309 24.4787 125.939 23.9756C125.568 23.4096 125.692 22.7179 126 22.1519C124.704 22.2147 124.581 24.0385 125.383 24.7303C125.754 25.1076 126.371 25.2334 126.803 24.8561Z" fill="#939597"/>
<path d="M82.7388 43.5341C82.9239 44.1001 83.4177 44.5404 84.0348 44.6661C84.6519 44.7919 85.3308 44.5404 85.7011 44.0372C86.0097 43.597 86.1331 42.9052 85.8245 42.4021C85.7011 43.2197 85.0222 43.8486 84.2199 43.7228C83.4177 43.597 83.0474 42.7166 83.1708 41.9619C82.6771 42.3392 82.6154 43.031 82.7388 43.5341Z" fill="#939597"/>
<path d="M73.2969 24.4786C73.9141 24.6044 74.5929 24.3529 74.9632 23.8498C75.2718 23.4095 75.3952 22.7178 75.0866 22.2146C74.9632 23.0322 74.2844 23.6611 73.4821 23.5353C72.6798 23.4095 72.3095 22.5291 72.4329 21.7744C72.0009 22.0889 71.8775 22.7806 72.0009 23.2838C72.1861 23.9126 72.6798 24.3529 73.2969 24.4786Z" fill="#939597"/>
<path d="M105.82 42.2765C106.252 42.7796 106.992 42.9683 107.671 42.8425C108.227 42.7167 108.782 42.2765 108.967 41.7105C109.152 41.1445 108.844 40.1383 108.103 40.3269C108.474 40.5785 108.535 41.0187 108.35 41.396C108.103 41.7734 107.671 41.962 107.239 42.0249C106.314 42.0878 105.696 41.2703 105.696 40.3898C105.203 40.83 105.388 41.7734 105.82 42.2765Z" fill="#939597"/>
<path d="M100.204 22.215C100.636 22.7181 101.377 22.9067 102.056 22.781C102.611 22.6552 103.166 22.215 103.352 21.649C103.537 21.083 103.228 20.0767 102.488 20.2654C102.858 20.517 102.92 20.9572 102.734 21.3345C102.488 21.7119 102.056 21.9005 101.624 21.9634C100.698 22.0263 100.081 21.2087 100.081 20.3283C99.587 20.7685 99.7722 21.7119 100.204 22.215Z" fill="#939597"/>
<path d="M93.045 50.892C93.2301 51.5838 93.909 51.9611 94.5879 51.9611C95.2667 51.9611 96.069 51.5209 96.3776 50.892C96.5627 50.5776 96.6244 50.2003 96.5627 49.8858C96.501 49.5714 96.3158 49.0683 95.9456 49.0683C96.2541 49.3827 96.1307 50.0116 95.8838 50.326C95.637 50.7034 95.1433 50.9549 94.7113 51.0178C94.2176 51.0807 93.8473 50.892 93.6621 50.3889C93.477 50.0116 93.3536 49.3198 93.7239 49.0054C92.9216 49.1311 92.8599 50.3889 93.045 50.892Z" fill="#939597"/>
</svg>
