<svg width="43" height="42" viewBox="0 0 43 42" fill="none" xmlns="http://www.w3.org/2000/svg">
<path d="M30.9688 24.9999V16.9999C30.9684 16.6492 30.8758 16.3047 30.7003 16.0011C30.5248 15.6974 30.2725 15.4453 29.9688 15.2699L22.9688 11.2699C22.6647 11.0944 22.3198 11.002 21.9688 11.002C21.6177 11.002 21.2728 11.0944 20.9688 11.2699L13.9688 15.2699C13.665 15.4453 13.4127 15.6974 13.2372 16.0011C13.0617 16.3047 12.9691 16.6492 12.9688 16.9999V24.9999C12.9691 25.3506 13.0617 25.6951 13.2372 25.9987C13.4127 26.3024 13.665 26.5545 13.9688 26.7299L20.9688 30.7299C21.2728 30.9054 21.6177 30.9979 21.9688 30.9979C22.3198 30.9979 22.6647 30.9054 22.9688 30.7299L29.9688 26.7299C30.2725 26.5545 30.5248 26.3024 30.7003 25.9987C30.8758 25.6951 30.9684 25.3506 30.9688 24.9999Z" stroke="#111111" stroke-width="2" stroke-linecap="round" stroke-linejoin="round"/>
<path d="M13.2383 15.96L21.9683 21.01L30.6983 15.96" stroke="#111111" stroke-width="2" stroke-linecap="round" stroke-linejoin="round"/>
<path d="M21.9688 31.08V21" stroke="#111111" stroke-width="2" stroke-linecap="round" stroke-linejoin="round"/>
<circle cx="21.9688" cy="21" r="20" stroke="#1E2022" stroke-width="2"/>
</svg>
