<svg width="24" height="24" viewBox="0 0 24 24" fill="none" xmlns="http://www.w3.org/2000/svg">
<path d="M19.98 5.16998C18.0696 3.63206 15.047 3.37142 14.9174 3.3623C14.8189 3.35419 14.7204 3.37691 14.6354 3.42731C14.5505 3.47771 14.4833 3.55329 14.4432 3.64358C14.3855 3.77328 14.3366 3.9067 14.2968 4.04294C15.5606 4.25654 17.1129 4.68614 18.5174 5.55782C18.571 5.59107 18.6175 5.63455 18.6543 5.68577C18.691 5.73699 18.7174 5.79496 18.7317 5.85636C18.7461 5.91775 18.7483 5.98138 18.738 6.04361C18.7278 6.10583 18.7055 6.16544 18.6722 6.21902C18.639 6.2726 18.5955 6.3191 18.5442 6.35588C18.493 6.39265 18.4351 6.41898 18.3737 6.43336C18.3123 6.44773 18.2486 6.44987 18.1864 6.43965C18.1242 6.42944 18.0646 6.40707 18.011 6.37382C15.5966 4.87478 12.5812 4.80038 12 4.80038C11.4192 4.80038 8.40188 4.87526 5.98892 6.37334C5.93534 6.40659 5.87574 6.42896 5.81351 6.43917C5.75129 6.44939 5.68766 6.44725 5.62626 6.43288C5.50226 6.40384 5.39487 6.32674 5.32772 6.21854C5.26057 6.11033 5.23915 5.97988 5.26818 5.85588C5.29721 5.73188 5.37431 5.62449 5.48252 5.55734C6.887 4.68806 8.43932 4.25654 9.70316 4.04486C9.6302 3.80678 9.56396 3.65654 9.55916 3.64358C9.51922 3.55265 9.45171 3.47657 9.36618 3.4261C9.28065 3.37563 9.18143 3.35331 9.08252 3.3623C8.95292 3.3719 5.93036 3.63206 3.99356 5.19062C2.98316 6.12566 0.959961 11.5933 0.959961 16.3204C0.959961 16.4049 0.982521 16.4855 1.0238 16.5585C2.41868 19.0113 6.227 19.6521 7.09484 19.6804H7.10972C7.18546 19.6806 7.26017 19.6628 7.32774 19.6286C7.39532 19.5944 7.45384 19.5447 7.49852 19.4836L8.37548 18.2759C6.00764 17.6649 4.79804 16.6261 4.72892 16.5642C4.63344 16.4799 4.57535 16.3612 4.56743 16.2341C4.55951 16.107 4.60241 15.9819 4.68668 15.8865C4.77096 15.791 4.88971 15.7329 5.01681 15.725C5.14392 15.717 5.26896 15.7599 5.36444 15.8442C5.39228 15.8706 7.61996 17.7604 12 17.7604C16.3872 17.7604 18.6148 15.8629 18.6374 15.8442C18.7332 15.7605 18.8582 15.7183 18.9851 15.7268C19.112 15.7352 19.2304 15.7937 19.3142 15.8893C19.3557 15.9365 19.3875 15.9913 19.4078 16.0508C19.4281 16.1102 19.4364 16.1731 19.4324 16.2357C19.4284 16.2984 19.4121 16.3597 19.3844 16.416C19.3567 16.4724 19.3182 16.5227 19.271 16.5642C19.2019 16.6261 17.9923 17.6649 15.6244 18.2759L16.5019 19.4836C16.5465 19.5447 16.605 19.5943 16.6724 19.6285C16.7399 19.6627 16.8145 19.6805 16.8902 19.6804H16.9046C17.7734 19.6521 21.5812 19.0108 22.9766 16.5585C23.0174 16.4855 23.04 16.4049 23.04 16.3204C23.04 11.5933 21.0168 6.12614 19.98 5.16998ZM8.87996 14.4004C7.95164 14.4004 7.19996 13.5412 7.19996 12.4804C7.19996 11.4196 7.95164 10.5604 8.87996 10.5604C9.80828 10.5604 10.56 11.4196 10.56 12.4804C10.56 13.5412 9.80828 14.4004 8.87996 14.4004ZM15.12 14.4004C14.1916 14.4004 13.44 13.5412 13.44 12.4804C13.44 11.4196 14.1916 10.5604 15.12 10.5604C16.0483 10.5604 16.8 11.4196 16.8 12.4804C16.8 13.5412 16.0483 14.4004 15.12 14.4004Z" fill="#4E4B66"/>
</svg>
