<svg width="135" height="97" viewBox="0 0 135 97" fill="none" xmlns="http://www.w3.org/2000/svg">
<path d="M115.884 11.2908C104.301 2.27952 85.9747 0.752335 85.189 0.698898C84.592 0.651401 83.9945 0.784527 83.4793 1.07983C82.9641 1.37513 82.5567 1.81798 82.3136 2.34702C81.964 3.10702 81.6675 3.88876 81.4259 4.68702C89.0888 5.93858 98.5008 8.45576 107.016 13.5633C107.341 13.7581 107.623 14.0128 107.846 14.313C108.069 14.6131 108.229 14.9528 108.316 15.3125C108.403 15.6723 108.416 16.0451 108.354 16.4097C108.292 16.7743 108.157 17.1235 107.955 17.4375C107.753 17.7514 107.49 18.0239 107.179 18.2394C106.869 18.4549 106.517 18.6091 106.145 18.6934C105.773 18.7776 105.387 18.7901 105.01 18.7303C104.632 18.6704 104.271 18.5393 103.946 18.3445C89.3071 9.56107 71.0244 9.12513 67.5 9.12513C63.9785 9.12513 45.6842 9.56388 31.054 18.3417C30.7291 18.5365 30.3677 18.6676 29.9905 18.7275C29.6132 18.7873 29.2274 18.7748 28.8551 18.6905C28.1033 18.5204 27.4522 18.0687 27.045 17.4347C26.6379 16.8006 26.508 16.0362 26.684 15.3097C26.86 14.5831 27.3275 13.9539 27.9836 13.5604C36.4992 8.46701 45.9112 5.93858 53.5741 4.69826C53.1317 3.30327 52.7301 2.42296 52.701 2.34702C52.4588 1.81425 52.0495 1.36849 51.5309 1.07275C51.0124 0.777002 50.4107 0.646225 49.811 0.698898C49.0252 0.755148 30.6989 2.27952 18.9558 11.4117C12.8295 16.8904 0.5625 48.9276 0.5625 76.625C0.5625 77.12 0.699285 77.5925 0.949573 78.02C9.40698 92.3919 32.4975 96.1466 37.7594 96.3125H37.8496C38.3088 96.3136 38.7618 96.2098 39.1715 96.0093C39.5812 95.8089 39.936 95.5177 40.207 95.1594L45.5241 88.0831C31.1675 84.5028 23.8335 78.4166 23.4144 78.0538C22.8355 77.56 22.4833 76.8642 22.4352 76.1194C22.3872 75.3746 22.6473 74.642 23.1583 74.0825C23.6692 73.5231 24.3893 73.1827 25.1599 73.1363C25.9306 73.0899 26.6888 73.3412 27.2677 73.835C27.4364 73.9897 40.9433 85.0625 67.5 85.0625C94.1004 85.0625 107.607 73.9447 107.744 73.835C108.325 73.3447 109.083 73.0972 109.852 73.1468C110.622 73.1964 111.339 73.539 111.848 74.0994C112.099 74.3756 112.292 74.697 112.415 75.0453C112.538 75.3935 112.589 75.7618 112.564 76.129C112.54 76.4962 112.441 76.8552 112.273 77.1855C112.105 77.5157 111.872 77.8108 111.586 78.0538C111.167 78.4166 103.833 84.5028 89.4759 88.0831L94.796 95.1594C95.0666 95.5173 95.4209 95.8083 95.8301 96.0087C96.2393 96.2091 96.6917 96.3132 97.1504 96.3125H97.2377C102.505 96.1466 125.593 92.389 134.053 78.02C134.301 77.5925 134.438 77.12 134.438 76.625C134.438 48.9276 122.17 16.8932 115.884 11.2908ZM48.5829 65.375C42.9543 65.375 38.3967 60.3407 38.3967 54.1251C38.3967 47.9094 42.9543 42.8751 48.5829 42.8751C54.2114 42.8751 58.769 47.9094 58.769 54.1251C58.769 60.3407 54.2114 65.375 48.5829 65.375ZM86.4171 65.375C80.7885 65.375 76.231 60.3407 76.231 54.1251C76.231 47.9094 80.7885 42.8751 86.4171 42.8751C92.0457 42.8751 96.6033 47.9094 96.6033 54.1251C96.6033 60.3407 92.0457 65.375 86.4171 65.375Z" fill="#200E32"/>
</svg>
