<svg width="99" height="115" viewBox="0 0 99 115" fill="none" xmlns="http://www.w3.org/2000/svg">
<path d="M67.9999 114.25C67.9999 106.127 67.9999 93.4487 67.9999 93.4487C68.2015 90.8857 67.8553 88.3092 66.9841 85.8904C66.113 83.4715 64.7369 81.2659 62.9474 79.42C79.8249 77.5387 97.5624 71.1425 97.5624 41.795C97.561 34.2905 94.6744 27.0739 89.4999 21.6387C91.9501 15.0732 91.7769 7.8161 89.0162 1.37497C89.0162 1.37497 82.6737 -0.50628 67.9999 9.32997C55.6805 5.99114 42.6944 5.99114 30.3749 9.32997C15.7012 -0.50628 9.35868 1.37497 9.35868 1.37497C6.59795 7.8161 6.4247 15.0732 8.87493 21.6387C3.66186 27.1142 0.772235 34.3961 0.812425 41.9562C0.812425 71.0887 18.5499 77.485 35.4274 79.5812C33.659 81.4086 32.2952 83.5878 31.4247 85.977C30.5542 88.3663 30.1965 90.9121 30.3749 93.4487V114.25" fill="#14142B"/>
<path d="M67.9999 114.25C67.9999 106.127 67.9999 93.4487 67.9999 93.4487C68.2015 90.8857 67.8553 88.3092 66.9841 85.8904C66.113 83.4715 64.7369 81.2659 62.9474 79.42C79.8249 77.5387 97.5624 71.1425 97.5624 41.795C97.561 34.2905 94.6744 27.0739 89.4999 21.6387C91.9501 15.0732 91.7769 7.8161 89.0162 1.37497C89.0162 1.37497 82.6737 -0.50628 67.9999 9.32997C55.6805 5.99114 42.6944 5.99114 30.3749 9.32997C15.7012 -0.50628 9.35868 1.37497 9.35868 1.37497C6.59795 7.8161 6.4247 15.0732 8.87493 21.6387C3.66186 27.1142 0.772235 34.3961 0.812425 41.9562C0.812425 71.0887 18.5499 77.485 35.4274 79.5812C33.659 81.4086 32.2952 83.5878 31.4247 85.977C30.5542 88.3663 30.1965 90.9121 30.3749 93.4487V114.25" stroke="#14142B"/>
</svg>
