<svg width="456" height="929" viewBox="0 0 456 929" fill="none" xmlns="http://www.w3.org/2000/svg">
<path d="M400.55 345.021C417.32 345.021 433.78 346.811 449.83 351.911C489.92 364.651 520.09 390.011 542.89 424.781C551.19 437.431 557.55 450.962 560.85 465.792C564.57 482.482 564.95 499.341 562.08 516.132C553.92 563.941 529.8 602.051 491.23 631.191C471.77 645.891 450.24 656.131 426.25 660.941C410.72 664.061 395.09 664.441 379.34 662.911C352.31 660.292 327.11 651.941 303.57 638.602C281.27 625.961 262.67 609.242 248.96 587.382C238.48 570.682 232.62 552.432 230.74 532.852C228.02 504.441 231.51 476.871 242.57 450.501C259.16 410.961 287.2 382.171 325.66 363.451C337.6 357.641 349.91 352.852 363.09 350.542C369.77 349.372 376.34 347.511 383.04 346.491C388.81 345.611 394.7 345.481 400.55 345.021ZM342.98 363.561C336.83 366.401 330.65 368.951 324.74 372.021C288.87 390.661 262.99 418.531 248.08 456.211C238.64 480.061 235.59 504.921 237.79 530.451C239.44 549.581 244.96 567.441 255.22 583.741C267.4 603.081 283.71 618.221 303.17 629.951C326.38 643.951 351.48 652.632 378.48 655.542C395.03 657.322 411.5 656.851 427.8 653.191C451.72 647.821 472.94 636.951 491.83 621.501C530.72 589.691 553.42 549.251 556.38 498.602C557.47 479.922 554.2 461.881 545.91 444.981C535.13 422.971 520.14 404.271 501.38 388.481C468.52 360.821 430.65 349.481 388.06 353.151C387.39 353.211 386.73 353.471 386.13 353.621C385.35 358.081 384.44 358.691 380.24 357.661C380.01 357.601 379.8 357.501 379.57 357.451C374.92 356.471 370.18 355.921 365.69 357.671C361.56 359.271 357.65 361.451 353.7 363.481C352.04 364.331 350.57 365.551 348.93 366.451C346.83 367.601 345.54 367.261 344.08 365.361C343.75 364.901 343.49 364.391 342.98 363.561Z" fill="#F8D948"/>
<path d="M400.49 614.232C395.85 614.402 390.94 613.532 386.23 611.482C379.92 608.732 375.49 604.082 372.48 597.982C370.72 594.402 370.64 590.692 372.08 587.052C374.82 580.102 378.39 573.702 384.79 569.332C385.81 568.642 386.8 567.842 387.9 568.882C389.16 570.082 388.36 571.232 387.49 572.262C387.11 572.702 386.7 573.152 386.23 573.482C381.25 576.892 378.78 582.102 376.36 587.332C374.65 591.022 375.05 594.542 377.15 598.052C381.46 605.272 387.94 608.992 396.09 609.892C402.8 610.632 409.41 609.732 415.94 608.032C421.3 606.632 424.61 603.242 426.36 598.072C429.49 588.842 427.83 580.252 422.97 572.112C419.98 567.112 415.94 563.032 411.23 559.642C407.46 556.922 403.4 555.342 398.73 557.402C397.58 557.912 396.4 557.732 396.23 556.482C396.12 555.692 396.79 554.372 397.5 553.982C400.41 552.372 403.62 552.502 406.75 553.222C408.33 553.582 409.93 554.202 411.29 555.072C422.87 562.432 430.58 572.432 431.97 586.472C432.55 592.312 431.3 597.922 428.63 603.152C426.24 607.832 422.26 610.591 417.3 611.941C411.95 613.381 406.51 614.242 400.49 614.232Z" fill="#F8D948"/>
<path d="M277.77 549.641C277.99 543.051 280.27 537.501 284.29 532.681C288.22 527.971 293.33 528.211 298.44 529.801C299.06 529.991 299.38 531.161 299.84 531.871C299.12 532.311 298.42 533.071 297.67 533.131C296.54 533.221 295.37 532.801 294.22 532.621C291.75 532.251 289.43 532.731 287.81 534.661C283.41 539.901 280.93 545.851 282.29 552.801C283.49 558.961 288.01 561.611 294.03 559.891C298.16 558.711 301.37 556.301 303.26 552.361C303.97 550.881 304.6 549.371 305.17 547.831C305.74 546.301 306.22 544.791 305.36 543.091C305.09 542.551 305.54 541.281 306.08 540.811C306.46 540.471 307.67 540.681 308.26 541.041C309.69 541.901 310.26 543.391 310 544.991C308.61 553.461 304.31 561.561 294.66 564.011C286.32 566.131 279.36 561.421 278.08 552.881C277.9 551.731 277.85 550.551 277.77 549.641Z" fill="#F8D948"/>
<path d="M289.04 429.921C287.4 429.991 286.48 428.811 287.02 427.551C287.48 426.501 288.22 425.551 288.94 424.641C295.64 416.271 303.39 408.971 311.72 402.281C317.11 397.961 322.67 393.841 328.19 389.701C329.3 388.861 330.55 388.131 331.85 387.671C332.41 387.471 333.57 387.881 333.89 388.371C334.19 388.851 333.94 389.911 333.59 390.511C333.27 391.061 332.48 391.321 331.91 391.731C318.52 401.281 305.83 411.621 294.87 423.951C293.47 425.531 292.14 427.171 290.71 428.711C290.18 429.271 289.44 429.641 289.04 429.921Z" fill="#F8D948"/>
<path d="M301.68 489.062C302.32 487.972 302.66 487.052 303.29 486.432C303.7 486.022 304.62 485.772 305.15 485.942C305.67 486.112 306.22 486.862 306.34 487.452C306.96 490.572 303.98 493.632 300.84 492.962C299.4 492.652 297.96 491.922 296.76 491.042C291.85 487.452 288 482.842 285.32 477.432C281.26 469.222 286.72 457.992 295.7 455.952C297.66 455.512 299.86 455.932 301.91 456.232C302.72 456.352 303.61 457.112 304.1 457.832C304.47 458.372 304.58 459.522 304.24 460.012C303.92 460.482 302.61 460.852 302.18 460.572C297.62 457.662 294.35 460.092 291.39 463.192C288.16 466.582 286.71 470.672 288.82 475.122C291.31 480.382 294.99 484.782 299.79 488.162C300.25 488.492 300.82 488.662 301.68 489.062Z" fill="#F8D948"/>
<path d="M330.81 564.021C331.16 559.401 333.97 555.321 338.66 552.461C339.23 552.111 340.02 551.851 340.65 551.941C341.24 552.021 342.04 552.491 342.24 553.001C342.44 553.501 342.15 554.341 341.81 554.861C341.52 555.301 340.79 555.421 340.36 555.801C339.21 556.791 337.95 557.701 337.04 558.881C333.34 563.661 333.83 567.711 338.7 571.211C340.86 572.761 343.3 574.021 345.78 574.981C348.5 576.031 349.71 575.201 350.33 572.391C350.58 571.251 350.41 569.991 350.8 568.931C351.07 568.221 351.93 567.481 352.66 567.301C353.07 567.201 354.11 568.151 354.25 568.771C354.95 571.871 354.59 574.921 352.48 577.391C350.52 579.681 347.86 579.901 345.06 579.111C340.3 577.761 336.33 575.151 333.07 571.481C331.4 569.591 330.8 567.551 330.81 564.021Z" fill="#F8D948"/>
<path d="M413.93 573.341C413.45 579.481 411.4 586.151 407.72 592.241C405.18 596.441 400.23 598.121 396.19 596.571C392.53 595.171 390.61 591.861 391.41 588.251C391.56 587.591 391.8 586.821 392.26 586.391C392.69 586.001 393.52 585.811 394.11 585.911C394.51 585.981 394.91 586.671 395.1 587.161C395.25 587.561 395.09 588.071 395.08 588.541C394.98 592.191 397.6 594.111 401.02 592.861C402.87 592.181 404.11 590.821 404.98 589.081C407.24 584.551 408.88 579.811 409.62 574.801C409.91 572.861 410.16 570.891 408.87 569.051C408.56 568.611 408.81 567.201 409.22 566.961C409.88 566.591 411.01 566.541 411.73 566.851C413.39 567.571 413.96 569.291 413.93 573.341Z" fill="#F8D948"/>
<path d="M255.33 504.612C256.37 497.902 257.24 491.162 258.5 484.492C259.67 478.282 261.24 472.152 262.69 466.002C262.98 464.762 263.37 463.462 264.06 462.422C264.46 461.812 265.55 461.662 266.33 461.312C266.67 462.092 267.35 462.902 267.28 463.642C267.17 464.892 266.45 466.082 266.21 467.332C264.27 477.562 262.37 487.802 260.47 498.042C260.02 500.462 259.67 502.892 259.23 505.312C259.01 506.532 258.56 507.632 257.07 507.642C255.96 507.642 255.45 506.612 255.33 504.612Z" fill="#F8D948"/>
<path d="M409.69 639.222C403.18 638.472 396.67 637.802 390.18 636.942C387.52 636.592 386.35 635.472 386.88 634.252C387.74 632.292 389.49 633.102 390.89 633.322C399.13 634.622 407.41 635.142 415.75 634.672C419.7 634.452 423.35 633.402 426.65 631.192C427.89 630.362 429.19 629.112 430.61 630.812C431.43 631.792 430.76 633.102 428.88 634.522C425.29 637.222 421.15 638.382 416.76 638.682C414.43 638.842 412.08 638.712 409.74 638.712C409.72 638.872 409.71 639.042 409.69 639.222Z" fill="#F8D948"/>
<path d="M256.14 538.211C256.06 537.281 255.94 536.351 255.91 535.411C255.87 534.111 255.77 532.591 257.51 532.411C259.27 532.231 259.48 533.711 259.62 535.031C259.91 537.821 260.06 540.631 260.47 543.401C261.27 548.711 262.16 554.021 263.12 559.301C263.87 563.411 265.49 567.121 268.56 570.091C268.97 570.491 269.46 570.981 269.54 571.491C269.64 572.101 269.55 572.981 269.16 573.371C268.78 573.761 267.82 573.961 267.3 573.761C266.46 573.441 265.7 572.801 265.03 572.171C262.22 569.511 260.43 566.211 259.74 562.461C258.26 554.421 257 546.341 255.64 538.281C255.83 538.261 255.99 538.241 256.14 538.211Z" fill="#F8D948"/>
<path d="M342.13 512.001C335.32 511.971 332.43 507.581 335.32 502.091C336.48 499.891 338.39 497.991 340.26 496.291C341.2 495.431 342.8 495.101 344.15 494.961C344.81 494.891 345.58 495.821 346.29 496.301C345.81 497.001 345.44 498.161 344.83 498.311C341.93 499.021 340.15 500.911 338.89 503.401C337.29 506.561 338.32 508.111 341.84 507.901C342.64 507.851 343.48 507.671 344.21 507.341C346.07 506.511 346.49 505.631 345.94 503.501C345.64 502.361 345.49 501.171 346.76 500.901C347.58 500.721 348.82 501.181 349.49 501.781C351.01 503.141 351.09 505.611 349.86 507.621C347.96 510.701 345.03 511.911 342.13 512.001Z" fill="#F8D948"/>
<path d="M309.46 608.531C310.06 608.881 310.61 609.111 311.05 609.471C318.32 615.271 326.45 619.691 334.66 623.951C335.48 624.381 336.39 624.821 336.96 625.511C337.39 626.031 337.73 627.261 337.43 627.601C336.94 628.171 335.94 628.381 335.11 628.551C334.73 628.621 334.25 628.251 333.83 628.031C325.6 623.791 317.52 619.291 310.22 613.541C309.4 612.891 308.55 612.201 307.98 611.351C307.68 610.901 307.77 609.981 308.02 609.421C308.22 609.011 308.94 608.841 309.46 608.531Z" fill="#F8D948"/>
<path d="M440.2 557.601C442.84 556.591 443.71 554.691 444.09 552.601C444.44 550.681 442.76 548.831 440.57 548.511C439.66 548.381 438.65 548.701 437.79 548.451C437.02 548.231 436.41 547.501 435.72 546.991C436.24 546.311 436.62 545.301 437.31 545.011C441.54 543.211 447 546.351 447.86 550.961C448.49 554.351 446.15 559.251 443.13 560.881C440.94 562.061 438.21 561.731 436.81 559.731C435.84 558.341 435.17 556.631 434.8 554.961C434.64 554.221 435.33 552.861 436.02 552.461C437.16 551.811 437.89 552.881 438.38 553.891C438.96 555.101 439.56 556.301 440.2 557.601Z" fill="#F8D948"/>
<path d="M294.09 549.391C295.27 548.171 296.58 547.031 297.61 545.681C298.75 544.201 299.12 542.521 297.89 540.821C297.14 539.781 296.7 538.611 297.92 537.741C299.22 536.821 300.38 537.561 301.28 538.621C302.77 540.361 303.11 542.421 302.52 544.561C301.54 548.131 299.17 550.741 296.06 552.551C293.26 554.171 289.58 552.231 288.63 548.901C287.8 545.991 289.51 541.421 292.16 539.991C292.82 539.631 293.85 539.951 294.71 539.951C294.68 540.801 294.9 541.751 294.58 542.461C294.12 543.501 293.15 544.311 292.63 545.331C291.79 547.001 291.97 547.361 294.09 549.391Z" fill="#F8D948"/>
<path d="M349.6 434.392C348.89 430.932 347.11 428.112 344.86 425.562C343.32 423.812 341.45 423.832 339.43 424.712C338.19 425.252 336.79 426.222 335.83 424.352C335.23 423.182 336.14 422.052 338.29 421.172C341.17 420.002 344.12 419.852 346.56 421.952C350.27 425.152 352.78 429.242 353.61 434.122C354.2 437.602 352.01 439.602 348.7 438.902C347.51 438.652 346.36 438.202 346.28 436.792C346.19 435.282 347.23 434.831 348.55 434.761C348.86 434.731 349.17 434.542 349.6 434.392Z" fill="#F8D948"/>
<path d="M257.8 719.171C254.48 720.551 251.12 721.831 247.75 723.041C244.77 724.011 241.55 724.311 238.52 723.611C235.48 722.981 232.72 721.431 230.5 719.451C228.24 717.391 226.76 714.971 225.65 712.071C224.38 709.151 223.07 706.261 221.69 703.391C221.2 702.361 220 701.821 218.88 702.181C217.66 702.571 216.98 703.881 217.37 705.111L217.41 705.241C218.63 709.041 220.11 713.131 221.19 716.661C222.13 720.071 221.9 723.741 220.71 727.081C219.47 730.411 217.12 733.341 214.1 735.291L203.58 741.191L203.48 741.251C202.7 741.691 202.34 742.651 202.67 743.501C203.04 744.441 204.09 744.911 205.03 744.541C208.79 743.081 212.63 741.331 216.27 739.981C219.89 738.801 223.98 738.781 227.64 740.201C231.31 741.551 234.5 744.201 236.44 747.601C238.27 751.101 239.85 754.971 241.53 758.651C241.81 759.271 242.52 759.611 243.19 759.411C243.93 759.191 244.35 758.421 244.14 757.681L244.1 757.541L240.7 745.951C239.89 742.401 240.09 738.681 241.33 735.251C242.6 731.851 244.82 728.741 247.87 726.481C251.11 724.331 254.78 722.241 258.22 720.111L258.28 720.071C258.49 719.941 258.58 719.671 258.48 719.431C258.37 719.181 258.07 719.061 257.8 719.171Z" fill="#F8D948"/>
<path d="M309.47 841.881C311.99 841.981 313.5 841.061 314.27 839.281C315.17 837.181 314.97 835.431 313.24 833.991C311.55 832.571 309.68 831.311 307.78 830.191C306.08 829.191 303.44 829.941 301.98 831.561C300.62 833.071 300.4 834.891 301.59 836.721C303.55 839.741 306.51 841.241 309.47 841.881Z" fill="#F8D948"/>
<path d="M354.37 796.082C354.87 796.062 355.38 796.082 355.88 796.032C359 795.692 361.35 793.692 361.91 790.902C362.21 789.392 361.92 788.032 360.62 787.112C359.57 786.362 358.48 785.582 357.29 785.112C356.43 784.772 355.29 784.672 354.4 784.922C352.24 785.522 350.78 787.062 349.7 788.992C348.64 790.862 348.88 792.552 350.11 794.162C351.15 795.552 352.64 796.072 354.37 796.082Z" fill="#F8D948"/>
<path d="M168.91 647.062C170.78 647.152 172.29 646.662 173.27 645.602C176.28 642.372 175.07 638.812 172.1 637.012C169.47 635.412 165.08 636.802 163.34 639.312C162.27 640.862 162.23 642.302 163.38 643.802C164.88 645.732 166.9 646.812 168.91 647.062Z" fill="#F8D948"/>
<path d="M406.5 302.131C408.61 300.751 409.32 299.131 408.91 297.231C408.43 294.991 407.26 293.691 405.01 293.511C402.81 293.331 400.56 293.381 398.36 293.571C396.4 293.741 394.67 295.881 394.42 298.041C394.18 300.061 395.06 301.671 397.09 302.481C400.43 303.801 403.71 303.311 406.5 302.131Z" fill="#F8D948"/>
<path d="M229.66 273.251C227.07 274.981 226.38 277.191 227.32 279.881C228.15 282.251 230.59 283.851 232.99 283.571C236.77 283.141 239.69 279.391 239.18 275.661C238.93 273.881 237.91 272.691 236.15 272.291C233.72 271.741 231.41 271.921 229.66 273.251Z" fill="#F8D948"/>
<path d="M112.51 515.962C114.98 516.482 116.62 515.832 117.68 514.202C118.92 512.282 119.01 510.532 117.56 508.812C116.13 507.122 114.5 505.572 112.81 504.152C111.3 502.882 108.57 503.182 106.87 504.532C105.27 505.792 104.76 507.552 105.62 509.562C107.03 512.862 109.7 514.832 112.51 515.962Z" fill="#F8D948"/>
<path d="M7.86025 370.511C4.81025 369.911 2.75026 370.981 1.51026 373.541C0.420262 375.801 1.02026 378.661 2.91026 380.161C5.89026 382.521 10.6003 381.951 12.8803 378.941C13.9603 377.511 14.0803 375.941 13.1203 374.411C11.8103 372.311 10.0403 370.801 7.86025 370.511Z" fill="#F8D948"/>
<path d="M94.5602 768.062C96.4302 768.152 97.9402 767.662 98.9202 766.602C101.93 763.362 100.72 759.812 97.7502 758.012C95.1202 756.412 90.7302 757.802 88.9902 760.312C87.9202 761.862 87.8802 763.302 89.0302 764.802C90.5302 766.742 92.5502 767.822 94.5602 768.062Z" fill="#F8D948"/>
</svg>
