<svg width="358" height="410" viewBox="0 0 358 410" fill="none" xmlns="http://www.w3.org/2000/svg">
<path d="M120.984 146C123.122 146.345 127.393 146.991 131.648 147.752C133.606 148.103 135.463 148.813 137.536 148.663C138.622 148.583 139.939 149.189 140.89 149.885C148.43 155.487 155.464 161.629 159.349 170.93C162.422 178.384 163.849 186.044 162.648 194.089C162.112 197.698 161.006 201.027 159.369 204.126C151.569 218.939 139.874 227.179 124.249 229.051C117.205 229.862 110.141 230.002 103.062 227.274C90.5155 222.528 81.0834 214.263 76.1822 201.207C75.4362 199.24 74.9706 197.162 74.5701 195.125C73.9944 192.211 73.4437 189.278 73.1733 186.354C72.9681 184.106 72.4274 181.648 74.7353 180.047C75.3111 179.646 75.3511 178.495 75.5964 177.674C80.9683 159.471 99.1716 146.075 120.984 146ZM110.892 150.621C110.126 150.726 109.63 150.706 109.204 150.866C105.785 152.163 102.361 153.439 98.9864 154.801C95.2366 156.308 93.0838 159.501 90.9961 162.665C90.3703 163.611 90.0199 164.798 89.7545 165.929C89.0386 169.013 89.9448 171.401 92.6883 173.263C94.2753 174.345 96.0376 175.186 97.7798 175.992C101.725 177.839 104.694 180.712 106.521 184.727C107.367 186.595 108.053 188.557 108.579 190.529C110.381 197.318 112.429 198.844 118.962 198.344C122.441 198.074 125.951 197.838 129.46 197.973C137.496 198.284 143.994 204.441 145.566 212.987C145.766 214.093 145.806 215.199 144.625 215.55C143.468 215.89 142.817 215.044 142.382 213.958C141.591 211.99 140.84 210.008 139.989 208.071C138.907 205.628 137.13 204.086 134.802 202.969C131.353 201.322 127.888 201.448 124.394 201.583C121.58 201.693 118.782 202.013 115.963 201.968C111.502 201.898 107.993 199.205 106.306 194.789C105.935 193.833 105.66 192.832 105.445 191.831C104.088 185.483 100.874 180.802 94.6658 178.274C89.4742 176.187 85.9847 172.577 86.0949 166.585C86.0949 166.53 85.9747 166.465 85.7244 166.23C85.2488 166.765 84.7181 167.256 84.3026 167.837C80.6229 173.008 78.425 178.79 77.6641 185.173C77.1134 189.803 77.9995 191.505 82.2599 193.938C83.4915 194.644 84.7932 195.23 86.0949 195.756C87.8671 196.472 89.6694 197.102 91.4717 197.728C94.9362 198.94 97.6897 201.087 99.6672 204.346C100.573 205.853 101.575 207.31 102.536 208.792C104.128 211.255 106.266 212.506 109.029 212.726C111.743 212.942 114.466 213.337 117.18 213.763C120.834 214.343 123.107 217.057 125.05 220.165C125.61 221.067 125.565 222.033 124.749 222.618C123.913 223.214 123.102 222.809 122.436 221.983C121.976 221.412 121.54 220.821 121.095 220.236C119.768 218.483 118.166 217.342 116.058 217.132C113.735 216.896 111.407 216.476 109.089 216.291C105.199 215.98 102.115 214.158 99.8374 210.664C98.7561 209.017 97.6646 207.375 96.6183 205.708C95.4118 203.8 93.8398 202.309 91.8172 201.518C87.2463 199.746 82.5653 198.314 78.1197 195.1C78.2548 196.046 78.2849 196.527 78.4 196.992C81.1535 208.121 88.2076 215.885 98.0702 221.377C105.52 225.607 113.235 226.403 121.09 225.737C135.002 224.516 146.402 218.619 154.147 205.933C158.367 199.005 158.367 200.622 154.532 192.301C154.487 192.206 154.437 192.111 154.392 192.016C153.581 190.264 152.295 188.952 150.562 188.667C148.149 188.272 145.696 188.166 143.263 188.111C141.205 188.061 139.158 188.337 137.1 188.312C133.706 188.272 131.147 186.424 129.681 183.255C128.825 181.418 128.379 179.291 128.179 177.273C127.403 169.368 124.714 166.946 119.603 165.614C116.854 164.903 114.346 163.491 112.338 161.299C110.151 158.926 109.264 156.247 110.236 153.134C110.456 152.413 110.621 151.667 110.892 150.621ZM114.651 149.94C114.326 151.086 114.141 151.967 113.835 152.803C112.549 156.273 113.099 158.37 116.329 160.317C118.216 161.464 120.349 162.25 122.446 162.906C126.096 164.052 128.669 166.4 129.996 170.039C130.767 172.172 131.308 174.45 131.548 176.697C132.264 183.346 133.886 184.952 140.084 184.657C142.632 184.532 145.18 184.152 147.729 184.302C152.129 184.567 155.804 186.424 157.817 191.125C158.067 191.711 158.532 192.191 159.208 193.168C159.384 191.776 159.544 190.97 159.584 190.154C159.859 184.086 158.608 178.314 156.325 172.708C152.735 163.992 146.117 158.32 139.138 153.014C138.422 152.473 137.526 152.067 136.66 151.897C133.225 151.221 129.781 150.611 126.321 150.08C122.446 149.499 118.556 148.949 114.651 149.94Z" fill="#F8D948"/>
<path d="M36.5451 300.442C41.6006 300.447 45.016 297.557 47.6339 293.48C49.8203 290.072 50.6788 286.209 51.1897 282.259C52.0289 275.787 51.7318 269.295 51.4646 262.8C51.2504 257.549 51.222 252.291 51.124 247.041C51.1166 246.628 51.1041 246.171 51.2756 245.824C51.4635 245.444 51.8758 244.913 52.1738 244.919C52.604 244.935 53.1535 245.284 53.4034 245.659C53.6778 246.07 53.7363 246.663 53.7718 247.188C53.901 249.134 54.0805 251.078 54.0631 253.021C53.9809 261.244 54.2591 269.447 55.6813 277.562C56.4647 282.027 58.0214 286.206 60.785 289.883C62.8573 292.637 65.4937 294.428 68.8649 295.253C71.7069 295.947 74.5646 296.166 77.4721 296.032C78.1188 296.002 78.7908 295.93 79.4111 296.064C79.7886 296.147 80.2365 296.533 80.3785 296.89C80.4713 297.126 80.1518 297.763 79.8902 297.853C79.2553 298.073 79.1517 298.397 79.1329 299.019C79.1123 299.843 78.6122 300.138 77.7072 300.157C74.6048 300.218 71.8249 301.195 69.5397 303.399C66.9238 305.924 65.0246 308.895 64.3462 312.486C63.5501 316.716 62.8017 320.965 62.2928 325.237C61.6794 330.393 61.3415 335.577 60.8813 340.75C60.8544 341.041 60.9063 341.402 60.7536 341.607C60.5365 341.909 60.1755 342.273 59.8598 342.289C59.5442 342.306 59.0751 341.997 58.9102 341.704C58.6939 341.316 58.6894 340.797 58.6254 340.331C57.8904 335.064 57.2592 329.78 56.396 324.538C55.8704 321.343 55.1154 318.17 54.2451 315.045C52.7028 309.509 48.9195 306.298 43.3414 305.129C40.3918 304.507 37.4446 303.906 34.3944 304.157C33.7506 304.212 33.0814 304.178 32.4561 304.044C32.1202 303.972 31.709 303.641 31.5821 303.329C31.3563 302.77 32.7857 300.836 33.4156 300.748C33.9416 300.677 34.4745 300.666 35.0028 300.615C35.4913 300.569 35.9583 300.509 36.5451 300.442ZM39.9322 302.101C39.9437 302.2 39.9546 302.295 39.9661 302.394C41.2388 302.635 42.5153 302.866 43.7847 303.122C49.7556 304.331 53.9296 307.654 55.9697 313.485C57.3787 317.52 58.1592 321.698 58.7773 325.91C58.9432 327.04 59.0451 328.182 59.1767 329.321C59.3277 329.319 59.4836 329.316 59.6345 329.314C59.7349 328.526 59.8204 327.74 59.9413 326.955C60.7037 321.999 61.1966 316.978 62.3116 312.107C63.8535 305.392 67.6487 300.383 74.397 298.378C72.3723 297.997 70.1637 297.638 67.986 297.154C64.567 296.395 61.8451 294.518 59.6432 291.819C57.4062 289.079 55.8643 285.987 54.7961 282.633C54.5028 281.71 54.214 280.781 53.9251 279.851C53.5276 280.598 53.4302 281.325 53.3428 282.05C52.7864 286.479 51.8226 290.783 49.4038 294.621C47.5724 297.524 45.2082 299.873 42.044 301.318C41.3593 301.629 40.6332 301.844 39.9322 302.101Z" fill="#F8D948"/>
<path d="M242.503 93.5763C240.63 93.1508 238.773 92.6602 236.926 92.1445C235.329 91.6439 233.837 90.7779 232.73 89.5314C231.604 88.3149 230.883 86.783 230.527 85.2311C230.182 83.6342 230.287 82.1223 230.703 80.5154C231.053 78.8533 231.379 77.1863 231.669 75.5143C231.774 74.9085 231.424 74.3078 230.823 74.1176C230.167 73.9073 229.466 74.2677 229.261 74.9235L229.241 74.9936C228.59 77.0211 227.969 79.2638 227.343 81.1361C226.693 82.9133 225.461 84.4351 223.904 85.5215C222.327 86.5878 220.405 87.1334 218.482 87.0483L212.079 86.3525L212.014 86.3475C211.538 86.2974 211.083 86.5978 210.962 87.0784C210.832 87.599 211.148 88.1296 211.668 88.2648C213.756 88.7955 215.974 89.226 217.976 89.7666C219.914 90.3774 221.706 91.6389 222.853 93.3861C224.029 95.1132 224.595 97.2558 224.39 99.3333C224.104 101.421 223.589 103.599 223.178 105.721C223.108 106.082 223.308 106.442 223.664 106.567C224.054 106.702 224.475 106.497 224.61 106.107L224.635 106.031L226.748 99.929C227.499 98.1319 228.74 96.5749 230.337 95.4636C231.944 94.3773 233.872 93.7115 235.904 93.6764C237.977 93.7465 240.225 93.9718 242.383 94.112L242.418 94.1169C242.553 94.127 242.673 94.0369 242.703 93.9017C242.743 93.7565 242.653 93.6063 242.503 93.5763Z" fill="#F8D948"/>
<path d="M171.545 319.342C171.53 317.394 172.061 315.477 173.097 313.825C174.149 312.198 175.661 310.826 177.513 309.995C179.45 309.244 181.603 308.574 183.641 307.858L183.676 307.848C183.801 307.803 183.881 307.672 183.856 307.537C183.831 307.387 183.686 307.287 183.536 307.317C181.648 307.662 179.746 307.938 177.843 308.188C176.181 308.353 174.464 308.143 172.962 307.432C171.45 306.756 170.184 305.63 169.252 304.343C168.306 303.012 167.811 301.58 167.565 299.938C167.235 298.271 166.879 296.609 166.494 294.957C166.354 294.361 165.793 293.946 165.167 294.006C164.481 294.071 163.981 294.677 164.046 295.362L164.051 295.438C164.251 297.56 164.556 299.863 164.717 301.83C164.817 303.718 164.281 305.605 163.275 307.217C162.244 308.814 160.687 310.07 158.884 310.746L152.721 312.623L152.661 312.644C152.201 312.784 151.905 313.239 151.98 313.73C152.065 314.26 152.561 314.626 153.097 314.541C155.225 314.205 157.432 313.735 159.49 313.444C161.513 313.244 163.655 313.705 165.398 314.861C167.16 315.983 168.517 317.735 169.147 319.727" fill="#F8D948"/>
<path d="M203.198 132.279C204.544 132.334 205.35 131.843 205.761 130.887C206.242 129.766 206.136 128.834 205.21 128.059C204.304 127.298 203.308 126.627 202.291 126.031C201.38 125.5 199.968 125.901 199.193 126.762C198.467 127.573 198.351 128.544 198.982 129.52C200.039 131.132 201.621 131.933 203.198 132.279Z" fill="#F8D948"/>
<path d="M246.688 390.138C247.684 390.183 248.49 389.923 249.021 389.357C250.628 387.63 249.982 385.733 248.4 384.771C246.999 383.92 244.651 384.661 243.719 385.998C243.144 386.824 243.124 387.595 243.744 388.396C244.535 389.432 245.617 390.008 246.688 390.138Z" fill="#F8D948"/>
<path d="M135.025 65.0564C133.363 65.0114 132.377 65.7623 131.956 67.2241C131.581 68.5156 132.156 69.9624 133.288 70.5832C135.07 71.5594 137.498 70.8335 138.429 69.0463C138.87 68.1953 138.79 67.3592 138.149 66.6384C137.263 65.6522 136.202 65.0114 135.025 65.0564Z" fill="#F8D948"/>
<path d="M95.4898 381.037C94.3433 379.831 93.1167 379.665 91.785 380.396C90.6085 381.047 89.9878 382.474 90.3482 383.715C90.9139 385.663 93.1518 386.869 95.0692 386.263C95.9854 385.973 96.5161 385.327 96.5712 384.361C96.6513 383.044 96.3509 381.838 95.4898 381.037Z" fill="#F8D948"/>
<path d="M159.481 48.0261C160.477 48.0711 161.283 47.8108 161.814 47.2451C163.421 45.518 162.775 43.6207 161.193 42.6595C159.792 41.8085 157.444 42.5494 156.512 43.886C155.937 44.712 155.917 45.483 156.537 46.2839C157.333 47.3152 158.41 47.8959 159.481 48.0261Z" fill="#F8D948"/>
<path d="M8.95903 134.661C9.8752 135.653 10.7914 135.873 11.7576 135.492C12.8941 135.042 13.4748 134.301 13.3697 133.105C13.2645 131.928 13.0392 130.747 12.7389 129.605C12.4735 128.584 11.1919 127.873 10.0304 127.933C8.94401 127.993 8.17303 128.599 7.93272 129.735C7.53221 131.613 8.08792 133.3 8.95903 134.661Z" fill="#F8D948"/>
<path d="M8.28276 38.9247C7.13629 37.7182 5.90972 37.553 4.57802 38.2839C3.40151 38.9347 2.78072 40.3614 3.14118 41.603C3.7069 43.5503 5.94476 44.7568 7.86221 44.1511C8.77838 43.8607 9.30906 43.2149 9.36413 42.2487C9.44424 40.9271 9.14386 39.7257 8.28276 38.9247Z" fill="#F8D948"/>
<path d="M311.726 161.149C312.532 160.067 312.582 159.126 312.031 158.245C311.381 157.214 310.55 156.773 309.388 157.099C308.252 157.414 307.13 157.855 306.064 158.36C305.113 158.811 304.642 160.197 304.917 161.329C305.173 162.385 305.909 163.031 307.075 163.061C308.998 163.106 310.55 162.255 311.726 161.149Z" fill="#F8D948"/>
<path d="M339.367 70.0775C340.708 70.1877 341.54 69.7321 341.99 68.796C342.521 67.6946 342.451 66.7585 341.565 65.9475C340.693 65.1515 339.727 64.4357 338.731 63.7949C337.845 63.2242 336.418 63.5646 335.607 64.3956C334.846 65.1715 334.691 66.1377 335.281 67.144C336.258 68.801 337.805 69.667 339.367 70.0775Z" fill="#F8D948"/>
<path d="M274.118 0.0121402C272.461 -0.103 271.44 0.602867 270.959 2.04463C270.533 3.31618 271.044 4.79297 272.145 5.45878C273.883 6.51007 276.346 5.88931 277.347 4.14218C277.823 3.31116 277.783 2.47014 277.167 1.72423C276.331 0.702989 275.295 0.0171463 274.118 0.0121402Z" fill="#F8D948"/>
</svg>
