<svg width="107" height="108" viewBox="0 0 107 108" fill="none" xmlns="http://www.w3.org/2000/svg">
<circle cx="53.5" cy="53.5" r="53.5" fill="#121314"/>
<path d="M91.3318 15.6896C81.2219 5.56901 67.792 0 53.5054 0C24.0003 0 0 24.0217 0 53.5482C0 83.0747 24.0003 107.096 53.5054 107.096C67.792 107.096 81.2326 101.527 91.3318 91.4068C101.442 81.2862 107 67.8456 107 53.5482C107 39.2508 101.442 25.7995 91.3318 15.6896ZM53.5054 103.391C26.0458 103.391 3.70553 81.0291 3.70553 53.5482C3.70553 26.0673 26.0458 3.70553 53.5054 3.70553C80.9649 3.70553 103.305 26.0673 103.305 53.5482C103.305 81.0291 80.9649 103.391 53.5054 103.391Z" fill="white"/>
<path d="M71.0692 54.8118C67.6421 51.7488 63.1548 49.7033 58.8067 47.722L58.7745 47.7113C51.1064 44.2092 44.4772 41.1784 44.9484 34.0137C45.1519 31.2827 47.1332 29.6334 48.761 28.7445C50.5924 27.7378 53.0235 27.1381 55.2725 27.1381C55.5402 27.1381 55.808 27.1488 56.065 27.1595C62.6086 27.5986 67.7706 30.3724 72.8149 36.1342L73.1148 36.4876L73.4682 36.1877L75.4387 34.4742L75.7922 34.1636L75.4816 33.8102C69.859 27.363 63.7545 24.118 56.2899 23.6146C55.9686 23.5825 55.6259 23.5718 55.2511 23.5718C55.0262 23.5718 54.7799 23.5718 54.5228 23.5825H54.2015C49.3072 23.5825 43.9417 25.1889 39.8613 27.8878C34.9884 31.1114 32.2575 35.5452 32.1825 40.3752C31.9897 52.1237 41.5963 56.0755 50.0676 59.5776L50.089 59.5883L50.1747 59.6204C57.6715 62.7262 64.1401 65.4036 64.0008 72.5791C63.9366 77.3127 57.1681 79.9259 52.5201 79.9259H52.3273H51.8668V79.9366C44.9377 79.7331 38.7475 76.7451 33.4677 71.0797L33.1464 70.737L32.8037 71.0476L30.8867 72.8254L30.5439 73.1467L30.8652 73.4894C36.8626 79.9473 44.263 83.4172 52.2738 83.5136H52.6379C57.8107 83.5136 63.4332 82.1214 67.6743 79.776C72.9862 76.8736 76.0813 72.6433 76.4026 67.8668C76.7667 62.6191 75.0211 58.346 71.0692 54.8118ZM46.2014 44.5948C49.2537 47.2079 53.3876 49.0821 57.3823 50.8921L57.4573 50.9242C61.6876 52.8733 65.693 54.7154 68.5953 57.275C71.8082 60.1023 73.1683 63.3795 72.8791 67.5884C72.6114 71.7544 69.5163 74.5389 66.6997 76.2204C67.2459 75.1066 67.5457 73.8964 67.5779 72.6112C67.6421 68.2845 65.9821 64.8253 62.4908 62.0194C59.4385 59.5669 55.3903 57.9069 51.4706 56.2897C43.3205 52.9376 35.6203 49.7675 35.7595 40.4073C35.8024 36.8089 37.9657 33.4032 41.8533 30.8222C41.9818 30.7365 42.1104 30.6508 42.2496 30.5652C41.7891 31.5719 41.532 32.6214 41.4678 33.7245C41.1572 38.0619 42.7101 41.6175 46.2014 44.5948Z" fill="white"/>
</svg>
