<svg width="16" height="15" viewBox="0 0 16 15" fill="none" xmlns="http://www.w3.org/2000/svg">
<path fill-rule="evenodd" clip-rule="evenodd" d="M8.50084 1.72757L10.1268 5.00357C10.2075 5.1689 10.3642 5.28357 10.5462 5.3109L14.1848 5.83823C14.3322 5.85757 14.4655 5.93557 14.5555 6.05423C14.7248 6.2749 14.6995 6.58957 14.4962 6.78023L11.8602 9.34023C11.7268 9.4649 11.6668 9.65023 11.7015 9.8289L12.3368 13.4376C12.3808 13.7376 12.1775 14.0162 11.8795 14.0656C11.7555 14.0849 11.6288 14.0649 11.5175 14.0089L8.27217 12.3082C8.1095 12.2196 7.9135 12.2196 7.7515 12.3082L4.48484 14.0209C4.21217 14.1582 3.8815 14.0549 3.7335 13.7896C3.67684 13.6822 3.65617 13.5582 3.67617 13.4376L4.3115 9.8289C4.34217 9.65023 4.28284 9.4669 4.15284 9.34023L1.49617 6.77957C1.2795 6.56357 1.27884 6.2129 1.49484 5.99557C1.4955 5.99557 1.4955 5.9949 1.49617 5.99423C1.58484 5.91357 1.69484 5.8589 1.8135 5.83823L5.45217 5.3109C5.63284 5.28157 5.7895 5.1669 5.8715 5.00357L7.4975 1.72757C7.56217 1.59423 7.67817 1.49223 7.81884 1.44557C7.9595 1.39823 8.1135 1.4089 8.24684 1.47623C8.35617 1.5309 8.44484 1.6189 8.50084 1.72757Z" stroke="#200E32" stroke-width="1.5" stroke-linecap="round" stroke-linejoin="round"/>
</svg>
