<svg width="16" height="16" viewBox="0 0 16 16" fill="none" xmlns="http://www.w3.org/2000/svg">
<path d="M15.278 0.325775L0.597258 6.08965C0.317962 6.19931 0.307818 6.59083 0.581034 6.7148L3.82654 8.18757C3.91444 8.2275 3.98119 8.3029 4.01012 8.39499L5.40257 12.8263C5.47291 13.05 5.74343 13.1368 5.93073 12.9957L8.35444 11.1696C8.47019 11.0824 8.62849 11.0784 8.74862 11.1594L12.8135 13.9017C13.0163 14.0385 13.2928 13.9224 13.3373 13.682L15.7359 0.703471C15.7844 0.441519 15.526 0.228431 15.278 0.325775ZM6.38187 8.81608L5.94391 11.3057L4.81339 7.74101L12.5641 2.93035L6.38187 8.81608Z" fill="#4E4B66"/>
</svg>
