<svg width="545" height="46" fill="none" xmlns="http://www.w3.org/2000/svg"><path d="M47.603 35.566c0 3.387-.973 5.833-2.921 7.338-1.838 1.417-4.793 2.125-8.866 2.125h-33.7l-1.13-7.57c3.055.686 6.375 1.03 9.961 1.03h21.15c.775 0 1.23-.111 1.362-.333.31-.243.465-.797.465-1.66V29.59c0-.863-.11-1.406-.332-1.627-.222-.222-.742-.332-1.56-.332h-19.59c-3.874 0-6.796-.73-8.766-2.192C1.706 23.98.72 21.555.72 18.168V9.801c0-3.52.963-5.977 2.888-7.371C5.557 1.035 8.501.338 12.441.338h33.303l1.461 7.537c-3.276-.708-6.707-1.063-10.293-1.063H16.127c-.863 0-1.395.111-1.594.333-.177.22-.265.785-.265 1.693v5.578c0 .996.066 1.572.199 1.727.155.154.708.232 1.66.232h19.69c4.072 0 7.05.708 8.931 2.125.908.686 1.605 1.627 2.092 2.822.509 1.196.763 2.7.763 4.516v9.728Zm51.274 2.524-1.494 6.906H63.947c-1.881 0-3.453-.177-4.715-.531-1.372-.377-2.457-.919-3.254-1.627-1.638-1.439-2.456-3.819-2.456-7.139V20.924c0-6.198 3.475-9.297 10.425-9.297h23.94c3.608 0 6.286.708 8.035 2.125 1.749 1.394 2.623 3.785 2.623 7.172V31.78H65.973v5.346c0 .907.066 1.406.199 1.494.133.155.365.244.697.266.266.044.51.066.73.066h23.674c.598 0 1.572-.044 2.922-.133 1.151-.066 2.712-.31 4.682-.73Zm-12.85-12.385v-6.209c0-.841-.1-1.35-.299-1.527-.199-.177-.663-.266-1.394-.266H67.6c-.775 0-1.24.089-1.395.266-.155.177-.232.686-.232 1.527v6.21h20.054ZM145.27 38.09l-1.262 6.906h-29.119c-3.675 0-6.342-.708-8.002-2.125-1.638-1.417-2.457-3.807-2.457-7.172V20.924c0-3.21.797-5.556 2.39-7.04 1.616-1.504 4.306-2.257 8.069-2.257h28.82l1.229 7.006-3.321-.764-1.162-.033-3.187-.133h-18.694c-.686 0-1.129.11-1.328.332-.177.221-.31.709-.398 1.461v17.631c0 .907.099 1.428.298 1.56.133.178.609.266 1.428.266h19.158c2.347 0 4.859-.288 7.538-.863Zm36.066-21.781c-.421.22-.963.664-1.627 1.328a2.51 2.51 0 0 1-.897 1.228c-.221.155-.332.321-.332.498l-5.046-.365-3.653-.133h-5.246c-.73 0-1.184.1-1.361.3-.133.088-.244.497-.332 1.228v16.734c0 1.527.088 2.9.265 4.117a23.37 23.37 0 0 0 .897 3.785h-14.576l.498-2.888.265-1.063.133-4.018-.133-21.548c-.022-.598-.11-1.052-.265-1.362l-.764-2.523h12.385l.265 1.162.2-.133c1.04-.686 2.656-1.029 4.847-1.029h9.995l4.482 4.682Zm47.588 21.78-1.494 6.907h-33.436c-1.881 0-3.453-.177-4.715-.531-1.372-.377-2.457-.919-3.254-1.627-1.638-1.439-2.457-3.819-2.457-7.139V20.924c0-6.198 3.476-9.297 10.426-9.297h23.94c3.608 0 6.286.708 8.035 2.125 1.748 1.394 2.623 3.785 2.623 7.172V31.78H196.02v5.346c0 .907.066 1.406.199 1.494.133.155.365.244.697.266a4.5 4.5 0 0 0 .73.066h23.674c.598 0 1.572-.044 2.922-.133 1.151-.066 2.712-.31 4.682-.73Zm-12.85-12.384v-6.209c0-.841-.099-1.35-.299-1.527-.199-.177-.664-.266-1.394-.266h-16.735c-.774 0-1.239.089-1.394.266-.155.177-.232.686-.232 1.527v6.21h20.054Zm53.697 11.953-1.228 7.338H249.02c-3.498 0-6.132-.741-7.903-2.224-.752-.62-1.383-1.616-1.892-2.989-.465-1.24-.698-2.667-.698-4.283V17.57h-6.408v-5.943h6.408V5.451l12.518-1.527v7.703h15.838v5.943h-15.838v19.092c0 .908.144 1.516.432 1.826.287.31.874.465 1.759.465h7.205a41.68 41.68 0 0 0 4.881-.266 22.935 22.935 0 0 0 4.449-1.029Z" fill="#999"/><path d="m44.682 42.904.305.396-.305-.396ZM2.115 45.03l-.494.074.063.426h.431v-.5ZM.986 37.46l.11-.488-.712-.16.108.722.494-.074Zm32.473.697-.309-.393-.072.057-.048.079.429.257ZM3.676 25.44l-.298.401.298-.402ZM3.609 2.43l-.29-.407-.003.002.293.405ZM45.744.338l.491-.095-.078-.405h-.413v.5Zm1.461 7.537-.106.489.741.16-.144-.744-.49.095Zm-32.672-.73-.371-.335-.01.01-.01.012.391.313Zm-.066 8.998-.38.325.013.015.013.013.354-.353ZM44.748 18.5l.302-.399h-.001l-.301.399Zm2.092 2.822-.463.189.003.007.46-.196Zm.263 14.244c0 3.294-.944 5.564-2.727 6.943l.611.79c2.113-1.631 3.116-4.253 3.116-7.733h-1Zm-2.727 6.942c-1.705 1.315-4.523 2.021-8.56 2.021v1c4.11 0 7.201-.71 9.171-2.229l-.61-.792Zm-8.56 2.021h-33.7v1h33.7v-1Zm-33.206.427-1.13-7.57-.988.147 1.129 7.57.989-.147Zm-1.733-7.01c3.095.696 6.453 1.042 10.07 1.042v-1c-3.554 0-6.837-.34-9.851-1.017l-.22.976Zm10.07 1.042h21.15v-1h-21.15v1Zm21.15 0c.405 0 .758-.028 1.04-.097.261-.064.578-.189.75-.477l-.857-.515c.04-.067.063-.026-.13.02-.17.042-.432.07-.802.07v1Zm1.67-.439c.27-.21.429-.521.522-.856.094-.336.135-.74.135-1.197h-1c0 .407-.037.711-.098.928-.061.22-.135.307-.176.34l.618.785Zm.657-2.053V29.59h-1v6.906h1Zm0-6.906a5.98 5.98 0 0 0-.093-1.154c-.062-.303-.17-.611-.386-.827l-.707.707s.016.017.04.072c.025.055.05.136.073.248.046.225.073.54.073.954h1Zm-.479-1.98c-.211-.212-.51-.322-.805-.385a5.457 5.457 0 0 0-1.109-.094v1c.391 0 .688.027.9.072.225.048.298.104.307.113l.707-.707Zm-1.914-.48h-19.59v1h19.59v-1Zm-19.59 0c-3.824 0-6.62-.723-8.467-2.092l-.596.803c2.093 1.552 5.14 2.29 9.063 2.29v-1Zm-8.467-2.092c-1.799-1.334-2.753-3.577-2.753-6.87h-1c0 3.48 1.015 6.085 3.157 7.673l.596-.803Zm-2.753-6.87V9.801h-1v8.367h1Zm0-8.367c0-3.44.94-5.705 2.682-6.966l-.587-.81C1.206 3.552.221 6.202.221 9.8h1ZM3.9 2.836C5.723 1.53 8.543.838 12.44.838v-1c-3.983 0-7.05.702-9.123 2.185l.582.813ZM12.44.838h33.303v-1H12.441v1ZM45.253.433l1.461 7.537.982-.19L46.235.243l-.982.19Zm2.058 6.953c-3.313-.716-6.78-1.074-10.399-1.074v1c3.553 0 6.948.351 10.187 1.052l.212-.978ZM36.912 6.312H16.127v1h20.785v-1Zm-20.785 0c-.448 0-.835.029-1.148.094-.295.061-.609.172-.817.404l.743.669c-.01.01.042-.045.278-.094.219-.046.529-.072.944-.072v-1Zm-1.984.52c-.175.219-.256.527-.303.824a7.88 7.88 0 0 0-.072 1.182h1c0-.441.021-.78.06-1.027.02-.122.041-.213.063-.276.022-.066.037-.084.033-.078l-.781-.625Zm-.375 2.006v5.578h1V8.838h-1Zm0 5.578c0 .506.016.92.053 1.236.018.157.042.302.076.427a.99.99 0 0 0 .19.389l.76-.65c.04.046.034.069.015-.002a1.977 1.977 0 0 1-.048-.279c-.03-.26-.046-.63-.046-1.121h-1Zm.345 2.08a.97.97 0 0 0 .389.223c.127.042.272.071.427.093.31.043.713.063 1.198.063v-1c-.466 0-.816-.02-1.06-.053a1.538 1.538 0 0 1-.253-.053c-.06-.02-.036-.023.006.02l-.707.707Zm2.014.379h19.69v-1h-19.69v1Zm19.69 0c4.035 0 6.879.706 8.63 2.024l.602-.798c-2.012-1.515-5.122-2.226-9.233-2.226v1Zm8.63 2.024c.826.625 1.472 1.488 1.93 2.612l.926-.377c-.516-1.268-1.265-2.285-2.253-3.033l-.603.798Zm1.933 2.62c.474 1.113.723 2.546.723 4.319h1c0-1.858-.26-3.435-.803-4.712l-.92.392Zm.723 4.319v9.728h1v-9.728h-1ZM98.877 38.09l.489.106.163-.757-.756.162.104.489Zm-1.494 6.906v.5h.403l.085-.394-.488-.106Zm-38.15-.531.135-.482h-.003l-.133.482Zm-3.255-1.627.333-.374-.002-.002-.33.376Zm39.944-29.086-.315.388.003.003.312-.391Zm2.623 18.03v.5h.5v-.5h-.5Zm-32.572 0v-.5h-.5v.5h.5Zm.199 6.84.38-.326-.045-.053-.058-.038-.277.416Zm.697.265.082-.493-.024-.005-.025-.001-.033.499Zm27.326-.067-.028-.499h-.004l.032.5Zm-8.168-13.115v.5h.5v-.5h-.5Zm-20.054 0h-.5v.5h.5v-.5Zm32.415 12.28-1.494 6.905.977.212 1.495-6.906-.978-.212Zm-1.005 6.511H63.947v1h33.436v-1Zm-33.436 0c-1.854 0-3.376-.175-4.58-.513l-.27.963c1.32.37 2.941.55 4.85.55v-1Zm-4.582-.513c-1.322-.363-2.33-.876-3.054-1.519l-.665.748c.87.773 2.031 1.345 3.454 1.735l.265-.964Zm-3.056-1.52c-1.484-1.304-2.287-3.512-2.287-6.764h-1c0 3.389.834 5.94 2.627 7.515l.66-.752Zm-2.287-6.764V20.924h-1v14.775h1Zm0-14.775c0-3.006.84-5.174 2.439-6.6 1.61-1.435 4.075-2.197 7.486-2.197v-1c-3.539 0-6.287.788-8.152 2.451-1.876 1.673-2.773 4.154-2.773 7.346h1Zm9.925-8.797h23.94v-1h-23.94v1Zm23.94 0c3.558 0 6.1.701 7.72 2.013l.63-.777c-1.878-1.52-4.692-2.236-8.35-2.236v1Zm7.723 2.016c1.579 1.259 2.435 3.466 2.435 6.78h1c0-3.458-.893-6.032-2.811-7.562l-.624.782Zm2.435 6.78v10.858h1V20.924h-1Zm.5 10.358H65.973v1h32.572v-1Zm-33.072.5v5.346h1v-5.346h-1Zm0 5.346c0 .461.016.838.054 1.12.018.14.044.275.084.392a.76.76 0 0 0 .283.398l.555-.832c.112.075.127.165.11.112a1.165 1.165 0 0 1-.04-.202 8.033 8.033 0 0 1-.046-.988h-1Zm.32 1.82c.261.305.658.413 1.043.439l.066-.998c-.278-.019-.347-.088-.35-.092l-.76.65Zm.994.433c.287.048.559.073.813.073v-1c-.19 0-.405-.019-.649-.06l-.164.987Zm.813.073h23.673v-1H67.6v1Zm23.673 0c.616 0 1.604-.045 2.955-.134l-.065-.998c-1.35.089-2.31.132-2.89.132v1Zm2.951-.134c1.189-.068 2.778-.318 4.757-.74l-.208-.978c-1.961.418-3.493.656-4.606.72l.057.998Zm-7.697-13.614v-6.209h-1v6.21h1Zm0-6.209c0-.435-.025-.81-.084-1.109-.054-.275-.153-.588-.382-.792l-.665.748c-.03-.027.02.003.066.236.041.21.065.511.065.917h1Zm-.466-1.901c-.202-.179-.475-.267-.737-.317a5.425 5.425 0 0 0-.99-.075v1c.349 0 .613.022.803.058.203.038.261.083.26.082l.664-.748Zm-1.727-.392H67.6v1h16.734v-1Zm-16.734 0a5.65 5.65 0 0 0-1.024.075c-.249.048-.552.138-.747.362l.752.658c-.04.046-.033.004.182-.037a4.7 4.7 0 0 1 .837-.058v-1Zm-1.771.437c-.18.206-.253.508-.292.768a7.49 7.49 0 0 0-.064 1.088h1c0-.409.019-.718.052-.937.038-.249.082-.29.056-.261l-.752-.658Zm-.356 1.856v6.21h1v-6.21h-1Zm.5 6.71h20.054v-1H65.973v1ZM145.27 38.09l.491.09.135-.736-.732.157.106.489Zm-1.262 6.906v.5h.417l.075-.41-.492-.09Zm-37.121-2.125-.327.378.002.002.325-.38Zm-.067-28.986.341.366-.341-.366Zm36.889-2.258.492-.086-.072-.414h-.42v.5Zm1.229 7.006-.113.487.735.17-.13-.743-.492.086Zm-3.321-.764.112-.487-.048-.011-.05-.002-.014.5Zm-1.162-.033-.021.5h.007l.014-.5Zm-3.187-.133.02-.5h-.02v.5Zm-20.022.332-.372-.334-.009.01-.009.012.39.312Zm-.398 1.461-.497-.058-.003.029v.03h.5Zm.298 19.192.4-.3-.051-.069-.071-.047-.278.416ZM144.778 38l-1.262 6.906.984.18 1.261-6.906-.983-.18Zm-.77 6.496h-29.119v1h29.119v-1Zm-29.119 0c-3.631 0-6.152-.704-7.678-2.005l-.649.76c1.795 1.532 4.608 2.245 8.327 2.245v-1Zm-7.675-2.003c-1.48-1.28-2.284-3.494-2.284-6.794h-1c0 3.43.833 5.996 2.63 7.55l.654-.756Zm-2.284-6.794V20.924h-1v14.775h1Zm0-14.775c0-3.137.779-5.322 2.231-6.673l-.681-.732c-1.736 1.615-2.55 4.123-2.55 7.405h1Zm2.231-6.673c1.477-1.376 4.009-2.124 7.728-2.124v-1c-3.807 0-6.655.757-8.409 2.392l.681.732Zm7.728-2.124h28.82v-1h-28.82v1Zm28.327-.414 1.229 7.006.985-.172-1.229-7.006-.985.172Zm1.834 6.432-3.321-.763-.224.974 3.32.764.225-.975Zm-3.419-.776-1.162-.033-.028 1 1.162.033.028-1Zm-1.155-.033-3.188-.132-.041.999 3.187.133.042-1Zm-3.208-.133h-18.694v1h18.694v-1Zm-18.694 0c-.365 0-.692.03-.968.098-.27.068-.539.185-.732.4l.744.669c.006-.007.058-.056.231-.099.167-.042.405-.068.725-.068v-1Zm-1.718.52c-.153.19-.252.446-.325.712a7.076 7.076 0 0 0-.18 1.003l.993.117c.043-.363.095-.646.152-.857.06-.221.116-.32.141-.35l-.781-.625Zm-.508 1.773v17.631h1v-17.63h-1Zm0 17.631c0 .466.025.86.083 1.165.03.152.07.3.13.431a.897.897 0 0 0 .308.38l.555-.831c.057.037.063.072.046.035a1.028 1.028 0 0 1-.057-.203c-.041-.215-.065-.536-.065-.977h-1Zm.398 1.86a.9.9 0 0 0 .364.275c.123.053.261.09.402.116.281.053.64.075 1.062.075v-1a5.12 5.12 0 0 1-.88-.058.907.907 0 0 1-.184-.05c-.033-.014-.002-.009.036.043l-.8.6Zm1.828.466h19.158v-1h-19.158v1Zm19.158 0c2.387 0 4.935-.293 7.643-.874l-.211-.978c-2.649.57-5.126.852-7.432.852v1Zm43.604-23.144.233.442.587-.309-.459-.48-.361.347Zm-1.627 1.328-.354-.354-.081.081-.037.108.472.165Zm-.897 1.228.287.41.01-.007-.297-.403Zm-.332.498-.036.499.536.039v-.538h-.5Zm-5.046-.365.036-.499h-.018l-.018.499Zm-3.653-.133.018-.5h-.018v.5Zm-6.607.3.277.415.054-.036.043-.048-.374-.332Zm-.332 1.228-.497-.06-.003.03v.03h.5Zm1.162 24.636v.5h.686l-.21-.653-.476.153Zm-14.576 0-.493-.085-.101.585h.594v-.5Zm.498-2.888-.485-.122-.005.018-.003.019.493.085Zm.265-1.063.485.121.013-.051.002-.053-.5-.017Zm.133-4.018.5.017v-.02l-.5.003Zm-.133-21.548.5-.003v-.016l-.5.019Zm-.265-1.362-.479.145.013.04.019.039.447-.224Zm-.764-2.523v-.5h-.674l.196.645.478-.145Zm12.385 0 .487-.112-.089-.388h-.398v.5Zm.265 1.162-.487.111.162.707.603-.402-.278-.416Zm.2-.133-.276-.417-.002.001.278.416Zm14.842-1.029.361-.346-.148-.154h-.213v.5Zm4.249 4.24c-.49.257-1.076.744-1.748 1.416l.708.707c.656-.656 1.154-1.054 1.506-1.239l-.466-.885Zm-1.866 1.605a2.011 2.011 0 0 1-.721.99l.593.806a3.01 3.01 0 0 0 1.072-1.467l-.944-.328Zm-.711.984c-.282.197-.546.495-.546.907h1c0 .023-.008.032 0 .02a.452.452 0 0 1 .119-.108l-.573-.82Zm-.009.409-5.047-.366-.072.998 5.046.365.073-.997Zm-5.065-.367-3.653-.132-.036.999 3.652.133.037-1Zm-3.671-.133h-5.246v1h5.246v-1Zm-5.246 0a4.76 4.76 0 0 0-.995.087c-.262.057-.546.162-.74.38l.748.664c-.017.02.014-.026.206-.068.178-.039.434-.063.781-.063v-1Zm-1.639.383a.818.818 0 0 0-.267.323c-.05.102-.088.217-.12.336a6.892 6.892 0 0 0-.164.925l.993.12c.043-.355.09-.613.136-.784a.85.85 0 0 1 .054-.158c.016-.034 0 .02-.077.07l-.555-.832Zm-.554 1.645v16.734h1V20.393h-1Zm0 16.734c0 1.546.089 2.943.271 4.19l.989-.145c-.173-1.189-.26-2.536-.26-4.045h-1Zm.271 4.19c.181 1.247.487 2.536.915 3.866l.952-.307a22.856 22.856 0 0 1-.878-3.704l-.989.144Zm1.391 3.212h-14.576v1h14.576v-1Zm-14.084.585.499-2.888-.986-.17-.498 2.888.985.17Zm.491-2.852.265-1.063-.97-.242-.265 1.062.97.243Zm.28-1.167.133-4.018-1-.033-.132 4.018.999.033Zm.133-4.038-.133-21.548-1 .006.133 21.549 1-.007Zm-.133-21.564c-.023-.624-.116-1.162-.318-1.566l-.894.447c.107.216.192.585.213 1.156l.999-.037Zm-.287-1.487-.763-2.524-.957.29.763 2.523.957-.29Zm-1.242-1.879h12.385v-1h-12.385v1Zm11.897-.389.266 1.162.975-.222-.266-1.163-.975.223Zm1.031 1.467.199-.133-.555-.832-.199.133.555.832Zm.197-.131c.917-.605 2.414-.947 4.572-.947v-1c-2.224 0-3.959.345-5.123 1.112l.551.835Zm4.572-.947h9.995v-1h-9.995v1Zm9.633-.154 4.483 4.681.722-.691-4.482-4.682-.723.692Zm52.432 26.117.489.106.163-.757-.757.162.105.489Zm-1.494 6.906v.5h.403l.085-.394-.488-.106Zm-38.151-.531.135-.482h-.002l-.133.482Zm-3.254-1.627.333-.374-.003-.002-.33.376Zm39.944-29.086-.315.388.003.003.312-.391Zm2.623 18.03v.5h.5v-.5h-.5Zm-32.572 0v-.5h-.5v.5h.5Zm.199 6.84.379-.326-.045-.053-.057-.038-.277.416Zm.697.265.082-.493-.024-.005-.025-.001-.033.499Zm27.326-.067-.029-.499h-.004l.033.5Zm-8.168-13.115v.5h.5v-.5h-.5Zm-20.054 0h-.5v.5h.5v-.5Zm32.415 12.28-1.494 6.905.977.212 1.495-6.906-.978-.212Zm-1.005 6.511h-33.436v1h33.436v-1Zm-33.436 0c-1.854 0-3.376-.175-4.58-.513l-.27.963c1.32.37 2.941.55 4.85.55v-1Zm-4.582-.513c-1.322-.363-2.331-.876-3.054-1.519l-.665.748c.87.773 2.031 1.345 3.454 1.735l.265-.964Zm-3.057-1.52c-1.484-1.304-2.287-3.512-2.287-6.764h-1c0 3.389.835 5.94 2.627 7.515l.66-.752Zm-2.287-6.764V20.924h-1v14.775h1Zm0-14.775c0-3.006.841-5.174 2.44-6.6 1.61-1.435 4.075-2.197 7.486-2.197v-1c-3.539 0-6.287.788-8.152 2.451-1.876 1.673-2.774 4.154-2.774 7.346h1Zm9.926-8.797h23.94v-1h-23.94v1Zm23.94 0c3.558 0 6.1.701 7.72 2.013l.629-.777c-1.877-1.52-4.691-2.236-8.349-2.236v1Zm7.723 2.016c1.579 1.259 2.435 3.466 2.435 6.78h1c0-3.458-.893-6.032-2.812-7.562l-.623.782Zm2.435 6.78v10.858h1V20.924h-1Zm.5 10.358H196.02v1h32.572v-1Zm-33.072.5v5.346h1v-5.346h-1Zm0 5.346c0 .461.016.838.054 1.12.018.14.044.275.084.392a.76.76 0 0 0 .283.398l.555-.832c.112.075.127.165.109.112a1.223 1.223 0 0 1-.04-.202 8.031 8.031 0 0 1-.045-.988h-1Zm.319 1.82c.262.305.659.413 1.044.439l.066-.998c-.279-.019-.347-.088-.351-.092l-.759.65Zm.995.433c.287.048.558.073.812.073v-1c-.188 0-.404-.019-.648-.06l-.164.987Zm.812.073h23.674v-1h-23.674v1Zm23.674 0c.616 0 1.604-.045 2.955-.134l-.066-.998c-1.349.089-2.309.132-2.889.132v1Zm2.951-.134c1.188-.068 2.778-.318 4.757-.74l-.209-.978c-1.96.418-3.492.656-4.606.72l.058.998Zm-7.697-13.614v-6.209h-1v6.21h1Zm0-6.209c0-.435-.025-.81-.084-1.109-.054-.275-.153-.588-.382-.792l-.665.748c-.03-.027.02.003.066.236.041.21.065.511.065.917h1Zm-.466-1.901c-.202-.179-.475-.267-.737-.317a5.422 5.422 0 0 0-.99-.075v1c.349 0 .613.022.803.058.203.038.261.083.259.082l.665-.748Zm-1.727-.392h-16.735v1h16.735v-1Zm-16.735 0c-.401 0-.746.023-1.023.075-.249.048-.552.138-.747.362l.752.658c-.04.046-.033.004.182-.037.189-.036.463-.058.836-.058v-1Zm-1.77.437c-.181.206-.253.508-.293.768-.044.29-.063.656-.063 1.088h1c0-.409.019-.718.052-.937.038-.249.082-.29.056-.261l-.752-.658Zm-.356 1.856v6.21h1v-6.21h-1Zm.5 6.71h20.054v-1H196.02v1Zm73.751 11.452.494.083.137-.82-.789.263.158.474Zm-1.228 7.338v.5h.423l.07-.417-.493-.083Zm-27.426-2.224.321-.384-.003-.002-.318.386Zm-1.892-2.989.468-.174v-.001l-.468.175Zm-.698-22.213h.5v-.5h-.5v.5Zm-6.408 0h-.5v.5h.5v-.5Zm0-5.943v-.5h-.5v.5h.5Zm6.408 0v.5h.5v-.5h-.5Zm0-6.176-.06-.496-.44.053v.443h.5Zm12.518-1.527h.5v-.565l-.561.069.061.496Zm0 7.703h-.5v.5h.5v-.5Zm15.838 0h.5v-.5h-.5v.5Zm0 5.943v.5h.5v-.5h-.5Zm-15.838 0v-.5h-.5v.5h.5Zm14.277 21.117.059.497h.002l-.061-.496Zm3.956-1.111-1.228 7.337.986.166 1.229-7.338-.987-.165Zm-.735 6.92H249.02v1h19.523v-1Zm-19.523 0c-3.438 0-5.937-.73-7.582-2.108l-.642.767c1.897 1.589 4.667 2.341 8.224 2.341v-1Zm-7.585-2.11c-.659-.543-1.249-1.449-1.742-2.777l-.937.348c.525 1.417 1.197 2.503 2.043 3.2l.636-.771Zm-1.742-2.778c-.44-1.173-.666-2.54-.666-4.108h-1c0 1.663.239 3.152.729 4.459l.937-.351Zm-.666-4.108V17.57h-1V35.5h1Zm-.5-18.43h-6.408v1h6.408v-1Zm-5.908.5v-5.943h-1v5.943h1Zm-.5-5.443h6.408v-1h-6.408v1Zm6.908-.5V5.451h-1v6.176h1Zm-.439-5.68 12.517-1.527-.121-.992-12.517 1.527.121.992Zm11.957-2.023v7.703h1V3.924h-1Zm.5 8.203h15.838v-1h-15.838v1Zm15.338-.5v5.943h1v-5.943h-1Zm.5 5.443h-15.838v1h15.838v-1Zm-16.338.5v19.092h1V17.57h-1Zm0 19.092c0 .477.037.898.121 1.252.083.351.22.673.444.914l.733-.68c-.063-.068-.143-.206-.204-.464a4.568 4.568 0 0 1-.094-1.022h-1Zm.565 2.166c.231.249.548.4.895.492.349.093.763.133 1.231.133v-1c-.417 0-.739-.037-.976-.1-.24-.063-.36-.143-.417-.205l-.733.68Zm2.126.625h7.205v-1h-7.205v1Zm7.205 0c1.766 0 3.412-.09 4.94-.269l-.117-.993a41.397 41.397 0 0 1-4.823.262v1Zm4.942-.27a23.447 23.447 0 0 0 4.547-1.05l-.317-.95a22.37 22.37 0 0 1-4.352 1.008l.122.993Zm80.306 3.721-.302-.398h-.001l.303.398Zm-48.011 2.125-.428-.258-.459.758h.887v-.5Zm1.295-2.789.481.134.008-.029.005-.029-.494-.076Zm.199-.963.485.122.014-.055.001-.057-.5-.01Zm.066-3.486.5.01v-.014l-.5.004Zm-.265-34.664.5-.004-.001-.089-.031-.083-.468.176Zm-.332-.963.478-.147-.008-.023-.009-.022-.461.192Zm-.897-1.826v-.5h-.844l.406.74.438-.24Zm48.012 2.125-.301.4.005.003.296-.403Zm.465 19.158-.243-.437-.002.001.245.436Zm-1.063.598-.245-.436-.794.446.803.43.236-.44Zm.93.498-.236.44.003.002.233-.442Zm1.926 2.158.452-.214-.001-.002-.451.216ZM333.039 6.812l.051-.497-.025-.003h-.026v.5Zm-19.922 0v-.5h-.5v.5h.5Zm0 12.153h-.5v.5h.5v-.5Zm21.35-.332-.32-.384-.039.032-.032.04.391.312Zm0 6.94.353-.354-.353.353Zm-1.428-.266.051-.498-.025-.002h-.026v.5Zm-19.922 0v-.5h-.5v.5h.5Zm0 13.181h-.5v.5h.5v-.5Zm21.35-.265-.368-.34-.048.053-.031.063.447.224Zm13.644-2.524c0 3.224-.942 5.45-2.724 6.808l.605.795c2.113-1.609 3.119-4.186 3.119-7.603h-1Zm-2.725 6.808c-1.729 1.317-4.538 2.022-8.529 2.022v1c4.067 0 7.146-.71 9.135-2.227l-.606-.795Zm-8.529 2.022h-39.179v1h39.179v-1Zm-38.751.759c.655-1.084 1.11-2.057 1.348-2.914l-.963-.268c-.205.737-.612 1.624-1.241 2.665l.856.517Zm1.361-2.972c.041-.269.104-.575.19-.917l-.97-.243a11.36 11.36 0 0 0-.209 1.008l.989.152Zm.205-1.03.066-3.486-1-.018-.066 3.486 1 .019Zm.066-3.499-.265-34.664-1 .008.265 34.664 1-.008Zm-.297-34.836c-.13-.347-.238-.658-.322-.934l-.956.294c.092.3.206.63.341.992l.937-.352Zm-.339-.98a19.832 19.832 0 0 0-.919-1.874l-.877.481c.37.676.661 1.268.873 1.778l.923-.384ZM297.744.839h39.113v-1h-39.113v1Zm39.113 0c4.013 0 6.846.705 8.598 2.024l.602-.799c-2.012-1.514-5.11-2.225-9.2-2.225v1Zm8.603 2.028c1.727 1.265 2.651 3.449 2.651 6.702h1c0-3.43-.979-5.985-3.06-7.508l-.591.806Zm2.651 6.702v6.475h1V9.568h-1Zm0 6.475c0 2.76-.774 4.386-2.133 5.141l.486.874c1.828-1.016 2.647-3.109 2.647-6.015h-1Zm-2.135 5.142-1.063.598.49.871 1.063-.597-.49-.872Zm-1.054 1.475.93.497.472-.88-.93-.499-.472.882Zm.933.499c.68.359 1.255.986 1.708 1.932l.902-.432c-.522-1.09-1.23-1.902-2.144-2.384l-.466.884Zm1.707 1.93c.353.745.549 1.844.549 3.339h1c0-1.56-.201-2.83-.645-3.767l-.904.428Zm.549 3.339V35.7h1v-7.271h-1Zm-12.746-11.621v-7.77h-1v7.77h1Zm0-7.77c0-.537-.034-.997-.109-1.37-.073-.357-.198-.705-.436-.942l-.707.707c.028.028.103.14.163.435.057.28.089.667.089 1.17h1Zm-.545-2.312a.67.67 0 0 0-.189-.131 1.2 1.2 0 0 0-.154-.06 2.97 2.97 0 0 0-.342-.08 13.711 13.711 0 0 0-1.045-.139l-.102.995c.427.044.746.086.964.127.11.02.183.038.226.052.022.007.027.01.022.007a.317.317 0 0 1-.087-.064l.707-.707Zm-1.781-.412h-19.922v1h19.922v-1Zm-20.422.5v12.152h1V6.813h-1Zm.5 12.652h19.988v-1h-19.988v1Zm19.988 0a4.35 4.35 0 0 0 1.007-.097c.271-.066.556-.186.745-.423l-.781-.625c.013-.015-.017.031-.201.076a3.4 3.4 0 0 1-.77.069v1Zm1.682-.448c.264-.22.394-.564.467-.9.077-.354.111-.795.111-1.31h-1c0 .48-.032.842-.088 1.097a1.254 1.254 0 0 1-.087.274c-.028.06-.047.074-.043.07l.64.769Zm.578 17.213v-8.765h-1v8.765h1Zm0-8.765c0-.516-.034-.961-.11-1.323-.074-.35-.2-.689-.435-.923l-.707.707c.031.03.104.14.163.422.057.268.089.637.089 1.117h1Zm-.545-2.246a.669.669 0 0 0-.189-.131 1.193 1.193 0 0 0-.154-.06 2.964 2.964 0 0 0-.342-.08 13.716 13.716 0 0 0-1.045-.139l-.102.995c.427.044.746.087.964.127.11.02.183.038.226.052.022.007.027.01.022.007a.296.296 0 0 1-.087-.064l.707-.707Zm-1.781-.412h-19.922v1h19.922v-1Zm-20.422.5v13.181h1V25.307h-1Zm.5 13.681h19.988v-1h-19.988v1Zm19.988 0c.422 0 .777-.022 1.051-.075.136-.027.274-.065.396-.125a.776.776 0 0 0 .362-.342L334.02 38c.046-.093.11-.118.092-.11a.657.657 0 0 1-.148.042 4.84 4.84 0 0 1-.859.057v1Zm1.729-.426c.226-.245.349-.59.422-.955.075-.377.109-.839.109-1.377h-1c0 .503-.032.893-.09 1.18-.06.3-.136.43-.176.474l.735.678Zm62.727 4.21.33.374.002-.001-.332-.373Zm-3.288 1.593-.133-.482-.007.002.14.48Zm-33.568.1.135-.482h-.003l-.132.482Zm-3.254-1.627.332-.374-.002-.002-.33.376Zm39.944-29.086-.315.388.003.003.312-.391Zm-29.75 24.87.353-.355-.035-.035-.041-.027-.277.416Zm.066.032.317-.387-.139-.113h-.178v.5Zm31.807-2.955c0 3.181-.801 5.371-2.29 6.7l.665.746c1.787-1.594 2.625-4.119 2.625-7.446h-1Zm-2.288 6.698c-.675.595-1.692 1.1-3.09 1.486l.267.964c1.479-.41 2.654-.968 3.484-1.7l-.661-.75Zm-3.097 1.488c-1.384.405-2.974.611-4.774.611v1c1.875 0 3.561-.214 5.055-.65l-.281-.96Zm-4.774.611H365.42v1h23.939v-1Zm-23.939 0c-1.854 0-3.377-.175-4.58-.513l-.27.963c1.32.37 2.941.55 4.85.55v-1Zm-4.583-.513c-1.322-.363-2.33-.876-3.054-1.519l-.664.748c.87.773 2.031 1.345 3.454 1.735l.264-.964Zm-3.056-1.52c-1.484-1.304-2.287-3.512-2.287-6.764h-1c0 3.389.835 5.94 2.627 7.515l.66-.752Zm-2.287-6.764V20.924h-1v14.775h1Zm0-14.775c0-3.006.84-5.174 2.439-6.6 1.61-1.435 4.076-2.197 7.487-2.197v-1c-3.539 0-6.287.788-8.152 2.451-1.876 1.673-2.774 4.154-2.774 7.346h1Zm9.926-8.797h23.939v-1H365.42v1Zm23.939 0c3.558 0 6.101.701 7.721 2.013l.629-.777c-1.877-1.52-4.692-2.236-8.35-2.236v1Zm7.724 2.016c1.579 1.259 2.435 3.466 2.435 6.78h1c0-3.458-.893-6.032-2.812-7.562l-.623.782Zm2.435 6.78V35.7h1V20.924h-1ZM388 37.06V19.496h-1V37.06h1Zm0-17.564c0-.435-.025-.81-.084-1.109-.054-.275-.154-.588-.383-.792l-.664.748c-.03-.027.02.003.066.236.041.21.065.511.065.917h1Zm-.467-1.901c-.201-.179-.475-.267-.736-.317a5.43 5.43 0 0 0-.99-.075v1c.348 0 .613.022.803.058.203.038.261.083.259.082l.664-.748Zm-1.726-.392h-16.735v1h16.735v-1Zm-16.735 0c-.401 0-.747.023-1.023.075-.249.048-.552.138-.748.362l.753.658c-.04.046-.034.004.182-.037.189-.036.463-.058.836-.058v-1Zm-1.771.437c-.18.206-.252.508-.292.768-.044.29-.064.656-.064 1.088h1c0-.409.019-.718.053-.937.038-.249.082-.29.056-.261l-.753-.658Zm-.356 1.856v17.631h1v-17.63h-1Zm0 17.631c0 .461.017.838.055 1.12.018.14.044.275.084.392a.76.76 0 0 0 .283.398l.555-.832c.112.075.127.165.109.112a1.12 1.12 0 0 1-.04-.202 7.985 7.985 0 0 1-.046-.988h-1Zm.346 1.848c.077.076.218.18.42.18v-1c.157 0 .255.08.287.112l-.707.708Zm.103.066c.205.168.463.267.733.326.273.06.591.086.945.086v-1c-.31 0-.551-.023-.731-.063-.184-.04-.275-.09-.313-.123l-.634.774Zm1.678.412h16.735v-1h-16.735v1Zm16.735 0c.381 0 .715-.023.99-.075.261-.05.535-.138.736-.317l-.664-.747c.002-.002-.056.043-.259.081a4.39 4.39 0 0 1-.803.058v1Zm1.726-.392c.235-.208.332-.539.384-.823.058-.313.083-.71.083-1.178h-1c0 .44-.025.77-.066.998-.048.258-.1.287-.065.256l.664.747Zm62.696 5.968v.5h1.319l-.988-.874-.331.374Zm-18.196 0-.457.203.132.297h.325v-.5Zm-.963-2.125.455-.209-.006-.013-.007-.012-.442.234Zm-1.095-1.627-.366.341.002.002.364-.343Zm-6.475-6.94.366-.34-.333-.357-.365.324.332.374Zm-7.604 6.741-.331-.374-.01.008-.009.01.35.356Zm-1.859 1.826.277.416.04-.026.033-.033-.35-.357Zm-1.228 2.125v.5h.324l.132-.296-.456-.204Zm-12.784 0-.292-.405-1.254.905h1.546v-.5Zm7.172-5.18.293.406.012-.009.012-.01-.317-.386Zm3.653-2.988.316.387.007-.006.007-.006-.33-.375Zm8.168-7.205.33.375.375-.33-.33-.375-.375.33Zm-2.723-3.088.375-.33-.007-.008-.007-.008-.361.346Zm-2.391-2.49.361-.346-.004-.005-.357.351Zm-8.433-8.566.356-.351-.01-.01-.01-.01-.336.37Zm-4.283-3.885v-.5h-1.296l.96.87.336-.37Zm18.162 0 .491-.094-.078-.406h-.413v.5Zm1.361 2.855-.387.318.003.002.384-.32Zm2.324 2.79-.384.32.01.012.011.01.363-.343Zm4.549 4.814-.363.343.329.35.362-.316-.328-.377Zm7.969-6.94.328.378.013-.012.012-.012-.353-.354Zm1.627-1.627.353.354.041-.041.031-.05-.425-.262Zm1.129-1.826v-.5h-.279l-.147.237.426.263Zm11.92 0 .306.395 1.151-.895h-1.457v.5Zm-9.098 7.073-.307-.395-.012.01-.012.01.331.375Zm-9.031 7.968-.331-.375-.382.337.344.376.369-.338Zm2.855 3.121-.369.338.004.004.365-.341Zm5.412 5.778-.365.342.005.005.36-.347Zm4.383 4.549-.36.347.014.014.015.013.331-.374Zm5.479 4.347h-18.196v1h18.196v-1Zm-17.739.297c-.267-.6-.588-1.31-.965-2.13l-.909.417c.376.818.696 1.524.96 2.12l.914-.407Zm-.978-2.156c-.387-.729-.777-1.314-1.173-1.735l-.728.685c.311.331.652.83 1.018 1.519l.883-.47Zm-1.172-1.734-6.474-6.94-.732.683 6.475 6.94.731-.683Zm-7.172-6.972-7.603 6.74.663.748 7.604-6.74-.664-.748Zm-7.622 6.757-1.859 1.827.7.713 1.86-1.826-.701-.714Zm-1.786 1.767a1.5 1.5 0 0 0-.347.346 4.668 4.668 0 0 0-.315.484c-.217.376-.466.88-.746 1.508l.913.407c.274-.613.506-1.082.699-1.414.096-.167.177-.291.245-.38.071-.093.107-.12.105-.119l-.554-.832Zm-.951 2.041h-12.784v1h12.784v-1Zm-12.491.906 7.172-5.18-.585-.81-7.172 5.179.585.81Zm7.196-5.198 3.652-2.989-.633-.774-3.652 2.989.633.774Zm3.666-3 8.168-7.206-.661-.75-8.168 7.205.661.75Zm8.213-7.911-2.723-3.088-.75.661 2.723 3.088.75-.661Zm-2.737-3.104-2.391-2.49-.721.692 2.39 2.49.722-.692Zm-2.395-2.495-8.434-8.566-.713.702 8.434 8.566.713-.702Zm-8.454-8.586-4.284-3.884-.671.74 4.283 3.885.672-.74Zm-4.619-3.014h18.162v-1h-18.162v1Zm17.671-.406c.215 1.127.707 2.154 1.465 3.079l.773-.635c-.658-.802-1.074-1.678-1.256-2.632l-.982.188Zm1.468 3.082 2.324 2.789.768-.64-2.324-2.79-.768.64Zm2.345 2.812 4.549 4.814.726-.686-4.548-4.815-.727.687Zm5.24 4.848 7.969-6.94-.657-.754-7.968 6.94.656.754Zm7.994-6.963 1.627-1.627-.707-.707-1.627 1.627.707.707Zm1.699-1.718 1.129-1.826-.851-.526-1.129 1.827.851.525Zm.704-1.589h11.92v-1h-11.92v1Zm11.613-.894-9.098 7.072.614.79 9.097-7.073-.613-.79ZM440.8 18.39l-9.031 7.969.661.75 9.032-7.97-.662-.75Zm-9.069 8.68 2.855 3.122.738-.675-2.855-3.121-.738.675Zm2.859 3.126 5.412 5.778.73-.684-5.412-5.777-.73.683Zm5.417 5.783 4.383 4.549.72-.694-4.383-4.55-.72.695Zm4.412 4.576 5.478 4.848.663-.75-5.479-4.847-.662.75Zm51.704-2.466.489.106.163-.757-.756.162.104.489Zm-1.494 6.906v.5h.403l.086-.394-.489-.106Zm-38.15-.531.135-.482h-.003l-.132.482Zm-3.254-1.627.332-.374-.002-.002-.33.376Zm39.943-29.086-.315.388.003.003.312-.391Zm2.623 18.03v.5h.5v-.5h-.5Zm-32.572 0v-.5h-.5v.5h.5Zm.199 6.84.38-.326-.045-.053-.058-.038-.277.416Zm.697.265.082-.493-.024-.005-.025-.001-.033.499Zm27.326-.067-.028-.499h-.004l.032.5Zm-8.168-13.115v.5h.5v-.5h-.5Zm-20.054 0h-.5v.5h.5v-.5Zm32.415 12.28-1.494 6.905.978.212 1.494-6.906-.978-.212Zm-1.005 6.511h-33.436v1h33.436v-1Zm-33.436 0c-1.854 0-3.376-.175-4.579-.513l-.271.963c1.321.37 2.941.55 4.85.55v-1Zm-4.582-.513c-1.322-.363-2.331-.876-3.054-1.519l-.665.748c.871.773 2.031 1.345 3.454 1.735l.265-.964Zm-3.056-1.52c-1.484-1.304-2.287-3.512-2.287-6.764h-1c0 3.389.834 5.94 2.627 7.515l.66-.752Zm-2.287-6.764V20.924h-1v14.775h1Zm0-14.775c0-3.006.84-5.174 2.439-6.6 1.61-1.435 4.075-2.197 7.486-2.197v-1c-3.539 0-6.286.788-8.152 2.451-1.876 1.673-2.773 4.154-2.773 7.346h1Zm9.925-8.797h23.94v-1h-23.94v1Zm23.94 0c3.558 0 6.1.701 7.72 2.013l.63-.777c-1.878-1.52-4.692-2.236-8.35-2.236v1Zm7.723 2.016c1.579 1.259 2.435 3.466 2.435 6.78h1c0-3.458-.893-6.032-2.811-7.562l-.624.782Zm2.435 6.78V31.78h1V20.924h-1Zm.5 10.358h-32.572v1h32.572v-1Zm-33.072.5v5.346h1V31.78h-1Zm0 5.346c0 .461.016.838.054 1.12a2.2 2.2 0 0 0 .084.392c.032.094.105.28.284.398l.554-.832c.112.075.127.165.109.112a1.223 1.223 0 0 1-.04-.202 8.031 8.031 0 0 1-.045-.988h-1Zm.319 1.82c.262.305.659.413 1.044.439l.066-.998c-.278-.019-.347-.088-.35-.092l-.76.65Zm.995.433c.287.048.559.073.813.073v-1c-.189 0-.405-.019-.649-.06l-.164.987Zm.813.073h23.674v-1h-23.674v1Zm23.674 0c.615 0 1.603-.045 2.954-.134l-.065-.998c-1.35.089-2.31.132-2.889.132v1Zm2.95-.134c1.189-.068 2.778-.318 4.757-.74l-.208-.978c-1.961.418-3.493.656-4.606.72l.057.998Zm-7.697-13.614v-6.209h-1v6.21h1Zm0-6.209c0-.435-.025-.81-.084-1.109-.054-.275-.153-.588-.382-.792l-.665.748c-.029-.027.02.003.066.236.041.21.065.511.065.917h1Zm-.466-1.901c-.201-.179-.475-.267-.737-.317a5.422 5.422 0 0 0-.99-.075v1c.349 0 .613.022.803.058.203.038.261.083.259.082l.665-.748Zm-1.727-.392h-16.734v1h16.734v-1Zm-16.734 0a5.66 5.66 0 0 0-1.024.075c-.249.048-.552.138-.747.362l.752.658c-.04.046-.033.004.183-.037.188-.036.463-.058.836-.058v-1Zm-1.771.437c-.181.206-.253.508-.292.768-.045.29-.064.656-.064 1.088h1c0-.409.019-.718.052-.937.038-.249.082-.29.056-.261l-.752-.658Zm-.356 1.856v6.21h1v-6.21h-1Zm.5 6.71h20.054v-1h-20.054v1Zm80.89-7.64-.103.49.747.157-.154-.747-.49.1Zm-3.619-.763-.105.489h.002l.103-.49Zm-1.428-.1-.013.5h.013v-.5Zm-4.98-.133.013-.5h-.013v.5Zm-20.52.2.321.384.017-.015.016-.016-.354-.354Zm-.332 1.394-.497-.054-.003.027v.027h.5Zm.332 3.188.438-.243-.048-.086-.077-.062-.313.39Zm27.493 2.257.307-.394h-.001l-.306.394Zm-3.221 19.922-.112-.487.112.487Zm-35.893.465-.492.086.072.414h.42v-.5Zm-1.228-7.072.128-.483-.754-.2.133.768.493-.085Zm3.387.896-.128.484.041.01.042.004.045-.498Zm1.494.133-.045.498.016.002h.016l.013-.5Zm5.047.133-.014.5h.014v-.5Zm20.486-.332-.32-.384-.008.007-.008.007.336.37Zm.033-5.578.42-.272-.101-.156-.179-.052-.14.48Zm-27.924-2.524-.348.359.348-.359Zm.266-16.966.326.379-.326-.38Zm39.18-2.059.489-.1-.082-.4h-.407v.5Zm1.531 6.45-3.62-.764-.206.979 3.619.764.207-.979Zm-3.618-.763a5.594 5.594 0 0 0-1.167-.11v1a4.6 4.6 0 0 1 .957.088l.21-.978Zm-1.167-.11h-.365l-.001.5.001.5h.365v-1Zm-.352 0-4.981-.134-.026 1 4.98.133.027-1Zm-4.994-.134h-19.158v1h19.158v-1Zm-19.158 0c-.398 0-.732.017-.994.055-.131.02-.256.046-.369.084a.908.908 0 0 0-.352.207l.707.707c-.045.045-.075.047-.033.033.035-.012.096-.027.192-.041.192-.028.472-.045.849-.045v-1Zm-1.682.315a.885.885 0 0 0-.235.34c-.046.106-.082.23-.114.36a8.913 8.913 0 0 0-.16 1.025l.995.108c.043-.401.09-.698.138-.901.025-.102.046-.166.062-.203.02-.05.014-.01-.045.04l-.641-.769Zm-.512 1.78v1.858h1v-1.859h-1Zm0 1.858c0 .376.029.709.098.985.067.268.188.547.422.734l.625-.78c.013.01-.033-.021-.076-.197a3.159 3.159 0 0 1-.069-.742h-1Zm.395 1.571c.09.162.228.265.351.33.124.066.263.11.403.14a5.06 5.06 0 0 0 1.045.086v-1c-.384 0-.656-.024-.831-.063a.642.642 0 0 1-.149-.047c-.018-.01.021.006.056.069l-.875.485Zm1.799.556h18.029v-1h-18.029v1Zm18.029 0c3.682 0 6.245.651 7.795 1.854l.613-.79c-1.814-1.408-4.652-2.064-8.408-2.064v1Zm7.794 1.854c1.659 1.294 2.53 3.329 2.53 6.213h1c0-3.093-.944-5.463-2.915-7.002l-.615.788Zm2.53 6.213v6.574h1v-6.574h-1Zm0 6.574c0 1.696-.466 3.03-1.361 4.044-.9 1.021-2.279 1.77-4.194 2.209l.224.975c2.047-.47 3.64-1.297 4.721-2.523 1.086-1.232 1.61-2.816 1.61-4.705h-1Zm-5.555 6.253c-1.307.3-2.784.452-4.437.452v1c1.712 0 3.267-.157 4.661-.477l-.224-.975Zm-4.437.452h-31.344v1h31.344v-1Zm-30.851.414-1.228-7.072-.986.171 1.229 7.073.985-.172Zm-1.849-6.503 3.387.897.256-.967-3.387-.897-.256.967Zm3.47.911 1.494.133.089-.996-1.494-.133-.089.996Zm1.526.135 5.046.133.027-1-5.047-.133-.026 1Zm5.06.133H529.6v-1h-18.959v1Zm18.959 0a5.18 5.18 0 0 0 1.069-.094c.295-.065.58-.173.794-.368l-.672-.74c-.03.027-.121.084-.335.13a4.154 4.154 0 0 1-.856.072v1Zm1.847-.448c.238-.198.378-.477.46-.773a3.92 3.92 0 0 0 .118-1.039h-1c0 .34-.031.592-.081.77-.05.181-.109.25-.137.274l.64.768Zm.578-1.812V34.67h-1v2.656h1Zm0-2.656c0-.68-.133-1.283-.445-1.766l-.84.543c.175.27.285.664.285 1.223h1Zm-.725-1.974a6.055 6.055 0 0 0-1.7-.253v1c.457 0 .93.07 1.42.213l.28-.96Zm-1.7-.253h-18.495v1H529.6v-1Zm-18.495 0c-3.627 0-6.088-.757-7.52-2.15l-.697.718c1.711 1.663 4.496 2.432 8.217 2.432v-1Zm-7.52-2.15c-1.437-1.396-2.206-3.619-2.206-6.78h-1c0 3.303.802 5.84 2.509 7.498l.697-.717Zm-2.206-6.78v-2.49h-1v2.49h1Zm0-2.49c0-3.31.854-5.586 2.449-6.958l-.652-.758c-1.903 1.637-2.797 4.254-2.797 7.716h1Zm2.449-6.959c1.46-1.257 3.849-1.937 7.277-1.937v-1c-3.522 0-6.202.692-7.929 2.18l.652.757Zm7.277-1.937h31.577v-1h-31.577v1Zm31.087-.4 1.428 6.94.979-.201-1.428-6.94-.979.202Z" fill="#fff"/></svg>