<svg width="285" height="256" viewBox="0 0 285 256" fill="none" xmlns="http://www.w3.org/2000/svg">
<path d="M277.091 277.298C275.283 283.389 273.24 289.364 271.599 295.706C272.143 294.878 272.614 294.005 273.006 293.096C274.998 286.92 277.074 280.762 278.832 274.47C279.171 272.306 279.272 270.112 279.133 267.926C279.552 267.725 279.954 267.508 280.372 267.324C282.281 266.437 283.269 267.156 283.486 269.667C283.542 270.411 283.497 271.16 283.352 271.892C281.444 282.285 278.681 292.292 273.809 301.061C272.458 303.463 270.581 305.528 268.318 307.103C265.338 309.161 263.496 311.47 264.266 316.106C264.352 317.138 264.174 318.174 263.747 319.118C262.442 322.281 261.019 325.36 259.612 328.473C259.379 329.199 258.905 329.823 258.269 330.243C257.633 330.663 256.872 330.853 256.113 330.782C252.882 330.632 249.617 330.782 246.386 330.782C245.535 330.654 244.7 330.44 243.891 330.146C248.713 324.272 254.372 320.474 257.067 313.027C254.054 314.884 251.727 319.386 247.96 316.374L240.694 323.771C240.844 327.804 240.844 327.804 239.605 330.699H236.157C236.157 329.477 236.324 328.439 236.441 326.599C231.921 331.786 227.032 331.1 222.01 330.665L225.626 324.925C224.655 323.787 224.186 322.248 222.646 323.017C219.297 324.691 215.949 326.364 212.35 328.038L214.325 330.582H204.28C202.723 327.971 201.4 325.929 200.245 323.72C199.761 322.58 199.429 321.382 199.257 320.156C199.14 319.47 199.492 318.616 199.257 317.997C197.784 312.843 196.21 307.738 194.72 302.751H188.207C189.714 309.111 190.2 309.663 194.62 311.27C195.069 311.471 195.469 311.768 195.79 312.142C196.111 312.515 196.346 312.954 196.478 313.428C196.549 313.727 196.555 314.038 196.498 314.34C196.441 314.642 196.321 314.928 196.145 315.181C195.97 315.433 195.744 315.646 195.481 315.806C195.218 315.965 194.925 316.067 194.62 316.106C193.319 316.345 192.005 316.501 190.685 316.574C191.958 318.248 192.778 319.503 193.649 320.641C194.519 321.779 195.624 322.315 195.691 323.352C195.495 324.675 195.046 325.948 194.368 327.101L195.825 330.448C192.711 331.753 190.802 330.448 189.296 327.101C186.625 321.664 184.559 315.951 183.135 310.065C182.577 306.793 181.226 303.708 179.2 301.078C179.826 311.194 181.895 321.168 185.345 330.699H178.263C177.442 328.607 176.589 326.649 175.885 324.624C172.922 316.257 169.908 307.738 167.046 299.237C165.908 296.225 165.095 293.1 164.618 289.916C164.144 285.967 162.738 282.187 160.516 278.887C160.399 278.703 160.148 278.687 159.88 278.553L158.105 280.394C158.662 285.641 160.378 290.7 163.128 295.204C163.605 295.883 164.036 296.593 164.417 297.329C165.204 299.153 164.718 300.576 163.178 301.028C162.662 301.109 162.137 301.109 161.621 301.028C161.437 311.437 164.668 320.658 166.46 330.582H162.408C161.42 326.281 160.483 322.214 159.796 319.152C157.754 317.595 156.046 316.943 155.175 315.47C153.338 312.625 151.933 309.523 151.007 306.266C147.889 293.889 146.087 281.217 145.632 268.462C145.659 267.74 145.551 267.019 145.314 266.336C143.757 262.872 142.117 259.458 140.292 255.509L137.596 266.386C139.538 267.708 139.639 269.867 139.471 272.21C139.153 276.812 139.019 281.448 138.634 286.067C138.099 292.593 137.429 299.12 136.742 305.63C136.458 308.324 135.939 310.985 133.043 311.286C133.712 317.83 134.348 324.022 135.001 330.515H131.151C130.531 324.54 129.945 318.8 129.343 313.127C127.852 315.826 126.624 318.661 125.676 321.595L122.328 330.849H114.576C118.51 320.106 121.273 305.412 120.486 300.291C119.398 302.417 118.41 304.425 117.355 306.349C116.585 307.755 115.564 309.077 114.141 308.023C112.718 306.969 113.32 305.212 113.973 303.722C114.258 303.069 114.559 302.434 114.861 301.814C117.408 296.383 119.021 290.561 119.632 284.594C119.691 283.691 119.691 282.786 119.632 281.883C116.836 286 114.609 290.251 112.333 294.317C110.629 296.839 109.849 299.872 110.123 302.902C110.13 304.84 109.99 306.776 109.704 308.692C109.604 310.885 109.587 313.094 109.704 315.386C109.814 320.478 109.336 325.565 108.281 330.548H102.086C103.459 322.499 104.765 314.834 106.088 307.119L105.351 306.785C102.909 309.146 101.24 312.192 100.563 315.52C99.6756 320.708 98.1689 325.712 96.8965 330.9L92.8114 330.649L96.4276 316.273C95.4901 315.085 94.5861 313.378 94.9377 312.608C96.0761 310.115 98.1689 308.391 98.5037 305.195C98.6075 304.973 98.77 304.784 98.9737 304.649C99.1773 304.513 99.4144 304.435 99.6589 304.425C101.434 304.726 102.17 303.036 103.007 301.63C108.515 291.79 113.94 281.85 119.498 272.043C121.373 268.696 121.273 265.248 120.821 261.517C120.369 261.634 120.101 261.617 119.95 261.768C118.929 262.772 117.69 263.441 116.903 261.868C116.572 260.672 116.624 259.401 117.054 258.237C117.841 255.777 118.879 253.45 119.917 250.806C118.917 250.946 117.903 250.946 116.903 250.806C116.559 250.674 116.249 250.468 115.994 250.202C115.739 249.935 115.546 249.616 115.43 249.267C115.341 248.436 115.517 247.598 115.932 246.873C116.313 246.366 116.829 245.978 117.422 245.752C120.771 243.978 122.445 240.732 122.579 236.046C122.78 227.243 123.047 218.424 123.248 209.622C123.183 208.5 123.054 207.382 122.863 206.275C121.976 207.53 121.541 208.584 120.871 208.969C120.495 209.195 120.07 209.325 119.632 209.349C119.194 209.372 118.757 209.288 118.36 209.103C117.958 208.852 117.807 207.262 117.941 206.375C118.206 205.411 118.576 204.479 119.046 203.597C119.8 201.673 120.52 199.748 121.524 197.137C119.515 198.041 118.176 199.581 117.054 197.388C115.932 195.196 117.422 194.041 118.443 192.887C120.917 189.563 122.574 185.705 123.282 181.624C125.49 171.264 126.189 160.639 125.358 150.079C125.18 149.209 125.124 148.32 125.191 147.435C125.358 146.543 125.825 145.734 126.513 145.142C126.898 144.891 127.852 145.477 128.187 146.029C128.904 147.204 129.536 148.429 130.079 149.694C131.385 146.514 132.741 143.703 133.729 140.69C134.676 137.763 135.409 134.771 135.922 131.737C137.96 118.78 139.168 105.706 139.538 92.5943C139.511 91.1153 139.657 89.638 139.974 88.193C140.126 87.808 140.37 87.4662 140.686 87.1978C141.001 86.9293 141.377 86.7424 141.782 86.6535C142.217 86.6535 143.004 87.5739 143.171 88.3269C143.405 89.4885 143.478 90.6766 143.389 91.858C143.104 101.096 142.77 110.35 142.518 119.588C142.518 120.558 142.519 121.981 142.971 122.449C144.645 124.123 144.159 126.114 143.824 128.173C143.523 129.846 143.305 131.704 142.971 133.997C145.448 134.9 145.03 137.645 145.047 140.188C145.047 143.619 145.047 147.066 145.047 150.497C145.047 156.053 145.18 161.609 145.264 167.148C145.886 165.636 146.199 164.014 146.185 162.379C146.386 158.045 146.436 153.71 146.788 149.409C147.089 145.56 147.642 145.309 150.689 146.816L150.571 146.665C150.387 151.685 150.203 156.823 150.036 161.894C150.036 163.567 149.751 165.408 151.141 166.78C151.65 167.632 151.889 168.618 151.827 169.608C152.095 176.905 152.296 184.185 152.513 191.715C155.393 192.184 155.862 194.343 156.448 197.221C157.385 202.593 158.792 207.848 160.232 213.036C160.846 215.016 161.939 216.814 163.413 218.274C162.274 212.316 161.27 206.308 159.947 200.417C158.674 194.828 156.984 189.389 155.644 183.816C154.874 180.587 153.97 177.307 154.707 173.775C154.748 172.897 154.629 172.018 154.355 171.182C153.92 169.006 153.451 166.847 152.999 164.688C152.413 161.81 152.664 160.438 153.937 160.203C155.845 159.852 156.28 161.793 156.699 163.55C158.222 169.977 159.528 176.503 161.219 182.863C164.049 193.472 167.062 203.999 170.109 214.492C170.762 216.801 171.532 219.227 173.826 220.616C173.357 213.688 169.942 207.697 171.432 200.652C166.409 193.205 163.999 183.917 161.387 174.847C159.713 168.973 158.223 162.965 156.85 156.94C156.526 154.768 156.363 152.576 156.364 150.38L156.264 150.547C156.73 150.02 157.088 149.406 157.318 148.74C157.637 146.648 157.77 144.523 157.971 142.414C156.297 134.281 154.991 125.679 151.275 118.232C150.9 117.608 150.73 116.883 150.789 116.157C152.463 112.057 150.588 108.325 150.136 104.443C149.994 102.103 149.572 99.7879 148.88 97.5479C145.84 89.3377 143.411 80.9138 141.614 72.3451C141.397 71.2908 141.045 70.27 140.526 68.4626C140.447 71.5881 140.1 74.701 139.488 77.7672C137.714 83.5742 138.367 89.4816 138.266 95.389C138.266 96.8952 138.182 98.3846 138.099 99.874C137.925 103.069 136.995 106.178 135.386 108.944C134.661 110.299 134.141 111.754 133.846 113.262C132.59 119.169 131.603 125.177 130.163 131.001C129.319 135.172 127.417 139.056 124.638 142.28C123.797 143.116 123.188 144.154 122.868 145.295C122.548 146.436 122.529 147.64 122.813 148.79C124.186 158.999 121.139 166.479 113.856 171.215C113.11 171.873 112.441 172.614 111.864 173.424L114.141 177.089C114.961 176.286 115.681 174.98 116.434 174.947C117.824 174.947 118.293 176.503 118.309 178.11C118.369 179.602 118.302 181.097 118.109 182.578C117.456 186.829 116.669 190.945 115.949 195.263C115.671 196.564 115.492 197.884 115.413 199.213C115.413 205.17 115.413 211.145 115.413 217.303C118.226 217.755 118.661 219.981 118.527 222.574C118.52 224.356 118.34 226.132 117.991 227.879C116.317 234.272 114.944 240.765 112.868 246.924C111.432 250.943 111.029 255.259 111.696 259.475C115.045 260.697 115.396 261.416 114.342 265.734C114.13 266.73 113.845 267.709 113.488 268.662C111.885 272.757 110.86 277.054 110.441 281.431C109.949 287.441 107.61 293.152 103.744 297.781C102.897 298.886 101.727 299.699 100.396 300.107C99.592 300.241 98.7214 298.852 97.3485 297.831C94.5861 309.211 91.9576 320.49 87.6716 330.799H83.6033L91.7567 305.513L87.3367 303.12C86.3155 310.165 83.3354 315.671 82.9671 322.482C82.5653 329.912 80.439 331.602 74.5961 330.849C74.4956 330.849 74.3951 330.732 74.0436 330.481C75.1151 327.737 76.1531 324.925 77.2915 322.114C78.8372 318.455 79.6287 314.522 79.6187 310.55C79.6824 306.818 79.9395 303.093 80.3889 299.388C80.7572 296.041 81.5608 295.422 84.1391 296.275C85.1516 296.613 86.1414 297.016 87.1024 297.48C89.8314 298.819 91.1038 298.4 92.0078 294.886C93.682 288.644 94.9879 282.318 96.2938 275.959C96.5386 274 96.6225 272.024 96.5448 270.052C95.5944 270.991 94.8727 272.136 94.4353 273.398C92.5937 277.565 90.8526 281.766 88.8603 285.849C87.6389 288.17 86.263 290.406 84.7417 292.543C83.8712 293.832 82.7327 294.936 81.3933 293.43C80.054 291.924 80.8743 290.702 81.611 289.43C81.8956 288.945 82.2305 288.51 82.4816 288.008C84.9092 283.272 87.5042 278.687 89.7142 273.716C92.5771 267.022 95.0548 260.094 97.6833 253.25C97.9562 252.297 98.3324 251.376 98.8051 250.505C99.2069 249.953 100.195 249.434 100.596 249.685C100.953 249.958 101.251 250.301 101.473 250.692C101.694 251.083 101.835 251.515 101.886 251.961C101.773 253.103 101.52 254.228 101.132 255.308C100.931 256.178 100.781 256.981 100.546 258.253C105.385 255.492 107.243 251.777 106.858 245.886C106.838 244.099 106.653 242.318 106.305 240.565C105.882 239.123 105.796 237.603 106.055 236.123C106.313 234.643 106.909 233.243 107.796 232.03C111.144 226.557 112.517 215.178 110.876 208.701C108.298 210.525 107.009 213.186 106.389 217.069C104.666 228.042 101.678 238.78 97.4824 249.066C92.4598 261.232 87.0187 273.097 81.6277 284.996C80.4056 287.673 78.5472 289.849 77.1241 292.409C76.1921 293.787 75.6168 295.374 75.4499 297.028C75.8183 307.504 72.788 316.96 70.2432 326.565C69.8414 328.088 69.2219 329.511 68.7531 330.816H64.6346C64.8857 329.477 65.0867 328.456 65.3378 327.134C63.6636 328.473 62.207 329.628 60.7671 330.582C59.6622 331.301 58.4233 331.502 57.6867 329.829C56.95 328.155 57.8373 327.168 58.8251 326.164C60.6773 324.673 62.243 322.859 63.4459 320.808C67.0287 312.675 70.5445 304.408 70.5278 294.635C70.6183 293.78 70.8862 292.954 71.3146 292.209C73.3334 287.297 74.2369 281.998 73.9599 276.695C73.773 275.211 73.4423 273.748 72.9721 272.327L67.4305 276.427C67.7706 277.669 68.0222 278.933 68.1839 280.21C68.5689 289.631 68.8034 299.036 66.9785 308.307C66.2043 313.235 64.11 317.861 60.9179 321.695C59.4613 323.369 57.9713 324.775 56.1129 323.151C55.7948 323.419 55.6609 323.469 55.6107 323.586C54.9577 325.009 54.3215 326.415 53.6853 327.854C52.0111 331.602 52.0111 331.636 47.9093 330.448C49.5835 325.946 52.0948 322.08 52.6975 316.976C50.1694 320.524 48.0433 324.39 45.8668 328.189C45.2641 329.226 44.5609 330.766 43.7741 330.9C41.6466 331.092 39.5061 331.092 37.3786 330.9C38.8621 328.334 40.6069 325.928 42.5853 323.72C44.3996 321.732 45.5672 319.24 45.9337 316.574C46.1849 314.516 46.6704 312.776 48.8636 313.227C49.3324 313.328 49.9518 312.307 50.5378 311.805C51.3582 311.018 52.1115 309.797 53.0156 309.546C53.9197 309.295 54.8238 310.165 56.0962 310.7C57.402 305.78 58.7413 301.011 59.9133 296.191C60.2649 294.752 60.5998 293.48 61.8722 293.564C63.1446 293.648 63.7473 295.238 63.5464 296.811C63.4537 298.282 63.2125 299.739 62.8265 301.162C61.755 304.96 60.5496 308.692 59.4781 312.458C59.1098 313.646 58.8251 314.851 58.2391 317.01C61.7047 313.428 62.6757 309.295 63.3789 305.094C64.6512 296.083 64.9879 286.964 64.3835 277.883C64.3835 276.21 63.4793 276.042 62.3241 276.21C61.7884 277.465 61.2861 278.804 60.6499 280.076C58.1386 285.28 55.6274 290.585 52.9822 295.606C51.683 297.606 50.1547 299.448 48.4283 301.095C47.1224 302.534 45.5822 303.655 44.3935 305.228C38.7347 312.793 33.0759 320.373 27.6515 328.155C25.4415 331.301 23.0139 331.368 19.699 330.649L29.3257 318.399C24.8835 319.22 20.9404 321.749 18.3429 325.444C15.1619 329.812 11.2778 332.138 6.4226 331.067C5.72309 330.975 5.01864 330.924 4.31309 330.916C4.11218 330.916 3.92798 330.632 3.74381 330.465L4.26281 329.494C3.00443 328.088 1.82512 326.613 0.730269 325.076C0.331538 324.551 0.143132 323.897 0.201971 323.24C0.260811 322.584 0.562661 321.974 1.04837 321.528C1.436 321.325 1.87781 321.25 2.31077 321.313C2.74372 321.376 3.14569 321.574 3.45923 321.879C4.96601 324.122 6.53979 323.553 8.19725 322.549C9.69654 321.631 11.1288 320.607 12.4832 319.486C21.8718 311.55 30.1546 302.393 37.1107 292.259C37.9221 290.955 38.4895 289.515 38.7849 288.008C38.9811 286.535 39.5018 285.124 40.3096 283.877C41.1173 282.63 42.192 281.577 43.456 280.795C47.6344 278.49 51.3152 275.38 54.2863 271.647C57.2573 267.913 59.4599 263.628 60.7671 259.04C61.4201 256.914 62.4413 255.827 64.2997 256.864C64.4336 256.864 64.6848 256.647 65.1368 256.345C65.4047 255.425 65.7395 254.27 66.1915 252.747C62.8431 252.915 60.0306 255.71 57.1677 253.166C53.5514 257.266 50.0187 261.148 46.6201 265.215C43.9624 268.695 40.6245 271.599 36.8093 273.75C35.4532 274.419 34.231 274.838 32.9252 273.281C32.5648 273.007 32.1479 272.817 31.7049 272.725C31.2618 272.632 30.8036 272.639 30.3637 272.746C28.9625 272.984 27.5762 273.302 26.2116 273.7C24.9894 273.967 23.7506 273.917 23.3823 272.026C23.2877 271.695 23.2628 271.348 23.309 271.007C23.3553 270.666 23.4717 270.338 23.651 270.044C23.8303 269.75 24.0686 269.496 24.3508 269.299C24.633 269.101 24.953 268.964 25.2908 268.897C27.4505 268.211 29.627 267.658 31.8035 267.022C35.5132 266.054 38.9824 264.329 41.9932 261.956C45.004 259.582 47.4913 256.613 49.2989 253.233C50.9731 250.17 52.7812 247.208 54.4721 244.179C54.9248 243.164 55.3216 242.125 55.6609 241.066C53.7584 243.453 51.6764 245.691 49.4329 247.76C46.5784 249.935 43.5616 251.887 40.4089 253.601C39.3374 254.22 37.9645 254.036 37.5125 252.162C37.3482 251.55 37.4061 250.9 37.6758 250.327C37.9456 249.755 38.4097 249.296 38.9858 249.032C39.6491 248.713 40.2872 248.344 40.8944 247.928C44.0329 245.766 46.9641 243.318 49.6504 240.615C59.1432 229.653 67.2296 217.387 70.645 201.104C71.2812 198.075 72.2354 195.179 73.0056 192.184C73.3571 190.812 73.5916 189.389 73.8762 187.983C71.5156 191.063 69.7074 194.527 67.6481 197.74C62.9771 205.02 58.1889 212.182 53.384 219.328C52.3451 220.868 51.1254 222.278 49.751 223.528C46.9383 226.122 44.293 228.9 40.3084 228.248C37.8641 227.863 35.2858 228.934 32.7578 229.185C32.4582 229.221 32.1543 229.188 31.8695 229.088C31.5847 228.988 31.3265 228.825 31.1147 228.61C30.903 228.395 30.7433 228.134 30.648 227.848C30.5526 227.562 30.5241 227.258 30.5646 226.959C30.5646 226.055 31.5189 225.135 32.2388 224.399C32.5401 224.047 33.1261 224.097 33.5781 224.014C40.4591 222.675 45.8333 218.089 49.8347 211.061C54.0369 203.681 58.0215 196.117 61.8554 188.435C62.9728 185.775 63.7817 182.996 64.2663 180.151C64.6346 178.478 65.0364 177.457 66.5097 177.357C67.1458 177.357 67.7486 176.721 68.3513 176.369C70.0255 175.382 70.8626 175.901 71.2142 178.411C71.3146 179.147 71.3314 179.917 71.3816 180.687C74.8377 175.724 77.7085 170.378 79.9368 164.755C80.2936 163.955 80.5413 163.111 80.6734 162.245C80.7108 161.089 80.6716 159.932 80.5562 158.781C77.9059 161.78 75.035 164.577 71.9676 167.148C68.1336 169.893 64.2495 172.169 61.4201 176.855C59.8798 179.449 57.2346 181.055 54.9577 182.829C54.5431 182.994 54.0894 183.034 53.6523 182.945C53.2152 182.856 52.8135 182.641 52.4966 182.327C52.1283 181.959 52.3459 180.469 52.4966 179.499C52.6473 178.528 53.1831 177.825 52.9822 177.256C51.9776 174.763 53.1495 173.675 54.5726 172.671C55.9956 171.667 57.0337 170.997 58.2894 170.144C61.6963 168.004 64.3527 164.857 65.8902 161.141C67.7821 156.672 69.8246 152.305 71.7499 147.853C72.1525 146.702 72.4879 145.529 72.7545 144.339C69.155 147.251 65.9405 149.945 62.7093 152.438C61.4796 153.507 60.0271 154.288 58.4575 154.725C56.8878 155.163 55.2404 155.245 53.635 154.965C52.2383 154.573 50.9384 153.895 49.8179 152.974C49.5976 152.627 49.4486 152.24 49.3796 151.834C49.3106 151.429 49.3231 151.015 49.4161 150.614C49.7351 149.952 50.2905 149.432 50.9731 149.158C51.3414 148.974 51.8939 149.158 52.346 149.393C53.9056 149.893 55.5711 149.964 57.1677 149.599C58.7643 149.234 60.2332 148.446 61.4201 147.318C64.7685 144.59 67.9998 141.611 71.1807 138.565C72.6038 137.176 74.278 135.938 74.5291 133.076C74.5291 132.34 75.8015 131.285 76.5884 131.101C79.1332 130.499 80.2381 127.972 81.611 125.646C80.5487 126.188 79.5349 126.821 78.5807 127.537C74.6798 129.93 70.8291 132.407 66.8613 134.549C65.725 135.112 64.4544 135.347 63.1918 135.229C61.9292 135.111 60.7244 134.643 59.7124 133.879C59.066 133.587 58.5438 133.075 58.2376 132.436C57.9313 131.796 57.8606 131.069 58.0382 130.382C58.5237 128.508 59.8128 128.591 60.968 129.127C65.2205 131.068 68.5857 128.307 72.4866 126.047C69.7744 125.194 67.5477 124.625 65.388 123.771C65.0196 123.671 64.6757 123.496 64.3771 123.257C64.0786 123.019 63.8318 122.723 63.6516 122.386C63.4715 122.049 63.3618 121.68 63.3293 121.299C63.2968 120.919 63.3421 120.536 63.4626 120.173C63.9481 118.299 65.3043 118.5 66.4427 119.002C71.4653 121.228 75.9187 119.471 80.2381 116.442C88.1399 110.986 95.1343 104.322 100.965 96.6944C101.911 95.4209 103.039 94.2932 104.313 93.3474C105.999 92.0766 107.414 90.4819 108.475 88.6571C109.536 86.8322 110.221 84.8139 110.491 82.7207C108.415 84.8628 106.356 87.0886 104.229 89.1637C103.359 90.0683 102.318 90.7908 101.166 91.289C100.529 91.54 99.2236 91.1886 99.0394 90.6531C98.748 89.6077 98.837 88.4929 99.2906 87.507C100.19 86.3933 101.193 85.3678 102.287 84.4444C104.681 81.884 107.461 79.8255 108.767 75.9263C109.574 75.0916 110.303 74.1841 110.943 73.2153C117.757 60.8984 122.261 47.1925 125.81 32.9176C125.809 32.5058 125.759 32.0956 125.659 31.6959C116.451 49.9035 107.98 68.5128 95.1051 82.7542C98.7347 80.1812 101.952 77.0721 104.648 73.5332C105.125 72.7388 105.686 71.9982 106.322 71.3242C106.942 70.8556 108.13 70.4205 108.465 70.8222C108.967 71.7402 109.227 72.7714 109.219 73.8178C109.153 74.5266 108.978 75.2209 108.7 75.8762C107.943 76.5403 107.222 77.2442 106.54 77.9848C96.411 90.2013 84.9762 98.9536 70.7622 100.711C69.0881 101.016 67.36 100.724 65.8792 99.886C64.3983 99.0481 63.2587 97.7172 62.659 96.1254C62.3553 95.0771 62.4385 93.9546 62.8934 92.9624C63.2337 92.6992 63.6518 92.5564 64.0821 92.5564C64.5124 92.5564 64.9305 92.6992 65.2708 92.9624C67.9997 96.9286 70.9631 95.5899 73.8929 93.7825C80.5898 89.6155 86.0644 83.2395 90.9363 76.0602C91.0535 75.9096 90.9363 75.5414 90.9363 74.9055L87.5879 76.328C85.4095 77.3692 83.1737 78.2854 80.8911 79.0725C80.336 79.1176 79.7827 78.9665 79.3278 78.6455C78.8728 78.3246 78.5449 77.8541 78.4015 77.3163C78.258 76.7784 78.308 76.2073 78.5427 75.7025C78.7774 75.1977 79.1818 74.7912 79.6856 74.554C80.5227 74.0185 81.3599 73.6504 82.2807 73.1985C84.7434 72.1263 87.1317 70.8908 89.4295 69.5002C92.0412 67.8267 95.1385 66.5213 96.1263 62.187C96.277 61.5678 97.1978 61.2331 97.8005 60.7812C98.4032 60.3294 99.1399 60.1118 99.5585 59.4926C105.368 50.9076 111.378 42.49 114.442 31.5119C114.693 30.6249 115.698 29.5706 116.384 29.5204C117.673 29.5204 118.058 30.9597 117.941 32.3989C117.824 33.8381 117.506 35.7458 117.121 38.3899C117.958 36.9507 118.343 36.4152 118.628 35.796C123.092 25.9782 127.557 16.1492 132.021 6.30908C132.657 4.88661 133.193 3.38044 133.863 1.99144C134.533 0.602447 135.537 -0.234234 136.826 0.803331C138.115 1.8409 137.63 3.11267 137.077 4.38453C136.843 4.90331 136.642 5.43885 136.424 5.97436C134.03 11.9487 131.619 17.9232 129.142 24.1318C131.167 25.9894 130.816 28.6168 130.196 31.2442C128.824 36.7667 127.417 42.2891 126.044 47.7782L128.723 50.4391L130.95 48.7656C131.201 41.4357 131.419 34.2731 131.72 27.1106C131.796 25.6421 132.044 24.1876 132.457 22.7763C132.875 21.3706 133.913 20.5002 134.968 21.3203C135.621 22.1528 135.954 23.1919 135.905 24.2489C135.905 25.9224 135.403 27.78 135.386 29.5372C135.269 43.7451 135.219 57.9865 135.152 72.1609C135.197 73.1469 135.292 74.13 135.437 75.1063C136.144 70.5208 136.513 65.8895 136.542 61.2499C136.742 48.6819 136.776 36.1474 137.044 23.5628C137.32 20.9058 137.784 18.2717 138.433 15.6806C138.047 14.4656 137.75 13.2239 137.546 11.9655C137.546 11.2794 137.931 9.97408 138.367 9.80673C138.734 9.67715 139.132 9.65555 139.511 9.74452C139.891 9.83349 140.237 10.0293 140.509 10.3088C141.265 11.5268 141.829 12.853 142.184 14.2414C145.247 25.1861 149.584 35.4111 153.116 46.0378C153.541 47.691 154.225 49.2667 155.142 50.7068C160.315 57.5012 165.907 63.9608 172.704 67.6593C180.205 71.7593 188.208 74.3533 196.026 77.4325C197.7 78.0684 199.291 78.5537 200.731 76.1606C201.735 74.4871 203.459 75.6084 203.761 77.8341C204.163 80.5452 202.924 82.955 200.58 83.1726C198.596 83.217 196.615 83.0032 194.687 82.5366C193.153 82.2006 191.638 81.7816 190.15 81.2815L189.932 82.2019C192.293 83.3734 194.67 84.4947 197.014 85.733C197.968 86.2351 199.19 86.7873 199.592 87.7747C199.805 89.2986 199.771 90.8469 199.492 92.36C200.488 92.0456 201.427 91.5709 202.271 90.9543C203.192 90.0172 203.945 89.2808 205.033 90.3184C205.551 90.9332 205.864 91.6947 205.927 92.4961C205.99 93.2974 205.8 94.0984 205.385 94.7866C205.216 95.2989 204.948 95.7729 204.596 96.181C204.243 96.5892 203.813 96.9236 203.331 97.1648C202.848 97.4059 202.322 97.5492 201.784 97.5862C201.246 97.6232 200.706 97.5533 200.195 97.3805C197.231 96.527 194.318 95.4058 191.388 94.3682C190.267 93.9666 189.162 93.4645 188.04 93.0127C191.493 96.271 195.168 99.285 199.04 102.033C200.864 103.405 202.555 104.978 204.866 104.777C205.169 104.75 205.474 104.795 205.757 104.909C206.039 105.024 206.289 105.204 206.488 105.435C206.686 105.666 206.826 105.941 206.896 106.237C206.967 106.533 206.965 106.842 206.892 107.137C206.741 108.175 205.669 109.664 204.933 109.731C203.219 109.956 201.477 109.689 199.91 108.961C195.273 106.468 190.685 103.79 186.232 100.811C181.779 97.8323 177.526 94.4184 173.19 91.1886C172.051 94.9037 171.516 95.272 168.636 93.5817C167.131 92.6584 165.713 91.5997 164.4 90.4188C160.181 86.7204 157.067 81.6497 153.937 76.6125L151.676 73.0312C151.491 73.4988 151.491 74.0195 151.676 74.4871C154.238 79.8423 156.833 85.1808 159.378 90.5527C162.324 96.7781 167.113 100.594 171.097 105.614C171.097 105.698 171.315 105.614 171.499 105.614C171.787 104.113 172.225 102.644 172.805 101.229C173.19 100.46 174.78 99.6565 174.914 99.8406C176.505 102.301 179.016 103.087 180.556 106.033C183.168 111.053 186.801 115.153 190.032 119.621C190.15 119.805 190.484 119.822 190.702 119.805C192.259 119.638 192.962 121.044 193.766 122.349C196.93 127.57 200.128 132.725 205.016 135.603C205.446 135.909 205.804 136.303 206.067 136.759C206.33 137.215 206.491 137.723 206.54 138.247C206.432 139.157 206.557 140.079 206.902 140.928C207.248 141.777 207.803 142.524 208.516 143.1C210.943 145.862 213.103 149.091 216.485 150.213C216.908 150.502 217.261 150.882 217.519 151.325C217.777 151.768 217.932 152.262 217.975 152.773C217.975 154.313 216.903 155.317 215.798 154.932C213.812 154.408 211.974 153.435 210.424 152.087C207.427 149.008 204.749 145.393 202.053 141.962C199.358 138.532 196.897 135.469 194.285 132.256C193.848 131.847 193.371 131.482 192.862 131.168C197.524 139.19 202.933 146.755 209.018 153.76C209.749 154.542 210.711 155.07 211.763 155.267C213.22 155.501 213.756 156.488 213.973 158.145C214.425 161.86 210.374 161.174 210.223 164.404C210.223 164.789 209.051 165.358 208.449 165.341C207.597 165.294 206.78 164.991 206.105 164.471C203.631 162.687 201.286 160.73 199.09 158.614C197.312 156.575 195.7 154.398 194.268 152.104C193.766 151.19 193.044 150.416 192.167 149.852C191.29 149.288 190.285 148.952 189.245 148.874C191.271 152.221 192.46 155.434 195.155 157.241C195.842 157.676 196.227 158.915 196.679 159.952C197.116 161.096 197.619 162.214 198.186 163.299C199.374 165.157 200.664 166.914 201.986 168.604C204.883 172.303 207.695 176.135 211.914 177.507C212.32 177.707 212.673 177.999 212.946 178.359C213.219 178.719 213.405 179.138 213.488 179.582C213.511 180.325 213.745 181.045 214.163 181.659C214.581 182.272 215.166 182.754 215.849 183.047C217.389 184.101 218.963 185.105 220.486 186.243C222.01 187.381 223.416 188.017 222.646 190.594C222.194 192.15 220.972 192.134 218.628 190.812C211.471 186.66 205.234 181.097 200.295 174.462C195.072 167.65 189.631 160.99 184.926 153.61C178.648 143.77 172.972 133.294 167.046 123.102C166.409 121.998 166.175 120.692 167.163 119.989C167.535 119.76 167.964 119.638 168.402 119.638C168.839 119.638 169.268 119.76 169.641 119.989C170.513 120.837 171.218 121.842 171.717 122.952C173.776 126.6 175.785 130.265 177.794 133.946C178.229 134.75 178.581 135.62 178.966 136.473L179.82 135.586C179.576 134.699 179.262 133.831 178.882 132.992C177.325 130.181 175.701 127.436 174.077 124.625C173.394 123.769 172.931 122.758 172.73 121.681C172.528 120.605 172.594 119.495 172.922 118.45C168.971 116.442 166.46 112.76 164.116 108.777C160.951 103.405 157.72 98.1002 154.556 92.745C153.919 91.8022 153.47 90.7452 153.233 89.6322C152.447 83.8754 149.148 79.926 147.022 75.1063C146.916 75.845 146.967 76.5979 147.173 77.3153C150.521 91.038 155.544 103.572 163.48 114.032C165.254 116.391 165.505 117.931 164.451 119.052C162.776 120.726 161.638 118.902 160.566 117.613C159.11 115.94 157.737 113.982 156.331 112.157C156.119 113.275 156.2 114.428 156.565 115.504C159.792 124.279 163.786 132.752 168.502 140.824C169.624 142.682 171.851 144.59 173.525 144.573C175.651 144.573 176.103 145.744 176.873 147.485C178.547 151.317 180.088 155.116 181.779 158.881C182.766 161.107 183.888 163.149 186.182 163.534C187.27 163.701 188.023 164.571 188.124 166.245C188.341 169.592 188.961 170.445 191.305 170.328C191.84 170.223 192.395 170.291 192.889 170.522C193.383 170.754 193.79 171.138 194.05 171.617C194.652 172.369 195.444 172.947 196.344 173.29C197.432 173.859 198.721 174.211 198.772 176.068C198.822 177.926 197.483 178.26 196.378 178.729C196.227 178.729 196.177 179.198 195.892 179.967C196.612 180.687 197.566 182.344 198.219 182.16C199.893 181.658 200.831 182.946 201.969 183.833C204.118 185.822 206.383 187.683 208.75 189.406C218.561 195.782 228.422 202.024 238.3 208.216C240.515 209.485 242.814 210.603 245.181 211.563C245.89 211.985 246.724 212.151 247.541 212.031C253.749 209.929 259.406 206.464 264.099 201.89C262.174 198.091 262.324 197.054 265.422 196.066C273.073 193.64 277.694 186.695 281.879 178.829L280.59 176.403C279.133 177.742 277.828 178.98 276.488 180.168C272.922 183.314 269.457 186.645 265.757 189.523C260.566 193.556 254.958 195.263 249.014 192.703C248.633 192.508 248.298 192.231 248.035 191.893C247.772 191.555 247.586 191.163 247.491 190.745C247.499 189.803 247.864 188.9 248.512 188.218C249.325 187.685 250.203 187.257 251.124 186.946C253.243 186.184 255.121 184.873 256.565 183.147C253.317 181.892 253.033 180.737 255.092 178.126C255.427 177.708 255.795 177.34 256.147 176.955C260.527 172.063 264.226 166.603 267.146 160.722C267.418 160.141 267.653 159.543 267.849 158.932L267.297 158.379C266.476 159.551 265.623 160.739 264.819 161.877C261.1 166.769 256.244 170.681 250.672 173.273C249.5 173.876 248.295 174.11 247.625 172.386C247.344 171.733 247.322 170.997 247.565 170.329C247.808 169.66 248.296 169.11 248.931 168.788C250.488 167.768 252.078 166.814 253.669 165.86C256.896 164.026 259.67 161.493 261.789 158.446C260.868 157.107 259.629 156.103 259.445 154.848C259.16 152.874 260.868 152.438 261.973 151.669C263.814 150.38 265.723 149.209 267.481 147.753C268.519 146.882 269.155 145.075 270.26 144.506C273.994 142.565 276.388 138.632 279.234 135.369C279.61 134.61 279.886 133.806 280.054 132.976C274.914 136.423 270.377 139.435 265.857 142.515C264.769 143.268 263.63 143.971 262.709 142.515C262.295 141.836 262.159 141.023 262.331 140.246C262.502 139.469 262.968 138.789 263.63 138.348C265.137 136.992 266.811 135.871 268.419 134.683C273.274 131.085 278.213 127.671 282.951 123.838C286.299 121.077 289.882 114.366 290.752 109.865C288.208 111.404 285.864 113.028 283.403 114.283C280.888 115.718 278.574 117.479 276.522 119.521C271.666 123.939 266.577 127.888 261.554 132.072C260.5 132.942 259.277 133.26 258.457 131.687C258.131 131.044 258.055 130.304 258.244 129.608C258.432 128.913 258.872 128.312 259.478 127.922C261.27 126.248 263.162 124.742 265.037 123.236C266.493 122.065 268 120.977 269.272 120.023C266.906 118.351 264.631 116.552 262.458 114.634C261.601 113.523 261.115 112.171 261.069 110.768C261.069 110.166 262.308 109.413 262.977 108.727C263.162 108.543 263.48 108.409 263.496 108.208C263.999 104.961 266.091 105.095 267.916 104.861C274.429 104.225 279.803 100.661 284.29 94.8201C290.797 86.5473 295.749 77.1634 298.906 67.1238C299.358 65.6177 299.894 64.2119 301.35 64.7809C302.807 65.3499 302.756 66.9564 302.505 68.5127C302.304 69.7679 302.037 71.023 301.785 72.2781C305.586 64.7139 309.688 57.4175 311.312 48.548C311.579 47.0586 311.914 45.7867 313.203 45.9206C314.493 46.0545 315.129 47.4937 315.028 49.1672C314.987 50.3445 314.808 51.5129 314.493 52.6481C313.639 55.4261 312.818 58.204 311.73 60.8816C310.056 65.2829 308.198 69.6005 306.339 74.1692L308.85 76.2275C309.215 75.0856 309.651 73.9677 310.156 72.8805C310.642 71.9769 311.278 70.8556 312.015 70.5879C313.371 70.0858 313.689 71.7427 314.108 72.9643C313.505 75.0562 312.902 77.148 312.433 78.604C313.12 81.315 313.706 83.4905 314.208 85.6995C314.409 86.553 314.208 87.5404 314.543 88.3269C316.401 93.5817 318.343 98.803 320.352 104.292L322.495 103.271C321.457 99.7569 320.403 96.4768 319.482 93.2303C317.623 86.5363 315.849 79.7252 314.024 72.9643C315.212 72.6965 315.698 72.0103 315.798 70.2699C315.801 69.7486 315.908 69.2331 316.112 68.7533C316.316 68.2735 316.614 67.839 316.987 67.4752C318.142 66.7389 318.879 68.0442 319.431 69.2658C319.616 69.6507 319.766 70.0524 319.967 70.4206C322.914 75.6419 325.844 80.8632 328.824 86.0343C329.496 87.1003 330.234 88.1231 331.034 89.0967C332.708 87.7412 332.39 86.5531 331.519 85.2143C329.025 81.4322 326.497 77.7003 324.153 73.7843C322.717 71.3543 321.491 68.807 320.486 66.1699C319.415 63.3919 318.628 60.4299 317.824 57.5012C317.383 56.1052 317.168 54.6475 317.188 53.1836C317.281 52.6777 317.478 52.1966 317.766 51.7704C318.054 51.3442 318.428 50.982 318.862 50.7068C319.298 50.4725 320.252 51.393 320.804 52.0289C321.154 52.6449 321.424 53.3028 321.608 53.9869C323.148 57.5012 324.454 61.3335 328.305 61.6682C328.548 61.7049 328.779 61.8028 328.974 61.9527C330.381 62.9568 330.649 64.1952 329.627 65.9356C329.326 66.4544 328.941 66.8895 328.439 67.6091C332.44 74.3031 336.173 80.7293 340.158 86.9379C345.934 95.8074 352.882 102.719 361.521 106.585C361.956 106.786 362.375 107.053 362.81 107.271C363.46 107.542 363.978 108.055 364.256 108.702C364.534 109.348 364.55 110.077 364.3 110.735C363.815 112.409 362.626 112.224 361.588 111.973C360.895 111.783 360.222 111.525 359.579 111.204C357.905 110.484 356.348 109.731 354.74 108.995L354.355 109.748C355.326 110.685 356.264 111.639 357.268 112.509C360.048 114.986 362.894 117.362 365.639 119.855C366.582 120.573 367.28 121.565 367.637 122.694C367.993 123.824 367.992 125.036 367.632 126.165C370.98 128.474 374.061 129.846 377.677 129.043C378.849 128.775 380.188 128.675 380.54 130.717C380.653 131.079 380.685 131.462 380.634 131.839C380.583 132.215 380.449 132.576 380.243 132.895C380.037 133.214 379.764 133.484 379.442 133.686C379.12 133.888 378.757 134.017 378.38 134.064C376.073 134.206 373.757 134.122 371.466 133.812C370.439 133.59 369.444 133.241 368.502 132.775C368.419 133.11 368.352 133.444 368.268 133.779L376.522 137.243C377.789 137.599 379.022 138.07 380.205 138.649C380.531 138.972 380.786 139.359 380.956 139.785C381.126 140.211 381.207 140.667 381.193 141.126C381.062 141.534 380.845 141.91 380.556 142.228C380.267 142.546 379.913 142.797 379.519 142.966C378.916 143.251 378.146 142.966 377.459 142.816C373.173 142.23 369.356 140.004 365.539 137.678C364.116 136.825 362.459 136.624 360.985 135.904C357.436 134.231 353.568 133.679 350.203 131.202C349.146 130.582 348.023 130.083 346.855 129.712C347.016 130.386 347.228 131.046 347.491 131.687C348.031 132.636 348.635 133.548 349.299 134.415C355.896 142.397 361.806 151.451 370.31 156.471C373.659 160.839 377.945 161.944 382.482 162.412C385.11 162.697 385.445 163.785 384.441 167.985C388.107 170.11 391.807 172.353 395.557 174.378C396.277 174.78 397.232 174.227 398.152 174.378C399.073 174.529 400.061 174.378 400.63 175.031C401.081 175.607 401.352 176.303 401.409 177.033C401.465 177.762 401.305 178.492 400.948 179.131C400.814 179.552 400.585 179.936 400.277 180.254C399.97 180.571 399.593 180.813 399.176 180.961C398.759 181.108 398.314 181.157 397.875 181.104C397.436 181.051 397.015 180.897 396.646 180.653C393.646 179.252 390.744 177.653 387.957 175.867C382.767 172.52 377.66 168.772 372.537 165.157C370.863 164.002 369.54 163.483 368.469 166.546C371.415 169.525 374.111 173.407 377.493 175.482C385.864 180.503 394.453 184.804 402.974 189.389C403.999 189.785 404.95 190.351 405.787 191.063C406.064 191.445 406.261 191.879 406.368 192.339C406.474 192.799 406.487 193.275 406.406 193.74C406.27 194.151 406.031 194.521 405.711 194.814C405.392 195.107 405.003 195.313 404.581 195.414C403.632 195.34 402.714 195.042 401.903 194.543C399.174 193.238 396.462 191.866 393.532 190.46C392.393 193.238 390.585 192.837 388.894 191.966C387.096 191.092 385.433 189.965 383.955 188.619C378.698 183.599 373.542 178.428 368.368 173.324L366.008 171.014C368.603 177.089 371.03 183.348 375.166 187.749C378.776 191.425 382.606 194.878 386.634 198.091C390.485 201.237 394.536 203.932 398.454 206.944C402.372 209.956 407.277 210.291 411.747 211.73C412.969 212.115 414.141 212.6 414.007 214.475C413.873 216.349 412.551 216.55 411.345 216.567C409.607 216.365 407.85 216.399 406.122 216.667C403.922 217.177 401.615 216.948 399.559 216.014C398.588 215.663 397.65 215.228 396.646 214.81C396.445 219.077 395.524 220.064 392.862 218.608C390.971 217.628 389.27 216.319 387.839 214.743C385.11 211.697 382.666 208.266 380.105 204.986C379.368 204.049 378.631 203.095 377.878 202.158C377.968 203.373 378.41 204.536 379.15 205.505C384.943 212.684 390.752 219.847 396.629 226.909C397.734 228.136 399.05 229.156 400.513 229.921C403.594 231.712 406.775 233.268 409.855 235.042C411.004 235.601 411.972 236.471 412.651 237.552C412.982 238.773 413.084 240.043 412.952 241.301C415.514 242.974 415.514 242.824 418.193 242.522C418.639 242.498 419.084 242.596 419.48 242.805C419.875 243.015 420.205 243.328 420.436 243.711C420.594 244.793 420.395 245.898 419.867 246.857C419.248 247.736 418.51 248.525 417.674 249.2C419.215 249.342 420.739 249.628 422.228 250.053C422.864 250.287 423.785 251.526 423.684 252.078C423.464 253.062 422.907 253.937 422.11 254.555C421.804 254.739 421.461 254.855 421.106 254.896C420.751 254.936 420.391 254.9 420.051 254.789C417.128 254.329 414.272 253.514 411.546 252.363C406.925 249.903 402.505 246.756 398.002 243.995C397.299 243.543 396.562 243.158 395.842 242.74C400.229 248.073 405.295 252.81 410.91 256.831C414.659 259.742 419.102 261.628 423.801 262.303C424.978 262.398 426.12 262.746 427.15 263.324C427.799 263.985 428.166 264.874 428.171 265.801C428.084 266.163 427.918 266.502 427.683 266.791C427.448 267.081 427.152 267.314 426.815 267.474C426.026 267.704 425.196 267.749 424.387 267.608C419.651 267.484 415.073 265.88 411.295 263.023C405.82 258.722 400.547 254.003 395.206 249.434C394.285 248.647 393.431 247.76 392.527 246.907C395.132 252.288 398.517 257.256 402.572 261.651C405.403 264.968 409.427 267.036 413.773 267.407C414.597 267.329 415.428 267.443 416.2 267.742C416.576 267.971 416.901 268.275 417.154 268.635C417.408 268.995 417.585 269.403 417.674 269.834C417.631 270.275 417.501 270.704 417.291 271.094C417.081 271.485 416.796 271.83 416.452 272.11C415.398 272.676 414.271 273.093 413.103 273.348C418.628 276.695 423.416 279.825 428.288 282.703C428.857 283.054 429.778 282.619 430.515 282.385C432.39 281.783 433.478 282.82 433.378 285.23C433.277 287.64 431.704 289.33 429.761 288.912C428.354 288.599 427.015 288.032 425.81 287.238C419.967 283.439 414.091 279.657 408.399 275.524C406.406 274.068 404.749 273.365 402.84 275.306C402.887 275.595 402.971 275.876 403.091 276.143C409.135 284.079 416.048 291.315 423.701 297.714C424.27 298.104 424.955 298.287 425.643 298.233C427.819 298.233 428.757 299.036 428.807 300.994C428.86 301.861 428.59 302.718 428.049 303.398C427.508 304.077 426.734 304.533 425.877 304.676C424.506 305.013 423.082 305.072 421.687 304.851C420.293 304.63 418.957 304.132 417.757 303.387C416.083 302.3 414.158 301.429 412.366 300.475C412.876 301.544 413.587 302.504 414.459 303.304C417.724 306.45 421.022 309.579 424.32 312.692C427.15 315.37 429.996 317.947 433.696 318.415C434.102 318.551 434.467 318.786 434.76 319.099C435.052 319.412 435.262 319.792 435.37 320.206C435.368 322.257 435.023 324.293 434.349 326.231C433.461 328.205 432.072 330.849 430.615 331.167C429.206 331.634 427.714 331.794 426.238 331.635C424.762 331.476 423.337 331.003 422.06 330.247C416.468 326.515 410.726 323.118 405.05 319.587C402.639 318.081 400.195 316.608 397.818 315.018C396.637 314.228 395.517 313.35 394.469 312.391C393.858 312.018 393.412 311.425 393.225 310.734C393.038 310.042 393.124 309.306 393.465 308.676C394.318 307.136 395.507 307.672 396.595 308.475C397.684 309.278 398.504 309.797 399.626 310.583L389.714 296.258C389.011 297.497 388.342 298.668 387.572 299.99C388.425 301.781 389.648 303.572 388.392 306.032C388.124 306.55 388.727 307.922 389.095 308.793C392.197 316.482 397.148 323.288 403.51 328.607C404.313 329.243 405 330.08 406.39 331.485C404.548 331.485 403.627 331.485 402.69 331.485C399.341 331.602 395.909 332.054 393.699 327.737C393.23 326.599 392.778 325.478 392.31 324.39L391.623 325.042L393.766 327.686C394.051 328.841 394.319 329.996 394.603 331.167C391.757 332.222 389.966 331.167 388.526 328.172C386.617 324.256 384.374 320.591 382.331 316.759C381.613 315.703 381.154 314.493 380.992 313.227C380.984 312.393 380.808 311.569 380.474 310.804C380.141 310.039 379.656 309.35 379.05 308.776C376.739 305.814 374.345 302.936 372.236 299.756C370.126 296.576 370.562 295.304 373.91 293.882C373.324 292.409 372.805 290.92 372.236 289.514C368.77 281.749 365.388 273.884 361.722 266.269C359.847 262.37 357.402 258.906 355.243 255.224C355.026 254.729 354.858 254.213 354.74 253.685C353.621 252.642 352.575 251.524 351.61 250.338C347.993 245.317 344.444 240.163 340.644 235.276C342.225 240.617 344.686 245.656 347.926 250.187C349.735 252.463 351.81 254.639 354.74 253.718C354.975 256.279 354.74 258.638 352.547 259.425C355.092 265.416 357.804 270.888 359.813 276.762C361.822 282.636 365.472 287.372 366.51 293.849C366.51 294.284 367.196 294.551 367.531 294.936C369.557 297.212 369.507 297.798 367.163 299.789C366.917 299.968 366.646 300.109 366.359 300.208C366.878 301.58 367.163 302.383 367.448 303.12C370.913 303.12 371.315 303.404 372.336 307.37C373.023 310.065 373.542 312.826 374.01 315.587C374.395 317.579 374.881 319.219 376.706 319.804C377.102 319.999 377.448 320.284 377.715 320.635C377.982 320.987 378.164 321.395 378.246 321.829C378.045 324.657 379.686 326.097 380.741 327.988L382.415 330.966L381.996 331.803C380.485 331.297 378.925 330.949 377.342 330.766C375.71 330.903 374.095 331.201 372.52 331.653C372.119 328.908 371.901 326.632 371.416 324.557C371.246 323.345 370.701 322.215 369.858 321.327C365.02 317.98 363.162 311.521 359.813 306.467C358.625 304.592 359.144 303.337 361.052 302.584C361.657 302.447 362.274 302.369 362.894 302.35L355.611 285.849L352.263 286.803C354.506 295.907 356.599 304.76 358.959 313.579C359.597 316.053 360.518 318.446 361.705 320.708C363.614 324.239 365.807 327.502 368.234 331.469C366.343 331.469 364.602 332.155 363.714 331.335C361.796 329.218 360.065 326.939 358.541 324.524C358.396 324.451 358.234 324.416 358.072 324.423C354.908 324.741 354.724 324.423 355.326 320.474C355.442 319.499 355.316 318.51 354.958 317.595C354.292 316.234 353.543 314.915 352.715 313.646L349.366 314.6C350.622 320.44 352.899 325.511 353.903 331.335H349.802C349.266 330.096 348.83 329.076 348.127 327.553C348.01 329.226 347.943 330.28 347.843 331.619L344.26 331.318C343.49 325.227 342.787 319.503 342.1 314.014L336.642 310.952C336.311 313.395 336.768 315.881 337.948 318.047C338.668 319.403 339.622 320.541 340.342 321.913C341.514 324.172 340.794 325.795 338.584 325.946C338.156 325.922 337.733 325.838 337.329 325.695C337.178 327.787 337.044 329.511 336.893 331.569L333.763 331.335C332.892 322.85 331.971 314.901 331.318 306.918C330.85 301.195 327.685 297.664 325.408 293.33C325.115 294.215 324.963 295.141 324.956 296.074C324.956 298.166 324.822 300.258 324.739 302.35C324.739 303.889 324.103 305.044 322.83 304.944C321.558 304.843 321.055 303.655 321.005 302.132C321.005 300.944 321.005 299.739 321.005 298.551C320.804 291.533 320.598 284.516 320.386 277.498C320.243 276.471 320.243 275.43 320.386 274.403C320.495 273.988 320.69 273.601 320.958 273.267C321.226 272.932 321.562 272.658 321.943 272.461C322.378 272.294 323.249 273.097 323.617 273.733C323.936 274.711 324.144 275.721 324.236 276.745C325.3 281.707 327.118 286.476 329.627 290.886C330.264 288.527 330.783 286.636 331.419 284.293C331.067 283.138 330.481 281.515 330.029 279.825C328.573 274.302 326.982 268.83 325.793 263.224C324.714 259.371 324.855 255.279 326.195 251.509C326.451 250.275 326.249 248.99 325.626 247.894C323.868 245.05 321.859 242.439 320.302 240.247C320.302 243.158 320.302 246.706 320.302 250.287C320.302 256.747 319.984 263.123 317.355 268.98C316.96 270.506 316.96 272.107 317.355 273.633C318.091 276.474 318.684 279.35 319.13 282.251C319.498 289.096 319.783 295.991 319.532 302.835C319.247 310.299 318.393 317.729 314.945 324.206C314.542 325.283 314.283 326.408 314.174 327.553L313.455 331.452H308.432C308.315 330.582 308.231 329.879 308.131 329.159L302.422 326.749L300.831 331.234H293.465C294.888 326.381 296.679 322.097 296.813 316.943C291.673 319.871 292.293 326.649 290.016 331.285H284.173C284.458 330.216 284.874 329.188 285.412 328.222C287.151 325.935 288.207 323.202 288.459 320.34C288.846 318.694 289.366 317.082 290.016 315.52C290.439 314.425 290.802 313.308 291.104 312.173C292.042 307.856 292.895 303.504 293.799 299.17C294.352 296.509 294.235 293.581 296.294 291.589C296.954 290.599 297.298 289.432 297.282 288.242C297.684 282.904 298.253 277.549 296.88 272.21C296.428 274.001 296.26 275.892 295.875 277.683C294.72 283.004 293.532 288.292 292.242 293.564C292.042 294.825 291.457 295.994 290.568 296.911C287.772 298.584 287.438 302.249 285.998 304.91C287.504 308.04 287.521 308.056 286.634 311.169C286.08 313.276 285.403 315.349 284.608 317.378C282.934 321.444 281.126 325.477 279.133 329.326C278.614 330.381 276.923 331.602 276.337 331.234C274.663 330.213 273.424 331.1 271.985 331.385C271.133 331.412 270.281 331.316 269.457 331.1C270.88 326.08 272.939 321.444 273.408 315.57C272.252 316.34 271.549 316.759 270.88 317.244C269.574 318.198 268.301 319.721 266.811 317.813C265.874 316.625 266.359 315.336 268.385 313.177L268.653 312.893C272.486 308.953 275.522 304.311 277.593 299.22C282.107 288.366 284.876 276.867 285.797 265.148C286.014 262.738 286.132 261.098 288.492 260.412C290.853 259.726 292.996 255.141 292.962 251.559C290.049 252.463 290.066 252.463 288.593 255.274C286.299 259.642 283.871 263.809 280.222 266.487C279.77 266.822 279.619 267.893 279.334 268.612C278.464 271.039 277.978 274.269 277.091 277.298ZM79.0662 182.729C81.8453 181.741 84.0889 178.896 85.3278 175.198L87.2363 173.039L86.6336 172.42L85.4115 175.282C82.9177 177.415 80.7763 179.928 79.0662 182.729ZM283.704 163.718C285.378 159.316 286.935 155.35 288.542 151.183L284.625 150.196C282.951 154.262 281.276 158.463 279.502 162.663L269.724 175.432C274.094 173.625 276.957 169.709 279.334 165.174C279.517 164.321 279.546 163.442 279.418 162.58C280.858 161.626 282.231 161.375 283.704 163.718ZM354.606 177.106C345.264 169.776 340.878 157.476 335.303 146.163C335.906 149.342 336.425 152.556 337.145 155.685C337.864 158.814 338.685 162.262 339.706 165.408C340.861 168.989 340.995 168.939 337.898 171.483C340.13 177.061 342.362 182.639 344.595 188.218C344.922 189.395 345.657 190.417 346.67 191.101C347.682 191.785 348.905 192.086 350.12 191.95C349.55 190.142 349.132 188.603 348.63 187.214C347.391 183.666 346.152 180.118 344.846 176.62C344.21 174.947 343.758 173.073 342.134 172.186C341.609 171.792 341.26 171.208 341.163 170.56C341.066 169.912 341.228 169.251 341.615 168.721C342.351 167.316 343.506 166.73 344.628 167.768C345.594 168.731 346.372 169.866 346.922 171.115C348.044 173.558 348.964 176.135 349.935 178.578C351.186 178.72 352.407 179.059 353.552 179.582C354.071 179.9 354.138 181.373 354.406 182.31C359.536 196.473 365.691 210.243 372.822 223.512C375.646 229.163 380.003 233.906 385.395 237.201C385.478 236.204 385.312 235.201 384.912 234.284C384.511 233.367 383.889 232.564 383.101 231.946C382.306 231.289 381.546 230.591 380.825 229.854C379.753 228.8 378.732 227.528 379.82 225.754C380.774 224.248 381.913 225.034 382.951 225.905C385.596 228.114 388.208 230.373 390.92 232.465C393.917 234.774 396.997 236.95 400.044 239.159C400.29 239.329 400.582 239.42 400.881 239.42C401.181 239.42 401.472 239.329 401.719 239.159L382.365 221.57C381.999 221.24 381.564 220.994 381.092 220.851C376.237 219.428 372.889 215.311 369.842 210.659C364.498 202.432 359.909 193.739 356.13 184.687C355.674 183.817 355.112 183.008 354.456 182.277C354.473 180.62 354.523 178.997 354.606 177.106ZM193.163 183.565C192.393 182.494 191.707 181.105 190.736 180.57C186.249 177.77 182.59 173.824 180.138 169.14C176.957 163.785 173.759 158.446 170.478 153.192C168.803 150.648 167.129 148.338 165.455 146.029L161.403 147.853C161.537 148.941 161.588 150.246 161.855 151.485C164.611 164.553 168.683 177.309 174.01 189.556C174.763 191.206 175.642 192.795 176.639 194.309C177.054 195.148 177.72 195.836 178.546 196.277C179.372 196.719 180.315 196.891 181.243 196.769C180.824 195.179 180.489 193.841 180.121 192.502C178.698 187.163 176.12 182.36 175.735 176.553C175.567 175.719 175.199 174.939 174.663 174.277C172.47 170.93 170.294 167.584 167.966 164.488C167.129 163.316 166.125 162.262 167.046 160.722C167.966 159.183 169.406 159.718 170.394 160.823C171.382 161.927 172.554 163.55 173.642 164.889C175.785 167.5 176.823 171.583 180.155 172.621C180.556 172.755 180.808 173.775 181.059 174.428L185.83 187.448C186.355 186.738 186.955 186.087 187.622 185.507C189.011 184.72 189.815 185.306 190.401 187.632C190.987 189.958 191.539 192.786 192.175 195.347C193.277 199.891 195.133 204.218 197.667 208.149C202.33 215.009 207.495 221.514 213.12 227.612C211.931 222.532 209.942 217.674 207.226 213.22C203.208 207.798 199.274 202.292 195.306 196.803C194.885 196.24 194.557 195.612 194.335 194.945C193.674 193.552 193.315 192.035 193.28 190.494C193.766 188.167 195.674 189.506 196.947 189.138C197.236 190.655 197.673 192.141 198.253 193.573C199.381 195.772 200.727 197.852 202.271 199.781C207.779 206.475 213.337 213.086 219.013 219.579C220.676 221.333 222.523 222.904 224.521 224.265C225.525 225.018 226.346 225.737 226.011 227.344C225.994 227.669 225.896 227.984 225.728 228.262C225.559 228.54 225.324 228.772 225.044 228.938C224.764 229.103 224.448 229.197 224.123 229.211C223.798 229.225 223.475 229.158 223.182 229.017C221.658 228.482 220.218 227.545 218.578 227.009C222.478 234.657 226.061 242.673 233.327 246.171C233.933 246.342 234.501 246.626 235.001 247.007C238.35 250.639 241.079 248.095 243.757 245.786C245.222 244.243 246.602 242.623 247.893 240.933C248.63 240.205 249.105 239.252 249.241 238.225C249.377 237.198 249.168 236.155 248.646 235.26C247.675 235.393 246.637 235.511 245.616 235.695C244.277 235.946 242.786 236.046 242.435 234.021C242.033 231.628 243.624 231.226 245.03 230.674C248.613 229.352 252.179 227.946 255.745 226.507C257.687 225.737 258.993 224.231 259.093 220.901L256.18 222.072C254.506 222.809 252.832 224.097 250.839 222.491C250.371 222.106 249.299 222.625 248.596 222.976C246.419 224.081 244.277 225.319 242.134 226.474C241.062 227.043 240.007 227.059 239.405 225.57C239.155 224.991 239.11 224.343 239.278 223.735C239.445 223.127 239.814 222.594 240.325 222.223C241.916 221.035 243.59 219.997 245.03 219.01C241.434 216.199 237.678 213.601 233.779 211.228C229.811 209.136 226.028 206.492 222.06 204.015C221.825 205.003 221.708 205.689 221.474 206.392C220.285 209.94 218.343 211.094 215.564 209.739C214.085 209.045 212.746 208.086 211.613 206.911C206.758 201.522 202.02 195.983 197.248 190.46C197.047 190.226 197.081 189.657 196.997 189.238C195.775 187.331 194.452 185.473 193.163 183.616V183.565ZM128.991 177.44C128.104 185.54 127.317 194.46 123.968 202.727C124.906 203.597 126.111 204.183 126.547 205.271C126.939 206.697 127.08 208.18 126.965 209.655C126.965 213.203 126.965 216.734 126.965 220.282L127.652 220.416C127.931 219.554 128.16 218.677 128.338 217.788C129.376 210.76 130.464 203.714 131.352 196.652C131.463 194.58 131.39 192.502 131.134 190.443C131.134 188.904 131.385 187.498 132.657 187.515C133.344 187.515 134.332 188.519 134.666 189.389C135.105 190.64 135.299 191.964 135.236 193.288C134.985 201.94 135.152 210.676 134.164 219.194C133.411 225.687 135.704 230.289 137.513 235.728C139.287 232.9 137.211 227.712 141.782 227.729C140.861 221.47 140.007 215.613 139.17 209.756C138.835 207.563 138.5 205.354 138.233 203.145C138.04 202.122 138.04 201.072 138.233 200.049C138.484 199.229 139.237 198.175 139.907 198.108C140.576 198.041 141.363 198.978 141.581 199.781C141.909 201.071 142.122 202.387 142.217 203.714C144.159 216.148 146.101 228.566 148.562 240.899C148.261 237.552 148.027 234.205 147.658 230.959C146.604 221.504 145.499 212.065 144.41 202.626C144.472 201.452 144.336 200.275 144.009 199.146C142 195.799 142.117 191.866 141.765 188.034C141.641 186.621 141.2 185.254 140.476 184.034C140.272 185.468 139.935 186.879 139.471 188.251C139.284 188.603 139.008 188.899 138.67 189.111C138.332 189.322 137.944 189.441 137.546 189.456C137.111 189.456 136.324 188.285 136.341 187.649C136.341 183.013 136.508 178.394 136.826 173.792C136.952 173.333 137.186 172.91 137.51 172.561C137.833 172.211 138.236 171.945 138.685 171.784C139.07 171.667 140.007 172.889 140.208 173.692C140.447 175.125 140.576 176.574 140.593 178.026C140.765 178.047 140.94 178.047 141.112 178.026C141.213 178.026 141.347 177.875 141.347 177.809V147.334C137.73 157.559 136.994 169.441 128.991 177.491V177.44ZM319.85 209.086C319.856 206.91 319.278 204.771 318.176 202.894C316.853 200.618 315.731 198.141 314.593 195.715C314.095 194.837 313.798 193.86 313.722 192.853C313.782 191.8 314.195 190.798 314.894 190.008C315.196 189.724 316.418 190.427 316.887 191.079C317.533 192.37 318.355 193.564 319.331 194.627C319.231 192.518 319.113 190.41 319.03 188.301C318.929 185.774 318.745 183.281 318.795 180.687C318.878 179.549 318.732 178.407 318.367 177.327C318.002 176.246 317.425 175.249 316.669 174.395C315.346 172.989 314.191 171.366 312.952 169.826L312.232 170.161C312.232 172.487 312.098 174.83 312.232 177.139C313.12 190.377 313.907 203.63 313.907 216.918C313.907 220.483 313.522 224.064 313.22 227.628C313.22 228.783 313.003 230.457 312.417 230.975C310.14 232.866 310.742 235.577 310.742 238.188C311.107 249.828 310.548 261.479 309.068 273.03C308.706 276.242 308.022 279.41 307.026 282.485C306.036 285.196 304.586 287.715 302.74 289.933C301.378 291.347 300.632 293.242 300.664 295.204C300.662 296.544 300.55 297.882 300.329 299.204C300.007 300.62 300.086 302.098 300.556 303.472C301.026 304.846 301.869 306.063 302.991 306.985C303.552 307.531 303.963 308.212 304.183 308.962C304.403 309.713 304.425 310.508 304.246 311.27C303.995 314.366 303.577 317.445 303.242 320.424C307.227 323.335 307.88 321.277 308.599 317.679C309.319 314.081 309.587 310.081 310.022 306.534C309.47 306.065 309.286 305.764 309.135 305.797C307.896 305.998 306.49 306.868 305.703 304.91C304.916 302.952 306.122 302.015 307.126 300.927C309.219 298.685 309.453 295.505 309.453 292.342C309.45 290.41 309.259 288.482 308.884 286.586C308.482 284.544 308.532 283.138 310.341 282.335C310.826 282.117 311.228 281.063 311.412 280.31C311.65 279.146 311.795 277.966 311.847 276.779C312.617 265.823 313.382 254.867 314.141 243.912C314.141 243.192 314.141 242.238 314.543 241.82C316.652 239.761 316.016 236.983 315.732 234.44C315.447 231.896 315.731 229.954 318.377 229.737L315.849 215.947C315.631 214.776 315.413 213.621 315.279 212.433C315.112 210.893 315.079 209.203 316.552 208.785C318.025 208.367 318.578 209.739 318.896 211.345C319.214 212.952 319.515 214.157 319.833 215.562L320.269 215.345C320.118 213.303 319.934 211.228 319.9 209.136L319.85 209.086ZM231.117 303.756C226.346 303.153 223.483 299.22 220.352 295.488C218.812 296.359 217.355 297.162 215.849 297.999C214.727 298.551 213.454 298.852 212.801 297.112C212.547 296.452 212.542 295.722 212.789 295.059C213.036 294.396 213.516 293.847 214.141 293.514L217.054 291.271C216.401 290.1 215.765 289.062 215.196 287.924C212.584 282.982 209.983 278.034 207.394 273.08C206.983 272.502 206.709 271.838 206.59 271.139C206.59 270.085 206.758 268.529 207.293 268.144C207.829 267.759 209.135 268.144 209.637 268.897C210.491 270.181 211.188 271.564 211.713 273.014C214.23 278.433 217.269 283.595 220.787 288.426C223.657 286.998 226.048 284.765 227.668 282C226.949 282.435 226.212 282.854 225.509 283.322C224.806 283.791 223.835 284.728 223.014 284.895C222.586 284.993 222.14 284.971 221.724 284.833C221.307 284.694 220.937 284.443 220.654 284.109C220.516 283.593 220.482 283.056 220.554 282.527C220.626 281.999 220.802 281.49 221.072 281.03C222.132 279.766 223.315 278.611 224.605 277.582C220.051 273.733 215.648 270.152 211.345 266.386C207.042 262.621 202.84 258.956 199.927 253.3L197.114 257.099C197.208 258.117 197.364 259.129 197.583 260.128C199.693 268.495 201.802 276.863 204.045 285.23C204.534 287.151 205.337 288.977 206.423 290.635C211.345 297.831 216.468 304.91 221.491 311.989C222.011 312.667 222.57 313.316 223.165 313.93C226.379 311.571 228.623 308.023 231.134 303.806L231.117 303.756ZM323.6 199.999C323.549 201.745 323.896 203.48 324.615 205.072C325.335 206.664 326.407 208.071 327.752 209.186C327.482 207.341 327.354 205.479 327.367 203.614C327.367 202.693 328.238 201.288 328.84 201.171C329.443 201.053 330.515 202.108 330.799 202.961C331.921 206.308 332.859 209.873 333.763 213.387C333.907 214.246 334.252 215.059 334.77 215.76C335.288 216.461 335.964 217.03 336.743 217.42C338.118 218.008 339.38 218.829 340.476 219.847C341.301 220.696 341.773 221.826 341.799 223.01C341.615 224.499 340.359 224.683 339.221 224.432C338.568 224.231 337.915 223.98 336.86 223.612L337.898 228.298C338.869 227.946 339.773 227.227 340.51 227.461C341.246 227.695 342.05 228.699 342.653 229.57C344.297 232.079 346.127 234.462 348.127 236.699C347.998 236.019 347.807 235.353 347.558 234.707C346.353 232.314 345.08 229.971 343.875 227.595C342.351 224.633 342.201 222.859 343.389 222.156C345.365 221.052 346.068 223.194 346.905 224.733C350.89 232.13 354.807 239.56 358.792 246.957C359.56 248.566 360.509 250.082 361.621 251.476C363.061 253.149 364.652 254.471 363.664 257.316L372.889 264.01L373.106 263.742C372.169 262.537 371.198 261.366 370.294 260.128C367.09 255.754 363.904 251.375 360.734 246.991C360.258 246.316 359.817 245.618 359.411 244.899C359.01 244.38 358.777 243.75 358.745 243.095C358.712 242.44 358.88 241.79 359.227 241.234C360.131 239.995 361.119 240.514 362.04 241.418C362.462 241.719 362.917 241.972 363.396 242.171C362.023 237.351 361.354 232.749 359.512 229.134C357.344 225.421 354.729 221.988 351.727 218.909C348.378 215.127 344.863 211.68 341.447 208.032C340.627 207.139 339.903 206.164 339.287 205.12C338.89 204.599 338.692 203.954 338.729 203.301C338.766 202.647 339.035 202.028 339.488 201.555C340.376 200.635 341.163 201.07 341.983 201.974C343.44 203.647 344.913 205.321 346.57 207.329C346.202 204.969 346.202 204.953 344.143 202.928C342.87 201.689 341.782 200.284 339.924 200.083C338.534 199.932 337.228 198.627 335.387 197.556C336.508 203.63 337.145 209.27 341.213 212.885L341.497 213.136C342.082 213.555 342.488 214.177 342.637 214.88C342.785 215.583 342.666 216.316 342.301 216.935C341.414 218.441 340.225 217.956 339.154 217.203C336.371 215.131 334.432 212.124 333.696 208.735C332.564 204.768 331.724 200.724 331.184 196.635C330.882 192.961 329.342 189.497 326.815 186.812C325.76 185.674 324.772 184.419 323.751 183.214L322.88 183.565C323.165 189.172 323.65 194.627 323.617 200.083L323.6 199.999ZM326.145 143.217C324.618 139.458 323.364 135.594 322.395 131.654C320.235 123.437 318.276 115.136 316.217 106.869C315.933 105.438 315.301 104.099 314.375 102.97C314.258 104.643 314.124 106.317 313.99 108.124C313.287 117.613 311.898 126.784 306.975 134.448C306.587 135.047 306.325 135.719 306.205 136.423C305.072 143.181 303.127 149.778 300.413 156.07C300.27 156.493 300.27 156.952 300.413 157.375C303.761 152.054 307.561 147.2 308.784 140.222C308.784 139.653 308.934 138.833 309.236 138.548C310.629 137.206 311.541 135.441 311.831 133.528C311.981 132.875 312.852 132.005 313.304 132.089C313.756 132.172 314.626 132.992 315.129 133.762C315.397 134.13 315.313 134.9 315.43 135.436C316.502 140.925 317.54 146.447 318.779 151.903C319.214 153.995 319.532 156.321 321.641 157.057C322.043 157.208 322.411 158.179 322.545 158.848C323.612 163.402 325.651 167.672 328.522 171.366C331.053 175.188 333.94 178.763 337.145 182.043C336.86 180.988 336.626 179.884 336.274 178.863C334.968 175.031 333.579 171.232 332.273 167.383C331.696 165.92 330.791 164.609 329.627 163.55C327.135 161.056 325.126 158.123 323.701 154.898C321.005 147.97 318.963 140.624 316.652 133.428C316.167 131.905 316.167 130.332 317.556 129.662C318.946 128.993 319.699 130.382 320.168 131.821C321.625 136.39 323.014 140.992 324.471 145.56C325.023 147.318 325.676 149.024 326.58 151.568C327.518 148.862 327.368 145.898 326.162 143.301L326.145 143.217ZM129.091 243.259C128.567 244.694 127.784 246.022 126.781 247.175C124.866 249.344 123.551 251.974 122.964 254.806C123.633 257.082 124.186 258.939 124.722 260.814C124.872 261.366 124.722 262.27 125.073 262.487C127.869 264.629 126.379 266.889 125.308 269.181C124.981 269.982 124.784 270.829 124.722 271.691C123.935 279.657 123.181 287.623 122.395 295.823C123.047 296.359 124.069 297.179 125.475 298.267C126.346 295.204 127.501 292.091 128.12 288.828C129.694 280.461 131.05 271.942 132.473 263.491C132.808 261.466 132.942 259.475 134.415 257.969C135.052 256.884 135.44 255.673 135.554 254.421C136.006 252.463 136.458 250.488 136.726 248.48C136.895 247.363 136.827 246.222 136.525 245.133C135.386 241.786 134.081 238.439 132.59 234.339C131.285 237.853 130.28 240.698 129.108 243.342L129.091 243.259ZM94.3684 178.294C95.7078 174.947 95.8083 174.763 98.8218 176.888C98.939 172.888 100.998 169.24 98.8218 165.291C98.7373 164.951 98.7234 164.597 98.781 164.252C98.8386 163.907 98.9664 163.577 99.1566 163.283C100.831 161.944 100.831 159.936 101.082 157.81C101.567 154.078 101.601 154.078 105.05 152.656C106.105 145.661 107.21 138.381 108.298 131.101L107.528 130.549C106.322 132.312 104.996 133.989 103.56 135.57C101.886 137.243 101.752 139.352 101.3 141.695C98.7716 154.982 95.172 167.768 88.7933 178.913C86.6392 182.314 84.1671 185.502 81.4101 188.435C80.2427 189.441 78.934 190.27 77.5259 190.895C77.1911 192.318 76.6554 194.543 76.1197 196.769L76.8396 197.221C77.1779 196.148 77.6564 195.124 78.2626 194.175C78.8318 193.506 79.9367 192.77 80.5227 193.088C80.8735 193.465 81.1412 193.912 81.3084 194.399C81.4757 194.886 81.5388 195.403 81.4938 195.916C81.061 197.741 80.4614 199.522 79.7024 201.237C79.0997 202.811 78.3798 204.3 77.7268 205.823L78.3295 206.308C85.0837 197.877 90.4991 188.456 94.3852 178.378L94.3684 178.294ZM329.293 237.753C329.177 236.993 329.177 236.22 329.293 235.46C329.611 234.49 330.18 233.168 330.833 232.95C332.055 232.515 332.658 233.837 332.875 235.293C333.193 237.351 333.428 239.426 333.813 241.451C334.198 243.476 334.717 245.133 335.169 246.957C336.291 247.058 337.513 246.723 338.216 247.359C338.94 248.347 339.417 249.495 339.606 250.706C340.526 254.254 341.28 257.868 342.201 261.416C342.611 264.063 343.721 266.553 345.415 268.629C346.537 270.256 347.374 272.061 347.893 273.967C348.297 275.318 348.978 276.57 349.891 277.645C350.805 278.719 351.932 279.593 353.2 280.21C352.966 278.871 352.882 277.95 352.631 277.097C350.7 270.526 348.752 263.96 346.788 257.4C346.542 256.288 346.112 255.224 345.516 254.254C339.885 246.811 335.819 238.306 333.562 229.252C333.277 228.114 332.741 227.076 332.507 225.905C331.511 220.887 328.659 216.43 324.521 213.42C324.414 216.212 324.805 219 325.676 221.654C326.189 223.171 326.625 224.712 326.982 226.273C327.111 227.352 326.856 228.442 326.262 229.352C325.274 230.423 324.287 229.57 323.617 228.365C323.121 227.36 322.561 226.387 321.943 225.453C322.439 229.917 323.45 234.308 324.956 238.54L329.293 237.753ZM335.989 279.105C336.42 279.858 336.635 280.715 336.609 281.582C335.721 286.452 338.568 289.598 339.84 293.464C339.957 293.832 340.326 294.334 340.577 294.334C343.774 294.116 343.674 297.413 343.925 299.89C344.394 303.622 346.302 305.379 349.065 307.32C348.546 305.161 347.692 303.471 348.01 302.3C348.328 301.128 349.868 300.743 351.074 299.856C351.074 299.605 351.074 298.702 350.622 298.3C347.953 294.986 346.08 291.105 345.147 286.954C342.526 277.051 339.1 267.38 334.901 258.036C333.227 254.488 332.122 250.622 330.749 246.907L329.828 247.292C331.62 258.052 331.151 269.382 335.989 279.189V279.105ZM113.32 148.037C114.224 146.514 115.329 144.506 114.074 142.431C113.643 141.853 113.41 141.152 113.41 140.431C113.41 139.711 113.643 139.009 114.074 138.431C119.096 132.072 120.101 123.738 121.055 115.504C122.177 105.932 122.847 96.2927 123.751 86.0844C120.804 90.1309 118.588 94.662 117.205 99.4724C116.167 104.811 114.961 110.116 113.856 115.421C113.512 116.518 113.238 117.636 113.036 118.768C112.232 128.658 111.479 138.565 110.675 148.891C111.345 148.857 112.768 148.941 113.27 148.121L113.32 148.037ZM235.537 266.755C236.407 265.976 237.108 265.029 237.597 263.97C238.087 262.91 238.354 261.763 238.383 260.596C238.383 259.073 240.593 257.467 241.916 256.061C243.239 254.655 244.444 253.718 245.716 252.563C245.549 252.262 245.398 251.961 245.248 251.643C244.628 252.112 243.992 252.563 243.389 253.049C240.593 255.208 237.881 257.584 235.018 259.458C233.736 260.354 232.246 260.906 230.689 261.061C229.132 261.217 227.562 260.97 226.128 260.345C223.533 259.241 223.215 258.471 223.868 254.923L204.045 239.293C207.796 245.987 211.764 251.994 215.346 258.287C218.929 264.579 224.203 268.729 228.74 274.352C231.352 271.558 233.528 269.282 235.571 266.838L235.537 266.755ZM191.221 236.632C191.774 236.046 192.711 235.36 193.247 235.594C193.599 235.888 193.889 236.25 194.099 236.659C194.309 237.067 194.435 237.513 194.469 237.971C194.77 240.631 194.904 243.326 194.971 246.003C194.906 247.182 195.216 248.352 195.856 249.344C196.497 250.336 197.436 251.1 198.537 251.526C198.336 250.12 198.169 249.083 198.035 248.045C197.834 246.372 198.035 244.916 199.492 244.497C200.948 244.079 201.317 245.367 201.668 246.74C202.698 251.029 205.327 254.764 209.018 257.182C208.566 256.262 208.147 255.308 207.662 254.421C201.45 243.192 195.072 232.097 189.112 220.667C187.069 216.768 186.014 212.015 184.558 207.63C183.988 205.957 183.553 204.015 183.168 202.61C179.719 200.702 177.693 203.564 175.048 205.505C177.355 217.33 180.994 228.856 185.897 239.862C185.545 238.489 185.177 237.134 184.842 235.762C182.777 227.517 180.724 219.261 178.681 210.994C178.351 210.014 178.203 208.981 178.246 207.948C178.543 206.956 178.977 206.01 179.535 205.137C180.255 205.722 181.209 206.107 181.645 206.911C182.012 207.863 182.253 208.858 182.364 209.873C184.507 218.106 186.65 226.323 188.793 234.523C189.162 235.929 189.714 237.251 190.468 239.326C190.836 238.054 190.869 237.117 191.255 236.715L191.221 236.632ZM152.246 230.657C152.676 232.008 153.237 233.314 153.92 234.557C155.594 237.904 155.594 237.904 152.798 240.899C155.576 252.753 159.541 264.297 164.635 275.356C163.664 267.608 162.592 259.86 161.772 252.078C161.219 246.941 161.236 241.686 160.583 236.565C160.403 233.007 159.148 229.588 156.984 226.758C155.469 224.986 154.33 222.925 153.635 220.7C152.631 217.554 152.262 214.006 151.492 210.81C150.973 208.618 150.22 206.526 149.567 204.4L148.613 204.835C148.983 213.54 150.199 222.188 152.246 230.657ZM111.311 192.82C111.144 189.138 110.876 185.473 110.625 181.105C108.767 184.201 107.277 186.795 105.602 189.255C104.497 190.929 103.158 192.268 101.216 190.209C100.596 193.071 100.128 195.481 99.5417 197.874C98.8944 201.228 97.5168 204.399 95.5069 207.162C94.9493 207.915 94.6079 208.806 94.5191 209.739C94.1006 214.04 93.7323 218.34 93.4811 222.658C93.2133 227.679 93.0792 232.699 92.8783 237.435C94.7869 236.297 94.8205 236.314 95.5571 233.285C97.6264 224.172 98.9311 214.902 99.4579 205.572C99.4672 203.938 99.6242 202.308 99.9268 200.702C100.161 199.832 101.132 199.263 101.785 198.543C102.338 199.38 103.342 200.217 103.459 201.07C103.61 203.413 103.342 205.789 103.208 209.254C108.214 204.936 111.546 200.35 111.228 192.87L111.311 192.82ZM283.352 190.494C284.123 189.791 284.926 189.105 285.68 188.368C286.751 187.314 287.94 186.209 289.028 187.967C290.116 189.724 289.028 191.029 288.023 192.15C285.813 194.594 283.604 197.02 281.327 199.413C279.904 200.936 278.313 202.158 278.598 205.153C278.698 206.275 277.895 207.53 277.962 209.036C279.334 206.66 280.757 204.317 282.08 201.907C283.754 198.71 283.754 198.677 286.952 200.083C288.409 196.652 288.626 191.146 293.85 193.489C297.503 184.195 300.191 174.549 301.869 164.705L301.216 164.086C298.253 167.801 295.273 171.483 292.309 175.215C291.824 175.834 291.472 176.637 291.004 177.306C289.329 179.75 287.655 182.427 284.307 181.624C285.646 185.958 285.646 185.958 283.352 190.494ZM298.588 223.545C298.208 226.603 297.604 229.629 296.78 232.599C295.859 236.08 294.67 239.443 293.833 242.991C296.68 239.538 298.507 235.36 299.107 230.925C300.613 222.959 301.936 214.927 303.342 206.927C303.881 204.625 304.255 202.287 304.464 199.932C304.832 188.937 308.817 178.679 308.348 167.55C308.386 165.976 308.047 164.415 307.361 162.998C307.076 165.492 307.009 167.517 306.607 169.441C305.552 174.462 304.431 179.482 303.175 184.502C302.338 187.849 300.915 190.828 301.501 194.677C301.509 196.587 301.145 198.48 300.429 200.25C298.956 205.438 297.382 210.559 295.675 216.299C298.521 217.504 298.922 220.483 298.588 223.545ZM79.669 236.431C82.1468 233.971 82.3476 230.289 82.515 226.691C82.515 225.018 82.3979 223.344 82.3476 221.771C82.2974 220.198 82.3476 218.541 83.9214 218.424C85.4951 218.307 85.8467 219.83 86.0309 221.403C86.1816 222.725 86.2318 224.081 86.2987 225.419C86.2987 226.457 86.2987 227.495 86.4159 228.449C87.7051 229.369 88.3412 228.549 88.5756 227.244C89.0779 224.482 89.5467 221.688 89.848 218.876C90.704 211.417 90.9783 203.903 90.6684 196.401C88.743 199.363 87.32 201.606 85.8802 203.781C84.4404 205.957 82.783 208.216 81.0083 210.776C83.3354 212.935 82.8834 215.546 81.8454 218.24C79.2169 225.068 76.6219 231.929 73.9934 238.757C73.6083 239.778 73.1563 240.749 72.721 241.753L73.1563 242.255C75.3327 240.314 77.5762 238.489 79.669 236.431ZM261.069 273.248C258.909 276.16 256.716 279.055 254.372 282.218C256.414 284.51 255.51 286.853 254.489 289.347C250.505 299.036 244.243 306.165 237.613 312.592C234.265 315.788 232.591 319.788 230.498 324.875C233.009 323.419 234.851 322.716 235.755 319.855C236.235 318.649 237.14 317.66 238.3 317.077C242.251 315.085 245.164 311.47 247.943 307.621C248.426 306.79 248.856 305.929 249.232 305.044C250.153 303.371 251.007 301.697 252.045 300.124C253.468 298.016 255.393 296.308 256.448 293.949C259.344 287.339 261.889 280.561 264.551 273.767C262.927 271.558 262.006 272.026 261.069 273.315V273.248ZM163.965 78.6207C163.857 78.1967 163.699 77.7867 163.496 77.399C160.014 72.5682 156.526 67.743 153.032 62.9233C151.81 61.2499 150.521 59.5763 152.128 57.1163C152.329 56.2957 152.234 55.4308 151.861 54.673C150.722 52.1628 149.985 49.4517 147.96 47.5272C145.934 45.6027 144.996 41.9042 144.461 38.4736C143.953 34.1396 142.79 29.9077 141.012 25.9224V55.1751C143.079 55.2962 145.13 55.61 147.139 56.1122C147.943 56.3632 148.562 57.9363 149.115 59.0408C152.69 66.3593 156.832 73.3871 161.504 80.0599L163.965 78.6207ZM253.317 251.292C254.606 252.563 254.673 254.739 253.234 255.157C248.847 256.429 248.797 261.717 247.005 265.449C254.221 259.977 259.445 251.844 264.785 243.861C264.333 242.589 263.463 241.351 263.597 240.33C263.908 238.977 264.533 237.716 265.422 236.648C268.67 232.113 272.001 227.729 275.249 223.261C276.317 221.727 277.132 220.032 277.66 218.24C277.062 218.928 276.503 219.648 275.986 220.399C272.002 226.501 267.139 231.982 261.554 236.665C258.571 239.216 255.81 242.015 253.3 245.033C252.313 246.204 252.045 248.38 251.342 250.354C252.007 250.605 252.646 250.919 253.25 251.292H253.317ZM177.208 262.822L181.36 266.286C181.755 266.52 182.093 266.84 182.348 267.222C182.603 267.604 182.769 268.038 182.834 268.493C182.898 268.948 182.859 269.411 182.72 269.849C182.581 270.287 182.345 270.688 182.03 271.022C181.707 271.475 181.548 272.024 181.578 272.578C182.632 278.586 182.549 285.163 186.902 289.933C187.839 288.795 188.911 287.121 190.25 288.711C191.346 290.123 192.357 291.598 193.28 293.129C193.813 291.342 193.639 289.419 192.795 287.757C188.475 280.712 186.198 272.378 183.737 264.178C182.365 259.575 181.008 255.04 178.145 251.492C177.123 250.043 176.216 248.515 175.433 246.924L174.713 247.091C175.567 252.614 176.421 258.119 177.141 262.822H177.208ZM92.2924 131.921C91.953 133.457 91.3889 134.935 90.6182 136.306C87.6046 142.699 84.5576 149.041 81.5775 155.283C82.6322 156.405 84.0553 157.208 84.4236 158.496C84.7565 160.227 84.7051 162.009 84.273 163.718C83.9047 165.676 83.1847 167.533 82.8499 169.592C85.8525 165.496 88.2437 160.987 89.9485 156.204C87.1358 153.66 87.0856 153.543 88.4919 150.096C89.2286 148.238 90.1662 146.464 90.8359 144.59C91.1372 143.837 91.6394 142.715 91.405 142.163C90.3168 139.402 91.6729 137.528 92.7611 135.687C96.478 128.885 98.618 121.336 99.0227 113.597C96.9969 119.688 93.2969 124.976 92.2924 131.921ZM227.082 296.175C230.13 294.635 232.775 293.162 235.454 291.957C236.42 291.546 237.287 290.933 237.997 290.159C238.707 289.386 239.244 288.47 239.572 287.472C240.61 284.627 241.866 281.916 242.92 279.105C243.387 277.525 243.772 275.922 244.076 274.302C242.915 274.265 241.765 274.535 240.742 275.084C239.719 275.634 238.859 276.443 238.249 277.431C236.227 280.261 234.035 282.966 231.687 285.531C229.41 288.075 226.965 290.351 224.236 293.112C225.542 294.451 226.497 295.505 227.082 296.158V296.175ZM100.529 270.938C100.228 275.239 99.6589 279.507 99.1064 283.757C98.9055 285.431 98.487 286.904 98.3865 288.661C101.476 284.761 104.032 280.467 105.987 275.892C108.432 270.871 107.427 265.299 107.662 259.927L97.6164 264.947C100.546 265.801 100.697 268.428 100.529 270.922V270.938ZM174.529 299.773L178.43 296.643C176.94 292.259 175.35 287.623 173.776 283.004C171.264 275.791 169.667 268.291 169.021 260.68C168.481 257.591 167.634 254.564 166.493 251.643L165.472 251.994C168.218 267.993 168.988 284.628 174.529 299.756V299.773ZM125.843 76.4117C125.671 76.8183 125.597 77.2596 125.626 77.7002C128.489 87.8583 128.974 98.485 129.577 109.112C129.577 109.112 129.744 109.262 130.28 109.714C130.665 103.857 131.151 98.3176 131.352 92.7784C131.619 85.9338 132.122 79.0223 129.443 72.6128C129.266 71.9201 129.307 71.1897 129.56 70.521C131.05 66.5213 131.067 66.5213 130.247 60.8816C128.773 66.0583 127.306 71.235 125.843 76.4117ZM301.735 273.398C305.234 264.194 303.409 254.689 304.062 244.849C297.784 251.024 296.009 258.755 297.014 268.11C299.709 267.625 299.709 267.625 301.735 273.398ZM400.212 287.941C398.538 285.95 396.863 283.908 395.055 282.017C394.084 280.979 392.644 280.477 391.941 279.239C390.1 276.059 387.789 274.369 384.725 274.218C385.797 282.184 392.611 290.786 403.46 297.413C401.836 293.899 399.81 291.539 400.212 287.941ZM303.208 107.857C303.225 107.261 303.286 106.668 303.393 106.083C303.794 104.945 304.129 103.321 304.849 102.953C305.569 102.585 306.523 103.723 307.595 104.259C311.345 99.238 310.759 93.0797 309.855 86.871L308.918 86.4191C306.925 90.72 304.816 94.9205 303.024 99.3385C301.212 103.342 300.38 107.719 300.597 112.107C300.831 115.555 299.961 119.119 299.492 123.504C301.341 118.452 302.589 113.2 303.208 107.857ZM295.775 120.391C295.306 120.391 295.005 120.391 294.938 120.542C292.22 126.015 288.655 131.024 284.374 135.386C283.338 136.465 282.49 137.709 281.862 139.067C279.234 144.556 276.723 150.095 274.195 155.635C274.024 156.332 273.923 157.043 273.893 157.76C275.366 155.819 276.438 154.547 277.392 153.158C282.415 145.912 287.689 138.883 291.221 130.148C291.707 128.959 293.08 128.357 294.57 127.068C294.837 125.378 295.289 122.951 295.775 120.391ZM80.5898 266.119C79.9218 265.161 79.6357 263.988 79.7874 262.83C79.9391 261.673 80.5178 260.613 81.4101 259.86C82.5888 258.477 83.4413 256.847 83.9046 255.09C85.4282 250.07 86.734 245.049 88.1738 239.828L85.2106 237.117C82.5151 248.162 80.188 259.107 75.1654 268.512C77.3418 270.453 77.3418 270.453 80.5898 266.119ZM402.991 305.446C405.928 307.33 408.377 309.882 410.14 312.893C411.915 316.223 414.799 318.828 418.293 320.256C421.508 321.411 424.705 322.649 427.92 323.854L428.372 322.683C427.116 321.545 425.911 320.29 424.571 319.336C416.686 313.545 408.767 307.822 400.848 302.082C400.644 301.983 400.422 301.926 400.195 301.915L399.71 302.534C400.726 303.588 401.823 304.562 402.991 305.446ZM213.17 239.51C216.518 245.066 221.692 246.874 226.563 249.551L202.74 222.775C205.1 229.519 207.595 236.163 213.17 239.51ZM280.456 258.755C282.164 256.449 283.703 254.021 285.06 251.492C288.916 243.797 291.957 235.721 294.134 227.394C294.998 225.102 295.069 222.586 294.335 220.248C293.599 222.056 293.029 223.261 292.661 224.533C290.987 229.553 289.313 234.741 287.538 239.711C285.864 244.129 284.089 248.497 282.063 252.664C280.573 255.71 278.715 258.387 276.857 261.299C277.616 261.194 278.34 260.909 278.967 260.466C279.593 260.023 280.104 259.437 280.456 258.755ZM79.9368 135.419C79.6848 135.763 79.508 136.157 79.4178 136.574C77.978 141.427 76.5549 146.297 75.1486 151.083C79.6355 147.619 87.8223 132.172 89.9485 124.173C87.4204 127.001 83.6033 131.202 79.9368 135.419ZM109.62 163.048C105.1 162.965 104.313 163.751 103.777 168.571C103.124 174.328 102.472 180.068 101.835 185.825C107.243 179.649 108.9 171.667 109.62 163.048ZM347.541 117.245L350.89 113.262C347.793 110.032 344.327 106.401 340.845 102.803C340.582 102.553 340.249 102.389 339.89 102.334C338.132 102.05 336.374 101.815 334.633 101.564C337.563 108.492 342.837 112.726 347.541 117.245ZM274.914 267.006C274.58 267.006 274.077 266.671 273.943 266.855C271.951 269.482 269.122 271.156 268.151 274.904C267.314 278.251 265.305 281.046 266.192 284.945C266.426 285.916 265.539 287.405 265.003 288.527C263.58 291.522 262.073 294.451 260.583 297.413C266.61 291.137 275.35 272.143 274.914 267.006ZM77.1409 245.083C75.1653 246.556 73.7925 247.459 72.4531 248.647C71.8496 249.346 71.4194 250.178 71.1975 251.074C70.5446 253.082 70.1093 255.208 69.4061 257.182C67.8156 261.634 66.0577 266.035 64.4839 270.453L65.1368 271.072C71.4653 264.546 74.5459 255.526 77.1409 245.083ZM293.749 148.02C293.007 151.311 292.079 154.557 290.97 157.743C292.025 157.409 292.644 157.459 292.946 157.057C297.885 148.61 301.132 139.283 302.505 129.595C299.441 135.67 294.988 140.54 293.749 148.054V148.02ZM192.426 255.325L183.721 248.497C183.684 249.892 184.054 251.267 184.785 252.456C185.516 253.644 186.577 254.594 187.839 255.191C188.057 255.291 188.258 255.442 188.475 255.559C189.731 256.262 191.388 256.613 191.054 259.057C190.719 261.5 188.86 260.529 187.32 261.098C187.839 262.772 188.308 264.445 188.76 265.935C191.723 265.935 191.723 265.935 193.197 269.148C193.783 270.42 194.419 271.675 195.072 272.913C195.348 273.376 195.65 273.823 195.976 274.252L196.378 273.984C194.954 267.474 193.548 260.78 192.426 255.325ZM374.178 208.902C374.836 209.718 375.57 210.469 376.371 211.145L377.024 210.341C375.802 208.283 374.613 206.191 373.307 204.2C372.001 202.208 371.215 200.217 373.19 198.141C368.268 194.477 364.953 189.188 361.772 183.733C361.102 182.578 360.299 181.557 359.562 180.486C363.008 190.626 367.933 200.201 374.178 208.902ZM392.695 256.094C390.703 253.288 388.918 250.341 387.354 247.275C386.002 244.151 383.596 241.598 380.557 240.062C378.665 238.991 376.873 237.669 374.898 236.615C380.647 245.048 387.057 253.011 394.067 260.429L394.821 259.475C394.101 258.287 393.331 257.166 392.695 256.028V256.094ZM283.051 218.223C280.054 223.244 277.057 228.097 274.01 232.984C273.136 234.068 272.637 235.407 272.587 236.799C272.436 238.352 271.951 239.853 271.164 241.201C270.11 243.326 268.871 245.284 267.648 247.426L270.042 248.564C270.277 248.363 270.595 248.246 270.645 248.028C271.901 241.937 275.835 237.569 277.191 231.528C277.376 230.708 278.263 229.536 278.866 229.536C280.858 229.536 281.477 227.863 282.08 226.055C283.352 222.457 284.508 218.792 285.696 215.144L285.06 214.726C284.357 215.83 283.737 217.019 283.051 218.156V218.223ZM349.852 165.006L350.438 164.571C349.249 162.262 348.027 159.986 346.888 157.643C345.75 155.3 344.545 152.807 343.54 150.28C342.385 147.384 342.485 147.251 344.946 144.456C342.519 140.724 340.108 136.959 337.613 133.294C337.362 132.909 336.559 133.126 335.269 132.992C338.954 144.131 343.826 154.842 349.802 164.939L349.852 165.006ZM248.043 272.495C247.843 274.168 247.541 276.779 247.24 279.473C250.705 277.114 258.273 265.567 263.982 253.969L248.043 272.495ZM292.979 262.772C291.861 263.383 290.917 264.269 290.237 265.347C289.557 266.425 289.164 267.658 289.095 268.93C287.885 281.018 284.771 292.84 279.87 303.956C279.799 304.512 279.799 305.074 279.87 305.63C280.891 304.077 281.824 302.468 282.666 300.81C286.796 292.075 289.206 282.626 289.765 272.98C289.765 270.42 291.288 269.968 292.678 269.265C292.761 266.972 292.879 265.064 292.979 262.688V262.772ZM399.358 277.833C397.684 275.005 397.684 274.971 398.973 271.658C396.713 269.566 394.402 267.541 392.276 265.349C390.15 263.157 388.208 260.981 386.031 258.973C389.095 268.813 395.407 275.072 401.652 281.465C400.848 280.176 400.028 278.988 399.358 277.75V277.833ZM105.368 113.68C103.694 118.701 102.22 123.905 100.697 129.043C100.463 129.846 100.295 130.716 100.027 131.721C105.351 128.223 109.687 116.81 108.063 108.744C107.009 110.299 106.107 111.952 105.368 113.68ZM168.988 76.4117C170.969 77.8797 173.057 79.1997 175.232 80.3611C178.721 82.5125 182.417 84.3066 186.265 85.7163L164.819 68.3287L164.132 69.4165C164.584 72.9141 166.794 74.7215 168.988 76.4117ZM264.802 109.882C266.075 112.358 267.548 113.429 269.155 113.229C271.901 112.86 274.948 112.693 277.258 111.053C279.97 109.112 282.047 105.698 284.407 102.92C284.24 102.602 284.089 102.267 283.922 101.932C281.49 104.572 278.513 106.652 275.197 108.028C271.881 109.403 268.306 110.041 264.719 109.898L264.802 109.882ZM312.601 146.38C312.601 150.982 312.517 155.585 312.601 160.17C312.687 161.411 313.09 162.61 313.773 163.651C314.922 165.272 316.157 166.83 317.473 168.32L318.31 167.952C317.59 160.371 314.426 153.677 312.517 146.397L312.601 146.38ZM241.648 294.501C240.125 296.091 239.304 298.785 238.3 301.045C238.149 301.346 238.534 302.049 238.735 302.818C244.377 299.103 247.809 293.012 250.89 286.569C247.637 289.045 244.524 291.699 241.564 294.518L241.648 294.501ZM130.481 151.049C130.163 156.957 129.862 162.379 129.56 167.784L130.297 168.052C132.977 161.468 134.974 154.627 136.257 147.636C134.181 149.727 133.361 153.208 130.481 151.049ZM118.377 146.983C116.702 153.359 112.333 157.609 113.806 164.923C118.527 161.375 120.268 155.016 118.377 146.983ZM203.024 312.876C204.129 317.779 204.497 323.202 208.917 325.427L212.5 321.26L203.024 312.876ZM343.557 127.269L330.448 109.513C333.11 117.329 337.379 123.738 341.447 130.449L343.557 127.269ZM116.501 80.8799C118.812 72.9475 121.122 65.0821 123.416 57.2167L122.947 56.949C120.034 63.5425 117.121 70.1194 114.141 76.8301L116.501 80.8799ZM359.646 167.617C358.457 160.17 353.25 157.325 349.802 152.556L349.115 153.225L361.119 174.478L361.772 174.01C360.878 171.945 360.166 169.806 359.646 167.617ZM128.371 309.312L129.058 309.847C129.677 307.487 130.113 304.827 132.875 305.345C133.528 298.769 134.164 292.443 134.8 286.117L134.114 285.95C132.205 293.715 130.291 301.502 128.371 309.312ZM194.285 215.596C192.611 216.5 192.862 217.805 193.448 218.943C196.294 224.8 199.19 230.657 202.07 236.464L202.941 235.812C200.061 228.984 197.164 222.173 194.285 215.445V215.596ZM216.803 205.371C217.74 204.25 218.31 203.547 219.247 202.392L207.009 194.025L206.306 195.062L216.803 205.371ZM381.695 279.791C379.301 275.44 379.535 268.947 374.345 265.801C376.199 271.723 378.552 277.478 381.377 283.004C381.511 281.766 382.063 280.293 381.695 279.641V279.791ZM282.499 310.433L277.359 314.433C276.639 318.432 276.003 321.98 275.166 326.582C278.782 321.528 280.339 316.323 282.499 310.282V310.433ZM291.255 214.341C292.443 210.994 293.85 207.647 294.938 204.082C293.676 204.783 292.606 205.783 291.82 206.994C291.035 208.205 290.559 209.59 290.434 211.027C289.714 215.63 288.409 220.081 287.337 224.599L287.956 225.018C289.045 221.303 290.032 217.688 291.204 214.19L291.255 214.341ZM93.0458 191.665L95.306 198.359C96.3607 192.502 97.2982 187.364 98.219 182.227L97.5159 181.842L93.0458 191.665ZM262.743 217.587C263.028 218.91 263.262 220.014 263.614 221.604C266.787 218.094 269.442 214.15 271.499 209.889C267.883 211.228 265.623 214.91 262.743 217.587ZM289.095 104.141C293.347 102.15 295.959 98.8699 295.909 92.3099C292.628 95.8744 289.848 98.9202 289.112 104.141H289.095ZM142.971 234.674C141.129 241.134 140.61 247.359 144.862 253.434L142.971 234.674ZM74.7133 217.554C73.8528 217.442 72.9809 217.645 72.258 218.124C71.535 218.604 71.0098 219.329 70.7789 220.165L64.6011 234.172L65.2373 234.808C68.3011 229.235 71.3482 223.696 74.73 217.521L74.7133 217.554ZM300.496 93.4311C302.314 88.5927 303.442 83.5224 303.845 78.3696L298.822 87.4567L300.496 93.4311ZM361.638 214.123C359.227 218.106 362.425 223.763 367.9 225.001C365.606 221.052 363.63 217.638 361.638 214.157V214.123ZM369.239 251.927L377.443 261.634L378.196 260.764C376.256 256.998 374.017 253.394 371.499 249.986L369.239 251.927ZM168.988 232.666L167.983 229.453L162.827 228.9C163.63 231.444 164.501 234.088 165.254 236.648L168.988 232.666ZM334.834 293.413C333.545 299.07 335.018 302.367 340.978 306.333C338.685 301.513 336.776 297.597 334.817 293.413H334.834ZM203.811 306.45C202.388 302.065 201.316 298.568 200.061 295.171C199.86 294.602 198.906 294.484 198.102 294.049C197.566 300.007 200.128 303.019 203.794 306.45H203.811ZM193.146 211.362C190.987 206.76 191.204 201.622 186.868 198.744C188.643 206.643 189.831 209.153 193.13 211.362H193.146ZM366.426 265.935C369.105 270.286 371.315 273.867 373.508 277.465L374.061 276.996C372.922 273.783 371.801 270.57 370.612 267.173L366.426 265.935ZM314.225 304.693C315.631 301.898 316.05 293.765 315.095 286.435C313.823 293.045 312.969 298.668 314.208 304.693H314.225ZM364.451 158.915C360.684 154.865 357.252 151.133 353.183 146.749C355.728 152.572 360.667 157.81 364.451 158.915ZM217.54 315.437C216.284 312.374 216.284 312.374 209.989 308.743C210.471 310.923 211.703 312.866 213.471 314.232L217.54 315.437ZM113.32 87.4734C111.021 92.0253 108.733 96.5828 106.456 101.146C106.456 101.28 106.59 101.665 106.824 102.468C109.843 97.8841 112.041 92.8103 113.32 87.4734ZM372.487 243.978C370.98 237.586 370.093 236.515 366.343 236.498C366.811 241.518 371.231 240.447 372.487 244.045V243.978ZM70.8124 233.937L62.2237 246.957C66.4774 243.742 69.507 239.173 70.8124 234.004V233.937ZM205.502 157.877C204.129 154.698 200.094 149.761 197.734 148.506C199.508 152.247 202.176 155.494 205.502 157.961V157.877ZM93.4644 149.51C92.8114 151.049 93.4644 151.652 94.9377 151.903L97.4322 142.08L96.8295 141.778C95.6911 144.439 94.5526 146.983 93.4644 149.593V149.51ZM154.456 301.429C154.831 305.104 156.158 308.616 158.306 311.621C157.687 305.479 157.687 305.479 154.456 301.513V301.429ZM82.3812 272.712C77.8776 274.821 77.8776 274.821 78.7314 280.461L82.3812 272.712ZM352.882 203.296C353.167 200.769 352.882 198.811 351.526 197.857C350.17 196.903 349.483 198.459 348.814 200.685L352.882 203.296ZM387.89 293.38C386.818 289.548 386.801 289.514 382.03 285.146C382.834 290.184 385.847 291.204 387.89 293.464V293.38ZM43.4224 286.301C43.0876 288.226 42.803 289.899 42.5184 291.589L42.9536 291.907C44.3432 289.681 45.7161 287.439 47.1057 285.213L46.7708 284.644L43.4224 286.301ZM309.102 115.186L308.482 114.885C307.545 117.161 306.607 119.437 305.569 121.931L307.528 123.018C308.08 120.207 308.599 117.697 309.102 115.186ZM105.552 59.7269C103.258 62.0531 100.747 64.1617 99.5082 67.6091L100.128 68.2618L105.552 59.7269ZM275.986 249.551C273.073 251.66 272.437 253.434 273.374 256.664C274.362 253.952 275.166 251.76 275.986 249.551ZM148.428 191.765C149.014 187.147 148.998 187.08 145.917 185.774C146.905 188.151 147.591 189.808 148.428 191.765ZM309.386 197.907C307.896 199.765 308.449 201.991 307.812 204.133C309.721 202.878 309.721 202.877 309.386 197.907ZM301.467 278.653V283.155L301.97 283.456C302.505 282.05 303.041 280.661 303.727 278.904L301.467 278.653ZM303.811 239.661V234.942C302.907 236.615 302.321 237.82 301.384 239.661H303.811ZM352.648 209.22C353.384 210.743 354.121 212.249 354.874 213.772C354.824 211.747 354.824 209.672 352.648 209.22ZM112.349 234.188C110.541 235.862 109.553 236.966 111.161 239.209C111.496 237.77 111.814 236.414 112.349 234.188ZM190.15 296.342C189.43 295.237 188.71 294.133 187.973 292.995C187.404 295.823 188.71 296.124 190.15 296.342ZM305.854 157.794C308.599 157.794 308.817 156.405 308.147 153.509L305.854 157.794ZM174.914 235.025L175.55 234.607L173.876 230.273L173.056 231.026L174.914 235.025ZM402.053 310.818L401.819 311.454L404.933 313.479L405.385 312.207L402.053 310.818ZM407.679 289.263C406.758 287.724 406.138 286.703 405.536 285.665L404.966 286.368L407.679 289.263ZM145.666 62.3208C145.381 61.233 145.147 60.3964 144.929 59.5764C143.875 61.0658 143.59 62.1869 145.666 62.3208ZM86.9517 88.4106L87.2029 89.0298C88.04 88.4273 88.877 87.8249 89.7308 87.189C89.7308 87.189 89.6137 86.8543 89.5133 86.553L86.9517 88.4106ZM109.922 153.192L109.419 152.957C109.135 153.844 108.867 154.714 108.599 155.601L109.319 155.869L109.922 153.192ZM331.385 149.292C331.05 150.162 330.816 150.48 330.866 150.698C331.084 151.669 331.385 152.606 331.653 153.56L332.222 153.225C332.038 152.137 331.804 151.049 331.385 149.292ZM157.854 274.168L158.356 273.984C158.139 273.08 157.904 272.177 157.67 271.273L157.084 271.591L157.854 274.168Z" fill="#F8D948"/>
</svg>
