<svg width="16" height="16" viewBox="0 0 16 16" fill="none" xmlns="http://www.w3.org/2000/svg">
<path d="M14.6666 3.86681C14.1655 4.0842 13.6355 4.22792 13.0933 4.29347C13.6654 3.95169 14.0941 3.41399 14.2999 2.78014C13.7623 3.10018 13.1738 3.32567 12.5599 3.44681C12.1496 3.00185 11.6032 2.70567 11.0065 2.60471C10.4097 2.50374 9.79628 2.60371 9.26245 2.88893C8.72861 3.17415 8.30454 3.62849 8.05675 4.1807C7.80895 4.7329 7.75145 5.35173 7.89325 5.94014C6.8062 5.88516 5.74288 5.60211 4.77236 5.10938C3.80183 4.61665 2.94582 3.92527 2.25992 3.08014C2.01934 3.50025 1.89293 3.97602 1.89325 4.46014C1.8924 4.90973 2.00273 5.35255 2.21442 5.74918C2.42611 6.14581 2.7326 6.48395 3.10659 6.73347C2.6719 6.72165 2.24651 6.60501 1.86659 6.39347V6.42681C1.86984 7.05673 2.09058 7.6662 2.49146 8.15212C2.89234 8.63803 3.44876 8.97057 4.06659 9.09347C3.82876 9.16585 3.58184 9.20401 3.33325 9.20681C3.16118 9.2048 2.98953 9.18919 2.81992 9.16014C2.99586 9.70201 3.33633 10.1756 3.79397 10.5149C4.2516 10.8543 4.80364 11.0425 5.37325 11.0535C4.41139 11.8103 3.22384 12.2234 1.99992 12.2268C1.77708 12.2275 1.55441 12.2142 1.33325 12.1868C2.58287 12.9936 4.03913 13.422 5.52659 13.4201C6.55305 13.4308 7.57134 13.2368 8.522 12.8495C9.47265 12.4622 10.3366 11.8894 11.0634 11.1645C11.7902 10.4395 12.3652 9.57707 12.755 8.62741C13.1447 7.67775 13.3413 6.65996 13.3333 5.63347C13.3333 5.52014 13.3333 5.40014 13.3333 5.28014C13.8564 4.89001 14.3076 4.41176 14.6666 3.86681Z" fill="#4E4B66"/>
</svg>
