<svg width="288" height="232" viewBox="0 0 288 232" fill="none" xmlns="http://www.w3.org/2000/svg">
<path d="M284.185 139.2C281.116 136.395 277.465 134.478 273.618 132.91C268.914 130.994 264.013 129.707 259.005 128.839C250.073 127.288 241.132 125.808 232.191 124.294C231.42 124.164 230.654 124.005 229.918 123.862C228.488 120.424 226.657 117.506 224.585 114.751C224.114 114.122 223.763 113.577 223.536 112.818C220.159 101.464 215.725 90.5958 208.128 81.2121C201.237 72.7006 192.082 67.4427 181.823 63.8578C174.294 61.2289 166.483 59.9794 158.496 59.8075C154.935 59.7278 151.374 59.7362 147.771 59.7027C146.838 56.6712 147.36 53.6314 147.214 50.5538C149.928 50.0506 152.453 49.6481 154.948 49.0989C156.54 48.7467 158.124 48.2729 159.635 47.6733C160.461 47.3462 161.257 46.7508 161.852 46.0884C163.307 44.4615 163.097 42.6712 161.338 41.363C160.611 40.8221 159.772 40.3148 158.903 40.08C155.954 39.2708 152.971 38.5789 149.992 37.8745C149.307 37.7152 148.588 37.6942 147.694 37.5852C147.826 34.4867 147.955 31.4468 148.083 28.4699C153.288 27.2078 155.826 25.0317 156.027 21.7948C156.232 18.4573 153.728 15.4594 149.08 13.6816C149.149 11.8409 149.213 9.91221 149.299 7.9793C149.371 6.40697 149.106 5.78643 148.28 5.85351C147.103 5.94995 147.077 6.90173 147.004 7.72353C146.85 9.45519 146.752 11.1952 146.653 12.6082C144.595 13.581 142.647 14.2854 140.935 15.3504C137.16 17.6984 136.878 22.5831 140.37 25.3127C141.851 26.4699 143.64 27.2582 145.502 28.3357C145.404 30.7928 145.305 33.5097 145.181 36.2267C145.164 36.6292 145.053 37.0318 144.963 37.5643C141.398 36.6963 138.175 37.9793 134.883 38.6712C132.632 39.145 130.843 40.4448 129.298 42.0213C127.188 44.1722 127.444 46.7215 130.09 48.1639C131.802 49.0989 133.766 49.7278 135.701 50.101C137.712 50.4909 139.818 50.4196 141.881 50.5286C142.724 50.5748 143.572 50.558 144.633 50.5748C144.663 53.6565 144.693 56.6335 144.723 59.8201C144.021 59.8955 143.349 59.9962 142.669 60.0423C129.846 60.9437 117.583 64.0213 106.014 69.4805C98.2587 73.1408 91.6374 78.3274 86.5655 85.2289C83.3126 89.6524 80.0641 94.0885 77.0209 98.6503C72.8436 104.919 69.839 111.699 68.6405 119.162C68.5635 119.636 68.4608 120.139 68.2382 120.558C67.2067 122.462 65.9655 124.277 65.118 126.252C64.4675 127.774 63.4916 128.256 61.9379 128.491C50.0821 130.286 38.282 132.374 26.6359 135.204C21.8593 136.365 17.1085 137.669 12.4132 139.12C9.21172 140.105 6.12151 141.451 3.55346 143.673C0.570252 146.252 -0.615326 149.422 0.30489 153.288C0.694376 154.931 1.75155 156.156 2.84297 157.359C5.72774 160.525 9.17748 162.998 12.9054 165.112C18.3625 168.202 24.0679 170.759 30.0257 172.793C42.9943 177.216 56.2326 180.73 69.5608 183.933C71.0246 184.286 71.8164 184.873 72.407 186.286C77.1451 197.552 85.0161 206.319 95.1684 213.2C97.9847 215.108 100.917 216.86 103.81 218.663C105.03 219.422 106.442 219.791 107.32 221.179C107.803 221.942 109.083 222.282 110.059 222.68C111.694 223.347 113.372 223.908 115.156 224.562C115.156 224.562 115.285 224.529 115.473 224.479C116.821 225.137 121.071 227.032 127.218 228.181C134.866 229.611 145.425 229.82 156.87 225.032C157.687 224.848 158.428 224.613 158.325 224.378C159.22 223.95 160.042 223.573 160.85 223.17C162.31 222.437 164.001 221.942 165.156 220.885C166.624 219.548 168.319 218.797 170.044 217.996C173.789 216.265 177.551 214.55 181.271 212.768C191.226 208.001 198.755 200.789 203.78 191.112C205.102 188.567 206.245 185.938 207.52 183.237C207.884 183.242 208.569 183.359 209.207 183.237C224.059 180.441 238.928 177.694 253.587 174.001C258.774 172.692 263.885 171.091 268.704 168.738C274.919 165.703 280.401 161.757 284.536 156.193C285.208 155.292 285.863 154.365 286.419 153.393C289.159 148.604 288.29 142.956 284.185 139.2ZM77.9326 101.942C81.1426 96.5622 84.8321 91.5014 88.6927 86.5455C93.5934 80.2478 99.6968 75.4301 106.849 71.841C113.697 68.4071 121.02 66.2352 128.48 64.5957C140.85 61.8788 153.39 61.6104 165.961 62.8557C172.167 63.4679 178.185 64.9941 183.984 67.296C193.94 71.2456 202.371 77.1157 208.573 85.8411C212.524 91.3966 215.25 97.5643 217.895 103.761C219.102 106.592 220.04 109.539 221.063 112.445C221.208 112.86 221.161 113.342 221.212 113.938C219.77 113.673 218.524 113.346 217.258 113.242C215.875 113.128 215.135 112.508 214.578 111.262C211.989 105.481 208.937 99.9669 204.794 95.0612C201.704 91.4008 198.977 87.4469 195.309 84.2729C184.883 75.2582 172.788 70.1513 158.882 69.254C147.051 68.4909 135.346 69.4637 123.768 71.8494C118.405 72.9522 113.38 74.9899 108.985 78.2478C105.976 80.4784 103.095 82.8851 100.236 85.3044C93.7689 90.7719 89.5401 97.6105 87.4771 105.732C87.2888 106.478 87.0663 107.216 86.8565 107.958C86.0048 110.982 85.1531 114.005 84.2971 117.049C79.9571 117.992 75.7283 118.906 71.1957 119.891C71.3242 119.032 71.3884 118.55 71.4697 118.072C72.4841 112.256 74.928 106.977 77.9326 101.942ZM203.146 109.078C202.205 109.46 201.473 109.044 200.749 107.917C198.815 104.906 196.979 101.829 194.847 98.9564C188.495 90.4071 180.385 84.361 169.496 82.4616C169.218 82.4113 168.936 82.3442 168.674 82.2394C167.609 81.8159 167.142 81.0947 167.292 80.1555C167.438 79.2457 168.182 78.6041 169.248 78.5413C169.667 78.5161 170.1 78.6041 170.515 78.6838C177.782 80.1304 184.322 83.0109 189.938 87.862C195.583 92.7425 199.696 98.7509 203.6 105.262C203.698 105.543 203.929 106.059 204.066 106.596C204.396 107.908 204.084 108.701 203.146 109.078ZM161.009 78.8935C160.059 79.384 158.933 79.0318 158.458 78.0968C157.979 77.1576 158.372 76.0968 159.365 75.6482C160.294 75.2289 161.257 75.5266 161.749 76.3861C162.28 77.3169 161.959 78.4029 161.009 78.8935ZM96.3583 102.994C95.5194 102.558 95.1898 101.615 95.5365 100.642C95.6778 100.252 95.9175 99.8956 96.1315 99.535C99.4186 93.9962 103.596 89.1702 108.535 84.9899C110.029 83.7279 111.728 82.7006 112.875 81.8914C115.392 80.9815 117.318 80.2394 119.274 79.5979C120.622 79.1576 122.013 78.8264 123.4 78.5203C124.645 78.2436 125.578 78.709 125.844 79.6188C126.113 80.5413 125.608 81.3421 124.397 81.8452C123.875 82.0633 123.318 82.21 122.775 82.3777C121.551 82.7551 120.31 83.0738 119.107 83.5056C115.811 84.688 112.751 86.2016 110.2 88.709C106.468 92.3736 102.83 96.0843 100.172 100.608C99.7481 101.33 99.2559 102.03 98.6909 102.655C98.0575 103.359 97.21 103.439 96.3583 102.994ZM95.2883 110.583C94.3296 111.044 93.2724 110.684 92.8016 109.732C92.3479 108.814 92.7245 107.694 93.6362 107.258C94.5136 106.839 95.7334 107.258 96.17 108.126C96.6194 109.032 96.2256 110.135 95.2883 110.583ZM68.6962 124.059C69.0557 123.191 69.6378 122.772 70.5794 122.587C81.2753 120.457 91.8899 117.854 102.663 116.218C139.711 110.6 176.858 110.223 214.035 115.128C216.718 115.481 219.385 116.009 222.034 116.579C222.723 116.726 223.515 117.208 223.892 117.774C224.975 119.397 225.873 121.137 227.042 123.183C223.108 122.692 219.672 122.508 216.346 121.812C203.266 119.082 189.942 119.17 176.7 118.566C169.094 118.218 161.428 118.659 153.81 119.116C125.668 120.797 97.6338 123.598 69.702 127.351C68.9059 127.455 68.1055 127.514 67.0398 127.623C67.6946 126.214 68.2425 125.153 68.6962 124.059ZM65.1566 180.361C65.9698 179.51 66.5818 178.877 67.1382 178.294C72.1203 180.349 72.6082 180.671 72.5054 182.105C70.1642 181.548 67.8573 181.003 65.1566 180.361ZM68.9958 176.474C70.5794 175.325 71.9105 174.357 73.3229 173.33C75.1291 174.697 76.7941 175.954 78.5917 177.313C77.3077 178.139 76.2462 178.822 75.1163 179.552C73.0619 178.52 71.1915 177.581 68.9958 176.474ZM106.973 168.625C104.276 169.212 101.734 169.766 99.0505 170.349C98.1345 168.508 97.2742 166.78 96.2898 164.806C99.1104 164.177 101.845 163.564 104.811 162.902C105.406 165.045 106.759 166.562 106.973 168.625ZM107.101 162.558C109.421 162.202 111.339 161.904 113.397 161.59C113.684 163.669 115.045 165.355 114.168 167.451C112.657 167.669 111.202 167.883 109.849 168.076C108.946 166.265 108.116 164.6 107.101 162.558ZM96.5552 171.003C94.2225 171.711 92.014 172.382 89.6942 173.086C88.4273 171.397 87.3059 169.904 85.9663 168.118C88.7269 167.195 91.2308 166.357 93.8074 165.493C94.7576 167.397 95.6179 169.12 96.5552 171.003ZM87.276 173.862C84.7593 174.831 82.5936 175.665 80.7489 176.374C79.0497 174.898 77.5517 173.598 75.8225 172.093C78.5746 170.998 81.1041 169.992 83.6764 168.965C84.9219 170.663 86.0219 172.156 87.276 173.862ZM122.801 217.9C123.734 217.175 124.769 216.554 126.036 216.131C128.883 215.183 131.802 215.175 134.712 215.149C139.36 215.108 143.987 215.535 148.541 216.495C149.388 216.676 150.24 216.969 151.276 217.284C139.168 221.527 127.363 219.149 122.801 217.9ZM119.372 223.141C119.685 222.952 119.745 222.793 119.334 222.713C119.698 221.745 120.16 220.902 120.682 220.126C121.743 220.466 123.721 221.036 126.383 221.535C132.354 222.65 141.689 223.317 151.443 220.093C151.815 220.294 152.329 220.365 153.001 220.189C153.429 220.957 153.921 221.837 154.469 222.818C154.101 222.936 153.694 223.204 153.296 223.502C138.333 228.822 125.103 225.279 119.372 223.141ZM157.114 222.093C157.063 222.097 157.011 222.118 156.956 222.126C156.151 220.785 155.149 219.678 154.798 218.495C154.965 218.16 155 217.762 154.846 217.388C154.726 217.103 154.503 216.898 154.251 216.755C153.617 215.472 152.44 214.898 151.002 214.592C148.22 213.992 145.408 213.43 142.579 213.166C139.176 212.852 135.739 212.919 132.319 212.713C130.308 212.592 128.365 212.6 126.469 213.409C125.296 213.908 124.072 214.441 122.822 214.6C121.333 214.785 120.631 215.602 119.967 216.747C119.826 216.994 119.668 217.229 119.522 217.476C119.304 217.627 119.111 217.82 119.013 218.084C118.974 218.185 118.974 218.29 118.961 218.395C118.2 219.619 117.425 220.827 116.68 222.001C116.65 221.996 116.616 221.984 116.586 221.98C116.436 221.908 116.351 221.862 116.338 221.858C116.059 221.711 115.76 221.69 115.469 221.736C112.832 221.149 110.187 220.152 108.856 219.166C109.468 217.108 111 215.791 112.811 214.755C117.784 211.913 123.233 210.579 128.921 210.168C136.681 209.606 144.317 210.571 151.901 212.097C156.005 212.923 159.802 214.504 163.419 216.541C163.954 216.843 164.441 217.229 165.045 217.636C162.858 220.026 159.922 220.697 157.114 222.093ZM204.404 184.617C203.078 187.095 201.892 189.648 200.467 192.072C196.431 198.936 190.935 204.52 183.971 208.487C179.045 211.296 173.742 213.468 168.636 215.975C167.579 216.491 166.898 215.984 166.111 215.481C161.458 212.495 156.451 210.29 150.951 209.38C146.662 208.671 142.335 208.118 138.003 207.703C133.877 207.309 129.713 207.326 125.617 208.034C118.388 209.284 111.296 210.881 106.566 217.254C91.9327 209.393 79.9913 199.128 73.6012 183.162C76.9995 181.376 80.0812 179.418 83.4239 178.076C87.841 176.302 92.3992 174.81 97.0003 173.56C111.321 169.665 125.976 167.98 140.811 167.866C153.112 167.774 165.374 168.361 177.333 171.531C185.037 173.573 192.883 175.292 199.786 179.51C201.105 180.315 202.461 181.066 203.762 181.896C204.837 182.575 205.004 183.497 204.404 184.617ZM115.768 161.225C118.341 160.977 120.648 160.759 123.237 160.512C123.387 162.667 123.661 164.487 123.211 166.344C121.089 166.562 119.081 166.772 117.142 166.973C116.663 164.961 116.235 163.183 115.768 161.225ZM125.681 160.349C128.446 160.235 131.091 160.13 134.027 160.009C133.638 161.594 133.419 162.902 132.966 164.126C132.752 164.705 132.14 165.485 131.622 165.552C129.7 165.799 127.753 166.072 125.822 165.946C125.771 164.009 125.728 162.286 125.681 160.349ZM135.234 165.397C135.645 163.493 136.009 161.808 136.416 159.925C139.591 159.925 142.729 159.921 146.191 159.921C145.455 161.967 144.847 163.644 144.244 165.33C141.128 165.355 138.247 165.376 135.234 165.397ZM146.872 165.325C147.445 163.497 147.942 161.904 148.545 159.975C151.653 160.189 154.657 160.395 157.902 160.621C157.101 162.55 156.438 164.147 155.77 165.762C152.757 165.611 149.876 165.472 146.872 165.325ZM158.33 165.9C159.036 164.072 159.652 162.474 160.286 160.839C162.896 161.116 165.336 161.38 168.088 161.673C167.172 163.514 166.385 165.099 165.601 166.671C163.072 166.399 160.773 166.156 158.33 165.9ZM168.118 166.982C168.961 165.216 169.736 163.598 170.545 161.9C173.674 162.382 176.661 162.839 179.738 163.313C178.467 165.183 177.363 166.814 176.152 168.596C173.455 168.055 170.892 167.539 168.118 166.982ZM181.164 163.59C183.291 164.193 185.247 164.747 187.464 165.376C186.467 167.325 185.572 169.082 184.656 170.873C182.546 170.281 180.663 169.757 178.775 169.229C179.482 167.195 181.442 165.959 181.164 163.59ZM187.16 171.254C187.939 169.669 188.757 168.001 189.668 166.143C192.155 167.208 194.535 168.227 197.18 169.359C196.028 170.982 195.035 172.382 194.222 173.531C191.611 172.688 189.42 171.984 187.16 171.254ZM196.26 174.801C197.33 173.267 198.271 171.912 199.328 170.399C201.396 171.694 203.296 172.885 205.706 174.39C203.904 175.372 202.633 176.11 201.314 176.747C200.998 176.902 200.467 176.835 200.12 176.684C198.845 176.118 197.603 175.468 196.26 174.801ZM207.426 181.049C206.981 181.116 206.386 181.053 206.052 180.801C205.162 180.139 204.375 179.346 203.373 178.449C204.773 177.556 206.048 176.747 207.371 175.904C208.822 177.242 210.324 178.378 211.154 180.29C209.789 180.575 208.616 180.868 207.426 181.049ZM283.487 153.342C280.658 157.548 276.969 160.898 272.685 163.669C267.061 167.309 260.846 169.623 254.379 171.149C243.627 173.686 232.803 175.925 222 178.256C219.295 178.839 216.564 179.288 213.855 179.795C211.051 175.296 207.127 172.164 202.757 169.602C195.468 165.325 187.687 162.122 179.276 160.776C172.377 159.669 165.417 158.822 158.449 158.214C140.011 156.608 121.654 157.25 103.433 160.68C93.3366 162.579 83.762 165.984 74.4058 170.059C70.5623 171.732 67.3779 174.328 64.5445 177.325C63.9624 177.942 63.6757 178.827 63.1064 179.85C61.3045 179.363 59.387 178.831 57.4567 178.328C47.6468 175.77 37.9011 173.015 28.3779 169.556C22.4628 167.409 16.8174 164.717 11.5315 161.334C8.71095 159.527 6.12151 157.439 4.00715 154.843C2.064 152.458 1.99124 149.267 3.97719 146.927C4.82893 145.921 5.86042 144.948 7.01604 144.332C9.20316 143.166 11.4545 141.992 13.8299 141.317C20.2714 139.489 26.7429 137.732 33.2829 136.29C51.7557 132.214 70.4639 129.535 89.2619 127.392C109.472 125.091 129.713 123.166 150.013 121.803C150.779 121.753 151.563 121.833 152.333 121.912C153.386 122.021 154.435 122.336 155.479 122.311C162.614 122.126 169.744 121.787 176.884 121.669C186.308 121.514 195.754 121.413 205.115 122.646C213.585 123.766 222.017 125.179 230.457 126.525C236.873 127.543 243.285 128.604 249.675 129.745C254.871 130.671 260.08 131.59 265.216 132.801C271.02 134.168 276.511 136.365 281.27 140.009C285.957 143.602 286.766 148.466 283.487 153.342Z" fill="#939597"/>
<path d="M273.536 146.529C269.586 143.204 264.895 141.095 260.148 139.145C251.995 135.799 243.439 133.845 234.746 132.487C210.645 128.722 186.377 127.103 161.985 127.3C128.104 127.573 94.4238 130.285 60.9279 135.321C51.6829 136.709 42.4294 137.958 33.3899 140.382C28.776 141.619 24.1621 142.843 19.5781 144.168C16.6805 145.007 13.9584 146.327 11.6771 148.265C10.2989 149.43 9.22034 150.956 8.09896 152.39C7.57679 153.057 7.54683 153.908 8.41996 154.386C9.19465 154.81 9.80242 154.353 10.2005 153.694C12.7942 149.401 17.04 147.464 21.6411 146.172C30.625 143.652 39.5875 140.952 48.8538 139.615C67.5577 136.906 86.2531 134.13 105.107 132.537C134.725 130.038 164.369 128.885 194.072 130.654C209.335 131.564 224.538 133.091 239.57 135.891C248.515 137.556 257.242 139.975 265.289 144.286C267.968 145.719 270.472 147.481 272.954 149.233C273.913 149.908 274.7 150.898 275.364 151.875C276.19 153.095 276.481 154.453 275.471 155.782C275.342 155.95 275.141 156.13 275.141 156.311C275.133 156.759 275.09 157.514 275.291 157.594C275.732 157.77 276.571 157.808 276.789 157.543C277.44 156.759 278.18 155.837 278.304 154.898C278.467 153.644 278.077 152.319 277.911 150.923C276.413 149.397 275.086 147.833 273.536 146.529Z" fill="#939597"/>
<path d="M204.058 138.512C203.565 138.91 203.073 139.313 202.628 139.762C200.081 142.344 200.437 145.762 203.45 147.82C206.574 149.95 210.961 149.565 213.641 146.919C215.241 145.338 215.507 143.166 214.368 140.936C213.05 137.938 207.858 135.426 204.058 138.512ZM210.512 146.105C208.389 147.108 206.082 146.843 204.503 145.443C203.698 144.73 203.274 143.892 203.574 142.827C204.494 139.594 208.975 138.466 211.402 140.852C213.35 142.768 212.982 144.94 210.512 146.105Z" fill="#939597"/>
<path d="M149.662 138.227C147.617 136.277 145.078 135.766 142.399 135.845C141.783 135.862 140.854 136.524 140.64 137.095C139.964 138.906 139.412 140.793 139.086 142.696C138.834 144.164 139.677 145.376 140.85 146.302C142.861 147.891 145.99 148.214 148.306 147.086C151.999 145.288 152.629 141.057 149.662 138.227ZM147.052 144.969C145.507 145.51 143.893 145.434 142.519 144.327C142.044 143.946 141.629 143.149 141.667 142.575C141.749 141.409 142.078 140.239 142.489 139.137C142.635 138.751 143.298 138.374 143.769 138.311C145.545 138.063 146.945 138.902 148.117 140.101C149.705 141.715 149.239 143.975 147.052 144.969Z" fill="#939597"/>
<path d="M262.142 152.944C260.276 151.325 257.892 151.351 255.679 151.426C253.437 151.502 251.245 154.982 251.601 157.309C252.046 160.256 254.562 162.369 257.708 162.441C260.679 162.508 263.559 160.328 264 157.535C264.145 156.613 263.91 155.632 263.85 154.734C263.2 154.047 262.716 153.443 262.142 152.944ZM259.925 159.464C257.717 160.474 255.328 159.724 254.485 158.055C254.032 157.154 253.972 156.244 254.52 155.275C255.876 152.877 260.516 153.682 261.393 155.606C261.65 156.172 261.689 157.045 261.419 157.581C261.008 158.411 260.246 159.078 259.925 159.464Z" fill="#939597"/>
<path d="M84.3442 142.42C83.2913 141.674 81.9388 141.175 80.6548 140.94C78.4078 140.525 77.5089 141.137 76.5588 143.204C76.1778 144.03 75.7284 144.831 75.4074 145.678C74.2732 148.663 75.5915 151.12 78.733 151.963C80.3851 152.403 81.9731 152.21 83.4839 151.565C87.199 149.456 88.4745 145.355 84.3442 142.42ZM81.9003 149.565C81.3524 149.552 80.2782 149.695 79.2852 149.477C77.7229 149.133 77.235 148.126 77.7572 146.646C78.0354 145.862 78.4077 145.103 78.8186 144.378C79.5591 143.061 79.9957 142.894 81.3867 143.422C81.9688 143.644 82.5423 143.967 83.026 144.357C85.0718 145.992 84.7808 148.181 81.9003 149.565Z" fill="#939597"/>
<path d="M33.146 155.766C30.8133 154.311 28.3223 153.703 25.6644 154.998C24.603 155.514 23.9952 156.277 24.252 157.51C24.5773 159.07 24.894 160.629 25.2107 162.185C26.4905 164.231 28.0955 165.124 30.441 164.923C32.9919 164.705 34.8452 163.242 35.3973 161.003C35.8852 159.04 35.0677 156.961 33.146 155.766ZM32.9191 160.613C32.4997 161.82 31.481 162.286 30.304 162.428C29.2468 162.558 28.4165 162.227 27.8216 161.237C26.9656 159.812 26.987 158.369 27.462 156.793C29.204 156.353 30.7491 156.91 32.1273 158.001C32.9705 158.667 33.2829 159.573 32.9191 160.613Z" fill="#939597"/>
<path d="M110.003 172.952C108.984 172.785 107.876 172.621 106.891 172.843C103.908 173.518 100.955 174.336 98.0144 175.175C95.5533 175.879 93.1137 176.667 90.6826 177.472C86.5823 178.831 82.9485 181.024 79.5458 183.606C79.3233 183.778 79.1264 183.984 78.9252 184.181C78.3988 184.688 78.1848 185.33 78.7797 185.816C79.1264 186.101 79.7641 186.042 80.0723 186.097C80.8342 185.518 81.3392 185.133 81.8528 184.755C86.4967 181.33 91.8596 179.464 97.3766 177.938C100.052 177.195 102.722 176.437 105.419 175.774C106.789 175.439 108.222 175.372 109.596 175.045C110.037 174.94 110.555 174.458 110.692 174.038C110.773 173.762 110.302 173.003 110.003 172.952Z" fill="#939597"/>
<path d="M155.864 179.741C156.485 179.9 157.127 179.971 157.756 180.097C163.902 181.351 170.087 182.445 176.169 183.938C179.396 184.73 182.439 186.235 185.568 187.405C186.201 187.644 186.856 187.829 187.275 187.963C188.153 187.502 188.311 186.692 187.763 186.193C187.25 185.732 186.608 185.388 185.974 185.082C181.275 182.814 176.357 181.137 171.242 180.072C166.847 179.158 162.412 178.42 157.991 177.615C157.43 177.514 156.861 177.443 156.292 177.422C155.594 177.393 154.978 177.623 154.841 178.369C154.7 179.12 155.171 179.564 155.864 179.741Z" fill="#939597"/>
<path d="M133.805 201.3C132.538 201.242 131.198 201.179 130.004 201.51C125.416 202.785 120.862 204.185 116.317 205.598C112.623 206.743 109.165 208.378 105.993 210.579C105.471 210.944 104.962 211.326 104.461 211.72C103.909 212.152 103.523 212.776 104.037 213.321C104.362 213.669 105.09 213.648 105.411 213.736C106.537 212.986 107.35 212.424 108.189 211.892C111.754 209.619 115.739 208.277 119.728 206.969C122.835 205.95 125.985 205.053 129.157 204.248C130.582 203.883 132.097 203.82 133.578 203.72C134.34 203.669 135.115 203.657 135.239 202.793C135.38 201.841 134.627 201.338 133.805 201.3Z" fill="#939597"/>
<path d="M168.953 210.009C168.037 209.472 167.104 208.919 166.106 208.566C159.665 206.285 153.206 204.051 146.739 201.833C145.87 201.535 144.937 201.405 144.026 201.254C143.302 201.137 142.639 201.422 142.622 202.164C142.613 202.592 143.058 203.086 143.414 203.439C143.636 203.661 144.068 203.678 144.406 203.787C150.707 205.833 157.024 207.828 163.29 209.963C165.088 210.575 166.719 211.644 168.473 212.407C168.893 212.592 169.548 212.483 169.993 212.285C170.207 212.189 170.185 211.577 170.284 211.145C169.796 210.726 169.424 210.285 168.953 210.009Z" fill="#939597"/>
<path d="M198.614 183.049C193.306 180.047 187.901 177.246 181.977 175.573C181.031 175.305 180.025 175.141 179.041 175.124C178.069 175.107 177.611 175.963 178.211 176.944C178.497 177.066 178.981 177.359 179.503 177.472C184.917 178.638 189.797 181.095 194.697 183.493C195.9 184.084 197.034 184.818 198.181 185.518C198.823 185.908 199.495 185.967 199.825 185.3C200.009 184.927 199.799 184.273 199.581 183.837C199.41 183.502 198.978 183.254 198.614 183.049Z" fill="#939597"/>
<path d="M103.42 189.774C101.499 190.68 99.5254 191.531 97.7449 192.659C94.9329 194.445 92.2536 196.428 89.5315 198.349C89.0735 198.672 88.5428 199.024 88.3031 199.489C88.0891 199.904 88.0292 200.642 88.2731 200.965C88.5 201.263 89.2233 201.2 89.3517 201.225C91.9925 199.405 94.2139 197.749 96.5594 196.294C99.0247 194.768 101.601 193.41 104.152 192.022C104.88 191.628 105.646 191.288 105.244 190.315C104.906 189.506 104.101 189.456 103.42 189.774Z" fill="#939597"/>
<path d="M94.9157 184.68C95.4507 184.265 95.7846 183.573 95.2367 183.049C94.8858 182.713 94.171 182.743 93.4819 182.571C89.8438 185.338 86.2956 188.013 82.7903 190.734C82.0798 191.284 81.3265 192.022 82.0241 193.036C82.465 193.674 83.1327 193.359 84.3354 192.428C86.7879 190.529 89.3131 188.722 91.8169 186.889C92.8442 186.143 93.9142 185.46 94.9157 184.68Z" fill="#939597"/>
<path d="M175.668 204.994C172.997 203.715 170.33 202.424 167.613 201.254C166.872 200.935 165.943 200.91 165.113 200.961C164.227 201.015 163.838 201.766 164.283 202.642C164.535 202.768 164.933 203.099 165.378 203.174C168.734 203.749 171.674 205.271 174.546 206.956C174.85 207.133 175.163 207.397 175.484 207.418C175.865 207.439 176.472 207.351 176.601 207.112C176.789 206.764 176.768 206.189 176.601 205.803C176.46 205.46 176.036 205.17 175.668 204.994Z" fill="#939597"/>
<path d="M183.694 193.741C183.368 193.657 182.859 193.896 182.572 194.143C182.371 194.315 182.405 194.751 182.333 195.082C182.675 195.368 182.927 195.611 183.21 195.804C184.669 196.802 186.133 197.791 187.601 198.781C187.837 198.94 188.072 199.187 188.32 199.208C188.714 199.242 189.33 199.242 189.472 199.02C189.69 198.68 189.806 197.95 189.587 197.72C187.948 195.95 186.129 194.378 183.694 193.741Z" fill="#939597"/>
<path d="M196.392 191.213C195.001 189.867 193.358 188.923 191.423 188.592C190.315 188.403 189.6 189.158 190.053 190.181C190.302 190.328 190.7 190.588 191.115 190.814C192.343 191.481 193.602 192.097 194.8 192.814C195.459 193.208 196.075 193.548 196.675 192.873C197.201 192.273 196.867 191.674 196.392 191.213Z" fill="#939597"/>
<path d="M169.633 174.193C169.428 173.518 168.683 173.321 168.097 173.724C167.733 173.975 167.6 174.554 167.168 175.346C168.11 175.472 168.756 175.749 169.171 175.552C169.496 175.401 169.753 174.587 169.633 174.193Z" fill="#939597"/>
<path d="M101.456 182.684C101.76 182.353 101.956 181.644 101.798 181.271C101.648 180.915 100.972 180.772 100.202 180.361C100.048 181.225 99.8122 181.745 99.9063 182.206C100.03 182.827 101.032 183.145 101.456 182.684Z" fill="#939597"/>
<path d="M158.038 173.506C158.792 173.384 159.044 172.671 158.655 172.055C158.419 171.686 157.82 171.539 157.041 171.095C156.861 171.954 156.536 172.554 156.72 172.885C156.913 173.241 157.623 173.577 158.038 173.506Z" fill="#939597"/>
</svg>
