<svg width="390" height="170" viewBox="0 0 390 170" fill="none" xmlns="http://www.w3.org/2000/svg">
<path d="M388.9 109.7C384.9 100.3 372.9 91.6 353.2 84C341.1 72.5 321 61.8 296.6 53.8C288.9 51.3 280.8 49.1 272.5 47.2C269 40.5 264.9 35.7 255.5 32.3C252.6 27.1 248.9 23 242.2 20C241.8 19.8 241.4 19.7 241.1 19.5C238.6 13.1 229.2 0 195 0C160.8 0 151.4 13 148.9 19.5C148.5 19.7 148.1 19.8 147.8 20C141.2 22.9 137.4 27 134.5 32.3C125.1 35.7 121 40.5 117.5 47.2C109.1 49.1 101.1 51.3 93.4 53.8C69 61.8 48.9 72.5 36.8 84C17.2 91.6 5.2 100.2 1.1 109.6C0.8 110.1 0 111.6 0 113.1C0 119.5 10.3 125 31.4 129.9C50.4 134.3 77.2 137.8 108.8 140.1C111.1 143.3 114.5 146.2 118.4 148V148.1C118.4 162.7 142 169.2 195 169.2C248.7 169.2 271.6 162.9 271.6 148.1V148C275.5 146.2 278.9 143.3 281.2 140.1C312.8 137.8 339.6 134.3 358.6 129.9C379.7 125.1 390 119.6 390 113.1C390 112 389.2 110.3 388.9 109.7ZM202.2 9.6C202.2 8.9 202.9 8.3 203.7 8.3C204.5 8.3 205.2 8.9 205.2 9.6C205.2 10.3 204.5 10.9 203.7 10.9C202.9 10.9 202.2 10.3 202.2 9.6ZM354.5 95.6C352.9 95.3 351.3 95 349.7 94.7L349.6 94.6C347.5 93.3 345.3 92 343.2 90.8C338.8 88.4 334.3 86.2 329.8 84.1C334.5 85.8 339.2 87.6 343.8 89.6C346.1 90.6 348.4 91.7 350.6 92.8C352.3 93.7 354 94.6 355.7 95.7C355.2 95.7 354.8 95.7 354.5 95.6ZM315.7 73C314.1 71.8 312.4 70.7 310.6 69.7C306.6 67.2 302.4 65 298.2 62.8C302.6 64.6 307 66.4 311.2 68.5C313.3 69.6 315.4 70.7 317.5 71.9C318.7 72.6 319.9 73.4 321.1 74.2C319.4 73.8 317.5 73.4 315.7 73ZM343.6 80.6C341.3 79.9 339.1 79.2 336.8 78.5C335.7 77.8 334.7 77.1 333.6 76.5C330.7 74.7 327.7 73.1 324.7 71.5C321.7 70 318.6 68.5 315.5 67.1C303.4 61.7 290.8 57.6 277.9 54.3C278.8 55 279.7 55.7 280.6 56.5C282.5 58.1 284.4 59.8 286.3 61.5C288.1 63.2 290 65 291.6 66.9C289.7 65.3 287.7 63.8 285.6 62.4C283.5 61 281.5 59.6 279.3 58.3C277.2 57 275 55.8 272.8 54.6C270.8 53.6 268.9 52.6 266.9 51.8C264 51.2 261 50.6 258 50.1C266.1 53.2 274.9 61.8 279.4 66.6C278.3 66.4 277.1 66.3 276 66.1C273.3 65.7 270.6 65.4 267.9 65.1C264.9 59 257.1 51.9 251.4 48.9C246.3 48.1 241.2 47.4 236.1 46.8C233.9 46.5 231.6 46.3 229.4 46.1C229.5 46.2 229.6 46.2 229.8 46.3C228.4 46.2 227 46.2 225.6 46.2C221.6 46.1 217.5 46.1 213.5 46.1C217.5 46.5 221.5 47 225.5 47.5C228.4 47.9 231.3 48.3 234.1 48.8C234.7 49.2 235.2 49.5 235.7 49.9C233.3 49.8 230.9 49.7 228.5 49.7C224.5 49.6 220.5 49.6 216.4 49.6C220.4 50 224.4 50.5 228.4 51C231.9 51.4 235.4 51.9 238.8 52.5C239.1 52.8 239.4 53.1 239.7 53.4C236.9 53.3 234.2 53.3 231.5 53.2C227.5 53.2 223.5 53.1 219.5 53.1C223.5 53.5 227.4 54 231.4 54.5C234.9 54.9 238.4 55.4 241.9 55.9C242.1 56.2 242.4 56.5 242.6 56.8L222.5 56.7L244.1 59.2C244.3 59.5 244.4 59.8 244.6 60.2H225.5L245.5 62.4C245.6 62.6 245.7 62.8 245.7 63L241.6 62.7C240 62.6 238.3 62.5 236.7 62.5L234.2 62.4L231.8 62.2L226.9 61.9C223.6 61.7 220.3 61.5 217.1 61.3C210.5 61 204 60.7 197.4 60.8C200.7 60.9 204 61.2 207.2 61.4C210.5 61.7 213.7 61.9 217 62.3C220.3 62.6 223.5 62.9 226.8 63.2L231.7 63.7L234.2 63.9L236.6 64.2C243.1 64.9 249.6 65.6 256.1 66.3C262.6 67.1 269.1 67.9 275.6 68.9C282.1 69.9 288.5 71 294.9 72.2C301.3 73.4 307.7 74.7 314.1 76.2C320.5 77.7 326.8 79.3 333.1 81.1C339.4 82.9 345.6 84.9 351.6 87.2C364.2 92.1 373.7 97.4 379.6 103C379 102.7 378.5 102.5 377.9 102.3C376.4 101.7 375 101.2 373.5 100.6C371.5 99.1 369.4 97.8 367.2 96.5C360.1 92.5 352.4 89.3 344.5 86.5C336.6 83.8 328.5 81.5 320.4 79.4C316.1 78.3 311.8 77.4 307.4 76.4C308.9 77.5 310.4 78.7 311.9 79.9C314 81.7 316.1 83.5 318.2 85.4C320 87.1 321.8 88.8 323.5 90.6C323.4 90.6 323.4 90.6 323.3 90.6C321.4 89.1 319.5 87.6 317.6 86.3C315.4 84.7 313.1 83.2 310.7 81.8C308.4 80.4 306 79 303.6 77.7C301.3 76.5 299 75.3 296.6 74.4C296.3 74.3 296 74.3 295.7 74.2C292.3 73.6 288.8 73 285.4 72.4C293.4 75.8 301.8 83.7 306.8 88.8C302.8 88.4 298.7 88.1 294.7 87.8C291.4 81.5 283.9 74.7 277.8 71.2C267.1 69.6 256.4 68.3 245.6 67.3C245.5 67.3 245.4 67.3 245.3 67.3C242.5 67.2 239.6 67.1 236.8 67.1C240.7 67.6 244.6 68.2 248.4 68.9C251.1 69.4 253.8 70 256.5 70.5C256.7 70.6 256.9 70.7 257.1 70.8C251.1 70.5 245.1 70.3 239.2 70.3C246.8 71.2 254.3 72.5 261.8 73.9C259.1 73.8 256.5 73.7 253.8 73.7C249.7 73.6 245.6 73.6 241.5 73.6C245.6 74.1 249.6 74.6 253.7 75.2C257.5 75.7 261.3 76.3 265 77C262.1 76.9 259.3 76.9 256.4 76.9H243.9L256.4 78.4C260.4 78.9 264.4 79.4 268.4 80C265.3 80 262.2 80 259.1 80.1C254.8 80.2 250.6 80.2 246.3 80.2C250.5 80.7 254.8 81.1 259 81.6C262.9 82 266.8 82.4 270.7 82.9L270.8 83C267.7 83.1 264.7 83.1 261.7 83.2C257.3 83.3 253 83.4 248.6 83.4C252.9 83.9 257.3 84.3 261.6 84.7C265.2 85 268.8 85.3 272.4 85.7C272.5 85.8 272.5 85.9 272.6 86.1C263.7 85.6 254.8 85.2 246 85C237.9 84.8 229.9 84.6 221.8 84.6C217.8 84.6 213.7 84.6 209.7 84.6C205.7 84.7 201.6 84.7 197.6 84.9C213.7 85.7 229.9 86.4 246 86.8L249 86.9L252 87.1L258 87.4C262 87.6 266 87.9 270.1 88.2C278.1 88.8 286.2 89.4 294.2 90.2C310.2 91.8 326.2 93.6 342.1 96.4C346.1 97.1 350 97.9 353.9 98.7C357.8 99.5 361.7 100.4 365.6 101.5C369.4 102.6 373.2 103.8 376.9 105.3C378.7 106.1 380.5 106.9 382.1 107.8C383.7 108.7 385.2 109.9 386.1 111.1C386.4 111.8 386.8 112.7 386.8 113C386.8 114.3 385.5 118.2 371 122.9C373 121.8 374.9 120.8 376.8 119.7C377.8 119.1 378.7 118.6 379.7 118C380.2 117.7 380.6 117.4 381 117.1C381.4 116.8 381.9 116.5 382.2 116.2C383 115.6 383.7 114.9 384.2 114.3C384.4 114 384.6 113.7 384.7 113.5C384.8 113.3 384.8 113.1 384.8 113C384.8 113 384.8 113 384.8 112.9C384.8 112.9 384.8 112.9 384.8 112.8C384.8 112.8 384.8 112.8 384.8 112.7C384.8 112.7 384.8 112.7 384.8 112.6V112.5C384.8 112.5 384.8 112.4 384.7 112.4C384.7 112.3 384.6 112.2 384.5 112.1C384.4 111.9 384.2 111.7 384 111.5C383.7 111.2 383.3 110.8 382.9 110.5C381.4 109.4 379.5 108.4 377.5 107.5C373.5 105.8 369.1 104.5 364.6 103.3C355.7 101 346.5 99.3 337.3 97.8C328.1 96.3 318.8 95.1 309.4 94.1C304.7 93.6 300.1 93.1 295.4 92.7C290.7 92.3 286 91.8 281.4 91.5C272 90.7 262.6 90.1 253.2 89.6C234.4 88.6 215.6 88.2 196.7 88.1C177.9 88.1 159 88.6 140.2 89.5C130.8 90 121.4 90.6 112 91.3C107.3 91.7 102.6 92.1 97.9 92.5C93.2 92.9 88.5 93.4 83.9 93.9C74.6 94.9 65.3 96.1 56 97.5C51.4 98.2 46.8 99 42.2 99.8C37.6 100.6 33.1 101.6 28.6 102.7C24.1 103.8 19.7 105 15.5 106.6C13.4 107.4 11.4 108.2 9.6 109.3C8.7 109.8 7.9 110.3 7.2 110.9C6.9 111.1 6.7 111.4 6.4 111.6C6.1 111.9 5.9 112.2 5.8 112.4C5.8 112.5 5.7 112.6 5.7 112.6C5.7 112.7 5.6 112.7 5.7 112.7C5.7 112.8 5.7 112.8 5.7 113C5.7 113.1 5.8 113.3 6 113.6C6.1 113.9 6.4 114.2 6.6 114.5C7.7 115.8 9.5 117.1 11.3 118.3C13.2 119.5 15.1 120.7 17.2 121.9C17.3 122 17.5 122.1 17.6 122.1C5 117.7 3.7 114.1 3.7 112.8C3.7 112.3 4.1 111.4 4.3 111C4.6 110.5 5 110.1 5.5 109.6C6 109.2 6.5 108.7 7.1 108.3C8.3 107.5 9.5 106.8 10.8 106.1C13.4 104.8 16.3 103.8 19.1 102.8C24.8 100.9 30.7 99.4 36.6 98.1C42.5 96.8 48.5 95.7 54.5 94.7C60.5 93.7 66.5 92.8 72.6 92C84.7 90.4 96.8 89.2 109 88.1C121.2 87.1 133.3 86.2 145.5 85.4C133.3 85.6 121.1 86 108.9 86.7C96.7 87.4 84.5 88.4 72.3 89.7C71.8 89.8 71.2 89.8 70.7 89.9C70.7 89.8 70.8 89.7 70.8 89.5L104.6 84.1L72.2 87L72.3 86.9C75.2 86.3 78.2 85.8 81.1 85.3L90.9 83.7C97.4 82.6 103.9 81.6 110.4 80.5C103.8 81.2 97.3 81.8 90.7 82.5L80.9 83.5C79.3 83.7 77.7 83.8 76.2 84C79.2 83.3 82.2 82.8 85.3 82.2C88.7 81.6 92.2 81 95.6 80.4L116.2 76.9L95.4 79.2C91.9 79.6 88.5 80 85 80.4C83.6 80.6 82.2 80.8 80.7 80.9C83.5 80.2 86.4 79.6 89.3 79.1C92.9 78.4 96.5 77.7 100.2 77C107.4 75.7 114.7 74.4 122 73.1C114.7 73.9 107.4 74.8 100 75.7C96.3 76.1 92.7 76.6 89 77.1C87.7 77.3 86.4 77.5 85.1 77.7C87.8 77 90.6 76.4 93.3 75.8C97.1 75 100.9 74.3 104.7 73.5C112.3 72.1 120 70.7 127.6 69.3C119.9 70.2 112.2 71.2 104.5 72.2C101.4 72.6 98.3 73 95.2 73.5C94.9 73.6 94.6 73.6 94.4 73.6C86.1 75.1 77.9 76.9 69.7 78.9C69 79.1 68.2 79.3 67.5 79.5C61.9 82.7 52.8 87.7 47 93.7C43.3 94.3 39.6 95 36 95.7C43.8 89.5 53.5 84.7 59.2 82.2C54.6 83.5 50 84.9 45.5 86.5C37.6 89.3 29.9 92.5 22.8 96.5C20.5 97.8 18.3 99.3 16.2 100.8C14.2 101.5 12.2 102.3 10.2 103.1C16.1 97.4 25.7 92 38.4 87.1C48 83.4 57.8 80.5 67.8 77.8L71.5 76.8L75.3 75.9L79.1 75L82.9 74.2L86.7 73.4L90.5 72.6L94.3 71.8L98.1 71.1L101.9 70.4L105.7 69.7C108.2 69.3 110.8 68.8 113.3 68.4C115.9 68 118.4 67.6 121 67.2C123.6 66.8 126.1 66.4 128.7 66.1C138.9 64.7 149.2 63.5 159.5 62.5C149.2 62.9 138.8 63.6 128.5 64.6C125.9 64.8 123.3 65.2 120.8 65.4C118.2 65.7 115.7 66 113.1 66.3C110.5 66.6 108 67 105.4 67.4L101.6 68L100.5 68.2C100.5 68 100.6 67.9 100.7 67.7C101.5 67.6 102.2 67.4 103 67.3L111 65.7C116.3 64.6 121.6 63.6 127 62.6C121.6 63.1 116.2 63.8 110.8 64.4L102.7 65.4C102.5 65.4 102.2 65.5 102 65.5C102.1 65.4 102.2 65.3 102.2 65.2C103.8 64.9 105.4 64.5 107.1 64.1L114.7 62.4C119.8 61.3 124.9 60.1 130 59.2C124.8 59.7 119.6 60.4 114.4 61.1L106.6 62.2C106 62.3 105.4 62.4 104.8 62.4L104.9 62.3C107 61.8 109 61.3 111.1 60.8L118.4 59C123.3 57.8 128.1 56.6 133.1 55.7C128.1 56.2 123.1 56.9 118.2 57.7L110.8 58.9C110.4 59 110 59 109.6 59.1C111.5 58.6 113.4 58.1 115.2 57.6L122.2 55.7C126.8 54.5 131.5 53.2 136.2 52.3C131.4 52.8 126.6 53.6 121.9 54.4L115.5 55.5C115.6 55.5 115.7 55.4 115.8 55.4C117 55.1 118.1 54.7 119.3 54.3L125.9 52.3C130.3 51 134.7 49.7 139.3 48.9C134.7 49.3 130.2 50.2 125.6 51.1L124.8 51.3C124.9 51.3 124.9 51.2 125 51.2C121.2 52 117.4 52.8 113.6 53.8C110.4 54.6 107.2 55.5 104 56.4C98.1 59.3 87.8 65 81 71.8L78.7 72.3L74.9 73.1L71.1 73.9H70.9C79.3 67.1 89.4 61.8 95.4 59C88.4 61.3 81.5 63.9 74.8 66.9C71.7 68.3 68.6 69.8 65.6 71.3C62.6 72.9 59.6 74.5 56.7 76.3C55.4 77 54.2 77.8 53 78.6C50.7 79.3 48.4 80 46.2 80.7C71.5 61.5 121.8 43.8 186.7 42.3C187.6 42.3 188.5 42.3 189.3 42.2C189.8 42.2 190.3 42.2 190.9 42.2C192.4 42.2 193.8 42.2 195.3 42.2C196.8 42.2 198.2 42.2 199.7 42.2C200.2 42.2 200.7 42.2 201.3 42.2C202.2 42.2 203.1 42.2 203.9 42.3C268.6 43.7 318.8 61.4 344.2 80.5C343.8 80.6 343.7 80.6 343.6 80.6ZM297.7 132.1C297.8 132.4 298.1 132.7 298.4 133C298 132.9 297.6 132.7 297.3 132.3C297.1 132.1 297 131.9 297 131.6C297 131.3 297 131.1 297.2 130.8C297.4 130.4 297.8 130 298.2 129.8C298.6 129.6 299 129.3 299.4 129.2C300.2 128.9 301 128.7 301.9 128.5C302.7 128.4 303.6 128.3 304.4 128.3C305.2 128.3 306.1 128.4 306.9 128.6C307.7 128.8 308.6 129 309.4 129.3C309.8 129.5 310.2 129.7 310.5 130C310.8 130.3 311.2 130.7 311.3 131.2C311.3 131.3 311.3 131.5 311.3 131.6C311.3 131.7 311.3 131.9 311.2 132C311.1 132.2 310.9 132.4 310.8 132.6C310.5 132.9 310.1 133 309.7 133.2C310 133 310.3 132.7 310.6 132.4C310.8 132.1 310.9 131.8 310.7 131.5C310.4 131 309.7 130.7 309 130.5C307.5 130.1 306 130 304.4 129.9C302.8 129.9 301.3 130 299.8 130.4C299.1 130.6 298.3 130.9 297.9 131.3C297.6 131.5 297.5 131.8 297.7 132.1ZM280.6 132.8C280.6 133 280.5 133.1 280.5 133.3C280.5 133.4 280.5 133.5 280.4 133.6C280.4 133.8 280.3 133.9 280.3 134.1C280.3 134.2 280.2 134.3 280.2 134.4C280.1 134.6 280.1 134.8 280 134.9C280 135 279.9 135.1 279.9 135.2C279.7 135.8 279.4 136.3 279.1 136.9C279.1 137 279 137 279 137.1C277.3 140 274.3 143 270.4 144.8C270 144.2 269.4 143.7 268.8 143.2C270.3 142.5 271.8 141.6 273.1 140.6C274.6 139.4 275.9 138 276.9 136.4C277.4 135.6 277.8 134.8 278.1 134.1C278.3 133.6 278.4 133.2 278.5 132.8C278.5 132.8 278.5 132.8 278.4 132.8C278.1 132.6 277.7 132.4 277.3 132.2C276.9 132 276.4 131.8 276 131.6C275.6 131.5 275.3 131.3 274.9 131.2C272.5 136.6 268.3 139.6 265.5 141.2C265.3 141.1 265.1 141 264.9 140.9C264.8 140.9 264.7 140.8 264.6 140.8C264.5 140.8 264.4 140.7 264.3 140.7C264.1 140.6 263.9 140.5 263.7 140.5H263.6C268.7 136.4 270.1 131.4 270.4 130.1C270.2 130.1 270.1 130 269.9 130C267.8 129.5 265.6 129.1 263.3 128.7C261.6 128.4 259.8 128.1 258.1 127.9C256.9 129.7 255.5 131.3 254 132.7C253.2 133.5 252.3 134.2 251.4 134.8C250.5 135.4 249.6 136 248.6 136.5C249.5 135.8 250.2 135.1 250.9 134.3C251.6 133.5 252.2 132.6 252.8 131.8C253.7 130.4 254.5 129 255.1 127.6C253.8 127.4 252.4 127.3 251.1 127.1C249.9 130.2 246.5 134.4 242.7 136.3C242.5 136.3 242.3 136.3 242.2 136.2C242 136.2 241.8 136.2 241.6 136.1C241.3 136.1 241.1 136 240.8 136C240.6 136 240.4 136 240.2 135.9C240 135.9 239.7 135.8 239.5 135.8C239.4 135.8 239.4 135.8 239.3 135.8C242.9 132.9 244.7 128 244.9 126.3C237.5 125.6 230 125.1 222.5 124.8C219.9 124.7 217.3 124.6 214.6 124.5C214.5 124.5 214.3 124.5 214.2 124.5C215.7 124.6 217.2 124.9 218.7 125.1C220.2 125.3 221.7 125.6 223.2 125.8C225.3 126.2 227.3 126.5 229.4 126.9C229.4 127 229.4 127.1 229.4 127.3C227.3 127.2 225.2 127.2 223.1 127.1C221.6 127.1 220.1 127 218.6 127C217.1 127 215.6 127 214.1 127.1C215.6 127.2 217.1 127.5 218.5 127.7C220 127.9 221.4 128.2 222.9 128.4C224.9 128.7 226.8 129.1 228.8 129.4C228.8 129.5 228.7 129.7 228.7 129.8C226.7 129.7 224.8 129.7 222.8 129.7C221.3 129.7 219.9 129.7 218.4 129.6C216.9 129.6 215.5 129.6 214 129.7C215.4 129.8 216.9 130.1 218.3 130.3C219.7 130.5 221.2 130.8 222.6 131C224.3 131.3 226 131.6 227.7 131.9C227.6 132.1 227.5 132.2 227.5 132.4C225.8 132.4 224.2 132.3 222.5 132.3C221.1 132.3 219.7 132.3 218.3 132.3C216.9 132.3 215.5 132.3 214.1 132.4C215.5 132.5 216.9 132.7 218.3 133C219.7 133.2 221.1 133.4 222.5 133.7C223.9 133.9 225.2 134.2 226.6 134.4C226.5 134.6 226.4 134.7 226.3 134.8C222.8 134.6 219.1 134.4 215.2 134.3C214.6 134.3 214.1 134.3 213.5 134.2H213.4C212.9 134.2 212.3 134.2 211.7 134.2C211.6 134.2 211.6 134.2 211.5 134.2C211 134.2 210.4 134.2 209.9 134.2C209.8 134.2 209.7 134.2 209.7 134.2C209.2 134.2 208.7 134.2 208.2 134.2C208.1 134.2 208 134.2 207.9 134.2C207.4 134.2 206.9 134.2 206.4 134.2C206.3 134.2 206.1 134.2 206 134.2C205.5 134.2 205.1 134.2 204.6 134.2C204.4 134.2 204.2 134.2 204 134.2C203.6 134.2 203.1 134.2 202.7 134.2C202.5 134.2 202.2 134.2 202 134.2C201.6 134.2 201.2 134.2 200.8 134.2C200.5 134.2 200.2 134.2 200 134.2C199.6 134.2 199.3 134.2 198.9 134.2C198.5 134.2 198.2 134.2 197.8 134.2C197.5 134.2 197.2 134.2 196.9 134.2C196.2 134.2 195.6 134.2 194.9 134.2C194.2 134.2 193.6 134.2 192.9 134.2C192.6 134.2 192.3 134.2 192 134.2C191.6 134.2 191.3 134.2 190.9 134.2C190.5 134.2 190.2 134.2 189.8 134.2C189.5 134.2 189.2 134.2 189 134.2C188.6 134.2 188.2 134.2 187.8 134.2C187.6 134.2 187.3 134.2 187.1 134.2C186.7 134.2 186.2 134.2 185.8 134.2C185.6 134.2 185.4 134.2 185.2 134.2C184.7 134.2 184.3 134.2 183.8 134.2C183.7 134.2 183.5 134.2 183.4 134.2C182.9 134.2 182.4 134.2 181.9 134.2C181.8 134.2 181.7 134.2 181.6 134.2C181.1 134.2 180.6 134.2 180.1 134.2C180 134.2 179.9 134.2 179.9 134.2C179.4 134.2 178.8 134.2 178.3 134.2C178.2 134.2 178.2 134.2 178.1 134.2C177.5 134.2 177 134.2 176.4 134.2H176.3C175.7 134.2 175.2 134.2 174.6 134.3C167.2 134.6 160.3 135 154.2 135.5C154.1 135.5 154.1 135.5 154 135.5C153.7 135.5 153.3 135.6 153 135.6C152.8 135.6 152.7 135.6 152.5 135.6C152.2 135.6 152 135.7 151.7 135.7C151.5 135.7 151.3 135.7 151.1 135.8C150.9 135.8 150.6 135.8 150.4 135.9C150.2 135.9 149.9 136 149.7 136C149.5 136 149.3 136 149.1 136.1C148.8 136.1 148.6 136.2 148.3 136.2C148.1 136.2 147.9 136.2 147.7 136.3C147.4 136.3 147.2 136.4 146.9 136.4C146.7 136.4 146.5 136.4 146.4 136.5C146.2 136.5 145.9 136.6 145.7 136.6C145.5 136.6 145.3 136.6 145.1 136.7C144.9 136.7 144.6 136.8 144.4 136.8C144.2 136.8 144 136.9 143.8 136.9H143.7C143.6 136.8 143.5 136.7 143.4 136.7C145.6 136.2 147.8 135.8 150 135.3C151.5 135 153 134.7 154.5 134.4C156 134.1 157.5 133.9 159.1 133.7C157.6 133.6 156 133.7 154.5 133.8C153 133.9 151.4 133.9 149.9 134C147.1 134.2 144.3 134.4 141.6 134.6L141.5 134.5C144.2 133.9 146.9 133.3 149.6 132.7C151.1 132.4 152.6 132.1 154.1 131.8C155.6 131.5 157.1 131.2 158.7 131.1C157.2 131 155.6 131.1 154.1 131.2C152.6 131.3 151 131.4 149.5 131.5C146.5 131.7 143.4 131.9 140.4 132.2C143.3 131.5 146.3 130.8 149.2 130.2C150.7 129.9 152.2 129.6 153.7 129.3C155.2 129 156.7 128.7 158.3 128.6C156.8 128.5 155.2 128.6 153.7 128.7C152.2 128.8 150.6 128.9 149.1 129C146.2 129.2 143.3 129.4 140.5 129.7V129.6C143.2 128.9 146 128.3 148.8 127.7C150.3 127.4 151.8 127.1 153.3 126.8C154.8 126.5 156.3 126.2 157.8 126.1C156.4 126 154.9 126.1 153.5 126.2C149.1 126.5 144.7 126.9 140.3 127.4C135.8 127.9 131.3 128.5 126.8 129.2C126 129.3 125.1 129.5 124.3 129.7C124.6 133.6 129.6 137.8 131.9 139.4C131 139.6 130.2 139.9 129.4 140.1C126.2 139.1 121.4 136.1 119.7 130.7C117.8 131.2 115.9 131.7 114.2 132.3C113.7 132.5 113.3 132.7 112.9 132.9C112.5 133.1 112.1 133.3 111.8 133.5C111.8 133.5 111.8 133.5 111.7 133.5C111.8 133.9 111.9 134.4 112.1 134.8C112.4 135.6 112.8 136.4 113.3 137.1C114.3 138.6 115.6 140.1 117.1 141.3C118.4 142.4 119.9 143.3 121.4 143.9C120.7 144.4 120.2 145 119.8 145.5C116 143.7 113.1 140.8 111.3 137.9C111.2 137.8 111.2 137.7 111.1 137.6C111 137.4 110.9 137.2 110.8 137.1C110.7 136.9 110.6 136.7 110.5 136.4C110.4 136.3 110.4 136.1 110.3 136C110.2 135.8 110.2 135.7 110.1 135.5C110.1 135.4 110 135.3 110 135.2C109.9 135 109.9 134.9 109.9 134.7C109.9 134.6 109.8 134.5 109.8 134.4C109.8 134.2 109.7 134.1 109.7 134C109.7 133.9 109.7 133.8 109.6 133.7C109.6 133.6 109.6 133.4 109.5 133.3C109.5 133.1 109.5 133 109.5 132.8C109.5 132.7 109.5 132.7 109.5 132.6C109.5 132.6 110 131.4 114.9 129.7C118.2 128.6 123.2 127.4 130.9 126.3H131C131.5 126.2 132.1 126.1 132.6 126.1C132.7 126.1 132.7 126.1 132.8 126.1C133.2 126 133.7 126 134.2 125.9C134.4 125.9 134.5 125.9 134.7 125.8C134.8 125.8 135 125.8 135.1 125.7C135.5 125.7 135.8 125.6 136.2 125.6C136.3 125.6 136.5 125.6 136.6 125.5C137 125.5 137.4 125.4 137.7 125.4C137.8 125.4 138 125.4 138.1 125.3C138.5 125.3 138.9 125.2 139.3 125.2C139.4 125.2 139.6 125.2 139.7 125.2C140.1 125.2 140.5 125.1 140.9 125.1C141 125.1 141.2 125.1 141.3 125.1C141.7 125.1 142.1 125 142.6 125C142.7 125 142.8 125 143 125C143.4 125 143.9 124.9 144.3 124.9C144.4 124.9 144.5 124.9 144.6 124.9C145.1 124.9 145.5 124.8 146 124.8C146.1 124.8 146.2 124.8 146.3 124.8C146.8 124.8 147.3 124.7 147.8 124.7C147.9 124.7 147.9 124.7 148 124.7C148.5 124.7 149 124.6 149.6 124.6C149.7 124.6 149.7 124.6 149.8 124.6C150.3 124.6 150.9 124.5 151.4 124.5C151.4 124.5 151.4 124.5 151.5 124.5C152.1 124.5 152.7 124.4 153.2 124.4C163.5 123.6 174.8 123.2 186.7 123C186.9 123 187 123 187.2 123C187.7 123 188.3 123 188.8 123C188.9 123 189.1 123 189.2 123C189.8 123 190.3 123 190.9 123C191.1 123 191.3 123 191.5 123C192 123 192.5 123 193 123C193.7 123 194.4 123 195.1 123C195.8 123 196.5 123 197.2 123C197.7 123 198.2 123 198.7 123C198.9 123 199.1 123 199.3 123C199.9 123 200.4 123 201 123C201.1 123 201.3 123 201.4 123C201.9 123 202.5 123 203 123C203.2 123 203.3 123 203.5 123C215.3 123.2 226.7 123.6 237 124.4C237.6 124.4 238.1 124.5 238.7 124.5H238.8C239.3 124.5 239.9 124.6 240.4 124.6C240.5 124.6 240.5 124.6 240.6 124.6C241.1 124.6 241.6 124.7 242.1 124.7C242.2 124.7 242.2 124.7 242.3 124.7C242.8 124.7 243.3 124.8 243.8 124.8C243.9 124.8 244 124.8 244.1 124.8C244.6 124.8 245 124.9 245.5 124.9C245.6 124.9 245.7 124.9 245.8 124.9C246.2 124.9 246.7 125 247.1 125C247.2 125 247.4 125 247.5 125C247.9 125 248.3 125.1 248.7 125.1C248.8 125.1 249 125.1 249.1 125.1C249.5 125.1 249.9 125.2 250.3 125.2C250.4 125.2 250.6 125.2 250.7 125.2C251.1 125.2 251.5 125.3 251.8 125.3C252 125.3 252.1 125.3 252.3 125.4C252.7 125.4 253 125.5 253.4 125.5C253.6 125.5 253.7 125.5 253.9 125.6C254.3 125.6 254.6 125.7 255 125.7C255.2 125.7 255.3 125.7 255.5 125.8C255.7 125.8 255.8 125.8 256 125.9C256.5 126 256.9 126 257.4 126.1C257.5 126.1 257.5 126.1 257.6 126.1C258.2 126.2 258.7 126.3 259.2 126.3H259.3C266.5 127.4 271.4 128.5 274.7 129.5C279.9 131.1 280.6 132.4 280.7 132.5C280.7 132.7 280.7 133 280.7 133.2C280.7 132.7 280.6 132.8 280.6 132.8ZM94.1 131.5C93.8 131 93.1 130.7 92.4 130.5C90.9 130.1 89.4 130 87.8 129.9C86.2 129.9 84.7 130 83.2 130.4C82.5 130.6 81.7 130.9 81.3 131.3C81.1 131.5 81 131.8 81.1 132.1C81.2 132.4 81.5 132.7 81.8 133C81.4 132.9 81 132.7 80.7 132.3C80.5 132.1 80.4 131.9 80.4 131.6C80.4 131.3 80.4 131.1 80.6 130.8C80.8 130.4 81.2 130 81.6 129.8C82 129.6 82.4 129.3 82.8 129.2C83.6 128.9 84.4 128.7 85.3 128.5C86.1 128.4 87 128.3 87.8 128.3C88.6 128.3 89.5 128.4 90.3 128.6C91.1 128.8 92 129 92.8 129.3C93.2 129.5 93.6 129.7 93.9 130C94.2 130.3 94.6 130.7 94.7 131.2C94.7 131.3 94.7 131.5 94.7 131.6C94.7 131.7 94.7 131.9 94.6 132C94.5 132.2 94.3 132.4 94.2 132.6C93.9 132.9 93.5 133 93.1 133.2C93.4 133 93.7 132.7 94 132.4C94.1 132 94.2 131.7 94.1 131.5ZM59.9 117.7C59.7 117.1 59.1 116.7 58.5 116.3C57.9 115.9 57.2 115.7 56.5 115.4C53.6 114.5 50.5 114.2 47.5 114.2C44.4 114.2 41.3 114.4 38.4 115.2C37.7 115.4 37 115.7 36.3 116C35.6 116.3 35 116.7 34.6 117.2C34.4 117.5 34.3 117.7 34.2 118C34.2 118.3 34.2 118.6 34.4 119C34.7 119.6 35.3 120.2 35.9 120.7C35.2 120.4 34.4 120 33.9 119.3C33.6 119 33.4 118.5 33.4 118C33.4 117.5 33.5 117 33.7 116.6C34.2 115.8 34.9 115.2 35.6 114.8C36.3 114.3 37.1 114 37.8 113.7C39.3 113.1 40.9 112.7 42.5 112.5C44.1 112.2 45.7 112.1 47.3 112.2C48.9 112.2 50.5 112.4 52.1 112.7C53.7 113 55.3 113.4 56.8 114.1C57.6 114.4 58.3 114.8 59 115.3C59.3 115.6 59.7 115.9 60 116.2C60.3 116.5 60.5 117 60.6 117.4C60.7 117.9 60.7 118.4 60.5 118.8C60.3 119.2 60 119.6 59.7 119.9C59.1 120.5 58.3 120.8 57.6 121.1C58.3 120.7 58.9 120.2 59.3 119.6C59.5 119.3 59.7 119 59.8 118.7C60.1 118.3 60.1 118 59.9 117.7ZM53.2 118.6V118.2C53.5 118.3 53.7 118.3 54 118.4V118.8C53.7 121.9 51.5 124.5 48.5 125.1C51 124.1 53 121.6 53.2 118.6ZM41.5 118.9C41.6 119.8 41.8 120.6 42.1 121.4C42.3 121 42.8 120.8 43.3 120.8C44.1 120.8 44.7 121.4 44.7 122.2C44.7 122.9 44.1 123.5 43.4 123.6C44.3 124.7 45.5 125.3 46.8 125.4C43.2 125.3 40.2 122.6 39.9 119L39.8 118.6C40.3 118.5 40.9 118.3 41.5 118.2V118.9ZM182.2 101.6C181.9 101.3 181.6 101 181.4 100.5C181.2 100.1 181.2 99.6 181.3 99.1C181.4 98.6 181.7 98.2 181.9 97.9C182.2 97.6 182.5 97.3 182.9 97C183.6 96.5 184.3 96.1 185.1 95.8C186.6 95.1 188.2 94.7 189.8 94.4C191.4 94.1 193 94 194.6 93.9C196.2 93.9 197.8 94 199.4 94.2C201 94.5 202.6 94.8 204.1 95.4C204.9 95.7 205.6 96.1 206.3 96.5C207 97 207.7 97.5 208.2 98.3C208.4 98.7 208.6 99.2 208.5 99.7C208.5 100.2 208.3 100.6 208 101C207.5 101.7 206.7 102.1 206 102.4C206.6 101.9 207.2 101.3 207.5 100.7C207.6 100.4 207.7 100 207.7 99.7C207.7 99.4 207.5 99.1 207.3 98.9C206.9 98.4 206.3 98 205.6 97.7C204.9 97.4 204.2 97.1 203.5 96.9C200.6 96.1 197.5 95.9 194.4 95.9C191.3 95.9 188.2 96.2 185.4 97.1C184.7 97.3 184 97.6 183.4 98C182.8 98.4 182.2 98.8 182 99.4C181.9 99.7 181.8 100 181.9 100.3C182 100.6 182.1 100.9 182.4 101.2C182.9 101.8 183.5 102.3 184.1 102.7C183.6 102.5 182.8 102.1 182.2 101.6ZM355.8 118.1C355.8 117.8 355.6 117.5 355.4 117.3C355 116.8 354.4 116.4 353.7 116.1C353 115.8 352.3 115.5 351.6 115.3C348.7 114.5 345.6 114.3 342.5 114.3C339.4 114.3 336.3 114.6 333.5 115.5C332.8 115.7 332.1 116 331.5 116.4C330.9 116.8 330.3 117.2 330.1 117.8C330 118.1 329.9 118.4 330 118.7C330.1 119 330.2 119.3 330.5 119.6C331 120.2 331.6 120.7 332.2 121.1C331.5 120.8 330.7 120.5 330.1 119.9C329.8 119.6 329.5 119.3 329.3 118.8C329.1 118.4 329.1 117.9 329.2 117.4C329.3 116.9 329.6 116.5 329.8 116.2C330.1 115.9 330.4 115.6 330.8 115.3C331.5 114.8 332.2 114.4 333 114.1C334.5 113.4 336.1 113 337.7 112.7C339.3 112.4 340.9 112.3 342.5 112.2C344.1 112.2 345.7 112.3 347.3 112.5C348.9 112.8 350.5 113.1 352 113.7C352.8 114 353.5 114.4 354.2 114.8C354.9 115.3 355.6 115.8 356.1 116.6C356.3 117 356.5 117.5 356.4 118C356.4 118.5 356.2 118.9 355.9 119.3C355.4 120 354.6 120.4 353.9 120.7C354.5 120.2 355.1 119.6 355.4 119C355.7 118.7 355.8 118.4 355.8 118.1ZM350.2 118.5L350.1 118.9C349.8 122.4 346.8 125.2 343.2 125.3C344.5 125.3 345.7 124.6 346.6 123.5C345.9 123.5 345.3 122.9 345.3 122.1C345.3 121.3 345.9 120.7 346.7 120.7C347.2 120.7 347.6 121 347.9 121.3C348.2 120.5 348.4 119.7 348.5 118.8L348.6 118C349.1 118.2 349.7 118.3 350.2 118.5ZM336.8 118.2V118.6C337 121.6 339 124.2 341.6 125.1C338.6 124.4 336.3 121.9 336.1 118.8V118.4C336.3 118.3 336.6 118.2 336.8 118.2ZM291.2 127.6C291 127.6 290.9 127.7 290.7 127.7C290.5 127.8 290.3 127.8 290.1 127.9C290 127.9 289.8 128 289.7 128C289.5 128.1 289.3 128.1 289.1 128.2C289 128.2 288.8 128.3 288.7 128.3C288.5 128.4 288.3 128.4 288 128.5C287.9 128.5 287.7 128.6 287.6 128.6C287.4 128.7 287.1 128.7 286.9 128.8C286.8 128.8 286.7 128.9 286.5 128.9C286.2 129 286 129 285.7 129.1C285.6 129.1 285.5 129.1 285.4 129.2C284.7 129.4 283.9 129.5 283.2 129.6C282.8 129.2 282.4 128.7 281.9 128.4L281.8 127.7C287.4 126.9 293 125.2 298.2 122.8C299.5 122.2 300.8 121.6 301.9 120.9C302.5 120.6 303 120.2 303.5 119.8C303.4 119.7 303.3 119.6 303.1 119.6C302.6 119.3 302 119 301.5 118.7C299.8 117.9 297.9 117.2 295.9 116.6C289.7 122.7 280.6 125.3 277.3 126.2C276.9 126 276.4 125.9 276 125.8C275.9 125.8 275.8 125.7 275.7 125.7C275.6 125.7 275.6 125.7 275.5 125.7C285.6 121.8 289.6 116.5 290.4 115.3C288.6 114.9 286.7 114.5 284.8 114.1C279.6 113.1 274.2 112.3 268.9 111.6L269.4 112C267.5 114.1 265.4 115.9 263.2 117.5C262.1 118.3 261 119.1 259.8 119.8C258.6 120.5 257.4 121.2 256.2 121.7C257.3 121 258.4 120.1 259.4 119.2C260.4 118.3 261.3 117.4 262.3 116.4C263.8 114.8 265.2 113.1 266.4 111.3C264.8 111.1 263.3 110.9 261.7 110.8C261.8 110.9 262 111 262.1 111.1C259.9 114.5 255 119.1 250.3 121.3C250 121.3 249.8 121.2 249.5 121.2C249.5 121.2 249.5 121.2 249.4 121.2C248.5 121.1 247.5 121 246.5 120.9C251.6 117.4 255.2 111.4 255.5 110.2C251 109.8 246.5 109.4 241.9 109.1V109.2C237.4 108.9 233 108.6 228.5 108.4C222.9 108.1 217.4 108 211.8 108C217.3 108.4 222.9 109 228.4 109.7C232.8 110.3 237.1 110.9 241.5 111.5C241.5 111.6 241.4 111.7 241.4 111.8C238.1 111.7 234.9 111.6 231.6 111.6C227.4 111.5 223.2 111.5 219 111.6C223.2 111.9 227.3 112.4 231.5 112.9C234.3 113.2 237 113.6 239.8 113.9C239.7 114.1 239.5 114.2 239.3 114.4C235.6 114.3 231.9 114.2 228.2 114.1C224.2 114 220.2 114 216.2 114.1C220.2 114.4 224.2 114.9 228.1 115.4C231 115.8 233.8 116.1 236.7 116.5C236.5 116.6 236.3 116.8 236.1 116.9C232.3 116.8 228.6 116.7 224.8 116.6C221 116.5 217.1 116.5 213.3 116.6C217.1 116.9 220.9 117.4 224.7 117.9C227.4 118.2 230 118.6 232.7 119C232.2 119.2 231.8 119.5 231.3 119.7C222.5 119.2 213.1 118.8 203.4 118.7C203.3 118.7 203.3 118.7 203.2 118.7C202.6 118.7 201.9 118.7 201.3 118.7C201.2 118.7 201 118.7 200.9 118.7C200.3 118.7 199.8 118.7 199.2 118.7C198.9 118.7 198.6 118.7 198.3 118.7C197.9 118.7 197.5 118.7 197.1 118.7C196.4 118.7 195.7 118.7 194.9 118.7C194.2 118.7 193.5 118.7 192.7 118.7C192.3 118.7 191.9 118.7 191.5 118.7C191.2 118.7 190.9 118.7 190.6 118.7C190 118.7 189.5 118.7 188.9 118.7C188.8 118.7 188.6 118.7 188.5 118.7C187.9 118.7 187.2 118.7 186.6 118.7C186.5 118.7 186.5 118.7 186.4 118.7C170 118.9 154.5 119.7 141.4 121.1C141 120.9 140.5 120.7 140.1 120.5C141.6 120.2 143.2 119.9 144.7 119.7C148 119.1 151.4 118.7 154.8 118.3C151.4 118.3 148 118.3 144.6 118.4C142 118.5 139.4 118.7 136.8 118.9C136.4 118.7 136.1 118.5 135.7 118.3C138 117.8 140.3 117.4 142.7 117C146.1 116.4 149.5 115.9 152.9 115.5C149.5 115.5 146 115.6 142.6 115.7C139.5 115.8 136.4 116 133.3 116.4C133.1 116.2 133 116 132.8 115.8C135.4 115.2 138 114.7 140.7 114.2C144.1 113.6 147.5 113.1 151 112.6C147.5 112.6 144.1 112.7 140.6 112.9C137.8 113 135.1 113.2 132.3 113.5C132.3 113.3 132.4 113.2 132.5 113C134.1 112.7 135.7 112.4 137.4 112.1C139.8 111.7 142.3 111.3 144.7 110.9C149.6 110.2 154.5 109.5 159.4 108.8C154.5 109 149.5 109.3 144.6 109.6C142.1 109.8 139.7 109.9 137.2 110.1C136.8 110.1 136.5 110.2 136.1 110.2C136.2 110.1 136.4 110.1 136.5 110C131.6 110.4 126.7 110.9 121.9 111.5C120.7 111.7 119.4 111.8 118.2 112C118.1 112 118.1 112 118 112.1C109.2 115.5 120.4 121.6 124.2 123.5C122.8 123.8 121.5 124 120.3 124.3C114.2 122.4 104.3 118.2 106.9 113.8C105.9 114 105 114.2 104.1 114.3C101.2 114.9 98.3 115.5 95.5 116.3C94.3 116.6 93.2 117 92.1 117.4C90.2 118.2 88.4 119 86.8 120C87.5 120.4 88.3 120.9 89 121.3C90.2 122 91.5 122.6 92.8 123.1C98 125.3 103.6 127 109.2 127.8C108.2 128.3 107.4 129 106.8 129.7C106.1 129.6 105.3 129.4 104.6 129.3C104.5 129.3 104.4 129.3 104.3 129.2C104 129.1 103.8 129.1 103.5 129C103.4 129 103.3 128.9 103.1 128.9C102.9 128.8 102.6 128.8 102.4 128.7C102.3 128.7 102.1 128.6 102 128.6C101.8 128.5 101.6 128.5 101.3 128.4C101.2 128.4 101 128.3 100.9 128.3C100.7 128.2 100.5 128.2 100.3 128.1C100.2 128.1 100 128 99.9 128C99.7 127.9 99.5 127.9 99.3 127.8C99.1 127.8 99 127.7 98.9 127.7C98.7 127.6 98.5 127.6 98.3 127.5C98.2 127.5 98 127.4 97.9 127.4C97.7 127.3 97.5 127.3 97.3 127.2C97.2 127.2 97 127.1 96.9 127C96.7 126.9 96.5 126.9 96.4 126.8C96.3 126.7 96.1 126.7 96 126.6C95.8 126.5 95.7 126.5 95.5 126.4C95.4 126.3 95.2 126.3 95.1 126.2C94.9 126.1 94.8 126.1 94.6 126C94.5 125.9 94.3 125.9 94.2 125.8C94 125.7 93.9 125.7 93.7 125.6C93.6 125.5 93.4 125.5 93.3 125.4C93.1 125.3 93 125.3 92.8 125.2C92.7 125.1 92.5 125.1 92.4 125C92.2 124.9 92.1 124.9 91.9 124.8C91.8 124.7 91.6 124.7 91.5 124.6C91.4 124.5 91.2 124.5 91.1 124.4C91 124.3 90.9 124.3 90.7 124.2C90.6 124.1 90.4 124.1 90.3 124C90.2 123.9 90.1 123.9 90 123.8C89.9 123.7 89.7 123.7 89.6 123.6C89.5 123.5 89.4 123.5 89.3 123.4C89.2 123.3 89 123.3 88.9 123.2C88.8 123.1 88.7 123.1 88.6 123C88.5 122.9 88.4 122.9 88.2 122.8C88.1 122.7 88 122.7 87.9 122.6C87.8 122.5 87.7 122.5 87.5 122.4C87.4 122.3 87.3 122.3 87.2 122.2C87.1 122.1 87 122.1 86.9 122C86.8 121.9 86.7 121.9 86.6 121.8C86.5 121.7 86.4 121.7 86.3 121.6C86.2 121.6 86.1 121.5 86.1 121.5C86 121.4 85.9 121.4 85.8 121.3C85.7 121.3 85.7 121.2 85.6 121.2C85.5 121.1 85.4 121.1 85.3 121C85.2 121 85.2 120.9 85.1 120.9C85 120.8 84.9 120.8 84.9 120.7C84.8 120.7 84.8 120.6 84.7 120.6C84.6 120.5 84.6 120.5 84.5 120.4L84.4 120.3C84.3 120.2 84.3 120.2 84.2 120.1L84.1 120C84 119.9 84 119.9 83.9 119.8L83.8 119.7C83.8 119.6 83.7 119.6 83.7 119.5C83.7 119.5 83.7 119.5 83.6 119.4C83.5 119.3 83.5 119.3 83.5 119.2C83.5 119.2 83.5 119.2 83.5 119.1C83.7 118.5 84.7 116.8 90.8 114.6C90.8 114.6 90.8 114.6 90.9 114.6C91.2 114.5 91.5 114.4 91.8 114.3C92.5 114.1 93.2 113.8 94 113.6C94.3 113.5 94.7 113.4 95 113.3C95.7 113.1 96.3 112.9 97.1 112.8H97.2C98.7 112.4 100.4 112 102.3 111.6C102.4 111.6 102.5 111.6 102.6 111.5C103.3 111.4 103.9 111.2 104.6 111.1C105.7 111.6 107 111.8 108.3 111.8C110.7 111.8 113 110.9 114.7 109.4C114.9 109.4 115.1 109.3 115.3 109.3C126.6 107.6 140 106.4 154.5 105.6C155.4 105.6 156.2 105.5 157.1 105.5C161.4 105.3 165.8 105.1 170.3 104.9C175.9 104.7 181.6 104.6 187.5 104.5C189.2 107.1 192.2 108.8 195.5 108.8C198.8 108.8 201.8 107.1 203.5 104.5C230.6 104.8 255.8 106.5 275.1 109.3C275.3 109.3 275.5 109.4 275.7 109.4C277.4 110.9 279.6 111.8 282.1 111.8C283.4 111.8 284.6 111.5 285.8 111.1C286.5 111.2 287.3 111.4 288 111.5C288 111.5 288 111.5 288.1 111.5C289.8 111.8 291.3 112.2 292.7 112.5C293 112.6 293.3 112.7 293.7 112.7C294 112.8 294.3 112.9 294.6 112.9C295.6 113.2 296.5 113.4 297.4 113.7H297.5C305.6 116.2 306.9 118.3 307 118.9C307 119 306.9 119 306.9 119.1C306.9 119.1 306.9 119.2 306.8 119.2L306.7 119.3L306.6 119.4L306.5 119.5L306.4 119.6C306.3 119.6 306.3 119.7 306.2 119.7C306.2 119.7 306.1 119.8 306 119.8C305.9 119.9 305.9 119.9 305.8 120C305.7 120 305.7 120.1 305.6 120.1C305.5 120.2 305.5 120.2 305.4 120.3C305.3 120.3 305.3 120.4 305.2 120.4C305.1 120.5 305 120.5 305 120.6C304.9 120.6 304.8 120.7 304.8 120.7C304.7 120.8 304.6 120.8 304.5 120.9C304.4 121 304.3 121 304.3 121.1C304.2 121.2 304.1 121.2 304 121.3C303.9 121.4 303.8 121.4 303.7 121.5C303.6 121.6 303.5 121.6 303.4 121.7C303.3 121.8 303.2 121.8 303.1 121.9C303 122 302.9 122 302.8 122.1C302.7 122.2 302.6 122.2 302.5 122.3C302.4 122.4 302.3 122.4 302.2 122.5C302.1 122.6 302 122.6 301.9 122.7C301.8 122.8 301.7 122.8 301.5 122.9C301.4 123 301.3 123 301.2 123.1C301.1 123.2 300.9 123.2 300.8 123.3C300.7 123.4 300.6 123.4 300.4 123.5C300.3 123.6 300.1 123.6 300 123.7C299.9 123.8 299.7 123.8 299.6 123.9C299.5 124 299.3 124 299.2 124.1C299.1 124.2 298.9 124.2 298.8 124.3C298.7 124.4 298.5 124.4 298.4 124.5C298.3 124.6 298.1 124.6 298 124.7C297.8 124.8 297.7 124.8 297.5 124.9C297.4 125 297.2 125 297.1 125.1C296.9 125.2 296.8 125.2 296.6 125.3C296.5 125.4 296.3 125.4 296.2 125.5C296 125.6 295.9 125.6 295.7 125.7C295.6 125.8 295.4 125.8 295.3 125.9C295.1 126 295 126 294.8 126.1C294.7 126.2 294.5 126.2 294.4 126.3C294.2 126.4 294 126.4 293.9 126.5C293.8 126.6 293.6 126.6 293.5 126.7C293.3 126.8 293.1 126.8 293 126.9C292.8 126.9 292.7 127 292.5 127C291.6 127.5 291.4 127.5 291.2 127.6ZM274.9 103.4V103C275.1 102.9 275.4 102.9 275.7 102.8V103.2C275.9 106.2 277.9 108.8 280.5 109.7C277.4 109.1 275.1 106.5 274.9 103.4ZM289 103.1L288.9 103.5C288.6 107 285.6 109.8 282 109.9C283.3 109.9 284.5 109.2 285.4 108.1C284.7 108.1 284.1 107.5 284.1 106.7C284.1 105.9 284.7 105.3 285.5 105.3C286 105.3 286.4 105.6 286.7 105.9C287 105.1 287.2 104.3 287.3 103.4L287.4 102.6C287.9 102.8 288.5 102.9 289 103.1ZM202.3 100.1L202.2 100.5C201.9 104 198.9 106.8 195.3 106.9C196.6 106.9 197.8 106.2 198.7 105.1C198 105.1 197.4 104.5 197.4 103.7C197.4 102.9 198 102.3 198.8 102.3C199.3 102.3 199.7 102.6 200 102.9C200.3 102.1 200.5 101.3 200.6 100.4L200.7 99.6C201.3 99.9 201.8 100 202.3 100.1ZM189 99.8V100.2C189.2 103.2 191.2 105.8 193.8 106.7C190.8 106 188.5 103.5 188.3 100.4V100C188.5 99.9 188.7 99.9 189 99.8ZM101.1 103.5L101 103.1C101.5 103 102.1 102.8 102.7 102.7L102.8 103.5C102.9 104.4 103.1 105.2 103.4 106C103.6 105.6 104.1 105.4 104.6 105.4C105.4 105.4 106 106 106 106.8C106 107.5 105.4 108.1 104.7 108.2C105.6 109.3 106.8 109.9 108.1 110C104.4 109.8 101.4 107 101.1 103.5ZM115.1 102.9V103.3C114.8 106.4 112.6 109 109.6 109.6C112.2 108.7 114.1 106.1 114.4 103.1V102.7C114.6 102.8 114.9 102.9 115.1 102.9ZM286.2 97.2C287.8 97.5 289.4 97.8 290.9 98.4C291.7 98.7 292.4 99.1 293.1 99.5C293.8 100 294.5 100.5 295 101.3C295.2 101.7 295.4 102.2 295.3 102.7C295.3 103.2 295.1 103.6 294.8 104C294.3 104.7 293.5 105.1 292.8 105.4C293.4 104.9 294 104.3 294.3 103.7C294.4 103.4 294.5 103 294.5 102.7C294.5 102.4 294.3 102.1 294.1 101.9C293.7 101.4 293.1 101 292.4 100.7C291.7 100.4 291 100.1 290.3 99.9C287.4 99.1 284.3 98.9 281.2 98.9C278.1 98.9 275 99.2 272.2 100.1C271.5 100.3 270.8 100.6 270.2 101C269.6 101.4 269 101.8 268.8 102.4C268.7 102.7 268.6 103 268.7 103.3C268.8 103.6 268.9 103.9 269.2 104.2C269.7 104.8 270.3 105.3 270.9 105.7C270.2 105.4 269.4 105.1 268.8 104.5C268.5 104.2 268.2 103.9 268 103.4C267.8 103 267.8 102.5 267.9 102C268 101.5 268.3 101.1 268.5 100.8C268.8 100.5 269.1 100.2 269.5 99.9C270.2 99.4 270.9 99 271.7 98.7C273.2 98 274.8 97.6 276.4 97.3C278 97 279.6 96.9 281.2 96.8C282.9 96.8 284.6 96.9 286.2 97.2ZM121.9 103.5C121.7 103.9 121.4 104.3 121.1 104.6C120.5 105.2 119.7 105.5 119 105.8C119.7 105.4 120.3 104.9 120.7 104.3C120.9 104 121.1 103.7 121.2 103.4C121.3 103.1 121.2 102.8 121.1 102.5C120.9 101.9 120.3 101.5 119.7 101.1C119.1 100.7 118.4 100.5 117.7 100.2C114.8 99.3 111.7 99 108.7 99C105.6 99 102.5 99.2 99.6 100C98.9 100.2 98.2 100.5 97.5 100.8C96.8 101.1 96.2 101.5 95.8 102C95.6 102.3 95.5 102.5 95.4 102.8C95.4 103.1 95.4 103.4 95.6 103.8C95.9 104.4 96.5 105 97.1 105.5C96.4 105.2 95.6 104.8 95.1 104.1C94.8 103.8 94.6 103.3 94.6 102.8C94.6 102.3 94.7 101.8 94.9 101.4C95.4 100.6 96.1 100 96.8 99.6C97.5 99.1 98.3 98.8 99 98.5C100.5 97.9 102.1 97.5 103.7 97.3C105.3 97 106.9 96.9 108.5 97C110.1 97 111.7 97.2 113.3 97.5C114.9 97.8 116.5 98.2 118 98.9C118.8 99.2 119.5 99.6 120.2 100.1C120.5 100.4 120.9 100.7 121.2 101C121.5 101.3 121.7 101.8 121.8 102.2C122.1 102.5 122.1 103 121.9 103.5ZM87.4 135.3C85.5 135.3 84 133.8 83.8 132V131.8C84.1 131.7 84.4 131.7 84.7 131.6V132C84.7 132.5 84.8 132.9 85 133.3C85.1 133.1 85.3 133 85.6 133C86 133 86.3 133.3 86.3 133.7C86.3 134.1 86 134.4 85.6 134.4C86.1 135 86.7 135.3 87.4 135.3ZM90.7 131.9V131.7C90.8 131.7 91 131.8 91.1 131.8V132C91 133.6 89.8 134.9 88.2 135.3C89.6 134.8 90.6 133.4 90.7 131.9ZM304 135.3C302.1 135.3 300.6 133.8 300.4 132V131.8C300.7 131.7 301 131.7 301.3 131.6V132C301.3 132.5 301.4 132.9 301.6 133.3C301.7 133.1 301.9 133 302.2 133C302.6 133 302.9 133.3 302.9 133.7C302.9 134.1 302.6 134.4 302.2 134.4C302.7 135 303.3 135.3 304 135.3ZM307.3 131.9V131.7C307.4 131.7 307.6 131.8 307.7 131.8V132C307.6 133.6 306.4 134.9 304.8 135.3C306.2 134.8 307.2 133.4 307.3 131.9ZM258.6 43.9C257.7 43.1 256.8 42.3 255.9 41.5C255 40.7 254 40 252.9 39.4C254 39.8 255.1 40.5 256.1 41.1C257.1 41.8 258.1 42.5 259.1 43.2C259.8 43.7 260.5 44.2 261.1 44.8C260.4 44.7 259.8 44.5 259.1 44.4C259 44.3 258.8 44.1 258.6 43.9ZM265 45.6C264.3 44.6 263.6 43.8 262.7 43C261.7 42 260.5 41.1 259.3 40.3C258 39.5 256.7 38.9 255.2 38.3C252.3 37.1 249.2 36.3 245.9 35.6C245.5 35.5 245.1 35.5 244.8 35.4C245.5 36 246.1 36.5 246.7 37.1C247.8 38.1 248.9 39.2 249.9 40.3C250.9 41.3 251.8 42.4 252.7 43.4H252.6C251.6 42.5 250.5 41.6 249.4 40.8C248.2 39.9 247 39.1 245.8 38.2C243.6 36.7 241.3 35.4 239 34.3C238 34.2 237 34 236 33.9C235.6 33.9 235.3 33.8 234.9 33.8C239 35.9 243.2 39.3 246.5 42.4C243.8 42 241.1 41.7 238.4 41.4C236 38.3 232.6 35.3 229.5 33.3C228.3 33.2 227.1 33.1 225.9 33C222.5 32.8 219.1 32.6 215.6 32.5C214.1 32.4 212.6 32.4 211.1 32.4C210.8 32.4 210.4 32.4 210.1 32.4C208.5 32.4 206.9 32.4 205.2 32.5C203.6 32.5 202 32.6 200.3 32.7C201.9 32.8 203.5 32.9 205.1 33.1C206.7 33.3 208.3 33.5 209.9 33.7C212.7 34.1 215.5 34.5 218.3 34.9C218.3 34.9 218.3 34.9 218.4 35H212C208.8 35 205.5 35 202.3 35.1C205.5 35.4 208.7 35.9 211.9 36.3L220.8 37.5H214C210.8 37.5 207.5 37.5 204.3 37.4C207.5 37.9 210.7 38.3 213.9 38.8L223.2 40C217.5 39.6 211.6 39.3 205.8 39.1C205.5 39.1 205.3 39.1 205 39.1C204.3 39.1 203.7 39.1 203 39.1C202.2 39.1 201.3 39.1 200.5 39.1C200 39.1 199.5 39.1 199 39.1C197.6 39.1 196.2 39.1 194.8 39.1C193.4 39.1 192 39.1 190.6 39.1C190.1 39.1 189.6 39.1 189.1 39.1C188.3 39.1 187.4 39.1 186.6 39.1C185.9 39.1 185.3 39.1 184.6 39.1C184.3 39.1 184.1 39.1 183.8 39.1C173.4 39.4 163.2 40.1 153.3 41.2V41.1C155.1 40.7 157 40.3 158.8 39.9C160.8 39.5 162.8 39 164.7 38.5C162.7 38.6 160.6 38.6 158.6 38.6C157.2 38.6 155.8 38.6 154.4 38.6C156.3 38.2 158.1 37.8 160 37.4C162 37 164 36.6 166 36.2C164 36.1 161.9 36.1 159.9 36.1C158.5 36.1 157.2 36.1 155.8 36.1C157.6 35.6 159.5 35.2 161.3 34.8C162.3 34.6 163.3 34.4 164.3 34.2C165.3 34 166.3 33.9 167.3 33.8C166.3 33.7 165.3 33.6 164.3 33.6C163.3 33.6 162.3 33.6 161.2 33.6C160.1 33.6 159 33.6 157.9 33.6C156.6 33.7 155.2 33.9 153.9 34C151.4 35.7 149.4 38.6 148.1 41.9C145.7 42.2 143.3 42.5 140.9 42.9C141.6 39.8 144.3 37 147 35C145.9 35.2 144.9 35.4 143.8 35.6C140.6 36.3 137.4 37.2 134.5 38.3C133.1 38.9 131.7 39.6 130.4 40.3C129.1 41.1 128 42 127 43C126.2 43.8 125.4 44.7 124.7 45.6C123.7 45.8 122.7 46 121.7 46.2C124.7 41.3 128.4 37.9 136 35.4C136.3 35.3 136.7 35.2 137 35.1C137.1 35.1 137.2 35 137.3 35C137.6 34.9 137.8 34.8 138.1 34.8C138.2 34.8 138.3 34.7 138.4 34.7C138.7 34.6 138.9 34.6 139.2 34.5C139.3 34.5 139.4 34.4 139.5 34.4C139.8 34.3 140.1 34.3 140.3 34.2C140.4 34.2 140.5 34.2 140.6 34.1C140.9 34 141.2 33.9 141.5 33.9C141.6 33.9 141.6 33.9 141.7 33.9C142.1 33.8 142.4 33.7 142.8 33.7H142.9C143.3 33.6 143.7 33.5 144.1 33.4C153.9 31.5 167.5 30.4 186.4 30.2C186.5 30.2 186.5 30.2 186.6 30.2C187.4 30.2 188.1 30.2 188.9 30.2C189 30.2 189.1 30.2 189.2 30.2C189.9 30.2 190.7 30.2 191.4 30.2C191.6 30.2 191.7 30.2 191.9 30.2C192.8 30.2 193.7 30.2 194.6 30.2C195.5 30.2 196.4 30.2 197.3 30.2C197.5 30.2 197.6 30.2 197.8 30.2C198.5 30.2 199.3 30.2 200 30.2C200.1 30.2 200.2 30.2 200.3 30.2C201.1 30.2 201.8 30.2 202.6 30.2C202.7 30.2 202.7 30.2 202.8 30.2C221.7 30.4 235.3 31.4 245.1 33.4C245.5 33.5 245.9 33.6 246.3 33.7H246.4C246.8 33.8 247.1 33.9 247.5 33.9C247.6 33.9 247.6 33.9 247.7 33.9C248 34 248.3 34.1 248.6 34.1C248.7 34.1 248.8 34.1 248.9 34.2C249.2 34.3 249.5 34.3 249.7 34.4C249.8 34.4 249.9 34.5 250 34.5C250.3 34.6 250.5 34.6 250.8 34.7C250.9 34.7 251 34.8 251.2 34.8C251.5 34.9 251.7 35 252 35C252.1 35 252.2 35.1 252.3 35.1C252.6 35.2 253 35.3 253.3 35.4C260.9 38 264.6 41.3 267.6 46.2C267 46 266 45.8 265 45.6ZM238.4 27.8C237.8 27.3 237.1 26.8 236.4 26.3C235.7 25.8 235 25.3 234.3 24.9C235.1 25.2 235.8 25.6 236.6 25.9C237.4 26.3 238.1 26.7 238.8 27.1C239.5 27.5 240.3 28 241 28.5C241.3 28.7 241.5 28.9 241.8 29.1C241 29 240.2 28.9 239.4 28.7C239.1 28.4 238.8 28.1 238.4 27.8ZM250.5 30.8C249.4 30.5 248.2 30.2 247 30C246.9 29.9 246.9 29.9 246.8 29.8C245.2 28.2 243.4 26.9 241.3 25.8C239.2 24.7 236.8 23.9 234.4 23.3C232 22.6 229.4 22.1 226.8 21.7C226 21.6 225.2 21.5 224.4 21.4C225 21.9 225.5 22.4 226.1 22.9C226.9 23.6 227.7 24.4 228.5 25.2C229.3 26 230 26.8 230.7 27.7C229.9 27 229 26.3 228.2 25.7C227.3 25.1 226.4 24.4 225.5 23.8C223.9 22.8 222.2 21.8 220.5 21C220 20.9 219.5 20.9 219 20.8C218.4 20.7 217.7 20.7 217.1 20.6C220.2 22.4 223.2 25.2 225.2 27.3C223.4 27.2 221.5 27.1 219.5 27C218.2 24.6 215.7 22.1 213.3 20.4C212.5 20.4 211.7 20.3 210.9 20.3C207.2 20.1 203.6 20 199.9 20C199 20 198.2 20 197.3 20C195.7 20 194.1 20 192.4 20.1C190.8 20.1 189.2 20.2 187.5 20.3C189.1 20.4 190.7 20.5 192.3 20.7C193.9 20.9 195.5 21.1 197.1 21.3C199.5 21.6 202 21.9 204.4 22.3H199.1C195.9 22.3 192.6 22.4 189.4 22.5C192.6 22.8 195.8 23.2 199 23.6L206.2 24.5L191.4 24.6L207.6 26.7C207.3 26.7 207 26.7 206.7 26.7C206.5 26.7 206.3 26.7 206.1 26.7C205.6 26.7 205 26.7 204.5 26.7C204.2 26.7 203.9 26.7 203.6 26.7C203.1 26.7 202.6 26.7 202.2 26.7C201.8 26.7 201.4 26.7 201 26.7C200.6 26.7 200.2 26.7 199.7 26.7C199.2 26.7 198.7 26.7 198.2 26.7C197.9 26.7 197.5 26.7 197.2 26.7C196.3 26.7 195.5 26.7 194.6 26.7C193.7 26.7 192.9 26.7 192 26.7C191.7 26.7 191.3 26.7 191 26.7C190.5 26.7 190 26.7 189.5 26.7C189.1 26.7 188.7 26.7 188.2 26.7C187.8 26.7 187.4 26.7 187 26.7C186.5 26.7 186 26.7 185.6 26.7C185.3 26.7 185 26.7 184.7 26.7C184.2 26.7 183.6 26.7 183.1 26.7C182.9 26.7 182.7 26.7 182.5 26.7C181.9 26.7 181.3 26.7 180.7 26.7C180.6 26.7 180.5 26.7 180.4 26.7C174.7 26.8 169.6 27 164.9 27.3L168.5 26.6C170.5 26.2 172.5 25.8 174.5 25.4C172.5 25.4 170.5 25.4 168.4 25.3L166.2 25.2L169.8 24.5C171.8 24.1 173.8 23.7 175.8 23.4C173.8 23.3 171.7 23.2 169.7 23.2H167.5C168.7 22.9 169.9 22.7 171.1 22.5C172.1 22.3 173.1 22.1 174.1 22C175.1 21.8 176.1 21.7 177.1 21.6C176.1 21.5 175.1 21.4 174.1 21.4C173.1 21.4 172.1 21.3 171 21.3C169.8 21.3 168.7 21.3 167.5 21.3C166.1 21.5 164.7 21.6 163.3 21.9C161.7 23.4 160.1 25.8 159.2 27.9C157.9 28 156.6 28.1 155.4 28.3C155.9 25.9 157.5 24.1 159.2 22.6C157.9 22.9 156.6 23.2 155.3 23.5C152.9 24.2 150.5 25 148.4 26C146.3 27 144.4 28.4 142.9 30C142.8 30.1 142.8 30.1 142.7 30.2C141.5 30.5 140.3 30.7 139.2 31C141.4 28 144.3 25.3 149.4 23.2L150.6 22.8C155.8 20.8 162.8 19.5 172.2 18.7H172.3C172.7 18.7 173.1 18.6 173.6 18.6C173.7 18.6 173.8 18.6 173.9 18.6C174.3 18.6 174.6 18.5 175 18.5C175.1 18.5 175.3 18.5 175.4 18.5C175.7 18.5 176.1 18.5 176.4 18.4C176.6 18.4 176.8 18.4 177 18.4C177.2 18.4 177.3 18.4 177.5 18.4C178.2 18.4 178.9 18.3 179.6 18.3C179.7 18.3 179.9 18.3 180 18.3C180.4 18.3 180.7 18.3 181.1 18.3C181.3 18.3 181.4 18.3 181.6 18.3C182 18.3 182.3 18.3 182.7 18.3C182.9 18.3 183.1 18.3 183.2 18.3C183.6 18.3 183.9 18.3 184.3 18.3C184.5 18.3 184.7 18.3 184.9 18.3C185.3 18.3 185.6 18.3 186 18.3C186.2 18.3 186.4 18.3 186.7 18.3C187 18.3 187.4 18.3 187.7 18.3C187.9 18.3 188.2 18.3 188.4 18.3C188.7 18.3 189.1 18.3 189.4 18.3C189.7 18.3 190 18.3 190.3 18.3C190.6 18.3 190.9 18.3 191.2 18.3C191.6 18.3 192 18.3 192.3 18.3C192.5 18.3 192.8 18.3 193 18.3C193.6 18.3 194.3 18.3 194.9 18.3C195.5 18.3 196.2 18.3 196.8 18.3C197 18.3 197.3 18.3 197.5 18.3C197.9 18.3 198.3 18.3 198.6 18.3C198.9 18.3 199.2 18.3 199.5 18.3C199.8 18.3 200.1 18.3 200.4 18.3C200.7 18.3 201.1 18.3 201.4 18.3C201.6 18.3 201.9 18.3 202.1 18.3C202.4 18.3 202.8 18.3 203.1 18.3C203.3 18.3 203.5 18.3 203.8 18.3C204.2 18.3 204.5 18.3 204.9 18.3C205.1 18.3 205.3 18.3 205.5 18.3C205.9 18.3 206.2 18.3 206.6 18.3C206.8 18.3 207 18.3 207.1 18.3C207.5 18.3 207.8 18.3 208.2 18.3C208.4 18.3 208.5 18.3 208.7 18.3C209.1 18.3 209.4 18.3 209.8 18.3C209.9 18.3 210 18.3 210.2 18.3C210.9 18.3 211.7 18.4 212.4 18.4C212.5 18.4 212.7 18.4 212.8 18.4C213 18.4 213.2 18.4 213.4 18.4C213.7 18.4 214 18.4 214.4 18.5C214.5 18.5 214.7 18.5 214.8 18.5C215.2 18.5 215.5 18.5 215.9 18.6C216 18.6 216.1 18.6 216.2 18.6C216.6 18.6 217 18.7 217.5 18.7H217.6C226.9 19.5 234 20.8 239.2 22.8L240.4 23.2C245.4 25.1 248.3 27.8 250.5 30.8ZM232.1 16.9C230.9 15.5 229.2 13.8 226.9 12.1C224 10.5 220.5 9.1 216.4 8.1C217.2 8.9 217.7 9.89999 217.5 10.9C217.2 12.7 214.9 13.8 212.5 13.3C210.1 12.8 208.4 11 208.7 9.2C208.9 8.1 209.8 7.29999 211 6.89999C206.7 6.19999 201.9 5.8 196.7 5.7C187.4 7.4 186.5 11.3 187.3 14.3C182.4 14.4 178.1 14.6 174.1 14.9C174.9 10.3 178 7.2 178 7.2C178 7.2 178 7.2 177.9 7.2C176.6 7.4 175.4 7.7 174.2 8C172.2 9.6 169.9 12.9 169 15.3C168.1 15.4 167.3 15.5 166.4 15.6C166.9 13.5 168.6 11.1 170.6 9C164.5 10.9 159.8 13.7 156.9 17.2C155.7 17.5 154.6 17.7 153.6 18C159.3 8.9 174.4 3.6 195 3.6C215.7 3.6 230.7 8.9 236.4 18C235.1 17.6 233.6 17.3 232.1 16.9ZM121.8 148.2C121.8 147.6 122.2 146.3 125.1 144.7C130.9 141.7 144.5 138.9 169 137.7C169.3 137.7 169.6 137.7 169.9 137.7C170.1 137.7 170.3 137.7 170.5 137.7C171 137.7 171.5 137.7 172 137.6C176.6 137.4 181.6 137.3 186.7 137.2C186.8 137.2 186.9 137.2 187 137.2C187.5 137.2 188 137.2 188.5 137.2C188.7 137.2 189 137.2 189.2 137.2C189.6 137.2 190.1 137.2 190.5 137.2C190.9 137.2 191.2 137.2 191.6 137.2C191.9 137.2 192.3 137.2 192.6 137.2C193.3 137.2 194 137.2 194.8 137.2C195.6 137.2 196.3 137.2 197 137.2C197.3 137.2 197.7 137.2 198 137.2C198.4 137.2 198.7 137.2 199.1 137.2C199.5 137.2 200 137.2 200.4 137.2C200.6 137.2 200.9 137.2 201.1 137.2C201.6 137.2 202.1 137.2 202.6 137.2C202.7 137.2 202.8 137.2 202.9 137.2C208 137.3 212.9 137.4 217.6 137.6C218.1 137.6 218.6 137.6 219.1 137.7C219.3 137.7 219.5 137.7 219.7 137.7C220 137.7 220.3 137.7 220.7 137.7C245.2 138.9 258.8 141.7 264.6 144.7C267.5 146.3 267.9 147.6 267.9 148.2C267.9 160.2 244.7 165.8 194.7 165.8C145.8 165.8 121.8 160.1 121.8 148.2Z" fill="#939597"/>
</svg>
